<?xml version="1.0" standalone="no"?>
<!DOCTYPE svg PUBLIC "-//W3C//DTD SVG 1.1//EN" "http://www.w3.org/Graphics/SVG/1.1/DTD/svg11.dtd" >
<svg xmlns="http://www.w3.org/2000/svg" xmlns:xlink="http://www.w3.org/1999/xlink" version="1.1">
<metadata>
Created by FontForge 20170731 at Thu Oct  8 11:04:19 2020
 By Aleksey,,,
Copyright (C) 2006, 2009 Hoefler &#38; Co. http://www.typography.com
</metadata>
<defs>
<font id="Vitesse-Book" horiz-adv-x="1024" >
  <font-face 
    font-family="Vitesse Book"
    font-weight="325"
    font-stretch="normal"
    units-per-em="2048"
    panose-1="0 0 0 0 0 0 0 0 0 0"
    ascent="1638"
    descent="-410"
    x-height="1096"
    cap-height="1434"
    bbox="-74 -618 2073 2107"
    underline-thickness="102"
    underline-position="-307"
    unicode-range="U+0020-FB04"
  />
<missing-glyph horiz-adv-x="1015" 
d="M-4 -410v2048h1024v-2048h-1024zM141 1536l367 -799l366 799h-733zM98 -156l353 770l-353 770v-1540zM918 1384l-353 -770l353 -770v1540zM508 492l-367 -799h733z" />
    <glyph glyph-name="f_f" unicode="ff" horiz-adv-x="1425" 
d="M670 1346h-146q-57 0 -80 -23q-26 -23 -26 -145v-82h233v-131h-231v-836h184v-129h-512v129h180v836h-180v131h180v86q0 100 13 153.5t43 83.5q31 31 66 43.5t100 12.5h176v-129zM1380 1346h-145q-57 0 -80 -23q-27 -24 -27 -145v-82h234v-131h-232v-836h185v-129h-512
v129h180v836h-180v131h180v86q0 100 12.5 153.5t42.5 83.5q31 31 66 43.5t100 12.5h176v-129z" />
    <glyph glyph-name="fi" unicode="fi" horiz-adv-x="1396" 
d="M981 1286v197h176v-197h-176zM1327 0h-508v129h185v836h-185v131h332v-967h176v-129zM670 1346h-146q-57 0 -80 -23q-26 -23 -26 -145v-82h233v-131h-231v-836h184v-129h-512v129h180v836h-180v131h180v86q0 100 13 153.5t43 83.5q31 31 66 43.5t100 12.5h176v-129z" />
    <glyph glyph-name="fl" unicode="fl" horiz-adv-x="1376" 
d="M1311 0h-512v129h186v1214h-186v132h331v-1346h181v-129zM670 1346h-146q-57 0 -80 -23q-26 -23 -26 -145v-82h233v-131h-231v-836h184v-129h-512v129h180v836h-180v131h180v86q0 100 13 153.5t43 83.5q31 31 66 43.5t100 12.5h176v-129z" />
    <glyph glyph-name="f_f_i" unicode="ffi" horiz-adv-x="2107" 
d="M1694 1286v197h176v-197h-176zM2040 0h-508v129h184v836h-184v131h332v-967h176v-129zM670 1346h-146q-57 0 -80 -23q-26 -23 -26 -145v-82h233v-131h-231v-836h184v-129h-512v129h180v836h-180v131h180v86q0 100 13 153.5t43 83.5q31 31 66 43.5t100 12.5h176v-129z
M1380 1346h-145q-57 0 -80 -23q-27 -24 -27 -145v-82h234v-131h-232v-836h185v-129h-512v129h180v836h-180v131h180v86q0 100 12.5 153.5t42.5 83.5q31 31 66 43.5t100 12.5h176v-129z" />
    <glyph glyph-name="f_f_l" unicode="ffl" horiz-adv-x="2088" 
d="M2023 0h-512v129h187v1214h-187v132h332v-1346h180v-129zM670 1346h-146q-57 0 -80 -23q-26 -23 -26 -145v-82h233v-131h-231v-836h184v-129h-512v129h180v836h-180v131h180v86q0 100 13 153.5t43 83.5q31 31 66 43.5t100 12.5h176v-129zM1380 1346h-145q-57 0 -80 -23
q-27 -24 -27 -145v-82h234v-131h-232v-836h185v-129h-512v129h180v836h-180v131h180v86q0 100 12.5 153.5t42.5 83.5q31 31 66 43.5t100 12.5h176v-129z" />
    <glyph glyph-name=".notdef" horiz-adv-x="1015" 
d="M-4 -410v2048h1024v-2048h-1024zM141 1536l367 -799l366 799h-733zM98 -156l353 770l-353 770v-1540zM918 1384l-353 -770l353 -770v1540zM508 492l-367 -799h733z" />
    <glyph glyph-name=".null" horiz-adv-x="0" 
 />
    <glyph glyph-name="nonmarkingreturn" horiz-adv-x="682" 
 />
    <glyph glyph-name="space" unicode=" " horiz-adv-x="524" 
 />
    <glyph glyph-name="exclam" unicode="!" horiz-adv-x="581" 
d="M334 410h-70l-69 948v76h194v-76zM199 207h184v-207h-184v207z" />
    <glyph glyph-name="quotedbl" unicode="&#x22;" horiz-adv-x="815" 
d="M180 907l-61 488v39h207v-39l-62 -488h-84zM551 907l-62 488v39h207v-39l-61 -488h-84z" />
    <glyph glyph-name="numbersign" unicode="#" horiz-adv-x="1540" 
d="M221 1073h281l88 361h145l-88 -361h408l88 361h145l-88 -361h252v-133h-283l-100 -414h250v-133h-283l-94 -393h-145l96 393h-408l-96 -393h-145l94 393h-250v133h283l100 414h-250v133zM610 946l-100 -426h418l102 426h-420z" />
    <glyph glyph-name="dollar" unicode="$" horiz-adv-x="1357" 
d="M743 -184h-133v184h-161q-159 0 -220 61q-41 41 -56.5 112.5t-18.5 258.5h157q1 -142 9.5 -191.5t29.5 -70.5q17 -19 43 -26t76 -7h145v518l-161 17q-86 8 -134.5 23.5t-78.5 45.5q-37 39 -51.5 103t-14.5 200q0 133 18.5 207t63.5 119q64 64 215 64h139v163h133v-163
h136q155 0 215 -60q44 -44 59 -112.5t18 -249.5h-155q-1 133 -9.5 182.5t-29.5 69.5q-15 18 -39.5 25t-73.5 7h-125v-503l181 -17q155 -14 208 -67q39 -39 54.5 -106.5t15.5 -207.5q0 -141 -18.5 -214t-63.5 -118q-63 -63 -211 -63h-162v-184zM879 631l-140 12v-506h148
q49 0 73 7.5t44 25.5q38 38 38 223q0 101 -6.5 138.5t-29.5 60.5q-17 17 -43 25t-84 14zM367 854q18 -15 44 -23t83 -14l120 -12v491h-129q-49 0 -72.5 -7t-43.5 -25q-39 -39 -39 -217q0 -95 7.5 -133t29.5 -60z" />
    <glyph glyph-name="percent" unicode="%" horiz-adv-x="1716" 
d="M455 819q57 0 82 25q34 31 34 227t-34 227q-25 25 -82 25h-70q-56 0 -84 -25q-33 -33 -33 -227t33 -227q28 -25 84 -25h70zM696 1071q0 -146 -16.5 -212t-52.5 -101q-52 -49 -156 -49h-102q-107 0 -156 49q-38 35 -55 101t-17 212t17 212t55 101q50 50 156 50h102
q103 0 156 -50q36 -35 52.5 -101t16.5 -212zM430 -6h-129l518 756l467 690h131l-516 -752zM1264 111h69q57 0 84 24q33 33 33 227q0 195 -33 228q-27 24 -84 24h-69q-58 0 -82 -24q-35 -32 -35 -228t35 -227q24 -24 82 -24zM1577 362q0 -146 -17 -212t-55 -101
q-49 -49 -155 -49h-103q-106 0 -155 49q-37 35 -54.5 102t-17.5 211t17.5 211.5t54.5 102.5q49 49 155 49h103q106 0 155 -49q38 -35 55 -101.5t17 -212.5z" />
    <glyph glyph-name="ampersand" unicode="&#x26;" horiz-adv-x="1474" 
d="M674 1434h131q147 0 203 -56q41 -41 56 -113t15 -229h-153q0 123 -7.5 170.5t-27.5 65.5q-24 28 -111 28h-94q-54 0 -81 -6.5t-44 -23.5q-19 -20 -25 -66t-6 -164q0 -98 23 -157q20 -47 84 -117l248 -287h14l207 340h237v-139h-151l-205 -313l205 -228h164v-139h-248
l-199 227h-12l-68 -104q-47 -70 -95 -97.5t-132 -27.5h-147q-95 0 -150.5 15t-93.5 53q-45 47 -62.5 123.5t-17.5 226.5q0 158 12.5 219t55.5 104q57 57 204 74l15 2q-45 77 -45 227q0 152 14 220.5t55 109.5q34 34 87 48t145 14zM571 131q59 0 88.5 15.5t61.5 62.5l90 133
q-68 80 -190.5 216.5t-128.5 143.5l-64 -14q-79 -13 -109 -47q-19 -20 -26.5 -65t-7.5 -160q0 -118 10 -169.5t37 -78.5q19 -21 52.5 -29t102.5 -8h84z" />
    <glyph glyph-name="quotesingle" unicode="'" horiz-adv-x="444" 
d="M180 907l-61 488v39h207v-39l-62 -488h-84z" />
    <glyph glyph-name="parenleft" unicode="(" horiz-adv-x="790" 
d="M201 563q0 314 16 428q12 73 73 174t204 289h114q-116 -197 -164.5 -292t-58.5 -150q-20 -117 -20 -449q0 -331 20 -448q10 -56 59 -151.5t164 -291.5h-114q-143 188 -204 289t-73 174q-16 114 -16 428z" />
    <glyph glyph-name="parenright" unicode=")" horiz-adv-x="790" 
d="M590 563q0 -320 -19 -428q-10 -73 -70.5 -173t-203.5 -290h-117q114 191 163.5 288.5t59.5 154.5q23 115 23 448q0 334 -23 449q-10 57 -59 153.5t-164 288.5h117q143 -190 203.5 -290t70.5 -173q19 -108 19 -428z" />
    <glyph glyph-name="asterisk" unicode="*" horiz-adv-x="974" 
d="M252 807l162 213l55 -31l-104 -246zM129 1149l266 -33v-61l-266 -33v127zM252 1364l113 63l104 -245l-55 -31zM723 807l-111 -64l-104 246l53 31zM846 1149v-127l-266 33v61zM723 1364l-162 -213l-53 31l104 245z" />
    <glyph glyph-name="plus" unicode="+" horiz-adv-x="1052" 
d="M594 1143v-332h332v-135h-332v-332h-135v332h-332v135h332v332h135z" />
    <glyph glyph-name="comma" unicode="," horiz-adv-x="438" 
d="M121 215h203v-207q0 -43 -9.5 -70.5t-35.5 -56.5l-170 -200l-58 45l139 200q15 25 15 58v16h-84v215z" />
    <glyph glyph-name="hyphen" unicode="-" horiz-adv-x="845" 
d="M713 575h-578v152h578v-152z" />
    <glyph glyph-name="period" unicode="." horiz-adv-x="432" 
d="M117 215h198v-215h-198v215z" />
    <glyph glyph-name="slash" unicode="/" horiz-adv-x="960" 
d="M76 -328h-150l836 1782h149z" />
    <glyph glyph-name="zero" unicode="0" horiz-adv-x="1400" 
d="M877 1434q99 0 154 -16t93 -54q41 -41 62.5 -100.5t33 -189t11.5 -357.5t-11.5 -357.5t-33 -189t-62.5 -100.5q-38 -38 -93 -54t-154 -16h-353q-100 0 -156 16.5t-92 53.5q-42 40 -63 100.5t-32 188.5t-11 358t11 358t32 188.5t63 100.5q36 37 92 53.5t156 16.5h353z
M391 178q19 -19 48.5 -28t95.5 -9h331q64 0 93.5 9t50.5 28q31 31 44 135.5t13 403.5q0 298 -13 402.5t-44 135.5q-21 19 -50.5 28t-93.5 9h-331q-66 0 -95.5 -9t-48.5 -28q-31 -31 -44 -135.5t-13 -402.5q0 -299 13 -403.5t44 -135.5z" />
    <glyph glyph-name="one" unicode="1" horiz-adv-x="954" 
d="M602 135h272v-135h-718v135h295v1153l-271 -98l-45 131l305 115h162v-1301z" />
    <glyph glyph-name="two" unicode="2" horiz-adv-x="1351" 
d="M1171 1081q0 -117 -13 -171t-50 -99q-46 -60 -197 -121l-440 -174q-80 -35 -115 -70q-25 -25 -36 -67t-11 -129v-113h733v309h150v-446h-1034v231q0 135 18 199.5t64 110.5q56 56 178 106l444 176q82 33 115 76q20 24 28.5 59t8.5 117q0 81 -9.5 122.5t-33.5 62.5
q-28 32 -119 32h-344q-84 0 -119 -35q-21 -21 -30.5 -69.5t-10.5 -175.5h-158q1 169 20 241.5t64 116.5q61 64 218 64h378q86 0 137.5 -15.5t86.5 -50.5q43 -43 60 -106t17 -181z" />
    <glyph glyph-name="three" unicode="3" horiz-adv-x="1325" 
d="M160 1014q5 152 23 232.5t65 127.5q60 60 215 60h403q145 0 205 -60q44 -44 65 -112.5t21 -194.5q0 -152 -46 -223t-142 -99v-2q110 -24 155 -97t45 -238q0 -153 -22 -229t-64 -118q-61 -61 -209 -61h-419q-155 0 -217 59q-47 48 -65.5 127.5t-22.5 259.5h157
q4 -133 15 -190t34 -80q18 -18 44.5 -25.5t80.5 -7.5h353q96 0 127 31q43 43 43 234q0 110 -12 160t-36 75q-35 35 -131 35h-321v133h309q96 0 131 35q47 47 47 209q0 156 -45 205q-34 30 -123 30h-329q-55 0 -81.5 -7t-45.5 -23q-22 -24 -34 -79t-16 -167h-157z" />
    <glyph glyph-name="four" unicode="4" horiz-adv-x="1366" 
d="M999 1434v-883h252v-125h-252v-295h252v-131h-676v131h275v295h-754v59q0 57 35 105l557 774q28 39 51 54.5t58 15.5h202zM850 551v758h-35l-547 -758h582z" />
    <glyph glyph-name="five" unicode="5" horiz-adv-x="1329" 
d="M838 141q86 0 123 37q25 25 36 83t11 183q0 123 -11.5 181t-35.5 82q-35 38 -132 38h-225q-78 0 -142.5 -21t-148.5 -77l-137 49l49 738h912v-144h-770l-35 -502h14q68 56 125 76.5t154 20.5h233q87 0 139.5 -15.5t87.5 -50.5q50 -50 68 -128t18 -247
q0 -166 -19.5 -246.5t-66.5 -127.5q-36 -36 -87 -53t-134 -17h-420q-155 0 -217 59q-43 43 -59.5 112.5t-17.5 242.5h159q1 -125 10.5 -173t28.5 -69q31 -31 119 -31h371z" />
    <glyph glyph-name="six" unicode="6" horiz-adv-x="1372" 
d="M1022 1036q-3 112 -11.5 156t-29.5 65q-35 35 -125 35h-317q-60 0 -89 -10.5t-49 -30.5q-35 -33 -51 -139t-16 -395v-6q94 70 143.5 92t118.5 22h305q93 0 147 -16t89 -51q44 -44 63 -115.5t19 -224.5q0 -143 -22.5 -219.5t-70.5 -124.5q-71 -74 -233 -74h-383
q-89 0 -141.5 17.5t-89.5 54.5q-41 43 -62.5 100t-34 187t-12.5 358q0 315 26.5 446.5t88.5 194.5q41 41 99.5 58.5t160.5 17.5h340q153 0 215 -62q44 -44 61.5 -113t20.5 -223h-160zM551 686q-54 0 -103 -16t-114 -52q1 -236 15 -321t46 -115q22 -22 52.5 -31.5t89.5 -9.5
h342q92 0 131 39q24 22 35.5 74t11.5 162q0 116 -9.5 162t-33.5 71q-40 37 -144 37h-319z" />
    <glyph glyph-name="seven" unicode="7" horiz-adv-x="1269" 
d="M530 0h-168l631 1300h-696v-299h-150v433h1022v-105z" />
    <glyph glyph-name="eight" unicode="8" horiz-adv-x="1347" 
d="M868 1434q156 0 226 -70q45 -45 65.5 -112t20.5 -191q0 -146 -46 -216t-139 -100v-2q106 -24 153.5 -103t47.5 -245q0 -132 -22 -204.5t-68 -118.5q-72 -72 -227 -72h-410q-155 0 -227 72q-46 46 -68 118.5t-22 204.5q0 167 47.5 245.5t152.5 102.5v2q-61 20 -99 52.5
t-61.5 98t-23.5 165.5q0 124 20.5 191t65.5 112q70 70 225 70h389zM381 1260q-24 -24 -36.5 -66.5t-12.5 -136.5q0 -162 49 -207q38 -41 137 -41h311q100 0 138 41q49 49 49 207q0 94 -12.5 136.5t-36.5 66.5q-31 36 -127 36h-332q-96 0 -127 -36zM369 639q-52 -49 -52 -238
q0 -109 12.5 -156.5t35.5 -70.5q20 -20 48 -28.5t81 -8.5h360q53 0 81 8.5t48 28.5q23 23 35 70.5t12 156.5q0 190 -51 238q-22 22 -51 31.5t-86 9.5h-338q-56 0 -84.5 -9.5t-50.5 -31.5z" />
    <glyph glyph-name="nine" unicode="9" horiz-adv-x="1372" 
d="M166 387h158q4 -109 12.5 -150t30.5 -61q20 -20 47 -27.5t75 -7.5h345q60 0 88 10t51 31q32 32 48 135t17 375q-93 -68 -142.5 -89t-119.5 -21h-287q-96 0 -156 16t-97 53q-45 45 -63.5 118t-18.5 232q0 153 22 232t70 127q71 74 233 74h383q89 0 142 -17.5t90 -54.5
q41 -42 62.5 -100t33.5 -187t12 -358q0 -315 -26.5 -446.5t-88.5 -194.5q-41 -41 -99.5 -58.5t-160.5 -17.5h-366q-151 0 -217 63q-43 42 -60 109.5t-18 214.5zM821 719q93 0 217 65q-1 254 -15 344.5t-46 122.5q-22 22 -52.5 31.5t-88.5 9.5h-340q-95 0 -134 -39
q-47 -47 -47 -249q0 -122 10 -170.5t35 -75.5q39 -39 150 -39h311z" />
    <glyph glyph-name="colon" unicode=":" horiz-adv-x="456" 
d="M145 215h197v-215h-197v215zM145 1096h197v-215h-197v215z" />
    <glyph glyph-name="semicolon" unicode=";" horiz-adv-x="444" 
d="M127 1096h197v-215h-197v215zM125 215h203v-207q0 -42 -10.5 -70t-36.5 -57l-170 -200l-58 45l140 200q16 26 16 58v16h-84v215z" />
    <glyph glyph-name="less" unicode="&#x3c;" horiz-adv-x="1036" 
d="M881 1034l-594 -293l594 -292v-154l-744 377v135l744 379v-152z" />
    <glyph glyph-name="equal" unicode="=" horiz-adv-x="1052" 
d="M139 858v146h774v-146h-774zM139 483v146h774v-146h-774z" />
    <glyph glyph-name="greater" unicode="&#x3e;" horiz-adv-x="1036" 
d="M156 295v149l594 293l-594 295v154l743 -379v-135z" />
    <glyph glyph-name="question" unicode="?" horiz-adv-x="1189" 
d="M444 207h185v-207h-185v207zM143 1004q1 177 16.5 252t57.5 118q60 60 211 60h324q148 0 215 -64q41 -41 58 -106.5t17 -180.5q0 -125 -15 -181t-62 -103q-25 -25 -70 -48.5t-145 -66.5q-80 -39 -109 -68q-22 -22 -31 -61.5t-12 -134.5h-125v59q2 108 13 158.5t44 83.5
q40 40 166 96q119 51 146 78q24 24 31.5 59t7.5 123q0 147 -37 187q-31 28 -113 28h-280q-50 0 -72 -5.5t-41 -22.5q-18 -18 -26 -71t-9 -189h-160z" />
    <glyph glyph-name="at" unicode="@" horiz-adv-x="1923" 
d="M1462 188q52 0 81 9t52 32q37 39 54.5 133t17.5 297q0 508 -121 629q-47 48 -111.5 68t-195.5 20h-532q-139 0 -204.5 -22t-119.5 -76q-39 -40 -65 -108t-44 -221t-18 -386q0 -339 33.5 -496.5t95.5 -220.5q51 -51 118.5 -73.5t203.5 -22.5h837v-57h-842q-106 0 -178 15
t-109 36.5t-77 60.5q-67 68 -105 236t-38 522q0 353 38 521.5t105 236.5q40 39 77 60.5t109 37t178 15.5h543q147 0 220.5 -25.5t131.5 -81.5q132 -132 132 -668q0 -215 -22.5 -321t-66.5 -150q-64 -61 -167 -61h-52q-72 0 -125.5 29.5t-99.5 95.5q-87 -76 -136 -100.5
t-114 -24.5h-80q-78 0 -122.5 13t-73.5 44q-43 41 -62.5 124t-19.5 263t19.5 263t62.5 124q30 31 74.5 44.5t121.5 13.5h80q66 0 111.5 -23.5t134.5 -99.5l29 123h96l-10 -225v-451q0 -53 7.5 -77t26.5 -42q29 -33 121 -33zM971 238q55 0 100.5 17t110.5 60v508
q-65 45 -109.5 63.5t-97.5 18.5h-98q-88 0 -117 -33q-23 -23 -33 -84t-10 -217t10 -217t33 -84q28 -32 117 -32h94z" />
    <glyph glyph-name="A" unicode="A" horiz-adv-x="1519" 
d="M580 0h-533v137h172l397 1241q12 37 29.5 49.5t59.5 12.5h110q42 0 59 -12.5t29 -49.5l397 -1241h173v-137h-547v137h207l-109 344q-52 0 -264.5 -1t-280.5 -1l-106 -342h207v-137zM733 1300l-213 -688h465l-213 688h-39z" />
    <glyph glyph-name="B" unicode="B" horiz-adv-x="1404" 
d="M451 811h442q98 0 131 33q47 43 47 213q0 168 -43 211q-28 28 -125 28h-452v-485zM451 678v-541h464q96 0 125 29q21 21 32 71t11 169q0 114 -11.5 164.5t-35.5 74.5q-33 33 -131 33h-454zM1042 743q111 -22 158 -97t47 -238q0 -160 -20.5 -231t-65.5 -114
q-63 -63 -213 -63h-850v137h201v1159h-201v138h844q148 0 211 -60q44 -44 63 -112.5t19 -206.5q0 -98 -24 -161.5t-64.5 -95.5t-104.5 -50v-5z" />
    <glyph glyph-name="C" unicode="C" horiz-adv-x="1396" 
d="M924 0h-437q-90 0 -135.5 12.5t-77.5 44.5q-39 37 -58.5 96t-29.5 191t-10 373t10 372.5t29.5 190t58.5 96.5q32 32 77.5 45t135.5 13h439q88 0 137.5 -13t79.5 -43q49 -49 66 -128.5t22 -262.5h-156q-3 133 -13.5 192.5t-33.5 82.5q-28 28 -123 28h-391q-59 0 -84 -6
t-41 -22q-26 -28 -37.5 -133t-11.5 -412t11.5 -412t37.5 -133q16 -16 41.5 -22.5t83.5 -6.5h391q55 0 81 7.5t42 23.5q23 23 33 82t14 213h158q-5 -195 -22.5 -278.5t-67.5 -135.5q-58 -55 -219 -55z" />
    <glyph glyph-name="D" unicode="D" horiz-adv-x="1464" 
d="M877 1434q107 0 171.5 -20.5t112.5 -67.5q66 -68 99.5 -211.5t33.5 -417.5t-33.5 -417.5t-99.5 -211.5q-48 -47 -112.5 -67.5t-171.5 -20.5h-779v137h201v1159h-201v138h779zM453 1296v-1159h413q71 0 107 10.5t65 40.5q45 44 68.5 160.5t23.5 366.5q0 253 -23.5 369.5
t-68.5 160.5q-30 30 -66 40.5t-106 10.5h-413z" />
    <glyph glyph-name="E" unicode="E" horiz-adv-x="1353" 
d="M299 1296h-201v138h1102v-420h-151v282h-596v-485h450v-133h-450v-541h608v309h151v-446h-1114v137h201v1159z" />
    <glyph glyph-name="F" unicode="F" horiz-adv-x="1282" 
d="M299 1296h-201v138h1084v-420h-152v282h-577v-503h424v-134h-424v-522h215v-137h-570v137h201v1159z" />
    <glyph glyph-name="G" unicode="G" horiz-adv-x="1417" 
d="M1235 999h-158q-3 128 -12.5 184t-32.5 79q-28 28 -125 28h-393q-59 0 -84 -6t-41 -22q-26 -28 -37.5 -133t-11.5 -412t11.5 -412t37.5 -133q16 -16 41.5 -22.5t83.5 -6.5h399q58 0 84.5 6.5t40.5 22.5q26 26 37.5 100t11.5 269v45h-362v133h518v-133q0 -190 -9.5 -294
t-26.5 -149.5t-52 -81.5q-34 -34 -82.5 -47.5t-136.5 -13.5h-449q-90 0 -135.5 12.5t-77.5 44.5q-39 37 -58.5 96t-29.5 191t-10 373t10 372.5t29.5 190t58.5 96.5q32 32 77.5 45t135.5 13h443q88 0 137.5 -13t77.5 -43q50 -48 67.5 -126.5t22.5 -252.5z" />
    <glyph glyph-name="H" unicode="H" horiz-adv-x="1593" 
d="M1294 1296v-1159h201v-137h-563v137h209v541h-688v-541h209v-137h-564v137h201v1159h-201v138h564v-138h-209v-485h688v485h-209v138h563v-138h-201z" />
    <glyph glyph-name="I" unicode="I" horiz-adv-x="794" 
d="M475 137h209v-137h-573v137h208v1159h-208v138h573v-138h-209v-1159z" />
    <glyph glyph-name="J" unicode="J" horiz-adv-x="1259" 
d="M836 1296h-213v138h563v-138h-197v-714q0 -173 -10 -272.5t-30 -151t-58 -90.5q-41 -39 -106.5 -54.5t-188.5 -15.5h-174q-175 0 -238 63q-49 49 -68 132t-24 264h156q5 -135 16 -196t37 -87q20 -20 46.5 -28.5t84.5 -8.5h146q95 0 135.5 9.5t60.5 29.5q32 32 47 113
t15 280v727z" />
    <glyph glyph-name="K" unicode="K" horiz-adv-x="1488" 
d="M1079 133l-422 547h-204v-543h209v-137h-564v137h201v1159h-201v138h564v-138h-209v-487h211l421 491h-192v134h530v-138h-170l-477 -540l488 -619h176v-137h-549v133h188z" />
    <glyph glyph-name="L" unicode="L" horiz-adv-x="1263" 
d="M299 137v1159h-201v138h568v-138h-213v-1159h561v316h151v-453h-1067v137h201z" />
    <glyph glyph-name="M" unicode="M" horiz-adv-x="2007" 
d="M475 1300h-29v-1163h170v-137h-518v137h201v1159h-201v138h451q35 0 47.5 -10.5t21.5 -45.5l377 -1231h25l375 1231q9 36 21 46t48 10h445v-138h-201v-1159h201v-137h-525v137h170v1163h-28l-398 -1245q-11 -36 -22.5 -45.5t-44.5 -9.5h-121q-34 0 -47 10t-23 45z" />
    <glyph glyph-name="N" unicode="N" horiz-adv-x="1587" 
d="M1171 207v1089h-208v138h550v-138h-196v-1296h-180q-38 0 -54.5 10.5t-33.5 44.5l-578 1200h-27v-1118h209v-137h-555v137h201v1159h-201v138h394q37 0 53.5 -11.5t34.5 -46.5l565 -1169h26z" />
    <glyph glyph-name="O" unicode="O" horiz-adv-x="1433" 
d="M487 1434h459q90 0 135.5 -13t77.5 -45q38 -38 57.5 -96t30 -190.5t10.5 -372.5t-10.5 -373t-30 -191t-57.5 -96q-32 -32 -77.5 -44.5t-135.5 -12.5h-459q-90 0 -135.5 12.5t-77.5 44.5q-39 37 -58.5 96t-29.5 191t-10 373t10 372.5t29.5 190t58.5 96.5q32 32 77.5 45
t135.5 13zM340 717q0 -307 11.5 -412t37.5 -133q16 -16 41.5 -22.5t83.5 -6.5h404q58 0 83 6.5t41 22.5q27 27 38.5 131.5t11.5 413.5t-11.5 413.5t-38.5 131.5q-16 16 -40.5 22t-83.5 6h-404q-59 0 -84 -6t-41 -22q-26 -28 -37.5 -133t-11.5 -412z" />
    <glyph glyph-name="P" unicode="P" horiz-adv-x="1312" 
d="M453 729h415q96 0 125 29q22 24 32.5 75.5t10.5 180.5t-10.5 180.5t-32.5 73.5q-28 28 -125 28h-415v-567zM1200 1016q0 -168 -20.5 -242t-65.5 -121q-33 -33 -81 -47t-126 -14h-454v-455h215v-137h-570v137h201v1159h-201v138h809q78 0 126 -14t81 -48
q45 -45 65.5 -118.5t20.5 -237.5z" />
    <glyph glyph-name="Q" unicode="Q" horiz-adv-x="1433" 
d="M487 1434h459q90 0 135.5 -13t77.5 -45q38 -38 57.5 -96t30 -190.5t10.5 -372.5t-10.5 -373t-30 -191t-57.5 -96q-32 -32 -75.5 -44.5t-129.5 -12.5l103 -221h-158l-92 221h-320q-90 0 -135.5 12.5t-77.5 44.5q-39 37 -58.5 96t-29.5 191t-10 373t10 372.5t29.5 190
t58.5 96.5q32 32 77.5 45t135.5 13zM340 717q0 -307 11.5 -413t37.5 -134q17 -17 42 -24t83 -7h231l-133 293h158l123 -293h25q57 0 82 7t42 24q27 27 38.5 132.5t11.5 414.5t-11.5 413.5t-38.5 131.5q-16 16 -40.5 22t-83.5 6h-404q-59 0 -84 -6t-41 -22
q-26 -28 -37.5 -133t-11.5 -412z" />
    <glyph glyph-name="R" unicode="R" horiz-adv-x="1443" 
d="M1198 387q7 -155 14 -248h193v-139h-215q-76 0 -105 29q-22 22 -31.5 87t-15.5 269q-3 100 -14.5 145t-34.5 68q-26 25 -60.5 35t-94.5 10h-381v-506h209v-137h-564v137h201v1159h-201v138h826q146 0 209 -60q44 -44 62.5 -113.5t18.5 -218.5q0 -93 -11.5 -154t-39 -98
t-63 -55t-92.5 -30v-5q73 -15 110.5 -44t56.5 -91t23 -178zM453 772h426q92 0 127 35q22 22 33.5 69t11.5 158q0 113 -11.5 162.5t-33.5 71.5q-28 28 -125 28h-428v-524z" />
    <glyph glyph-name="S" unicode="S" horiz-adv-x="1366" 
d="M1202 395q0 -141 -19 -214t-65 -118q-63 -63 -209 -63h-463q-80 0 -128.5 13t-79.5 46q-44 44 -60.5 115.5t-17.5 257.5h157q1 -141 9.5 -190t29.5 -70q15 -17 39 -23t76 -6h414q52 0 77.5 6.5t43.5 24.5q20 20 28 68t8 151q0 101 -6.5 138.5t-29.5 58.5q-15 17 -41.5 25
t-85.5 14l-422 41q-86 8 -134 23.5t-77 45.5q-38 37 -53 102.5t-15 202.5q0 134 18.5 207.5t65.5 118.5q64 64 207 64h418q81 0 130 -13.5t81 -46.5q44 -44 59.5 -113t18.5 -249h-158q-3 135 -10.5 182t-28.5 68q-15 17 -39.5 22.5t-75.5 5.5h-370q-51 0 -76 -6t-43 -24
q-21 -20 -29 -68.5t-8 -144.5q0 -95 7.5 -132t29.5 -59q14 -17 40 -24t87 -13l422 -41q156 -14 209 -67q39 -39 54 -107t15 -209z" />
    <glyph glyph-name="T" unicode="T" horiz-adv-x="1429" 
d="M793 137h211v-137h-578v137h211v1159h-375v-319h-151v457h1208v-457h-152v319h-374v-1159z" />
    <glyph glyph-name="U" unicode="U" horiz-adv-x="1570" 
d="M1147 1296h-209v138h559v-138h-197v-712q0 -251 -20 -353t-76 -159q-41 -41 -107.5 -56.5t-189.5 -15.5h-250q-122 0 -187 16t-103 56q-57 55 -77 156t-20 356v712h-196v138h559v-138h-209v-729q0 -196 15 -276t46 -111q20 -20 62 -29.5t139 -9.5h203q98 0 137 8.5
t61 30.5q32 30 46 108t14 279v729z" />
    <glyph glyph-name="V" unicode="V" horiz-adv-x="1507" 
d="M219 1296h-172v138h549v-138h-207l350 -1153h41l353 1153h-207v138h534v-138h-172l-393 -1241q-12 -37 -29.5 -49t-60.5 -12h-103q-43 0 -60.5 12t-29.5 49z" />
    <glyph glyph-name="W" unicode="W" horiz-adv-x="2127" 
d="M1120 1440q42 0 61.5 -14t26.5 -50l283 -1224h33l233 1144h-196v138h512v-138h-172l-271 -1241q-7 -36 -25.5 -48.5t-62.5 -12.5h-94q-43 0 -62 13t-26 50l-281 1223h-30l-279 -1223q-9 -36 -27.5 -49.5t-60.5 -13.5h-98q-42 0 -60.5 12.5t-27.5 48.5l-269 1241h-172v138
h527v-138h-197l231 -1144h33l283 1224q7 36 26.5 50t61.5 14h100z" />
    <glyph glyph-name="X" unicode="X" horiz-adv-x="1474" 
d="M236 137l397 582l-387 577h-176v138h546v-134h-190l305 -475h23l315 475h-190v134h526v-138h-176l-389 -559l399 -600h176v-137h-563v133h207l-316 498h-22l-324 -498h205v-133h-543v137h177z" />
    <glyph glyph-name="Y" unicode="Y" horiz-adv-x="1431" 
d="M637 602l-428 694h-180v138h549v-134h-191l328 -561h14l338 561h-193v134h529v-138h-178l-434 -690v-469h210v-137h-575v137h211v465z" />
    <glyph glyph-name="Z" unicode="Z" horiz-adv-x="1349" 
d="M340 133h727v307h152v-440h-1086v104l887 1196h-694v-296h-152v430h1055v-105z" />
    <glyph glyph-name="bracketleft" unicode="[" horiz-adv-x="854" 
d="M201 1434h530v-129h-383v-1483h383v-129h-530v1741z" />
    <glyph glyph-name="backslash" unicode="\" horiz-adv-x="960" 
d="M885 -328l-836 1782h150l835 -1782h-149z" />
    <glyph glyph-name="bracketright" unicode="]" horiz-adv-x="854" 
d="M653 1434v-1741h-528v129h383v1483h-383v129h528z" />
    <glyph glyph-name="asciicircum" unicode="^" horiz-adv-x="1052" 
d="M766 979l-242 340l-241 -340h-109v10l303 451h96l304 -451v-10h-111z" />
    <glyph glyph-name="underscore" unicode="_" horiz-adv-x="1009" 
d="M-12 -256v123h1032v-123h-1032z" />
    <glyph glyph-name="grave" unicode="`" 
d="M702 1237h-137l-291 231v11h238l190 -232v-10z" />
    <glyph glyph-name="a" unicode="a" horiz-adv-x="1200" 
d="M829 780q0 79 -6 111.5t-22 48.5q-15 15 -38.5 21t-76.5 6h-197q-96 0 -127 -31q-20 -20 -28 -57t-10 -111h-148q3 117 19 174t51 94q33 33 78 46.5t122 13.5h267q86 0 131 -13.5t74 -44.5q36 -34 47.5 -86.5t11.5 -163.5v-659h176v-129h-324v139q-107 -87 -164.5 -114
t-138.5 -27h-129q-143 0 -204 61q-66 66 -66 242q0 184 68 252q38 38 107.5 56t205.5 18q170 0 321 -25v178zM549 127q73 0 131 20.5t149 77.5v287h-327q-91 0 -129 -8.5t-60 -30.5q-21 -22 -29 -53.5t-8 -97.5q0 -131 33 -164q34 -31 121 -31h119z" />
    <glyph glyph-name="b" unicode="b" horiz-adv-x="1290" 
d="M401 1475v-525q111 91 170 119.5t142 28.5h114q91 0 144.5 -16t89.5 -52q33 -35 50.5 -82t26.5 -141t9 -258q0 -165 -9 -259.5t-26 -141.5t-51 -82q-36 -36 -89.5 -52t-144.5 -16h-114q-84 0 -143 28t-169 119v-145h-327v129h180v1214h-180v132h327zM670 965
q-68 0 -126 -22t-143 -77v-635q88 -56 146.5 -78t128.5 -22h121q108 0 147 39q31 31 41 104t10 275q0 201 -10 274.5t-41 102.5q-20 21 -51.5 30t-95.5 9h-127z" />
    <glyph glyph-name="c" unicode="c" horiz-adv-x="1138" 
d="M461 0q-87 0 -138 13.5t-85 47.5q-54 54 -73.5 150.5t-19.5 337.5q0 239 19.5 335t73.5 150q35 35 85.5 48.5t137.5 13.5h270q78 0 123 -13.5t76 -44.5q40 -40 56.5 -103t19.5 -198h-148q-1 97 -10 137t-29 58q-17 17 -43 24t-78 7h-221q-58 0 -86 -7t-47 -26
q-27 -27 -38 -100t-11 -281q0 -209 11 -282.5t38 -100.5q19 -19 47 -26t86 -7h223q91 0 125 31q18 20 27 65t10 142h146q-1 -146 -17.5 -209t-58.5 -105q-57 -57 -199 -57h-272z" />
    <glyph glyph-name="d" unicode="d" horiz-adv-x="1277" 
d="M889 0v145q-111 -91 -169.5 -119t-141.5 -28h-115q-90 0 -143 16t-89 52q-51 51 -68.5 145.5t-17.5 337.5q0 242 17.5 336t68.5 145q36 36 89 52t143 16h115q83 0 142 -29t169 -119v396h-189v129h336v-1346h181v-129h-328zM621 131q68 0 125.5 21.5t142.5 76.5v633
q-88 58 -146.5 80.5t-126.5 22.5h-122q-62 0 -94.5 -9t-53.5 -30q-30 -30 -40.5 -104.5t-10.5 -272.5q0 -199 10.5 -273t40.5 -106q42 -39 148 -39h127z" />
    <glyph glyph-name="e" unicode="e" horiz-adv-x="1157" 
d="M993 494h-698q1 -176 12.5 -241t36.5 -89q18 -20 45 -26.5t86 -6.5h240q50 0 75.5 7.5t45.5 25.5q18 19 25.5 54t10.5 118h146q-3 -123 -19 -180.5t-57 -98.5q-31 -31 -75.5 -44t-123.5 -13h-282q-87 0 -138 13.5t-85 47.5q-54 54 -73.5 150.5t-19.5 337.5
q0 239 19.5 335t73.5 150q35 35 85.5 48.5t137.5 13.5h241q162 0 222 -60q55 -55 74.5 -152t19.5 -329v-37q0 -24 -25 -24zM342 932q-24 -25 -35 -89t-12 -227h573q0 158 -12 224.5t-37 91.5q-17 19 -45 26t-86 7h-213q-58 0 -85 -7t-48 -26z" />
    <glyph glyph-name="f" unicode="f" horiz-adv-x="712" 
d="M670 1346h-146q-57 0 -80 -23q-26 -23 -26 -145v-82h233v-131h-231v-836h184v-129h-512v129h180v836h-180v131h180v86q0 100 13 153.5t43 83.5q31 31 66 43.5t100 12.5h176v-129z" />
    <glyph glyph-name="g" unicode="g" horiz-adv-x="1277" 
d="M420 -307q-123 0 -176 53q-33 33 -46.5 78.5t-13.5 134.5h142q1 -52 7.5 -75.5t22.5 -41.5q27 -24 103 -24h293q75 0 104 26q17 17 25 49.5t8 114.5v211q-111 -91 -169.5 -119t-141.5 -28h-115q-91 0 -143.5 15.5t-88.5 51.5q-50 50 -68 141.5t-18 305.5t18 304t68 140
q36 36 89 52t143 16h115q83 0 142 -29t169 -119v146h328v-131h-181v-940q0 -128 -13.5 -183.5t-51.5 -93.5q-29 -29 -72.5 -42t-120.5 -13h-358zM295 586q0 -176 10.5 -243t40.5 -99q42 -39 148 -39h127q68 0 125.5 21.5t142.5 76.5v559q-88 58 -146.5 80.5t-126.5 22.5
h-122q-62 0 -94.5 -9t-53.5 -30q-30 -30 -40.5 -97.5t-10.5 -242.5z" />
    <glyph glyph-name="h" unicode="h" horiz-adv-x="1310" 
d="M401 1475v-525q113 91 171 119.5t141 28.5h129q72 0 114 -13.5t74 -44.5q31 -32 44 -82t13 -137v-692h177v-129h-496v129h172v684q0 88 -33 121q-18 18 -42.5 24.5t-82.5 6.5h-112q-67 0 -124.5 -21.5t-144.5 -77.5v-737h172v-129h-499v129h180v1214h-180v132h327z" />
    <glyph glyph-name="i" unicode="i" horiz-adv-x="684" 
d="M270 1286v197h176v-197h-176zM616 0h-507v129h184v836h-184v131h331v-967h176v-129z" />
    <glyph glyph-name="j" unicode="j" horiz-adv-x="612" 
d="M252 1286v197h176v-197h-176zM362 -254q-57 -57 -186 -57q-44 0 -106 10v121h88q65 0 92 24q26 29 26 105v1016h-186v131h334v-1119q0 -97 -14 -147t-48 -84z" />
    <glyph glyph-name="k" unicode="k" horiz-adv-x="1222" 
d="M1012 967l-348 -402l333 -436h183v-129h-277l-360 489h-142v-360h172v-129h-499v129h180v1214h-180v132h327v-859h148l299 353h-170v127h489v-129h-155z" />
    <glyph glyph-name="l" unicode="l" horiz-adv-x="663" 
d="M600 0h-512v129h186v1214h-186v132h332v-1346h180v-129z" />
    <glyph glyph-name="m" unicode="m" horiz-adv-x="1994" 
d="M420 1096v-146q112 91 169 119.5t142 28.5h119q72 0 114 -13.5t74 -44.5q36 -39 47 -98q122 97 180 126.5t142 29.5h119q73 0 114.5 -13.5t73.5 -44.5q32 -32 45 -81.5t13 -137.5v-692h176v-129h-494v129h172v684q0 85 -33 121q-18 18 -42.5 24.5t-82.5 6.5h-104
q-67 0 -125 -21.5t-145 -77.5q2 -14 2 -45v-692h172v-129h-490v129h170v684q0 88 -33 121q-18 18 -42 24.5t-82 6.5h-103q-68 0 -124 -21t-144 -78v-737h170v-129h-498v129h180v836h-180v131h328z" />
    <glyph glyph-name="n" unicode="n" horiz-adv-x="1327" 
d="M420 1096v-146q112 91 169 119.5t142 28.5h127q74 0 115.5 -13.5t73.5 -44.5q32 -32 44.5 -81t12.5 -138v-692h178v-129h-498v129h174v684q0 86 -32 121q-18 18 -42.5 24.5t-82.5 6.5h-113q-68 0 -124 -21t-144 -78v-737h172v-129h-500v129h180v836h-180v131h328z" />
    <glyph glyph-name="o" unicode="o" horiz-adv-x="1196" 
d="M461 0q-87 0 -138 13.5t-85 47.5q-54 54 -73.5 150.5t-19.5 337.5q0 239 19.5 335t73.5 150q35 35 85.5 48.5t137.5 13.5h274q87 0 137.5 -13.5t85.5 -48.5q54 -54 73.5 -150t19.5 -335q0 -241 -19.5 -337.5t-73.5 -150.5q-34 -34 -85 -47.5t-138 -13.5h-274zM295 549
q0 -209 11 -282.5t38 -100.5q19 -19 47 -26t86 -7h242q58 0 86 7t47 26q27 27 38 100.5t11 282.5q0 208 -11 281t-38 100q-19 19 -47 26t-86 7h-242q-58 0 -86 -7t-47 -26q-27 -27 -38 -100t-11 -281z" />
    <glyph glyph-name="p" unicode="p" horiz-adv-x="1290" 
d="M1147 549q0 -165 -9 -259.5t-26 -141.5t-51 -82q-36 -36 -89.5 -52t-144.5 -16h-114q-84 0 -143 28t-169 119v-323h191v-129h-518v129h180v1143h-180v131h327v-146q111 91 170 119.5t142 28.5h114q91 0 144.5 -16t89.5 -52q33 -35 50.5 -82t26.5 -141t9 -258zM670 965
q-68 0 -126 -22t-143 -77v-635q88 -56 146.5 -78t128.5 -22h121q108 0 147 39q31 31 41 104t10 275q0 201 -10 274.5t-41 102.5q-20 21 -51.5 30t-95.5 9h-127z" />
    <glyph glyph-name="q" unicode="q" horiz-adv-x="1277" 
d="M145 549q0 242 17.5 336t68.5 145q36 36 89 52t143 16h115q83 0 142 -29t169 -119v146h328v-131h-181v-1143h181v-129h-517v129h189v323q-111 -91 -169.5 -119t-141.5 -28h-115q-90 0 -143 16t-89 52q-51 51 -68.5 145.5t-17.5 337.5zM621 131q68 0 125.5 21.5
t142.5 76.5v633q-88 58 -146.5 80.5t-126.5 22.5h-122q-62 0 -94.5 -9t-53.5 -30q-30 -30 -40.5 -104.5t-10.5 -272.5q0 -199 10.5 -273t40.5 -106q42 -39 148 -39h127z" />
    <glyph glyph-name="r" unicode="r" horiz-adv-x="866" 
d="M420 129h182v-129h-510v129h180v836h-180v131h328v-178q105 110 156.5 145t117.5 35h119v-156h-135q-67 0 -120.5 -18.5t-137.5 -75.5v-719z" />
    <glyph glyph-name="s" unicode="s" horiz-adv-x="1107" 
d="M147 795q0 184 68 252q49 49 162 49h346q121 0 168 -47q34 -34 48 -90t15 -187h-139q-3 90 -10.5 123.5t-22.5 48.5q-25 25 -92 25h-280q-63 0 -86 -23q-33 -33 -33 -143q0 -64 5 -91.5t17 -41.5q27 -24 109 -31l319 -35q135 -14 174 -53q30 -30 42 -84t12 -158
q0 -108 -16 -165.5t-52 -94.5q-49 -49 -162 -49h-368q-127 0 -174 47q-37 37 -50 91t-14 194h139q3 -97 9 -131.5t22 -50.5q23 -23 94 -23h308q65 0 90 25q15 15 22.5 46t7.5 103q0 113 -26 139q-21 21 -105 31l-315 33q-75 8 -114 20t-62 35q-31 31 -43.5 81.5t-12.5 154.5
z" />
    <glyph glyph-name="t" unicode="t" horiz-adv-x="782" 
d="M690 127v-96l-102 -25q-91 -14 -146 -14q-106 0 -157 51q-27 27 -37 65.5t-10 106.5v750h-170v131h170v274h147v-274h307v-131h-307v-719q0 -76 23 -99q20 -20 96 -20h186z" />
    <glyph glyph-name="u" unicode="u" horiz-adv-x="1298" 
d="M909 0v145q-113 -91 -170.5 -119t-140.5 -28h-129q-73 0 -114.5 13.5t-73.5 45.5q-31 31 -44.5 80.5t-13.5 136.5v691h-176v131h324v-813q0 -90 32 -119q19 -19 43.5 -26t81.5 -7h113q67 0 124 21t144 77v736h-192v131h340v-967h180v-129h-328z" />
    <glyph glyph-name="v" unicode="v" horiz-adv-x="1280" 
d="M193 965h-146v131h467v-131h-162l281 -813h26l279 813h-162v131h455v-131h-146l-331 -920q-12 -31 -25.5 -41t-42.5 -10h-92q-31 0 -44 10t-24 41z" />
    <glyph glyph-name="w" unicode="w" horiz-adv-x="1769" 
d="M930 1098q31 0 45.5 -11t21.5 -43l226 -897h24l183 818h-162v131h442v-131h-145l-222 -918q-7 -32 -20.5 -42.5t-44.5 -10.5h-96q-30 0 -44 11.5t-22 41.5l-223 879h-23l-223 -879q-8 -30 -21.5 -41.5t-43.5 -11.5h-95q-31 0 -44.5 10.5t-20.5 42.5l-223 918h-146v131
h453v-131h-162l182 -818h25l227 897q6 31 20.5 42.5t45.5 11.5h86z" />
    <glyph glyph-name="x" unicode="x" horiz-adv-x="1236" 
d="M516 127v-127h-455v129h140l327 422l-317 416h-141v129h454v-127h-141l233 -328h13l241 328h-143v127h440v-129h-143l-315 -406l327 -432h140v-129h-469v127h157l-246 346h-10l-254 -346h162z" />
    <glyph glyph-name="y" unicode="y" horiz-adv-x="1277" 
d="M356 965l285 -766h14l277 766h-160v131h457v-131h-146l-428 -1153q-26 -69 -65 -96t-113 -27q-75 0 -217 14v121h207q27 0 40 11t23 36l45 125l-382 969h-146v131h469v-131h-160z" />
    <glyph glyph-name="z" unicode="z" horiz-adv-x="1140" 
d="M297 127h586v242h137v-369h-916v102l725 867h-555v-236h-137v363h887v-103z" />
    <glyph glyph-name="braceleft" unicode="{" horiz-adv-x="892" 
d="M131 516v94q186 19 225 58q25 25 25 75q0 29 -18.5 146.5t-18.5 177.5q0 74 52.5 150.5t219.5 236.5h117q-141 -165 -188 -242t-47 -127q0 -54 18.5 -167.5t18.5 -155.5q0 -88 -42 -129.5t-167 -67.5v-4q124 -25 166.5 -69.5t42.5 -133.5q0 -38 -18.5 -154t-18.5 -163
q0 -50 47 -127t188 -242h-117q-167 160 -219.5 236.5t-52.5 150.5q0 54 18.5 174t18.5 156q0 48 -23 68q-35 39 -227 59z" />
    <glyph glyph-name="bar" unicode="|" horiz-adv-x="638" 
d="M389 -328h-137v1925h137v-1925z" />
    <glyph glyph-name="braceright" unicode="}" horiz-adv-x="892" 
d="M764 516q-189 -19 -229 -59q-23 -23 -23 -68q0 -36 18.5 -156t18.5 -174q0 -74 -52.5 -150.5t-220.5 -236.5h-116q141 165 188 242t47 127q0 47 -18.5 163t-18.5 154q0 90 43 134t168 69v4q-126 26 -168.5 67.5t-42.5 129.5q0 42 18.5 155.5t18.5 167.5q0 50 -47 127
t-188 242h116q168 -160 220.5 -236.5t52.5 -150.5q0 -60 -18.5 -177.5t-18.5 -146.5q0 -50 25 -75q44 -39 227 -58v-94z" />
    <glyph glyph-name="asciitilde" unicode="~" horiz-adv-x="909" 
d="M156 532v136q0 60 22 82t64 22h22q48 0 129 -33l238 -92l45 123h78v-135q0 -59 -23 -82t-63 -23h-21q-48 0 -131 33l-237 92l-43 -123h-80z" />
    <glyph glyph-name="uni00A0" unicode="&#xa0;" horiz-adv-x="524" 
 />
    <glyph glyph-name="exclamdown" unicode="&#xa1;" horiz-adv-x="581" 
d="M254 1024h70l69 -948v-76h-194v76zM389 1227h-184v207h184v-207z" />
    <glyph glyph-name="cent" unicode="&#xa2;" horiz-adv-x="1163" 
d="M477 190q-86 0 -138 14.5t-85 47.5q-54 54 -73 148.5t-19 322.5q0 226 19 320.5t73 148.5q33 33 85 47t138 14h64v187h125v-187h82q80 0 124.5 -14t73.5 -43q39 -37 56 -100.5t20 -188.5h-141q-4 89 -13 128.5t-28 58.5q-30 30 -119 30h-62v-805h64q93 0 121 31
q20 20 29 63.5t12 135.5h139q-3 -139 -20 -200.5t-56 -100.5q-61 -58 -198 -58h-84v-196h-125v196h-64zM358 352q17 -19 45 -26t86 -7h56v805h-56q-59 0 -86.5 -6.5t-44.5 -25.5q-27 -25 -39 -100t-12 -269q0 -196 12 -270t39 -101z" />
    <glyph glyph-name="sterling" unicode="&#xa3;" horiz-adv-x="1384" 
d="M1214 999h-153q-3 130 -14.5 184.5t-34.5 78.5q-20 19 -52.5 26.5t-93.5 7.5h-188q-124 0 -160 -36q-24 -24 -35.5 -78.5t-11.5 -171.5v-232h408v-131h-408v-512h606v305h150v-440h-1112v135h198v512h-196v131h196v217q0 162 20.5 242t69.5 129q38 40 98.5 55t176.5 15
h209q96 0 150.5 -14t90.5 -50q46 -48 64.5 -123t21.5 -250z" />
    <glyph glyph-name="yen" unicode="&#xa5;" horiz-adv-x="1406" 
d="M1163 653v-133h-389v-383h211v-137h-569v137h211v383h-387v133h354l-379 643h-178v138h545v-134h-191l311 -563h13l319 563h-190v134h526v-138h-180l-385 -643h358z" />
    <glyph glyph-name="section" unicode="&#xa7;" horiz-adv-x="1339" 
d="M125 735q0 154 61 215q50 46 146 49q-29 57 -29 160q0 147 68 215q62 62 215 62h202q133 0 187 -54q38 -38 52 -93t15 -185h-145q-1 87 -9 121.5t-28 52.5q-29 29 -104 29h-160q-48 0 -71 -7t-42 -24q-30 -30 -30 -127q0 -85 30 -115q29 -29 113 -37l385 -32
q75 -6 114.5 -20t65.5 -40q29 -27 42.5 -74.5t13.5 -134.5q0 -151 -62 -213q-48 -48 -147 -51q32 -54 32 -160q0 -143 -67 -213q-32 -32 -82 -46.5t-135 -14.5h-203q-129 0 -186 51q-37 38 -51 94t-17 187h145q3 -88 11 -122t26 -54q27 -27 105 -27h159q84 0 113 29
q31 31 31 129q0 80 -31 114q-31 28 -113 35l-383 35q-77 6 -116.5 18.5t-65.5 38.5q-29 29 -42 76t-13 133zM264 741q0 -86 29 -118q28 -28 117 -35l522 -43q85 -5 110 20q35 35 35 125q0 91 -28 121q-25 28 -117 33l-522 43q-85 8 -109 -19q-37 -32 -37 -127z" />
    <glyph glyph-name="dieresis" unicode="&#xa8;" 
d="M238 1288v195h170v-195h-170zM616 1288v195h170v-195h-170z" />
    <glyph glyph-name="copyright" unicode="&#xa9;" horiz-adv-x="1615" 
d="M317 106q-62 64 -98.5 202.5t-36.5 408.5q0 271 36 408.5t99 201.5q52 55 126 81t219 26h290q146 0 219.5 -26t126.5 -81q40 -41 67.5 -103t47 -191.5t19.5 -315.5q0 -271 -36 -409t-98 -202q-52 -55 -126 -80.5t-220 -25.5h-290q-145 0 -219 25.5t-126 80.5zM240 717
q0 -255 31.5 -386t88.5 -188q46 -49 112 -70.5t200 -21.5h272q134 0 198.5 20.5t110.5 69.5q58 60 90.5 190.5t32.5 385.5t-32.5 385t-90.5 188q-46 49 -111 70.5t-198 21.5h-272q-135 0 -201 -20.5t-111 -69.5q-57 -59 -88.5 -189t-31.5 -386zM924 334h-236q-49 0 -74.5 7
t-42.5 24q-32 33 -44.5 103.5t-12.5 258.5q0 190 12.5 261t44.5 104q17 17 42 23.5t75 6.5h236q90 0 120 -30q28 -28 38.5 -72.5t11.5 -142.5h-90q-2 123 -27 147q-11 14 -68 14h-200q-33 0 -46.5 -3t-23.5 -13q-15 -13 -21 -68.5t-6 -226.5q0 -170 6 -225t21 -68
q10 -10 23.5 -13t46.5 -3h200q57 0 68 14q13 14 18.5 46t8.5 112h92q-3 -106 -13 -151t-39 -72q-33 -33 -120 -33z" />
    <glyph glyph-name="ordfeminine" unicode="&#xaa;" horiz-adv-x="1060" 
d="M213 1198q1 83 12 125t37 68q27 26 58 34.5t90 8.5h190q62 0 94.5 -9t55.5 -30q26 -27 34.5 -66t8.5 -119v-460h122v-105h-237v98q-73 -60 -115 -80t-100 -20h-84q-60 0 -94 10.5t-60 36.5q-49 49 -49 174q0 136 49 185q28 28 77.5 41.5t146.5 13.5q112 0 229 -21v123
q0 87 -19 109q-19 16 -77 16h-150q-36 0 -52.5 -3.5t-27.5 -14.5q-22 -22 -22 -115h-117zM481 745q52 0 92.5 14.5t104.5 55.5v195h-232q-106 0 -129 -23q-22 -25 -22 -108q0 -89 22 -111q26 -23 89 -23h75zM168 362v103h747v-103h-747z" />
    <glyph glyph-name="guillemotleft" unicode="&#xab;" horiz-adv-x="1159" 
d="M115 498v100l315 328h176l-350 -377l352 -377h-178zM549 498v100l315 328h176l-350 -377l352 -377h-178z" />
    <glyph glyph-name="registered" unicode="&#xae;" horiz-adv-x="929" 
d="M395 1067h113q29 0 39 10q14 14 14 66q0 51 -12 63q-11 11 -39 11h-115v-150zM616 950q0 -36 5 -71h59v-48h-74q-24 0 -33 9q-12 12 -14 108q-2 46 -14 58q-14 14 -47 14h-103v-141h62v-48h-176v48h59v338h-59v47h249q47 0 66 -19q25 -32 25 -100q0 -46 -14 -71t-48 -32
v-2q32 -6 43.5 -24.5t13.5 -65.5zM549 682q66 0 100.5 11t59.5 36q63 63 63 309q0 247 -63 310q-25 25 -59.5 36t-100.5 11h-168q-66 0 -100.5 -11t-59.5 -36q-63 -63 -63 -310q0 -246 63 -309q25 -25 59.5 -36t100.5 -11h168zM551 643h-172q-80 0 -119 14t-70 45
q-75 79 -75 336t75 336q31 31 70 45.5t119 14.5h172q80 0 118 -14t70 -46q76 -80 76 -336t-76 -336q-31 -31 -69.5 -45t-118.5 -14z" />
    <glyph glyph-name="macron" unicode="&#xaf;" 
d="M213 1249v125h598v-125h-598z" />
    <glyph glyph-name="degree" unicode="&#xb0;" horiz-adv-x="854" 
d="M369 874h116q59 0 84 25q33 37 33 201q0 163 -33 200q-25 25 -84 25h-116q-59 0 -84 -25q-33 -37 -33 -200q0 -164 33 -201q25 -25 84 -25zM721 1100q0 -128 -16 -187.5t-52 -95.5q-45 -51 -155 -51h-142q-107 0 -155 51q-36 36 -52 95.5t-16 187.5t16 187t52 95
q49 52 155 52h142q109 0 155 -52q36 -36 52 -95t16 -187z" />
    <glyph glyph-name="plusminus" unicode="&#xb1;" horiz-adv-x="1052" 
d="M594 1268v-334h332v-135h-332v-332h-135v332h-332v135h332v334h135zM127 219v135h799v-135h-799z" />
    <glyph glyph-name="acute" unicode="&#xb4;" 
d="M270 1237v10l191 232h237v-11l-290 -231h-138z" />
    <glyph glyph-name="paragraph" unicode="&#xb6;" horiz-adv-x="1196" 
d="M109 1016q0 164 20.5 237.5t65.5 118.5q33 35 80.5 48.5t125.5 13.5h709v-138h-201v-1159h201v-137h-571v137h215v455h-353q-77 0 -125 14t-81 47q-45 47 -65.5 121t-20.5 242z" />
    <glyph glyph-name="periodcentered" unicode="&#xb7;" horiz-adv-x="477" 
d="M139 758h199v-215h-199v215z" />
    <glyph glyph-name="cedilla" unicode="&#xb8;" 
d="M547 -74q97 0 127 -30q39 -39 39 -132q0 -90 -39 -129q-32 -32 -131 -32h-142l-90 65v29h215q43 0 58 12q16 13 16 55q0 41 -16 54q-14 14 -58 14h-98v94h119z" />
    <glyph glyph-name="ordmasculine" unicode="&#xba;" horiz-adv-x="1030" 
d="M608 645h-184q-67 0 -105 11t-65 38q-40 40 -57 114t-17 232q0 155 17 228.5t57 115.5q28 27 66.5 38.5t103.5 11.5h184q66 0 104 -11.5t66 -38.5q41 -41 57.5 -114t16.5 -230q0 -160 -16.5 -233.5t-57.5 -112.5q-28 -28 -65 -38.5t-105 -10.5zM444 756h144q45 0 64 4.5
t32 17.5q20 20 30.5 73t10.5 189q0 134 -10.5 186t-30.5 72q-14 14 -33.5 19.5t-62.5 5.5h-144q-43 0 -62.5 -5.5t-33.5 -19.5q-19 -21 -29 -73.5t-10 -184.5q0 -133 10 -187t29 -75q13 -13 32 -17.5t64 -4.5zM178 362v103h676v-103h-676z" />
    <glyph glyph-name="guillemotright" unicode="&#xbb;" horiz-adv-x="1159" 
d="M1044 498l-315 -326h-174l350 375l-352 379h176l315 -328v-100zM610 498l-315 -326h-174l350 375l-352 379h176l315 -328v-100z" />
    <glyph glyph-name="questiondown" unicode="&#xbf;" horiz-adv-x="1189" 
d="M745 1227h-182v207h182v-207zM1047 430q-1 -178 -16.5 -253t-57.5 -118q-59 -59 -209 -59h-326q-83 0 -132 15.5t-83 47.5q-41 41 -57 106t-16 181q0 127 14.5 183t60.5 102q25 25 70 48.5t145 66.5q86 42 111 67q21 22 29.5 62t11.5 135h125v-60q-2 -107 -13.5 -157.5
t-44.5 -83.5q-43 -43 -165 -97q-120 -51 -144 -77q-25 -23 -33 -58.5t-8 -124.5q0 -146 37 -186q32 -29 113 -29h282q48 0 71 6t40 23q18 18 26 71t11 189h158z" />
    <glyph glyph-name="Agrave" unicode="&#xc0;" horiz-adv-x="1519" 
d="M580 0h-533v137h172l397 1241q12 37 29.5 49.5t59.5 12.5h110q42 0 59 -12.5t29 -49.5l397 -1241h173v-137h-547v137h207l-109 344q-52 0 -264.5 -1t-280.5 -1l-106 -342h207v-137zM733 1300l-213 -688h465l-213 688h-39zM862 1565h-137l-291 231v10h238l190 -231v-10z
" />
    <glyph glyph-name="Aacute" unicode="&#xc1;" horiz-adv-x="1519" 
d="M580 0h-533v137h172l397 1241q12 37 29.5 49.5t59.5 12.5h110q42 0 59 -12.5t29 -49.5l397 -1241h173v-137h-547v137h207l-109 344q-52 0 -264.5 -1t-280.5 -1l-106 -342h207v-137zM733 1300l-213 -688h465l-213 688h-39zM645 1565v10l191 231h237v-10l-291 -231h-137z
" />
    <glyph glyph-name="Acircumflex" unicode="&#xc2;" horiz-adv-x="1519" 
d="M580 0h-533v137h172l397 1241q12 37 29.5 49.5t59.5 12.5h110q42 0 59 -12.5t29 -49.5l397 -1241h173v-137h-547v137h207l-109 344q-52 0 -264.5 -1t-280.5 -1l-106 -342h207v-137zM733 1300l-213 -688h465l-213 688h-39zM958 1569l-206 147l-207 -147h-119v10l242 244
h172l241 -244v-10h-123z" />
    <glyph glyph-name="Atilde" unicode="&#xc3;" horiz-adv-x="1519" 
d="M580 0h-533v137h172l397 1241q12 37 29.5 49.5t59.5 12.5h110q42 0 59 -12.5t29 -49.5l397 -1241h173v-137h-547v137h207l-109 344q-52 0 -264.5 -1t-280.5 -1l-106 -342h207v-137zM733 1300l-213 -688h465l-213 688h-39zM455 1583v135q0 59 20 82t64 23h24q43 0 125 -31
l242 -94l43 123h80v-135q0 -58 -21 -82q-20 -23 -63 -23h-25q-43 0 -125 31l-241 94l-43 -123h-80z" />
    <glyph glyph-name="Adieresis" unicode="&#xc4;" horiz-adv-x="1519" 
d="M580 0h-533v137h172l397 1241q12 37 29.5 49.5t59.5 12.5h110q42 0 59 -12.5t29 -49.5l397 -1241h173v-137h-547v137h207l-109 344q-52 0 -264.5 -1t-280.5 -1l-106 -342h207v-137zM733 1300l-213 -688h465l-213 688h-39zM479 1616v194h170v-194h-170zM858 1616v194h170
v-194h-170z" />
    <glyph glyph-name="Aring" unicode="&#xc5;" horiz-adv-x="1519" 
d="M580 0h-533v137h172l391 1223q-46 8 -73 39q-28 28 -39 62t-11 95t11 95.5t39 64.5q38 41 135 41h172q97 0 135 -41q28 -29 38.5 -64t10.5 -96t-10.5 -95t-38.5 -62q-25 -29 -72 -37l393 -1225h173v-137h-547v137h207l-109 344q-52 0 -264.5 -1t-280.5 -1l-106 -342h207
v-137zM733 1300l-213 -688h465l-213 688h-39zM831 1671h-147q-50 0 -68 -18q-22 -22 -22 -97q0 -71 22 -96q16 -16 68 -16h147q52 0 68 16q23 26 23 96q0 74 -23 97q-18 18 -68 18z" />
    <glyph glyph-name="AE" unicode="&#xc6;" horiz-adv-x="2072" 
d="M821 133h201v348h-487l-199 -348h201v-133h-525v137h166l664 1159h-236v138h1317v-420h-151v282h-596v-485h450v-133h-450v-541h608v309h149v-446h-1112v133zM1022 1303h-21l-393 -691h414v691z" />
    <glyph glyph-name="Ccedilla" unicode="&#xc7;" horiz-adv-x="1396" 
d="M924 0h-437q-90 0 -135.5 12.5t-77.5 44.5q-39 37 -58.5 96t-29.5 191t-10 373t10 372.5t29.5 190t58.5 96.5q32 32 77.5 45t135.5 13h439q88 0 137.5 -13t79.5 -43q49 -49 66 -128.5t22 -262.5h-156q-3 133 -13.5 192.5t-33.5 82.5q-28 28 -123 28h-391q-59 0 -84 -6
t-41 -22q-26 -28 -37.5 -133t-11.5 -412t11.5 -412t37.5 -133q16 -16 41.5 -22.5t83.5 -6.5h391q55 0 81 7.5t42 23.5q23 23 33 82t14 213h158q-5 -195 -22.5 -278.5t-67.5 -135.5q-58 -55 -219 -55zM727 -74q97 0 127 -30q39 -39 39 -132q0 -90 -39 -129q-32 -32 -131 -32
h-141l-90 65v29h215q42 0 57 12q16 13 16 55q0 41 -16 54q-14 14 -57 14h-99v94h119z" />
    <glyph glyph-name="Egrave" unicode="&#xc8;" horiz-adv-x="1353" 
d="M299 1296h-201v138h1102v-420h-151v282h-596v-485h450v-133h-450v-541h608v309h151v-446h-1114v137h201v1159zM782 1565h-137l-291 231v10h238l190 -231v-10z" />
    <glyph glyph-name="Eacute" unicode="&#xc9;" horiz-adv-x="1353" 
d="M565 1565v10l191 231h237v-10l-291 -231h-137zM299 1296h-201v138h1102v-420h-151v282h-596v-485h450v-133h-450v-541h608v309h151v-446h-1114v137h201v1159z" />
    <glyph glyph-name="Ecircumflex" unicode="&#xca;" horiz-adv-x="1353" 
d="M299 1296h-201v138h1102v-420h-151v282h-596v-485h450v-133h-450v-541h608v309h151v-446h-1114v137h201v1159zM879 1569l-207 147l-207 -147h-119v10l242 244h172l241 -244v-10h-122z" />
    <glyph glyph-name="Edieresis" unicode="&#xcb;" horiz-adv-x="1353" 
d="M399 1616v194h170v-194h-170zM778 1616v194h170v-194h-170zM299 1296h-201v138h1102v-420h-151v282h-596v-485h450v-133h-450v-541h608v309h151v-446h-1114v137h201v1159z" />
    <glyph glyph-name="Igrave" unicode="&#xcc;" horiz-adv-x="794" 
d="M475 137h209v-137h-573v137h208v1159h-208v138h573v-138h-209v-1159zM508 1565h-137l-291 231v10h237l191 -231v-10z" />
    <glyph glyph-name="Iacute" unicode="&#xcd;" horiz-adv-x="794" 
d="M475 137h209v-137h-573v137h208v1159h-208v138h573v-138h-209v-1159zM287 1565v10l190 231h238v-10l-291 -231h-137z" />
    <glyph glyph-name="Icircumflex" unicode="&#xce;" horiz-adv-x="794" 
d="M475 137h209v-137h-573v137h208v1159h-208v138h573v-138h-209v-1159zM602 1569l-207 147l-207 -147h-118v10l241 244h172l242 -244v-10h-123z" />
    <glyph glyph-name="Idieresis" unicode="&#xcf;" horiz-adv-x="794" 
d="M475 137h209v-137h-573v137h208v1159h-208v138h573v-138h-209v-1159zM123 1616v194h170v-194h-170zM502 1616v194h170v-194h-170z" />
    <glyph glyph-name="Eth" unicode="&#xd0;" horiz-adv-x="1464" 
d="M877 1434q107 0 171.5 -20.5t112.5 -67.5q66 -68 99.5 -211.5t33.5 -417.5t-33.5 -417.5t-99.5 -211.5q-48 -47 -112.5 -67.5t-171.5 -20.5h-779v137h201v535h-201v131h201v493h-201v138h779zM752 672h-299v-535h413q71 0 107 10.5t65 40.5q45 44 68.5 160.5t23.5 366.5
q0 253 -23.5 369.5t-68.5 160.5q-30 30 -66 40.5t-106 10.5h-413v-493h299v-131z" />
    <glyph glyph-name="Ntilde" unicode="&#xd1;" horiz-adv-x="1587" 
d="M1171 207v1089h-208v138h550v-138h-196v-1296h-180q-38 0 -54.5 10.5t-33.5 44.5l-578 1200h-27v-1118h209v-137h-555v137h201v1159h-201v138h394q37 0 53.5 -11.5t34.5 -46.5l565 -1169h26zM502 1583v135q0 59 20 82t64 23h24q43 0 125 -31l242 -94l43 123h80v-135
q0 -58 -21 -82q-20 -23 -63 -23h-25q-43 0 -125 31l-241 94l-43 -123h-80z" />
    <glyph glyph-name="Ograve" unicode="&#xd2;" horiz-adv-x="1433" 
d="M487 1434h459q90 0 135.5 -13t77.5 -45q38 -38 57.5 -96t30 -190.5t10.5 -372.5t-10.5 -373t-30 -191t-57.5 -96q-32 -32 -77.5 -44.5t-135.5 -12.5h-459q-90 0 -135.5 12.5t-77.5 44.5q-39 37 -58.5 96t-29.5 191t-10 373t10 372.5t29.5 190t58.5 96.5q32 32 77.5 45
t135.5 13zM340 717q0 -307 11.5 -412t37.5 -133q16 -16 41.5 -22.5t83.5 -6.5h404q58 0 83 6.5t41 22.5q27 27 38.5 131.5t11.5 413.5t-11.5 413.5t-38.5 131.5q-16 16 -40.5 22t-83.5 6h-404q-59 0 -84 -6t-41 -22q-26 -28 -37.5 -133t-11.5 -412zM825 1565h-137l-291 231
v10h238l190 -231v-10z" />
    <glyph glyph-name="Oacute" unicode="&#xd3;" horiz-adv-x="1433" 
d="M606 1565v10l191 231h237v-10l-291 -231h-137zM487 1434h459q90 0 135.5 -13t77.5 -45q38 -38 57.5 -96t30 -190.5t10.5 -372.5t-10.5 -373t-30 -191t-57.5 -96q-32 -32 -77.5 -44.5t-135.5 -12.5h-459q-90 0 -135.5 12.5t-77.5 44.5q-39 37 -58.5 96t-29.5 191t-10 373
t10 372.5t29.5 190t58.5 96.5q32 32 77.5 45t135.5 13zM340 717q0 -307 11.5 -412t37.5 -133q16 -16 41.5 -22.5t83.5 -6.5h404q58 0 83 6.5t41 22.5q27 27 38.5 131.5t11.5 413.5t-11.5 413.5t-38.5 131.5q-16 16 -40.5 22t-83.5 6h-404q-59 0 -84 -6t-41 -22
q-26 -28 -37.5 -133t-11.5 -412z" />
    <glyph glyph-name="Ocircumflex" unicode="&#xd4;" horiz-adv-x="1433" 
d="M487 1434h459q90 0 135.5 -13t77.5 -45q38 -38 57.5 -96t30 -190.5t10.5 -372.5t-10.5 -373t-30 -191t-57.5 -96q-32 -32 -77.5 -44.5t-135.5 -12.5h-459q-90 0 -135.5 12.5t-77.5 44.5q-39 37 -58.5 96t-29.5 191t-10 373t10 372.5t29.5 190t58.5 96.5q32 32 77.5 45
t135.5 13zM340 717q0 -307 11.5 -412t37.5 -133q16 -16 41.5 -22.5t83.5 -6.5h404q58 0 83 6.5t41 22.5q27 27 38.5 131.5t11.5 413.5t-11.5 413.5t-38.5 131.5q-16 16 -40.5 22t-83.5 6h-404q-59 0 -84 -6t-41 -22q-26 -28 -37.5 -133t-11.5 -412zM920 1569l-207 147
l-207 -147h-119v10l242 244h172l241 -244v-10h-122z" />
    <glyph glyph-name="Otilde" unicode="&#xd5;" horiz-adv-x="1433" 
d="M487 1434h459q90 0 135.5 -13t77.5 -45q38 -38 57.5 -96t30 -190.5t10.5 -372.5t-10.5 -373t-30 -191t-57.5 -96q-32 -32 -77.5 -44.5t-135.5 -12.5h-459q-90 0 -135.5 12.5t-77.5 44.5q-39 37 -58.5 96t-29.5 191t-10 373t10 372.5t29.5 190t58.5 96.5q32 32 77.5 45
t135.5 13zM340 717q0 -307 11.5 -412t37.5 -133q16 -16 41.5 -22.5t83.5 -6.5h404q58 0 83 6.5t41 22.5q27 27 38.5 131.5t11.5 413.5t-11.5 413.5t-38.5 131.5q-16 16 -40.5 22t-83.5 6h-404q-59 0 -84 -6t-41 -22q-26 -28 -37.5 -133t-11.5 -412zM416 1583v135q0 59 20 82
t64 23h24q43 0 125 -31l242 -94l43 123h80v-135q0 -58 -21 -82q-20 -23 -63 -23h-25q-43 0 -125 31l-241 94l-43 -123h-80z" />
    <glyph glyph-name="Odieresis" unicode="&#xd6;" horiz-adv-x="1433" 
d="M440 1616v194h170v-194h-170zM819 1616v194h170v-194h-170zM487 1434h459q90 0 135.5 -13t77.5 -45q38 -38 57.5 -96t30 -190.5t10.5 -372.5t-10.5 -373t-30 -191t-57.5 -96q-32 -32 -77.5 -44.5t-135.5 -12.5h-459q-90 0 -135.5 12.5t-77.5 44.5q-39 37 -58.5 96
t-29.5 191t-10 373t10 372.5t29.5 190t58.5 96.5q32 32 77.5 45t135.5 13zM340 717q0 -307 11.5 -412t37.5 -133q16 -16 41.5 -22.5t83.5 -6.5h404q58 0 83 6.5t41 22.5q27 27 38.5 131.5t11.5 413.5t-11.5 413.5t-38.5 131.5q-16 16 -40.5 22t-83.5 6h-404q-59 0 -84 -6
t-41 -22q-26 -28 -37.5 -133t-11.5 -412z" />
    <glyph glyph-name="multiply" unicode="&#xd7;" horiz-adv-x="1052" 
d="M268 1098l258 -260l258 260l95 -97l-258 -258l258 -258l-95 -96l-258 260l-258 -260l-96 96l258 258l-258 258z" />
    <glyph glyph-name="Oslash" unicode="&#xd8;" horiz-adv-x="1433" 
d="M487 1434h459h37l51 108h146l-64 -135q16 -8 43 -31q38 -38 57.5 -96t30 -190.5t10.5 -372.5t-10.5 -373t-30 -191t-57.5 -96q-32 -32 -77.5 -44.5t-135.5 -12.5h-459h-38l-52 -109h-145l63 136q-22 11 -41 30q-39 37 -58.5 96t-29.5 191t-10 373t10 372.5t29.5 190
t58.5 96.5q32 32 77.5 45t135.5 13zM340 717q0 -307 11.5 -412t37.5 -133q0 -1 1 -2t1 -2l527 1122h-404q-59 0 -84 -6t-41 -22q-26 -28 -37.5 -133t-11.5 -412zM1042 1262q-1 0 -2 1t-2 1l-524 -1121h404q58 0 83 6.5t41 22.5q27 27 38.5 131.5t11.5 413.5t-11.5 413.5
t-38.5 131.5z" />
    <glyph glyph-name="Ugrave" unicode="&#xd9;" horiz-adv-x="1570" 
d="M1147 1296h-209v138h559v-138h-197v-712q0 -251 -20 -353t-76 -159q-41 -41 -107.5 -56.5t-189.5 -15.5h-250q-122 0 -187 16t-103 56q-57 55 -77 156t-20 356v712h-196v138h559v-138h-209v-729q0 -196 15 -276t46 -111q20 -20 62 -29.5t139 -9.5h203q98 0 137 8.5
t61 30.5q32 30 46 108t14 279v729zM893 1565h-137l-291 231v10h237l191 -231v-10z" />
    <glyph glyph-name="Uacute" unicode="&#xda;" horiz-adv-x="1570" 
d="M676 1565v10l190 231h238v-10l-291 -231h-137zM1147 1296h-209v138h559v-138h-197v-712q0 -251 -20 -353t-76 -159q-41 -41 -107.5 -56.5t-189.5 -15.5h-250q-122 0 -187 16t-103 56q-57 55 -77 156t-20 356v712h-196v138h559v-138h-209v-729q0 -196 15 -276t46 -111
q20 -20 62 -29.5t139 -9.5h203q98 0 137 8.5t61 30.5q32 30 46 108t14 279v729z" />
    <glyph glyph-name="Ucircumflex" unicode="&#xdb;" horiz-adv-x="1570" 
d="M1147 1296h-209v138h559v-138h-197v-712q0 -251 -20 -353t-76 -159q-41 -41 -107.5 -56.5t-189.5 -15.5h-250q-122 0 -187 16t-103 56q-57 55 -77 156t-20 356v712h-196v138h559v-138h-209v-729q0 -196 15 -276t46 -111q20 -20 62 -29.5t139 -9.5h203q98 0 137 8.5
t61 30.5q32 30 46 108t14 279v729zM989 1569l-207 147l-207 -147h-118v10l241 244h172l242 -244v-10h-123z" />
    <glyph glyph-name="Udieresis" unicode="&#xdc;" horiz-adv-x="1570" 
d="M510 1616v194h170v-194h-170zM889 1616v194h170v-194h-170zM1147 1296h-209v138h559v-138h-197v-712q0 -251 -20 -353t-76 -159q-41 -41 -107.5 -56.5t-189.5 -15.5h-250q-122 0 -187 16t-103 56q-57 55 -77 156t-20 356v712h-196v138h559v-138h-209v-729q0 -196 15 -276
t46 -111q20 -20 62 -29.5t139 -9.5h203q98 0 137 8.5t61 30.5q32 30 46 108t14 279v729z" />
    <glyph glyph-name="Yacute" unicode="&#xdd;" horiz-adv-x="1431" 
d="M637 602l-428 694h-180v138h549v-134h-191l328 -561h14l338 561h-193v134h529v-138h-178l-434 -690v-469h210v-137h-575v137h211v465zM614 1565v10l191 231h237v-10l-290 -231h-138z" />
    <glyph glyph-name="Thorn" unicode="&#xde;" horiz-adv-x="1300" 
d="M903 328h-452v-195h215v-133h-572v137h201v1159h-201v138h572v-134h-215v-184h452q78 0 126 -14t81 -47q44 -46 65 -115.5t21 -214.5q0 -149 -21 -220.5t-65 -115.5q-33 -34 -80.5 -47.5t-126.5 -13.5zM451 461h413q94 0 125 31q21 21 32 69.5t11 159.5q0 112 -11 161
t-32 70q-29 29 -125 29h-413v-520z" />
    <glyph glyph-name="germandbls" unicode="&#xdf;" horiz-adv-x="1275" 
d="M1087 1100q0 -142 -40 -207t-132 -92q129 -17 178.5 -96t49.5 -271q0 -167 -20 -245.5t-66 -122.5q-66 -66 -234 -66h-231v127h205q112 0 147 35q22 22 34.5 80t12.5 196q0 122 -11.5 178t-33.5 78q-21 21 -52 29t-97 8h-164v133h127q98 0 133 35q45 45 45 201t-45 198
q-30 33 -129 33h-178q-88 0 -121 -33q-43 -43 -43 -165v-1133h-328v129h180v836h-180v131h180v37q0 103 18.5 163t57.5 99q34 34 81 48.5t126 14.5h238q153 0 213 -57q42 -42 60.5 -109t18.5 -192z" />
    <glyph glyph-name="agrave" unicode="&#xe0;" horiz-adv-x="1200" 
d="M829 780q0 79 -6 111.5t-22 48.5q-15 15 -38.5 21t-76.5 6h-197q-96 0 -127 -31q-20 -20 -28 -57t-10 -111h-148q3 117 19 174t51 94q33 33 78 46.5t122 13.5h267q86 0 131 -13.5t74 -44.5q36 -34 47.5 -86.5t11.5 -163.5v-659h176v-129h-324v139q-107 -87 -164.5 -114
t-138.5 -27h-129q-143 0 -204 61q-66 66 -66 242q0 184 68 252q38 38 107.5 56t205.5 18q170 0 321 -25v178zM549 127q73 0 131 20.5t149 77.5v287h-327q-91 0 -129 -8.5t-60 -30.5q-21 -22 -29 -53.5t-8 -97.5q0 -131 33 -164q34 -31 121 -31h119zM702 1237h-137l-291 231
v11h238l190 -232v-10z" />
    <glyph glyph-name="aacute" unicode="&#xe1;" horiz-adv-x="1200" 
d="M829 780q0 79 -6 111.5t-22 48.5q-15 15 -38.5 21t-76.5 6h-197q-96 0 -127 -31q-20 -20 -28 -57t-10 -111h-148q3 117 19 174t51 94q33 33 78 46.5t122 13.5h267q86 0 131 -13.5t74 -44.5q36 -34 47.5 -86.5t11.5 -163.5v-659h176v-129h-324v139q-107 -87 -164.5 -114
t-138.5 -27h-129q-143 0 -204 61q-66 66 -66 242q0 184 68 252q38 38 107.5 56t205.5 18q170 0 321 -25v178zM549 127q73 0 131 20.5t149 77.5v287h-327q-91 0 -129 -8.5t-60 -30.5q-21 -22 -29 -53.5t-8 -97.5q0 -131 33 -164q34 -31 121 -31h119zM483 1237v10l191 232h237
v-11l-290 -231h-138z" />
    <glyph glyph-name="acircumflex" unicode="&#xe2;" horiz-adv-x="1200" 
d="M829 780q0 79 -6 111.5t-22 48.5q-15 15 -38.5 21t-76.5 6h-197q-96 0 -127 -31q-20 -20 -28 -57t-10 -111h-148q3 117 19 174t51 94q33 33 78 46.5t122 13.5h267q86 0 131 -13.5t74 -44.5q36 -34 47.5 -86.5t11.5 -163.5v-659h176v-129h-324v139q-107 -87 -164.5 -114
t-138.5 -27h-129q-143 0 -204 61q-66 66 -66 242q0 184 68 252q38 38 107.5 56t205.5 18q170 0 321 -25v178zM549 127q73 0 131 20.5t149 77.5v287h-327q-91 0 -129 -8.5t-60 -30.5q-21 -22 -29 -53.5t-8 -97.5q0 -131 33 -164q34 -31 121 -31h119zM797 1241l-207 148
l-207 -148h-119v10l242 244h172l242 -244v-10h-123z" />
    <glyph glyph-name="atilde" unicode="&#xe3;" horiz-adv-x="1200" 
d="M829 780q0 79 -6 111.5t-22 48.5q-15 15 -38.5 21t-76.5 6h-197q-96 0 -127 -31q-20 -20 -28 -57t-10 -111h-148q3 117 19 174t51 94q33 33 78 46.5t122 13.5h267q86 0 131 -13.5t74 -44.5q36 -34 47.5 -86.5t11.5 -163.5v-659h176v-129h-324v139q-107 -87 -164.5 -114
t-138.5 -27h-129q-143 0 -204 61q-66 66 -66 242q0 184 68 252q38 38 107.5 56t205.5 18q170 0 321 -25v178zM549 127q73 0 131 20.5t149 77.5v287h-327q-91 0 -129 -8.5t-60 -30.5q-21 -22 -29 -53.5t-8 -97.5q0 -131 33 -164q34 -31 121 -31h119zM293 1255v136q0 59 20 82
q19 22 64 22h24q43 0 125 -31l242 -94l43 123h80v-135q0 -58 -21 -82q-20 -23 -63 -23h-25q-43 0 -125 31l-241 94l-43 -123h-80z" />
    <glyph glyph-name="adieresis" unicode="&#xe4;" horiz-adv-x="1200" 
d="M829 780q0 79 -6 111.5t-22 48.5q-15 15 -38.5 21t-76.5 6h-197q-96 0 -127 -31q-20 -20 -28 -57t-10 -111h-148q3 117 19 174t51 94q33 33 78 46.5t122 13.5h267q86 0 131 -13.5t74 -44.5q36 -34 47.5 -86.5t11.5 -163.5v-659h176v-129h-324v139q-107 -87 -164.5 -114
t-138.5 -27h-129q-143 0 -204 61q-66 66 -66 242q0 184 68 252q38 38 107.5 56t205.5 18q170 0 321 -25v178zM549 127q73 0 131 20.5t149 77.5v287h-327q-91 0 -129 -8.5t-60 -30.5q-21 -22 -29 -53.5t-8 -97.5q0 -131 33 -164q34 -31 121 -31h119zM317 1288v195h170v-195
h-170zM696 1288v195h170v-195h-170z" />
    <glyph glyph-name="aring" unicode="&#xe5;" horiz-adv-x="1200" 
d="M829 780q0 79 -6 111.5t-22 48.5q-15 15 -38.5 21t-76.5 6h-197q-96 0 -127 -31q-20 -20 -28 -57t-10 -111h-148q3 117 19 174t51 94q33 33 78 46.5t122 13.5h267q86 0 131 -13.5t74 -44.5q36 -34 47.5 -86.5t11.5 -163.5v-659h176v-129h-324v139q-107 -87 -164.5 -114
t-138.5 -27h-129q-143 0 -204 61q-66 66 -66 242q0 184 68 252q38 38 107.5 56t205.5 18q170 0 321 -25v178zM549 127q73 0 131 20.5t149 77.5v287h-327q-91 0 -129 -8.5t-60 -30.5q-21 -22 -29 -53.5t-8 -97.5q0 -131 33 -164q34 -31 121 -31h119zM678 1247h-172
q-95 0 -135 43q-28 28 -38.5 62t-10.5 96q0 61 10.5 96t38.5 64q38 41 135 41h172q97 0 135 -41q28 -29 38.5 -64t10.5 -96q0 -62 -10.5 -96t-38.5 -62q-40 -43 -135 -43zM666 1563h-148q-48 0 -67 -19q-23 -23 -23 -96q0 -70 23 -96q17 -17 67 -17h148q50 0 67 17
q23 26 23 96q0 73 -23 96q-19 19 -67 19z" />
    <glyph glyph-name="ae" unicode="&#xe6;" horiz-adv-x="1839" 
d="M193 59q-66 66 -66 240q0 185 68 250q38 38 108 57t205 19q158 0 321 -27v182q0 79 -6 111.5t-22 48.5q-15 15 -38.5 21t-76.5 6h-197q-96 0 -127 -31q-20 -20 -28 -57t-10 -111h-148q3 117 19 174t51 94q33 33 78 46.5t122 13.5h242q87 0 132.5 -13.5t74.5 -44.5
q2 -3 11 -13t14 -17q6 10 22 26q35 35 85.5 48.5t135.5 13.5h221q162 0 222 -60q55 -55 74.5 -150t19.5 -327v-37q0 -24 -25 -24h-698q1 -179 12.5 -244.5t36.5 -89.5q18 -20 45 -26.5t86 -6.5h240q50 0 75.5 7.5t45.5 25.5q18 19 25.5 54t10.5 118h146q-3 -123 -19 -180.5
t-57 -98.5q-31 -31 -75.5 -44t-123.5 -13h-278q-87 0 -138 13.5t-85 47.5q-45 42 -64 103q-125 -104 -186 -135t-148 -31h-129q-143 0 -204 61zM844 236q-15 95 -15 272h-327q-91 0 -129 -8.5t-60 -30.5q-21 -21 -29 -53t-8 -97q0 -128 33 -161q34 -31 121 -31h119
q76 0 136.5 22.5t158.5 86.5zM1022 932q-23 -25 -33.5 -88t-11.5 -226h573q0 158 -11.5 223t-37.5 91q-17 19 -45 26t-86 7h-215q-58 0 -86 -7t-47 -26z" />
    <glyph glyph-name="ccedilla" unicode="&#xe7;" horiz-adv-x="1138" 
d="M461 0q-87 0 -138 13.5t-85 47.5q-54 54 -73.5 150.5t-19.5 337.5q0 239 19.5 335t73.5 150q35 35 85.5 48.5t137.5 13.5h270q78 0 123 -13.5t76 -44.5q40 -40 56.5 -103t19.5 -198h-148q-1 97 -10 137t-29 58q-17 17 -43 24t-78 7h-221q-58 0 -86 -7t-47 -26
q-27 -27 -38 -100t-11 -281q0 -209 11 -282.5t38 -100.5q19 -19 47 -26t86 -7h223q91 0 125 31q18 20 27 65t10 142h146q-1 -146 -17.5 -209t-58.5 -105q-57 -57 -199 -57h-272zM588 -74q97 0 127 -30q39 -39 39 -132q0 -90 -39 -129q-32 -32 -131 -32h-142l-90 65v29h215
q43 0 58 12q16 13 16 55q0 41 -16 54q-14 14 -58 14h-98v94h119z" />
    <glyph glyph-name="egrave" unicode="&#xe8;" horiz-adv-x="1157" 
d="M993 494h-698q1 -176 12.5 -241t36.5 -89q18 -20 45 -26.5t86 -6.5h240q50 0 75.5 7.5t45.5 25.5q18 19 25.5 54t10.5 118h146q-3 -123 -19 -180.5t-57 -98.5q-31 -31 -75.5 -44t-123.5 -13h-282q-87 0 -138 13.5t-85 47.5q-54 54 -73.5 150.5t-19.5 337.5
q0 239 19.5 335t73.5 150q35 35 85.5 48.5t137.5 13.5h241q162 0 222 -60q55 -55 74.5 -152t19.5 -329v-37q0 -24 -25 -24zM342 932q-24 -25 -35 -89t-12 -227h573q0 158 -12 224.5t-37 91.5q-17 19 -45 26t-86 7h-213q-58 0 -85 -7t-48 -26zM698 1237h-137l-291 231v11h238
l190 -232v-10z" />
    <glyph glyph-name="eacute" unicode="&#xe9;" horiz-adv-x="1157" 
d="M993 494h-698q1 -176 12.5 -241t36.5 -89q18 -20 45 -26.5t86 -6.5h240q50 0 75.5 7.5t45.5 25.5q18 19 25.5 54t10.5 118h146q-3 -123 -19 -180.5t-57 -98.5q-31 -31 -75.5 -44t-123.5 -13h-282q-87 0 -138 13.5t-85 47.5q-54 54 -73.5 150.5t-19.5 337.5
q0 239 19.5 335t73.5 150q35 35 85.5 48.5t137.5 13.5h241q162 0 222 -60q55 -55 74.5 -152t19.5 -329v-37q0 -24 -25 -24zM342 932q-24 -25 -35 -89t-12 -227h573q0 158 -12 224.5t-37 91.5q-17 19 -45 26t-86 7h-213q-58 0 -85 -7t-48 -26zM479 1237v10l191 232h237v-11
l-291 -231h-137z" />
    <glyph glyph-name="ecircumflex" unicode="&#xea;" horiz-adv-x="1157" 
d="M993 494h-698q1 -176 12.5 -241t36.5 -89q18 -20 45 -26.5t86 -6.5h240q50 0 75.5 7.5t45.5 25.5q18 19 25.5 54t10.5 118h146q-3 -123 -19 -180.5t-57 -98.5q-31 -31 -75.5 -44t-123.5 -13h-282q-87 0 -138 13.5t-85 47.5q-54 54 -73.5 150.5t-19.5 337.5
q0 239 19.5 335t73.5 150q35 35 85.5 48.5t137.5 13.5h241q162 0 222 -60q55 -55 74.5 -152t19.5 -329v-37q0 -24 -25 -24zM342 932q-24 -25 -35 -89t-12 -227h573q0 158 -12 224.5t-37 91.5q-17 19 -45 26t-86 7h-213q-58 0 -85 -7t-48 -26zM793 1241l-207 148l-207 -148
h-119v10l242 244h172l241 -244v-10h-122z" />
    <glyph glyph-name="edieresis" unicode="&#xeb;" horiz-adv-x="1157" 
d="M993 494h-698q1 -176 12.5 -241t36.5 -89q18 -20 45 -26.5t86 -6.5h240q50 0 75.5 7.5t45.5 25.5q18 19 25.5 54t10.5 118h146q-3 -123 -19 -180.5t-57 -98.5q-31 -31 -75.5 -44t-123.5 -13h-282q-87 0 -138 13.5t-85 47.5q-54 54 -73.5 150.5t-19.5 337.5
q0 239 19.5 335t73.5 150q35 35 85.5 48.5t137.5 13.5h241q162 0 222 -60q55 -55 74.5 -152t19.5 -329v-37q0 -24 -25 -24zM342 932q-24 -25 -35 -89t-12 -227h573q0 158 -12 224.5t-37 91.5q-17 19 -45 26t-86 7h-213q-58 0 -85 -7t-48 -26zM692 1288v195h170v-195h-170z
M313 1288v195h170v-195h-170z" />
    <glyph glyph-name="igrave" unicode="&#xec;" horiz-adv-x="684" 
d="M616 0h-507v129h184v836h-184v131h331v-967h176v-129zM440 1237h-137l-291 231v11h238l190 -232v-10z" />
    <glyph glyph-name="iacute" unicode="&#xed;" horiz-adv-x="684" 
d="M223 1237v10l191 232h237v-11l-291 -231h-137zM616 0h-507v129h184v836h-184v131h331v-967h176v-129z" />
    <glyph glyph-name="icircumflex" unicode="&#xee;" horiz-adv-x="684" 
d="M616 0h-507v129h184v836h-184v131h331v-967h176v-129zM537 1241l-207 148l-207 -148h-119v10l242 244h172l241 -244v-10h-122z" />
    <glyph glyph-name="idieresis" unicode="&#xef;" horiz-adv-x="684" 
d="M57 1288v195h170v-195h-170zM436 1288v195h170v-195h-170zM616 0h-507v129h184v836h-184v131h331v-967h176v-129z" />
    <glyph glyph-name="eth" unicode="&#xf0;" horiz-adv-x="1208" 
d="M459 1245l223 76l-125 154h125l111 -115l274 94v-117l-193 -65q118 -131 146 -213q17 -46 24 -152.5t7 -345.5q0 -250 -18 -346.5t-75 -153.5q-34 -34 -85 -47.5t-138 -13.5h-274q-87 0 -138 13.5t-85 47.5q-53 53 -73 143t-20 294q0 202 20 291.5t73 142.5
q34 34 85 47.5t138 13.5h129q82 0 140 -28t167 -117q-5 129 -25 194q-19 60 -118 187l-295 -101v117zM901 561q0 146 -2 199q-89 56 -146 78t-126 22h-150q-59 0 -87 -6.5t-46 -24.5q-27 -27 -38 -93t-11 -238t11 -238.5t38 -93.5q19 -19 47 -26t86 -7h242q58 0 86 7t47 26
q28 29 38.5 106t10.5 289z" />
    <glyph glyph-name="ntilde" unicode="&#xf1;" horiz-adv-x="1327" 
d="M420 1096v-146q112 91 169 119.5t142 28.5h127q74 0 115.5 -13.5t73.5 -44.5q32 -32 44.5 -81t12.5 -138v-692h178v-129h-498v129h174v684q0 86 -32 121q-18 18 -42.5 24.5t-82.5 6.5h-113q-68 0 -124 -21t-144 -78v-737h172v-129h-500v129h180v836h-180v131h328z
M387 1255v136q0 58 21 82q19 22 63 22h25q43 0 125 -31l241 -94l43 123h80v-135q0 -59 -20 -82t-64 -23h-24q-43 0 -125 31l-242 94l-43 -123h-80z" />
    <glyph glyph-name="ograve" unicode="&#xf2;" horiz-adv-x="1196" 
d="M461 0q-87 0 -138 13.5t-85 47.5q-54 54 -73.5 150.5t-19.5 337.5q0 239 19.5 335t73.5 150q35 35 85.5 48.5t137.5 13.5h274q87 0 137.5 -13.5t85.5 -48.5q54 -54 73.5 -150t19.5 -335q0 -241 -19.5 -337.5t-73.5 -150.5q-34 -34 -85 -47.5t-138 -13.5h-274zM295 549
q0 -209 11 -282.5t38 -100.5q19 -19 47 -26t86 -7h242q58 0 86 7t47 26q27 27 38 100.5t11 282.5q0 208 -11 281t-38 100q-19 19 -47 26t-86 7h-242q-58 0 -86 -7t-47 -26q-27 -27 -38 -100t-11 -281zM707 1237h-138l-290 231v11h237l191 -232v-10z" />
    <glyph glyph-name="oacute" unicode="&#xf3;" horiz-adv-x="1196" 
d="M489 1237v10l191 232h238v-11l-291 -231h-138zM461 0q-87 0 -138 13.5t-85 47.5q-54 54 -73.5 150.5t-19.5 337.5q0 239 19.5 335t73.5 150q35 35 85.5 48.5t137.5 13.5h274q87 0 137.5 -13.5t85.5 -48.5q54 -54 73.5 -150t19.5 -335q0 -241 -19.5 -337.5t-73.5 -150.5
q-34 -34 -85 -47.5t-138 -13.5h-274zM295 549q0 -209 11 -282.5t38 -100.5q19 -19 47 -26t86 -7h242q58 0 86 7t47 26q27 27 38 100.5t11 282.5q0 208 -11 281t-38 100q-19 19 -47 26t-86 7h-242q-58 0 -86 -7t-47 -26q-27 -27 -38 -100t-11 -281z" />
    <glyph glyph-name="ocircumflex" unicode="&#xf4;" horiz-adv-x="1196" 
d="M461 0q-87 0 -138 13.5t-85 47.5q-54 54 -73.5 150.5t-19.5 337.5q0 239 19.5 335t73.5 150q35 35 85.5 48.5t137.5 13.5h274q87 0 137.5 -13.5t85.5 -48.5q54 -54 73.5 -150t19.5 -335q0 -241 -19.5 -337.5t-73.5 -150.5q-34 -34 -85 -47.5t-138 -13.5h-274zM295 549
q0 -209 11 -282.5t38 -100.5q19 -19 47 -26t86 -7h242q58 0 86 7t47 26q27 27 38 100.5t11 282.5q0 208 -11 281t-38 100q-19 19 -47 26t-86 7h-242q-58 0 -86 -7t-47 -26q-27 -27 -38 -100t-11 -281zM803 1241l-207 148l-207 -148h-119v10l242 244h172l242 -244v-10h-123z
" />
    <glyph glyph-name="otilde" unicode="&#xf5;" horiz-adv-x="1196" 
d="M461 0q-87 0 -138 13.5t-85 47.5q-54 54 -73.5 150.5t-19.5 337.5q0 239 19.5 335t73.5 150q35 35 85.5 48.5t137.5 13.5h274q87 0 137.5 -13.5t85.5 -48.5q54 -54 73.5 -150t19.5 -335q0 -241 -19.5 -337.5t-73.5 -150.5q-34 -34 -85 -47.5t-138 -13.5h-274zM295 549
q0 -209 11 -282.5t38 -100.5q19 -19 47 -26t86 -7h242q58 0 86 7t47 26q27 27 38 100.5t11 282.5q0 208 -11 281t-38 100q-19 19 -47 26t-86 7h-242q-58 0 -86 -7t-47 -26q-27 -27 -38 -100t-11 -281zM299 1255v136q0 59 20 82q19 22 64 22h25q42 0 124 -31l242 -94l43 123
h80v-135q0 -59 -20 -82t-64 -23h-25q-42 0 -124 31l-242 94l-43 -123h-80z" />
    <glyph glyph-name="odieresis" unicode="&#xf6;" horiz-adv-x="1196" 
d="M324 1288v195h170v-195h-170zM702 1288v195h170v-195h-170zM461 0q-87 0 -138 13.5t-85 47.5q-54 54 -73.5 150.5t-19.5 337.5q0 239 19.5 335t73.5 150q35 35 85.5 48.5t137.5 13.5h274q87 0 137.5 -13.5t85.5 -48.5q54 -54 73.5 -150t19.5 -335q0 -241 -19.5 -337.5
t-73.5 -150.5q-34 -34 -85 -47.5t-138 -13.5h-274zM295 549q0 -209 11 -282.5t38 -100.5q19 -19 47 -26t86 -7h242q58 0 86 7t47 26q27 27 38 100.5t11 282.5q0 208 -11 281t-38 100q-19 19 -47 26t-86 7h-242q-58 0 -86 -7t-47 -26q-27 -27 -38 -100t-11 -281z" />
    <glyph glyph-name="divide" unicode="&#xf7;" horiz-adv-x="1052" 
d="M127 676v135h799v-135h-799zM434 326v186h182v-186h-182zM434 975v186h182v-186h-182z" />
    <glyph glyph-name="oslash" unicode="&#xf8;" horiz-adv-x="1196" 
d="M461 0q-63 0 -88 4l-58 -106h-139l80 145l-18 18q-54 54 -73.5 150.5t-19.5 337.5q0 239 19.5 335t73.5 150q35 35 85.5 48.5t137.5 13.5h274q57 0 82 -4l62 116h139l-84 -153l24 -21q54 -54 73.5 -150t19.5 -335q0 -241 -19.5 -337.5t-73.5 -150.5q-34 -34 -85 -47.5
t-138 -13.5h-274zM901 549q0 200 -10 274t-35 101l-416 -791q5 -1 11 -1t13.5 0.5t12.5 0.5h242q58 0 86 7t47 26q27 27 38 100.5t11 282.5zM295 549q0 -196 9 -271.5t32 -103.5l414 789h-31h-242q-58 0 -86 -7t-47 -26q-27 -27 -38 -100t-11 -281z" />
    <glyph glyph-name="ugrave" unicode="&#xf9;" horiz-adv-x="1298" 
d="M909 0v145q-113 -91 -170.5 -119t-140.5 -28h-129q-73 0 -114.5 13.5t-73.5 45.5q-31 31 -44.5 80.5t-13.5 136.5v691h-176v131h324v-813q0 -90 32 -119q19 -19 43.5 -26t81.5 -7h113q67 0 124 21t144 77v736h-192v131h340v-967h180v-129h-328zM733 1237h-137l-291 231
v11h238l190 -232v-10z" />
    <glyph glyph-name="uacute" unicode="&#xfa;" horiz-adv-x="1298" 
d="M909 0v145q-113 -91 -170.5 -119t-140.5 -28h-129q-73 0 -114.5 13.5t-73.5 45.5q-31 31 -44.5 80.5t-13.5 136.5v691h-176v131h324v-813q0 -90 32 -119q19 -19 43.5 -26t81.5 -7h113q67 0 124 21t144 77v736h-192v131h340v-967h180v-129h-328zM516 1237v10l191 232h237
v-11l-291 -231h-137z" />
    <glyph glyph-name="ucircumflex" unicode="&#xfb;" horiz-adv-x="1298" 
d="M909 0v145q-113 -91 -170.5 -119t-140.5 -28h-129q-73 0 -114.5 13.5t-73.5 45.5q-31 31 -44.5 80.5t-13.5 136.5v691h-176v131h324v-813q0 -90 32 -119q19 -19 43.5 -26t81.5 -7h113q67 0 124 21t144 77v736h-192v131h340v-967h180v-129h-328zM829 1241l-206 148
l-207 -148h-119v10l242 244h172l241 -244v-10h-123z" />
    <glyph glyph-name="udieresis" unicode="&#xfc;" horiz-adv-x="1298" 
d="M909 0v145q-113 -91 -170.5 -119t-140.5 -28h-129q-73 0 -114.5 13.5t-73.5 45.5q-31 31 -44.5 80.5t-13.5 136.5v691h-176v131h324v-813q0 -90 32 -119q19 -19 43.5 -26t81.5 -7h113q67 0 124 21t144 77v736h-192v131h340v-967h180v-129h-328zM729 1288v195h170v-195
h-170zM350 1288v195h170v-195h-170z" />
    <glyph glyph-name="yacute" unicode="&#xfd;" horiz-adv-x="1253" 
d="M344 965l285 -766h14l277 766h-160v131h457v-131h-146l-428 -1153q-26 -69 -65 -96t-113 -27q-75 0 -217 14v121h207q27 0 40 11t23 36l45 125l-383 969h-145v131h469v-131h-160zM528 1237v10l191 232h237v-11l-290 -231h-138z" />
    <glyph glyph-name="thorn" unicode="&#xfe;" horiz-adv-x="1265" 
d="M229 -178v1521h-180v132h328v-525q111 91 169.5 119.5t141.5 28.5h115q91 0 144 -16t89 -52q33 -35 50.5 -82t26.5 -141t9 -258q0 -165 -9 -259.5t-26 -141.5t-51 -82q-36 -36 -89 -52t-144 -16h-115q-83 0 -141.5 28t-169.5 119v-323h190v-129h-518v129h180zM645 965
q-68 0 -125 -22t-143 -77v-635q88 -56 146 -78t128 -22h121q109 0 148 39q31 31 41 104t10 275q0 201 -10 274.5t-41 102.5q-19 21 -51.5 30t-96.5 9h-127z" />
    <glyph glyph-name="ydieresis" unicode="&#xff;" horiz-adv-x="1253" 
d="M344 965l285 -766h14l277 766h-160v131h457v-131h-146l-428 -1153q-26 -69 -65 -96t-113 -27q-75 0 -217 14v121h207q27 0 40 11t23 36l45 125l-383 969h-145v131h469v-131h-160zM741 1288v195h170v-195h-170zM362 1288v195h170v-195h-170z" />
    <glyph glyph-name="Amacron" unicode="&#x100;" horiz-adv-x="1519" 
d="M580 0h-533v137h172l397 1241q12 37 29.5 49.5t59.5 12.5h110q42 0 59 -12.5t29 -49.5l397 -1241h173v-137h-547v137h207l-109 344q-52 0 -264.5 -1t-280.5 -1l-106 -342h207v-137zM733 1300l-213 -688h465l-213 688h-39zM455 1577v125h598v-125h-598z" />
    <glyph glyph-name="amacron" unicode="&#x101;" horiz-adv-x="1200" 
d="M829 780q0 79 -6 111.5t-22 48.5q-15 15 -38.5 21t-76.5 6h-197q-96 0 -127 -31q-20 -20 -28 -57t-10 -111h-148q3 117 19 174t51 94q33 33 78 46.5t122 13.5h267q86 0 131 -13.5t74 -44.5q36 -34 47.5 -86.5t11.5 -163.5v-659h176v-129h-324v139q-107 -87 -164.5 -114
t-138.5 -27h-129q-143 0 -204 61q-66 66 -66 242q0 184 68 252q38 38 107.5 56t205.5 18q170 0 321 -25v178zM549 127q73 0 131 20.5t149 77.5v287h-327q-91 0 -129 -8.5t-60 -30.5q-21 -22 -29 -53.5t-8 -97.5q0 -131 33 -164q34 -31 121 -31h119zM293 1249v125h598v-125
h-598z" />
    <glyph glyph-name="Abreve" unicode="&#x102;" horiz-adv-x="1519" 
d="M580 0h-533v137h172l397 1241q12 37 29.5 49.5t59.5 12.5h110q42 0 59 -12.5t29 -49.5l397 -1241h173v-137h-547v137h207l-109 344q-52 0 -264.5 -1t-280.5 -1l-106 -342h207v-137zM733 1300l-213 -688h465l-213 688h-39zM754 1679q175 0 204 144h107
q-8 -123 -87.5 -191.5t-223.5 -68.5t-224 68.5t-88 191.5h107q29 -144 205 -144z" />
    <glyph glyph-name="abreve" unicode="&#x103;" horiz-adv-x="1200" 
d="M829 780q0 79 -6 111.5t-22 48.5q-15 15 -38.5 21t-76.5 6h-197q-96 0 -127 -31q-20 -20 -28 -57t-10 -111h-148q3 117 19 174t51 94q33 33 78 46.5t122 13.5h267q86 0 131 -13.5t74 -44.5q36 -34 47.5 -86.5t11.5 -163.5v-659h176v-129h-324v139q-107 -87 -164.5 -114
t-138.5 -27h-129q-143 0 -204 61q-66 66 -66 242q0 184 68 252q38 38 107.5 56t205.5 18q170 0 321 -25v178zM549 127q73 0 131 20.5t149 77.5v287h-327q-91 0 -129 -8.5t-60 -30.5q-21 -22 -29 -53.5t-8 -97.5q0 -131 33 -164q34 -31 121 -31h119zM592 1352q176 0 205 143
h106q-8 -123 -87.5 -191.5t-223.5 -68.5t-223.5 68.5t-87.5 191.5h106q29 -143 205 -143z" />
    <glyph glyph-name="Aogonek" unicode="&#x104;" horiz-adv-x="1519" 
d="M1331 -168h113q0 -97 -8.5 -138t-32.5 -63q-32 -28 -107 -28h-122q-75 0 -107 28q-23 22 -32 56t-9 98q0 47 5 74t24 55q17 30 80 86h-209v137h207l-109 344q-52 0 -264.5 -1t-280.5 -1l-106 -342h207v-137h-533v137h172l397 1241q12 37 29.5 49.5t59.5 12.5h110
q42 0 59 -12.5t29 -49.5l397 -1241h173v-137h-232q-58 -53 -76 -84q-20 -34 -20 -98q0 -83 14 -97q15 -12 43 -12h72q28 0 43 12q14 14 14 111zM733 1300l-213 -688h465l-213 688h-39z" />
    <glyph glyph-name="aogonek" unicode="&#x105;" horiz-adv-x="1200" 
d="M1022 -168h113q0 -97 -8.5 -138t-32.5 -63q-32 -28 -107 -28h-123q-74 0 -106 28q-23 22 -32 56t-9 98q0 48 4.5 74.5t23.5 54.5q19 33 84 88v137q-107 -87 -164.5 -114t-138.5 -27h-129q-143 0 -204 61q-66 66 -66 242q0 184 68 252q38 38 107.5 56t205.5 18
q170 0 321 -25v178q0 79 -6 111.5t-22 48.5q-15 15 -38.5 21t-76.5 6h-197q-96 0 -127 -31q-20 -20 -28 -57t-10 -111h-148q3 117 19 174t51 94q33 33 78 46.5t122 13.5h267q86 0 131 -13.5t74 -44.5q36 -34 47.5 -86.5t11.5 -163.5v-659h176v-129h-221q-58 -53 -76 -84
q-20 -34 -20 -98q0 -83 14 -97q15 -12 43 -12h72q28 0 43 12q14 14 14 111zM549 127q73 0 131 20.5t149 77.5v287h-327q-91 0 -129 -8.5t-60 -30.5q-21 -22 -29 -53.5t-8 -97.5q0 -131 33 -164q34 -31 121 -31h119z" />
    <glyph glyph-name="Cacute" unicode="&#x106;" horiz-adv-x="1396" 
d="M604 1565v10l191 231h237v-10l-291 -231h-137zM924 0h-437q-90 0 -135.5 12.5t-77.5 44.5q-39 37 -58.5 96t-29.5 191t-10 373t10 372.5t29.5 190t58.5 96.5q32 32 77.5 45t135.5 13h439q88 0 137.5 -13t79.5 -43q49 -49 66 -128.5t22 -262.5h-156q-3 133 -13.5 192.5
t-33.5 82.5q-28 28 -123 28h-391q-59 0 -84 -6t-41 -22q-26 -28 -37.5 -133t-11.5 -412t11.5 -412t37.5 -133q16 -16 41.5 -22.5t83.5 -6.5h391q55 0 81 7.5t42 23.5q23 23 33 82t14 213h158q-5 -195 -22.5 -278.5t-67.5 -135.5q-58 -55 -219 -55z" />
    <glyph glyph-name="cacute" unicode="&#x107;" horiz-adv-x="1138" 
d="M475 1237v10l191 232h237v-11l-291 -231h-137zM461 0q-87 0 -138 13.5t-85 47.5q-54 54 -73.5 150.5t-19.5 337.5q0 239 19.5 335t73.5 150q35 35 85.5 48.5t137.5 13.5h270q78 0 123 -13.5t76 -44.5q40 -40 56.5 -103t19.5 -198h-148q-1 97 -10 137t-29 58
q-17 17 -43 24t-78 7h-221q-58 0 -86 -7t-47 -26q-27 -27 -38 -100t-11 -281q0 -209 11 -282.5t38 -100.5q19 -19 47 -26t86 -7h223q91 0 125 31q18 20 27 65t10 142h146q-1 -146 -17.5 -209t-58.5 -105q-57 -57 -199 -57h-272z" />
    <glyph glyph-name="Cdotaccent" unicode="&#x10a;" horiz-adv-x="1396" 
d="M924 0h-437q-90 0 -135.5 12.5t-77.5 44.5q-39 37 -58.5 96t-29.5 191t-10 373t10 372.5t29.5 190t58.5 96.5q32 32 77.5 45t135.5 13h439q88 0 137.5 -13t79.5 -43q49 -49 66 -128.5t22 -262.5h-156q-3 133 -13.5 192.5t-33.5 82.5q-28 28 -123 28h-391q-59 0 -84 -6
t-41 -22q-26 -28 -37.5 -133t-11.5 -412t11.5 -412t37.5 -133q16 -16 41.5 -22.5t83.5 -6.5h391q55 0 81 7.5t42 23.5q23 23 33 82t14 213h158q-5 -195 -22.5 -278.5t-67.5 -135.5q-58 -55 -219 -55zM625 1614v196h176v-196h-176z" />
    <glyph glyph-name="cdotaccent" unicode="&#x10b;" horiz-adv-x="1138" 
d="M461 0q-87 0 -138 13.5t-85 47.5q-54 54 -73.5 150.5t-19.5 337.5q0 239 19.5 335t73.5 150q35 35 85.5 48.5t137.5 13.5h270q78 0 123 -13.5t76 -44.5q40 -40 56.5 -103t19.5 -198h-148q-1 97 -10 137t-29 58q-17 17 -43 24t-78 7h-221q-58 0 -86 -7t-47 -26
q-27 -27 -38 -100t-11 -281q0 -209 11 -282.5t38 -100.5q19 -19 47 -26t86 -7h223q91 0 125 31q18 20 27 65t10 142h146q-1 -146 -17.5 -209t-58.5 -105q-57 -57 -199 -57h-272zM496 1286v197h176v-197h-176z" />
    <glyph glyph-name="Ccaron" unicode="&#x10c;" horiz-adv-x="1396" 
d="M924 0h-437q-90 0 -135.5 12.5t-77.5 44.5q-39 37 -58.5 96t-29.5 191t-10 373t10 372.5t29.5 190t58.5 96.5q32 32 77.5 45t135.5 13h439q88 0 137.5 -13t79.5 -43q49 -49 66 -128.5t22 -262.5h-156q-3 133 -13.5 192.5t-33.5 82.5q-28 28 -123 28h-391q-59 0 -84 -6
t-41 -22q-26 -28 -37.5 -133t-11.5 -412t11.5 -412t37.5 -133q16 -16 41.5 -22.5t83.5 -6.5h391q55 0 81 7.5t42 23.5q23 23 33 82t14 213h158q-5 -195 -22.5 -278.5t-67.5 -135.5q-58 -55 -219 -55zM625 1569l-242 243v11h123l207 -148l207 148h118v-11l-241 -243h-172z
" />
    <glyph glyph-name="ccaron" unicode="&#x10d;" horiz-adv-x="1138" 
d="M461 0q-87 0 -138 13.5t-85 47.5q-54 54 -73.5 150.5t-19.5 337.5q0 239 19.5 335t73.5 150q35 35 85.5 48.5t137.5 13.5h270q78 0 123 -13.5t76 -44.5q40 -40 56.5 -103t19.5 -198h-148q-1 97 -10 137t-29 58q-17 17 -43 24t-78 7h-221q-58 0 -86 -7t-47 -26
q-27 -27 -38 -100t-11 -281q0 -209 11 -282.5t38 -100.5q19 -19 47 -26t86 -7h223q91 0 125 31q18 20 27 65t10 142h146q-1 -146 -17.5 -209t-58.5 -105q-57 -57 -199 -57h-272zM496 1241l-242 244v10h123l207 -147l207 147h118v-10l-241 -244h-172z" />
    <glyph glyph-name="Dcaron" unicode="&#x10e;" horiz-adv-x="1464" 
d="M877 1434q107 0 171.5 -20.5t112.5 -67.5q66 -68 99.5 -211.5t33.5 -417.5t-33.5 -417.5t-99.5 -211.5q-48 -47 -112.5 -67.5t-171.5 -20.5h-779v137h201v1159h-201v138h779zM453 1296v-1159h413q71 0 107 10.5t65 40.5q45 44 68.5 160.5t23.5 366.5q0 253 -23.5 369.5
t-68.5 160.5q-30 30 -66 40.5t-106 10.5h-413zM608 1569l-241 243v11h122l207 -148l207 148h119v-11l-242 -243h-172z" />
    <glyph glyph-name="dcaron" unicode="&#x10f;" horiz-adv-x="1277" 
d="M889 0v145q-111 -91 -169.5 -119t-141.5 -28h-115q-90 0 -143 16t-89 52q-51 51 -68.5 145.5t-17.5 337.5q0 242 17.5 336t68.5 145q36 36 89 52t143 16h115q83 0 142 -29t169 -119v396h-189v129h336v-1346h181v-129h-328zM621 131q68 0 125.5 21.5t142.5 76.5v633
q-88 58 -146.5 80.5t-126.5 22.5h-122q-62 0 -94.5 -9t-53.5 -30q-30 -30 -40.5 -104.5t-10.5 -272.5q0 -199 10.5 -273t40.5 -106q42 -39 148 -39h127zM1221 1133l-58 22l47 184q7 31 7 47q0 15 -7 50l-39 163v39h172v-151q0 -72 -9 -110.5t-38 -92.5z" />
    <glyph glyph-name="Dcroat" unicode="&#x110;" horiz-adv-x="1464" 
d="M877 1434q107 0 171.5 -20.5t112.5 -67.5q66 -68 99.5 -211.5t33.5 -417.5t-33.5 -417.5t-99.5 -211.5q-48 -47 -112.5 -67.5t-171.5 -20.5h-779v137h201v535h-201v131h201v493h-201v138h779zM752 672h-299v-535h413q71 0 107 10.5t65 40.5q45 44 68.5 160.5t23.5 366.5
q0 253 -23.5 369.5t-68.5 160.5q-30 30 -66 40.5t-106 10.5h-413v-493h299v-131z" />
    <glyph glyph-name="dcroat" unicode="&#x111;" horiz-adv-x="1277" 
d="M145 549q0 242 17.5 336t68.5 145q36 36 89 52t143 16h115q83 0 142 -29t169 -119v217h-314v93h314v86h-189v129h336v-215h181v-93h-181v-1038h181v-129h-328v145q-111 -91 -169.5 -119t-141.5 -28h-115q-90 0 -143 16t-89 52q-51 51 -68.5 145.5t-17.5 337.5zM621 131
q68 0 125.5 21.5t142.5 76.5v633q-88 58 -146.5 80.5t-126.5 22.5h-122q-62 0 -94.5 -9t-53.5 -30q-30 -30 -40.5 -104.5t-10.5 -272.5q0 -199 10.5 -273t40.5 -106q42 -39 148 -39h127z" />
    <glyph glyph-name="Emacron" unicode="&#x112;" horiz-adv-x="1353" 
d="M299 1296h-201v138h1102v-420h-151v282h-596v-485h450v-133h-450v-541h608v309h151v-446h-1114v137h201v1159zM375 1577v125h598v-125h-598z" />
    <glyph glyph-name="emacron" unicode="&#x113;" horiz-adv-x="1157" 
d="M993 494h-698q1 -176 12.5 -241t36.5 -89q18 -20 45 -26.5t86 -6.5h240q50 0 75.5 7.5t45.5 25.5q18 19 25.5 54t10.5 118h146q-3 -123 -19 -180.5t-57 -98.5q-31 -31 -75.5 -44t-123.5 -13h-282q-87 0 -138 13.5t-85 47.5q-54 54 -73.5 150.5t-19.5 337.5
q0 239 19.5 335t73.5 150q35 35 85.5 48.5t137.5 13.5h241q162 0 222 -60q55 -55 74.5 -152t19.5 -329v-37q0 -24 -25 -24zM342 932q-24 -25 -35 -89t-12 -227h573q0 158 -12 224.5t-37 91.5q-17 19 -45 26t-86 7h-213q-58 0 -85 -7t-48 -26zM289 1249v125h598v-125h-598z
" />
    <glyph glyph-name="Ebreve" unicode="&#x114;" horiz-adv-x="1353" 
d="M299 1296h-201v138h1102v-420h-151v282h-596v-485h450v-133h-450v-541h608v309h151v-446h-1114v137h201v1159zM674 1679q176 0 205 144h106q-8 -123 -87.5 -191.5t-223.5 -68.5t-224 68.5t-88 191.5h107q29 -144 205 -144z" />
    <glyph glyph-name="ebreve" unicode="&#x115;" horiz-adv-x="1157" 
d="M993 494h-698q1 -176 12.5 -241t36.5 -89q18 -20 45 -26.5t86 -6.5h240q50 0 75.5 7.5t45.5 25.5q18 19 25.5 54t10.5 118h146q-3 -123 -19 -180.5t-57 -98.5q-31 -31 -75.5 -44t-123.5 -13h-282q-87 0 -138 13.5t-85 47.5q-54 54 -73.5 150.5t-19.5 337.5
q0 239 19.5 335t73.5 150q35 35 85.5 48.5t137.5 13.5h241q162 0 222 -60q55 -55 74.5 -152t19.5 -329v-37q0 -24 -25 -24zM342 932q-24 -25 -35 -89t-12 -227h573q0 158 -12 224.5t-37 91.5q-17 19 -45 26t-86 7h-213q-58 0 -85 -7t-48 -26zM588 1352q176 0 205 143h106
q-8 -123 -87.5 -191.5t-223.5 -68.5t-224 68.5t-88 191.5h107q29 -143 205 -143z" />
    <glyph glyph-name="Edotaccent" unicode="&#x116;" horiz-adv-x="1353" 
d="M299 1296h-201v138h1102v-420h-151v282h-596v-485h450v-133h-450v-541h608v309h151v-446h-1114v137h201v1159zM586 1614v196h176v-196h-176z" />
    <glyph glyph-name="edotaccent" unicode="&#x117;" horiz-adv-x="1157" 
d="M993 494h-698q1 -176 12.5 -241t36.5 -89q18 -20 45 -26.5t86 -6.5h240q50 0 75.5 7.5t45.5 25.5q18 19 25.5 54t10.5 118h146q-3 -123 -19 -180.5t-57 -98.5q-31 -31 -75.5 -44t-123.5 -13h-282q-87 0 -138 13.5t-85 47.5q-54 54 -73.5 150.5t-19.5 337.5
q0 239 19.5 335t73.5 150q35 35 85.5 48.5t137.5 13.5h241q162 0 222 -60q55 -55 74.5 -152t19.5 -329v-37q0 -24 -25 -24zM342 932q-24 -25 -35 -89t-12 -227h573q0 158 -12 224.5t-37 91.5q-17 19 -45 26t-86 7h-213q-58 0 -85 -7t-48 -26zM500 1286v197h176v-197h-176z
" />
    <glyph glyph-name="Eogonek" unicode="&#x118;" horiz-adv-x="1353" 
d="M299 1296h-201v138h1102v-420h-151v282h-596v-485h450v-133h-450v-541h608v309h151v-446h-223q-58 -53 -76 -84q-20 -34 -20 -98q0 -83 14 -97q15 -12 43 -12h72q28 0 43 12q14 14 14 111h113q0 -97 -8.5 -138t-32.5 -63q-32 -28 -107 -28h-122q-75 0 -107 28
q-23 22 -32 56t-9 98q0 47 5 74t24 55q17 30 80 86h-785v137h201v1159z" />
    <glyph glyph-name="eogonek" unicode="&#x119;" horiz-adv-x="1157" 
d="M887 -168h112q0 -97 -8.5 -138t-32.5 -63q-32 -28 -106 -28h-123q-74 0 -106 28q-23 22 -32 56t-9 98q0 48 4.5 74.5t23.5 54.5q17 30 80 86h-229q-87 0 -138 13.5t-85 47.5q-54 54 -73.5 150.5t-19.5 337.5q0 239 19.5 335t73.5 150q35 35 85.5 48.5t137.5 13.5h241
q162 0 222 -60q55 -55 74.5 -152t19.5 -329v-37q0 -24 -25 -24h-698q1 -176 12.5 -241t36.5 -89q18 -20 45 -26.5t86 -6.5h240q50 0 75.5 7.5t45.5 25.5q18 19 25.5 54t10.5 118h146q-3 -123 -19 -180.5t-57 -98.5q-50 -50 -143 -55q-60 -51 -78 -86q-21 -35 -21 -98
q0 -82 15 -97q15 -12 43 -12h71q28 0 43 12q15 15 15 111zM342 932q-24 -25 -35 -89t-12 -227h573q0 158 -12 224.5t-37 91.5q-17 19 -45 26t-86 7h-213q-58 0 -85 -7t-48 -26z" />
    <glyph glyph-name="Ecaron" unicode="&#x11a;" horiz-adv-x="1353" 
d="M299 1296h-201v138h1102v-420h-151v282h-596v-485h450v-133h-450v-541h608v309h151v-446h-1114v137h201v1159zM586 1569l-242 243v11h123l207 -148l207 148h118v-11l-241 -243h-172z" />
    <glyph glyph-name="ecaron" unicode="&#x11b;" horiz-adv-x="1157" 
d="M993 494h-698q1 -176 12.5 -241t36.5 -89q18 -20 45 -26.5t86 -6.5h240q50 0 75.5 7.5t45.5 25.5q18 19 25.5 54t10.5 118h146q-3 -123 -19 -180.5t-57 -98.5q-31 -31 -75.5 -44t-123.5 -13h-282q-87 0 -138 13.5t-85 47.5q-54 54 -73.5 150.5t-19.5 337.5
q0 239 19.5 335t73.5 150q35 35 85.5 48.5t137.5 13.5h241q162 0 222 -60q55 -55 74.5 -152t19.5 -329v-37q0 -24 -25 -24zM342 932q-24 -25 -35 -89t-12 -227h573q0 158 -12 224.5t-37 91.5q-17 19 -45 26t-86 7h-213q-58 0 -85 -7t-48 -26zM500 1241l-242 244v10h123
l207 -147l207 147h118v-10l-241 -244h-172z" />
    <glyph glyph-name="Gbreve" unicode="&#x11e;" horiz-adv-x="1417" 
d="M1235 999h-158q-3 128 -12.5 184t-32.5 79q-28 28 -125 28h-393q-59 0 -84 -6t-41 -22q-26 -28 -37.5 -133t-11.5 -412t11.5 -412t37.5 -133q16 -16 41.5 -22.5t83.5 -6.5h399q58 0 84.5 6.5t40.5 22.5q26 26 37.5 100t11.5 269v45h-362v133h518v-133q0 -190 -9.5 -294
t-26.5 -149.5t-52 -81.5q-34 -34 -82.5 -47.5t-136.5 -13.5h-449q-90 0 -135.5 12.5t-77.5 44.5q-39 37 -58.5 96t-29.5 191t-10 373t10 372.5t29.5 190t58.5 96.5q32 32 77.5 45t135.5 13h443q88 0 137.5 -13t77.5 -43q50 -48 67.5 -126.5t22.5 -252.5zM713 1679
q176 0 205 144h106q-8 -123 -87.5 -191.5t-223.5 -68.5t-224 68.5t-88 191.5h107q29 -144 205 -144z" />
    <glyph glyph-name="gbreve" unicode="&#x11f;" horiz-adv-x="1277" 
d="M420 -307q-123 0 -176 53q-33 33 -46.5 78.5t-13.5 134.5h142q1 -52 7.5 -75.5t22.5 -41.5q27 -24 103 -24h293q75 0 104 26q17 17 25 49.5t8 114.5v211q-111 -91 -169.5 -119t-141.5 -28h-115q-91 0 -143.5 15.5t-88.5 51.5q-50 50 -68 141.5t-18 305.5t18 304t68 140
q36 36 89 52t143 16h115q83 0 142 -29t169 -119v146h328v-131h-181v-940q0 -128 -13.5 -183.5t-51.5 -93.5q-29 -29 -72.5 -42t-120.5 -13h-358zM295 586q0 -176 10.5 -243t40.5 -99q42 -39 148 -39h127q68 0 125.5 21.5t142.5 76.5v559q-88 58 -146.5 80.5t-126.5 22.5
h-122q-62 0 -94.5 -9t-53.5 -30q-30 -30 -40.5 -97.5t-10.5 -242.5zM651 1352q176 0 205 143h107q-8 -123 -88 -191.5t-224 -68.5t-223.5 68.5t-87.5 191.5h106q29 -143 205 -143z" />
    <glyph glyph-name="Gdotaccent" unicode="&#x120;" horiz-adv-x="1417" 
d="M1235 999h-158q-3 128 -12.5 184t-32.5 79q-28 28 -125 28h-393q-59 0 -84 -6t-41 -22q-26 -28 -37.5 -133t-11.5 -412t11.5 -412t37.5 -133q16 -16 41.5 -22.5t83.5 -6.5h399q58 0 84.5 6.5t40.5 22.5q26 26 37.5 100t11.5 269v45h-362v133h518v-133q0 -190 -9.5 -294
t-26.5 -149.5t-52 -81.5q-34 -34 -82.5 -47.5t-136.5 -13.5h-449q-90 0 -135.5 12.5t-77.5 44.5q-39 37 -58.5 96t-29.5 191t-10 373t10 372.5t29.5 190t58.5 96.5q32 32 77.5 45t135.5 13h443q88 0 137.5 -13t77.5 -43q50 -48 67.5 -126.5t22.5 -252.5zM625 1614v196h176
v-196h-176z" />
    <glyph glyph-name="gdotaccent" unicode="&#x121;" horiz-adv-x="1277" 
d="M420 -307q-123 0 -176 53q-33 33 -46.5 78.5t-13.5 134.5h142q1 -52 7.5 -75.5t22.5 -41.5q27 -24 103 -24h293q75 0 104 26q17 17 25 49.5t8 114.5v211q-111 -91 -169.5 -119t-141.5 -28h-115q-91 0 -143.5 15.5t-88.5 51.5q-50 50 -68 141.5t-18 305.5t18 304t68 140
q36 36 89 52t143 16h115q83 0 142 -29t169 -119v146h328v-131h-181v-940q0 -128 -13.5 -183.5t-51.5 -93.5q-29 -29 -72.5 -42t-120.5 -13h-358zM295 586q0 -176 10.5 -243t40.5 -99q42 -39 148 -39h127q68 0 125.5 21.5t142.5 76.5v559q-88 58 -146.5 80.5t-126.5 22.5
h-122q-62 0 -94.5 -9t-53.5 -30q-30 -30 -40.5 -97.5t-10.5 -242.5zM563 1286v197h176v-197h-176z" />
    <glyph glyph-name="Gcommaaccent" unicode="&#x122;" horiz-adv-x="1417" 
d="M623 -143h182v-187q0 -39 -9 -63t-32 -51l-148 -174l-51 40l119 175q14 21 14 51v14h-75v195zM1235 999h-158q-3 128 -12.5 184t-32.5 79q-28 28 -125 28h-393q-59 0 -84 -6t-41 -22q-26 -28 -37.5 -133t-11.5 -412t11.5 -412t37.5 -133q16 -16 41.5 -22.5t83.5 -6.5h399
q58 0 84.5 6.5t40.5 22.5q26 26 37.5 100t11.5 269v45h-362v133h518v-133q0 -190 -9.5 -294t-26.5 -149.5t-52 -81.5q-34 -34 -82.5 -47.5t-136.5 -13.5h-449q-90 0 -135.5 12.5t-77.5 44.5q-39 37 -58.5 96t-29.5 191t-10 373t10 372.5t29.5 190t58.5 96.5q32 32 77.5 45
t135.5 13h443q88 0 137.5 -13t77.5 -43q50 -48 67.5 -126.5t22.5 -252.5z" />
    <glyph glyph-name="gcommaaccent" unicode="&#x123;" horiz-adv-x="1277" 
d="M420 -307q-123 0 -176 53q-33 33 -46.5 78.5t-13.5 134.5h142q1 -52 7.5 -75.5t22.5 -41.5q27 -24 103 -24h293q75 0 104 26q17 17 25 49.5t8 114.5v211q-111 -91 -169.5 -119t-141.5 -28h-115q-91 0 -143.5 15.5t-88.5 51.5q-50 50 -68 141.5t-18 305.5t18 304t68 140
q36 36 89 52t143 16h115q83 0 142 -29t169 -119v146h328v-131h-181v-940q0 -128 -13.5 -183.5t-51.5 -93.5q-29 -29 -72.5 -42t-120.5 -13h-358zM295 586q0 -176 10.5 -243t40.5 -99q42 -39 148 -39h127q68 0 125.5 21.5t142.5 76.5v559q-88 58 -146.5 80.5t-126.5 22.5
h-122q-62 0 -94.5 -9t-53.5 -30q-30 -30 -40.5 -97.5t-10.5 -242.5zM741 1272h-182v186q0 40 9 64.5t32 50.5l148 174l51 -41l-119 -174q-14 -21 -14 -51v-15h75v-194z" />
    <glyph glyph-name="Hbar" unicode="&#x126;" horiz-adv-x="1593" 
d="M1495 983h-201v-846h201v-137h-563v137h209v516h-688v-516h209v-137h-564v137h201v846h-201v127h201v186h-201v138h564v-138h-209v-186h688v186h-209v138h563v-138h-201v-186h201v-127zM453 786h688v197h-688v-197z" />
    <glyph glyph-name="hbar" unicode="&#x127;" horiz-adv-x="1310" 
d="M401 1475v-215h316v-93h-316v-217q113 91 171 119.5t141 28.5h129q72 0 114 -13.5t74 -44.5q31 -32 44 -82t13 -137v-692h177v-129h-496v129h172v684q0 88 -33 121q-18 18 -42.5 24.5t-82.5 6.5h-112q-67 0 -124.5 -21.5t-144.5 -77.5v-737h172v-129h-499v129h180v1038
h-180v93h180v83h-180v132h327z" />
    <glyph glyph-name="Imacron" unicode="&#x12a;" horiz-adv-x="794" 
d="M475 137h209v-137h-573v137h208v1159h-208v138h573v-138h-209v-1159zM98 1577v125h598v-125h-598z" />
    <glyph glyph-name="imacron" unicode="&#x12b;" horiz-adv-x="684" 
d="M616 0h-507v129h184v836h-184v131h331v-967h176v-129zM33 1249v125h598v-125h-598z" />
    <glyph glyph-name="Ibreve" unicode="&#x12c;" horiz-adv-x="794" 
d="M475 137h209v-137h-573v137h208v1159h-208v138h573v-138h-209v-1159zM397 1679q176 0 205 144h107q-8 -123 -88 -191.5t-224 -68.5t-223.5 68.5t-87.5 191.5h107q29 -144 204 -144z" />
    <glyph glyph-name="ibreve" unicode="&#x12d;" horiz-adv-x="684" 
d="M616 0h-507v129h184v836h-184v131h331v-967h176v-129zM332 1352q176 0 205 143h106q-8 -123 -87.5 -191.5t-223.5 -68.5t-224 68.5t-88 191.5h107q29 -143 205 -143z" />
    <glyph glyph-name="Iogonek" unicode="&#x12e;" horiz-adv-x="794" 
d="M535 -168h112q0 -97 -8.5 -138t-32.5 -63q-32 -28 -106 -28h-123q-75 0 -107 28q-23 22 -32 56t-9 98q0 47 5 74t24 55q17 30 80 86h-227v137h208v1159h-208v138h573v-138h-209v-1159h209v-137h-240q-55 -51 -75 -84q-21 -35 -21 -98q0 -83 14 -97q15 -12 44 -12h71
q28 0 43 12q15 15 15 111z" />
    <glyph glyph-name="iogonek" unicode="&#x12f;" horiz-adv-x="684" 
d="M475 -168h113q0 -97 -8.5 -138t-32.5 -63q-32 -28 -107 -28h-123q-74 0 -106 28q-23 22 -32 56t-9 98q0 47 5 74t24 55q17 30 80 86h-170v129h184v836h-184v131h331v-967h176v-129h-231q-58 -53 -76 -84q-20 -34 -20 -98q0 -83 14 -97q15 -12 43 -12h72q28 0 43 12
q14 14 14 111zM270 1286v197h176v-197h-176z" />
    <glyph glyph-name="Idotaccent" unicode="&#x130;" horiz-adv-x="794" 
d="M475 137h209v-137h-573v137h208v1159h-208v138h573v-138h-209v-1159zM309 1614v196h176v-196h-176z" />
    <glyph glyph-name="dotlessi" unicode="&#x131;" horiz-adv-x="684" 
d="M616 0h-507v129h184v836h-184v131h331v-967h176v-129z" />
    <glyph glyph-name="Kcommaaccent" unicode="&#x136;" horiz-adv-x="1488" 
d="M1079 133l-422 547h-204v-543h209v-137h-564v137h201v1159h-201v138h564v-138h-209v-487h211l421 491h-192v134h530v-138h-170l-477 -540l488 -619h176v-137h-549v133h188zM678 -143h182v-187q0 -39 -9 -63t-32 -51l-147 -174l-51 40l118 175q15 23 15 51v14h-76v195z
" />
    <glyph glyph-name="kcommaaccent" unicode="&#x137;" horiz-adv-x="1222" 
d="M1012 967l-348 -402l333 -436h183v-129h-277l-360 489h-142v-360h172v-129h-499v129h180v1214h-180v132h327v-859h148l299 353h-170v127h489v-129h-155zM537 -143h182v-187q0 -39 -9 -63t-32 -51l-148 -174l-51 40l119 175q14 21 14 51v14h-75v195z" />
    <glyph glyph-name="Lacute" unicode="&#x139;" horiz-adv-x="1263" 
d="M291 1552v11l190 231h238v-10l-291 -232h-137zM299 137v1159h-201v138h568v-138h-213v-1159h561v316h151v-453h-1067v137h201z" />
    <glyph glyph-name="lacute" unicode="&#x13a;" horiz-adv-x="663" 
d="M238 1565v10l190 231h238v-10l-291 -231h-137zM600 0h-512v129h186v1214h-186v132h332v-1346h180v-129z" />
    <glyph glyph-name="Lcommaaccent" unicode="&#x13b;" horiz-adv-x="1263" 
d="M553 -143h182v-187q0 -39 -9 -63t-32 -51l-147 -174l-51 40l118 175q15 23 15 51v14h-76v195zM299 137v1159h-201v138h568v-138h-213v-1159h561v316h151v-453h-1067v137h201z" />
    <glyph glyph-name="lcommaaccent" unicode="&#x13c;" horiz-adv-x="663" 
d="M256 -143h182v-187q0 -39 -9 -63t-32 -51l-147 -174l-51 40l118 175q15 23 15 51v14h-76v195zM600 0h-512v129h186v1214h-186v132h332v-1346h180v-129z" />
    <glyph glyph-name="Lcaron" unicode="&#x13d;" horiz-adv-x="1263" 
d="M299 137v1159h-201v138h568v-138h-213v-1159h561v316h151v-453h-1067v137h201zM829 1092l-57 22l47 184q6 27 6 48q0 19 -6 49l-39 164v38h172v-151q0 -72 -9 -110.5t-38 -92.5z" />
    <glyph glyph-name="lcaron" unicode="&#x13e;" horiz-adv-x="663" 
d="M600 0h-512v129h186v1214h-186v132h332v-1346h180v-129zM606 1133l-57 22l47 184q6 27 6 47t-6 50l-39 163v39h172v-151q0 -72 -9 -110.5t-38 -92.5z" />
    <glyph glyph-name="Ldot" unicode="&#x13f;" horiz-adv-x="1265" 
d="M932 729v197h176v-197h-176zM299 137v1159h-201v138h568v-138h-213v-1159h561v316h151v-453h-1067v137h201z" />
    <glyph glyph-name="ldot" unicode="&#x140;" horiz-adv-x="747" 
d="M809 604h-176v197h176v-197zM600 0h-512v129h186v1214h-186v132h332v-1346h180v-129z" />
    <glyph glyph-name="Lslash" unicode="&#x141;" horiz-adv-x="1263" 
d="M303 137v504l-199 -57v135l199 57v520h-201v138h568v-138h-213v-475l374 111v-135l-374 -111v-549h561v316h151v-453h-1067v137h201z" />
    <glyph glyph-name="lslash" unicode="&#x142;" horiz-adv-x="663" 
d="M600 0h-512v129h186v549l-184 -53v135l184 53v530h-186v132h332v-619l180 55v-137l-180 -53v-592h180v-129z" />
    <glyph glyph-name="Nacute" unicode="&#x143;" horiz-adv-x="1587" 
d="M692 1565v10l191 231h237v-10l-291 -231h-137zM1171 207v1089h-208v138h550v-138h-196v-1296h-180q-38 0 -54.5 10.5t-33.5 44.5l-578 1200h-27v-1118h209v-137h-555v137h201v1159h-201v138h394q37 0 53.5 -11.5t34.5 -46.5l565 -1169h26z" />
    <glyph glyph-name="nacute" unicode="&#x144;" horiz-adv-x="1327" 
d="M420 1096v-146q112 91 169 119.5t142 28.5h127q74 0 115.5 -13.5t73.5 -44.5q32 -32 44.5 -81t12.5 -138v-692h178v-129h-498v129h174v684q0 86 -32 121q-18 18 -42.5 24.5t-82.5 6.5h-113q-68 0 -124 -21t-144 -78v-737h172v-129h-500v129h180v836h-180v131h328z
M578 1237v10l190 232h238v-11l-291 -231h-137z" />
    <glyph glyph-name="Ncommaaccent" unicode="&#x145;" horiz-adv-x="1587" 
d="M711 -143h182v-187q0 -39 -9 -63t-32 -51l-147 -174l-52 40l119 175q14 21 14 51v14h-75v195zM1171 207v1089h-208v138h550v-138h-196v-1296h-180q-38 0 -54.5 10.5t-33.5 44.5l-578 1200h-27v-1118h209v-137h-555v137h201v1159h-201v138h394q37 0 53.5 -11.5t34.5 -46.5
l565 -1169h26z" />
    <glyph glyph-name="ncommaaccent" unicode="&#x146;" horiz-adv-x="1327" 
d="M420 1096v-146q112 91 169 119.5t142 28.5h127q74 0 115.5 -13.5t73.5 -44.5q32 -32 44.5 -81t12.5 -138v-692h178v-129h-498v129h174v684q0 86 -32 121q-18 18 -42.5 24.5t-82.5 6.5h-113q-68 0 -124 -21t-144 -78v-737h172v-129h-500v129h180v836h-180v131h328z
M598 -143h182v-187q0 -39 -9 -63t-32 -51l-147 -174l-51 40l118 175q15 23 15 51v14h-76v195z" />
    <glyph glyph-name="Ncaron" unicode="&#x147;" horiz-adv-x="1587" 
d="M1171 207v1089h-208v138h550v-138h-196v-1296h-180q-38 0 -54.5 10.5t-33.5 44.5l-578 1200h-27v-1118h209v-137h-555v137h201v1159h-201v138h394q37 0 53.5 -11.5t34.5 -46.5l565 -1169h26zM713 1569l-242 243v11h123l207 -148l207 148h118v-11l-241 -243h-172z" />
    <glyph glyph-name="ncaron" unicode="&#x148;" horiz-adv-x="1327" 
d="M420 1096v-146q112 91 169 119.5t142 28.5h127q74 0 115.5 -13.5t73.5 -44.5q32 -32 44.5 -81t12.5 -138v-692h178v-129h-498v129h174v684q0 86 -32 121q-18 18 -42.5 24.5t-82.5 6.5h-113q-68 0 -124 -21t-144 -78v-737h172v-129h-500v129h180v836h-180v131h328z
M598 1241l-242 244v10h123l207 -147l207 147h119v-10l-242 -244h-172z" />
    <glyph glyph-name="Omacron" unicode="&#x14c;" horiz-adv-x="1433" 
d="M416 1577v125h598v-125h-598zM487 1434h459q90 0 135.5 -13t77.5 -45q38 -38 57.5 -96t30 -190.5t10.5 -372.5t-10.5 -373t-30 -191t-57.5 -96q-32 -32 -77.5 -44.5t-135.5 -12.5h-459q-90 0 -135.5 12.5t-77.5 44.5q-39 37 -58.5 96t-29.5 191t-10 373t10 372.5
t29.5 190t58.5 96.5q32 32 77.5 45t135.5 13zM340 717q0 -307 11.5 -412t37.5 -133q16 -16 41.5 -22.5t83.5 -6.5h404q58 0 83 6.5t41 22.5q27 27 38.5 131.5t11.5 413.5t-11.5 413.5t-38.5 131.5q-16 16 -40.5 22t-83.5 6h-404q-59 0 -84 -6t-41 -22q-26 -28 -37.5 -133
t-11.5 -412z" />
    <glyph glyph-name="omacron" unicode="&#x14d;" horiz-adv-x="1196" 
d="M299 1249v125h598v-125h-598zM461 0q-87 0 -138 13.5t-85 47.5q-54 54 -73.5 150.5t-19.5 337.5q0 239 19.5 335t73.5 150q35 35 85.5 48.5t137.5 13.5h274q87 0 137.5 -13.5t85.5 -48.5q54 -54 73.5 -150t19.5 -335q0 -241 -19.5 -337.5t-73.5 -150.5q-34 -34 -85 -47.5
t-138 -13.5h-274zM295 549q0 -209 11 -282.5t38 -100.5q19 -19 47 -26t86 -7h242q58 0 86 7t47 26q27 27 38 100.5t11 282.5q0 208 -11 281t-38 100q-19 19 -47 26t-86 7h-242q-58 0 -86 -7t-47 -26q-27 -27 -38 -100t-11 -281z" />
    <glyph glyph-name="Obreve" unicode="&#x14e;" horiz-adv-x="1433" 
d="M487 1434h459q90 0 135.5 -13t77.5 -45q38 -38 57.5 -96t30 -190.5t10.5 -372.5t-10.5 -373t-30 -191t-57.5 -96q-32 -32 -77.5 -44.5t-135.5 -12.5h-459q-90 0 -135.5 12.5t-77.5 44.5q-39 37 -58.5 96t-29.5 191t-10 373t10 372.5t29.5 190t58.5 96.5q32 32 77.5 45
t135.5 13zM340 717q0 -307 11.5 -412t37.5 -133q16 -16 41.5 -22.5t83.5 -6.5h404q58 0 83 6.5t41 22.5q27 27 38.5 131.5t11.5 413.5t-11.5 413.5t-38.5 131.5q-16 16 -40.5 22t-83.5 6h-404q-59 0 -84 -6t-41 -22q-26 -28 -37.5 -133t-11.5 -412zM715 1679q176 0 205 144
h106q-8 -123 -87.5 -191.5t-223.5 -68.5t-224 68.5t-88 191.5h107q29 -144 205 -144z" />
    <glyph glyph-name="obreve" unicode="&#x14f;" horiz-adv-x="1196" 
d="M461 0q-87 0 -138 13.5t-85 47.5q-54 54 -73.5 150.5t-19.5 337.5q0 239 19.5 335t73.5 150q35 35 85.5 48.5t137.5 13.5h274q87 0 137.5 -13.5t85.5 -48.5q54 -54 73.5 -150t19.5 -335q0 -241 -19.5 -337.5t-73.5 -150.5q-34 -34 -85 -47.5t-138 -13.5h-274zM295 549
q0 -209 11 -282.5t38 -100.5q19 -19 47 -26t86 -7h242q58 0 86 7t47 26q27 27 38 100.5t11 282.5q0 208 -11 281t-38 100q-19 19 -47 26t-86 7h-242q-58 0 -86 -7t-47 -26q-27 -27 -38 -100t-11 -281zM598 1352q176 0 205 143h106q-8 -123 -87.5 -191.5t-223.5 -68.5
t-223.5 68.5t-87.5 191.5h106q29 -143 205 -143z" />
    <glyph glyph-name="Ohungarumlaut" unicode="&#x150;" horiz-adv-x="1433" 
d="M457 1565v10l188 231h221v-10l-282 -231h-127zM834 1565v10l188 231h221v-10l-282 -231h-127zM487 1434h459q90 0 135.5 -13t77.5 -45q38 -38 57.5 -96t30 -190.5t10.5 -372.5t-10.5 -373t-30 -191t-57.5 -96q-32 -32 -77.5 -44.5t-135.5 -12.5h-459q-90 0 -135.5 12.5
t-77.5 44.5q-39 37 -58.5 96t-29.5 191t-10 373t10 372.5t29.5 190t58.5 96.5q32 32 77.5 45t135.5 13zM340 717q0 -307 11.5 -412t37.5 -133q16 -16 41.5 -22.5t83.5 -6.5h404q58 0 83 6.5t41 22.5q27 27 38.5 131.5t11.5 413.5t-11.5 413.5t-38.5 131.5q-16 16 -40.5 22
t-83.5 6h-404q-59 0 -84 -6t-41 -22q-26 -28 -37.5 -133t-11.5 -412z" />
    <glyph glyph-name="ohungarumlaut" unicode="&#x151;" horiz-adv-x="1196" 
d="M338 1237v10l188 232h222v-11l-283 -231h-127zM715 1237v10l188 232h221v-11l-282 -231h-127zM461 0q-87 0 -138 13.5t-85 47.5q-54 54 -73.5 150.5t-19.5 337.5q0 239 19.5 335t73.5 150q35 35 85.5 48.5t137.5 13.5h274q87 0 137.5 -13.5t85.5 -48.5q54 -54 73.5 -150
t19.5 -335q0 -241 -19.5 -337.5t-73.5 -150.5q-34 -34 -85 -47.5t-138 -13.5h-274zM295 549q0 -209 11 -282.5t38 -100.5q19 -19 47 -26t86 -7h242q58 0 86 7t47 26q27 27 38 100.5t11 282.5q0 208 -11 281t-38 100q-19 19 -47 26t-86 7h-242q-58 0 -86 -7t-47 -26
q-27 -27 -38 -100t-11 -281z" />
    <glyph glyph-name="OE" unicode="&#x152;" horiz-adv-x="2031" 
d="M981 137v1159h-399q-71 0 -107 -10.5t-65 -40.5q-46 -44 -69.5 -160t-23.5 -366q0 -252 23.5 -369.5t69.5 -161.5q30 -30 66 -40.5t106 -10.5h399zM571 0q-107 0 -171.5 20.5t-112.5 67.5q-66 68 -99.5 211.5t-33.5 417.5t33.5 417.5t99.5 211.5q48 47 112.5 67.5
t171.5 20.5h1311v-420h-151v282h-596v-485h450v-133h-450v-541h608v309h149v-446h-1321z" />
    <glyph glyph-name="oe" unicode="&#x153;" horiz-adv-x="1912" 
d="M1774 336q-3 -123 -19 -180.5t-57 -98.5q-29 -31 -74.5 -44t-124.5 -13h-264q-85 0 -135 13.5t-84 47.5q-21 18 -41 52q-13 -26 -39 -52q-35 -35 -83.5 -48t-135.5 -13h-256q-87 0 -138 13.5t-85 47.5q-54 54 -73.5 150.5t-19.5 337.5q0 239 19.5 335t73.5 150
q35 35 85.5 48.5t137.5 13.5h256q86 0 135 -13.5t84 -48.5q29 -33 39 -53q18 30 41 53q35 35 84.5 48.5t134.5 13.5h223q85 0 137 -14t86 -46q54 -55 73.5 -152.5t19.5 -328.5v-37q0 -24 -25 -24h-698q1 -175 12.5 -240t36.5 -90q18 -20 45 -26.5t86 -6.5h239q51 0 77 7.5
t44 25.5q19 19 26.5 53.5t10.5 118.5h146zM295 549q0 -209 11 -282.5t38 -100.5q19 -19 47 -26t86 -7h242q58 0 86 7t47 26q27 27 38 100.5t11 282.5q0 208 -11 281t-38 100q-19 19 -47 26t-86 7h-242q-58 0 -86 -7t-47 -26q-27 -27 -38 -100t-11 -281zM1098 932
q-24 -25 -35 -89t-12 -227h573q0 161 -11.5 226t-37.5 90q-17 19 -45 26t-86 7h-213q-58 0 -85 -7t-48 -26z" />
    <glyph glyph-name="Racute" unicode="&#x154;" horiz-adv-x="1443" 
d="M602 1565v10l191 231h237v-10l-291 -231h-137zM1198 387q7 -155 14 -248h193v-139h-215q-76 0 -105 29q-22 22 -31.5 87t-15.5 269q-3 100 -14.5 145t-34.5 68q-26 25 -60.5 35t-94.5 10h-381v-506h209v-137h-564v137h201v1159h-201v138h826q146 0 209 -60
q44 -44 62.5 -113.5t18.5 -218.5q0 -93 -11.5 -154t-39 -98t-63 -55t-92.5 -30v-5q73 -15 110.5 -44t56.5 -91t23 -178zM453 772h426q92 0 127 35q22 22 33.5 69t11.5 158q0 113 -11.5 162.5t-33.5 71.5q-28 28 -125 28h-428v-524z" />
    <glyph glyph-name="racute" unicode="&#x155;" horiz-adv-x="874" 
d="M420 129h182v-129h-510v129h180v836h-180v131h328v-178q105 110 156.5 145t117.5 35h119v-156h-135q-67 0 -120.5 -18.5t-137.5 -75.5v-719zM346 1237v10l191 232h237v-11l-291 -231h-137z" />
    <glyph glyph-name="Rcommaaccent" unicode="&#x156;" horiz-adv-x="1443" 
d="M645 -143h182v-187q0 -39 -9 -63t-32 -51l-147 -174l-51 40l119 175q14 21 14 51v14h-76v195zM1198 387q7 -155 14 -248h193v-139h-215q-76 0 -105 29q-22 22 -31.5 87t-15.5 269q-3 100 -14.5 145t-34.5 68q-26 25 -60.5 35t-94.5 10h-381v-506h209v-137h-564v137h201
v1159h-201v138h826q146 0 209 -60q44 -44 62.5 -113.5t18.5 -218.5q0 -93 -11.5 -154t-39 -98t-63 -55t-92.5 -30v-5q73 -15 110.5 -44t56.5 -91t23 -178zM453 772h426q92 0 127 35q22 22 33.5 69t11.5 158q0 113 -11.5 162.5t-33.5 71.5q-28 28 -125 28h-428v-524z" />
    <glyph glyph-name="rcommaaccent" unicode="&#x157;" horiz-adv-x="866" 
d="M420 129h182v-129h-510v129h180v836h-180v131h328v-178q105 110 156.5 145t117.5 35h119v-156h-135q-67 0 -120.5 -18.5t-137.5 -75.5v-719zM252 -143h182v-187q0 -39 -9 -63t-32 -51l-147 -174l-51 40l118 175q15 23 15 51v14h-76v195z" />
    <glyph glyph-name="Rcaron" unicode="&#x158;" horiz-adv-x="1443" 
d="M1198 387q7 -155 14 -248h193v-139h-215q-76 0 -105 29q-22 22 -31.5 87t-15.5 269q-3 100 -14.5 145t-34.5 68q-26 25 -60.5 35t-94.5 10h-381v-506h209v-137h-564v137h201v1159h-201v138h826q146 0 209 -60q44 -44 62.5 -113.5t18.5 -218.5q0 -93 -11.5 -154t-39 -98
t-63 -55t-92.5 -30v-5q73 -15 110.5 -44t56.5 -91t23 -178zM453 772h426q92 0 127 35q22 22 33.5 69t11.5 158q0 113 -11.5 162.5t-33.5 71.5q-28 28 -125 28h-428v-524zM623 1569l-242 243v11h123l207 -148l207 148h118v-11l-241 -243h-172z" />
    <glyph glyph-name="rcaron" unicode="&#x159;" horiz-adv-x="866" 
d="M420 129h182v-129h-510v129h180v836h-180v131h328v-178q105 110 156.5 145t117.5 35h119v-156h-135q-67 0 -120.5 -18.5t-137.5 -75.5v-719zM369 1241l-242 244v10h123l207 -147l207 147h118v-10l-241 -244h-172z" />
    <glyph glyph-name="Sacute" unicode="&#x15a;" horiz-adv-x="1366" 
d="M573 1565v10l191 231h237v-10l-290 -231h-138zM1202 395q0 -141 -19 -214t-65 -118q-63 -63 -209 -63h-463q-80 0 -128.5 13t-79.5 46q-44 44 -60.5 115.5t-17.5 257.5h157q1 -141 9.5 -190t29.5 -70q15 -17 39 -23t76 -6h414q52 0 77.5 6.5t43.5 24.5q20 20 28 68t8 151
q0 101 -6.5 138.5t-29.5 58.5q-15 17 -41.5 25t-85.5 14l-422 41q-86 8 -134 23.5t-77 45.5q-38 37 -53 102.5t-15 202.5q0 134 18.5 207.5t65.5 118.5q64 64 207 64h418q81 0 130 -13.5t81 -46.5q44 -44 59.5 -113t18.5 -249h-158q-3 135 -10.5 182t-28.5 68
q-15 17 -39.5 22.5t-75.5 5.5h-370q-51 0 -76 -6t-43 -24q-21 -20 -29 -68.5t-8 -144.5q0 -95 7.5 -132t29.5 -59q14 -17 40 -24t87 -13l422 -41q156 -14 209 -67q39 -39 54 -107t15 -209z" />
    <glyph glyph-name="sacute" unicode="&#x15b;" horiz-adv-x="1107" 
d="M444 1237v10l191 232h237v-11l-290 -231h-138zM147 795q0 184 68 252q49 49 162 49h346q121 0 168 -47q34 -34 48 -90t15 -187h-139q-3 90 -10.5 123.5t-22.5 48.5q-25 25 -92 25h-280q-63 0 -86 -23q-33 -33 -33 -143q0 -64 5 -91.5t17 -41.5q27 -24 109 -31l319 -35
q135 -14 174 -53q30 -30 42 -84t12 -158q0 -108 -16 -165.5t-52 -94.5q-49 -49 -162 -49h-368q-127 0 -174 47q-37 37 -50 91t-14 194h139q3 -97 9 -131.5t22 -50.5q23 -23 94 -23h308q65 0 90 25q15 15 22.5 46t7.5 103q0 113 -26 139q-21 21 -105 31l-315 33
q-75 8 -114 20t-62 35q-31 31 -43.5 81.5t-12.5 154.5z" />
    <glyph glyph-name="Scedilla" unicode="&#x15e;" horiz-adv-x="1366" 
d="M1202 395q0 -141 -19 -214t-65 -118q-63 -63 -209 -63h-463q-80 0 -128.5 13t-79.5 46q-44 44 -60.5 115.5t-17.5 257.5h157q1 -141 9.5 -190t29.5 -70q15 -17 39 -23t76 -6h414q52 0 77.5 6.5t43.5 24.5q20 20 28 68t8 151q0 101 -6.5 138.5t-29.5 58.5q-15 17 -41.5 25
t-85.5 14l-422 41q-86 8 -134 23.5t-77 45.5q-38 37 -53 102.5t-15 202.5q0 134 18.5 207.5t65.5 118.5q64 64 207 64h418q81 0 130 -13.5t81 -46.5q44 -44 59.5 -113t18.5 -249h-158q-3 135 -10.5 182t-28.5 68q-15 17 -39.5 22.5t-75.5 5.5h-370q-51 0 -76 -6t-43 -24
q-21 -20 -29 -68.5t-8 -144.5q0 -95 7.5 -132t29.5 -59q14 -17 40 -24t87 -13l422 -41q156 -14 209 -67q39 -39 54 -107t15 -209zM707 -74q97 0 127 -30q38 -38 38 -132q0 -91 -38 -129q-32 -32 -132 -32h-141l-90 65v29h215q42 0 57 12q17 14 17 55q0 40 -17 54
q-14 14 -57 14h-98v94h119z" />
    <glyph glyph-name="scedilla" unicode="&#x15f;" horiz-adv-x="1107" 
d="M147 795q0 184 68 252q49 49 162 49h346q121 0 168 -47q34 -34 48 -90t15 -187h-139q-3 90 -10.5 123.5t-22.5 48.5q-25 25 -92 25h-280q-63 0 -86 -23q-33 -33 -33 -143q0 -64 5 -91.5t17 -41.5q27 -24 109 -31l319 -35q135 -14 174 -53q30 -30 42 -84t12 -158
q0 -108 -16 -165.5t-52 -94.5q-49 -49 -162 -49h-368q-127 0 -174 47q-37 37 -50 91t-14 194h139q3 -97 9 -131.5t22 -50.5q23 -23 94 -23h308q65 0 90 25q15 15 22.5 46t7.5 103q0 113 -26 139q-21 21 -105 31l-315 33q-75 8 -114 20t-62 35q-31 31 -43.5 81.5t-12.5 154.5
zM571 -74q97 0 127 -30q39 -39 39 -132q0 -90 -39 -129q-32 -32 -131 -32h-141l-90 65v29h215q42 0 57 12q17 14 17 55q0 40 -17 54q-14 14 -57 14h-98v94h118z" />
    <glyph glyph-name="Scaron" unicode="&#x160;" horiz-adv-x="1366" 
d="M1202 395q0 -141 -19 -214t-65 -118q-63 -63 -209 -63h-463q-80 0 -128.5 13t-79.5 46q-44 44 -60.5 115.5t-17.5 257.5h157q1 -141 9.5 -190t29.5 -70q15 -17 39 -23t76 -6h414q52 0 77.5 6.5t43.5 24.5q20 20 28 68t8 151q0 101 -6.5 138.5t-29.5 58.5q-15 17 -41.5 25
t-85.5 14l-422 41q-86 8 -134 23.5t-77 45.5q-38 37 -53 102.5t-15 202.5q0 134 18.5 207.5t65.5 118.5q64 64 207 64h418q81 0 130 -13.5t81 -46.5q44 -44 59.5 -113t18.5 -249h-158q-3 135 -10.5 182t-28.5 68q-15 17 -39.5 22.5t-75.5 5.5h-370q-51 0 -76 -6t-43 -24
q-21 -20 -29 -68.5t-8 -144.5q0 -95 7.5 -132t29.5 -59q14 -17 40 -24t87 -13l422 -41q156 -14 209 -67q39 -39 54 -107t15 -209zM594 1569l-242 243v11h123l207 -148l207 148h119v-11l-242 -243h-172z" />
    <glyph glyph-name="scaron" unicode="&#x161;" horiz-adv-x="1107" 
d="M147 795q0 184 68 252q49 49 162 49h346q121 0 168 -47q34 -34 48 -90t15 -187h-139q-3 90 -10.5 123.5t-22.5 48.5q-25 25 -92 25h-280q-63 0 -86 -23q-33 -33 -33 -143q0 -64 5 -91.5t17 -41.5q27 -24 109 -31l319 -35q135 -14 174 -53q30 -30 42 -84t12 -158
q0 -108 -16 -165.5t-52 -94.5q-49 -49 -162 -49h-368q-127 0 -174 47q-37 37 -50 91t-14 194h139q3 -97 9 -131.5t22 -50.5q23 -23 94 -23h308q65 0 90 25q15 15 22.5 46t7.5 103q0 113 -26 139q-21 21 -105 31l-315 33q-75 8 -114 20t-62 35q-31 31 -43.5 81.5t-12.5 154.5
zM465 1241l-242 244v10h123l207 -147l207 147h119v-10l-242 -244h-172z" />
    <glyph glyph-name="Tcommaaccent" unicode="&#x162;" horiz-adv-x="1429" 
d="M625 -143h182v-187q0 -39 -9 -63t-32 -51l-148 -174l-51 40l119 175q14 21 14 51v14h-75v195zM793 137h211v-137h-578v137h211v1159h-375v-319h-151v457h1208v-457h-152v319h-374v-1159z" />
    <glyph glyph-name="tcommaaccent" unicode="&#x163;" horiz-adv-x="782" 
d="M334 -143h182v-187q0 -39 -9 -63t-32 -51l-147 -174l-52 40l119 175q15 23 15 51v14h-76v195zM690 127v-96l-102 -25q-91 -14 -146 -14q-106 0 -157 51q-27 27 -37 65.5t-10 106.5v750h-170v131h170v274h147v-274h307v-131h-307v-719q0 -76 23 -99q20 -20 96 -20h186z
" />
    <glyph glyph-name="Tcaron" unicode="&#x164;" horiz-adv-x="1429" 
d="M793 137h211v-137h-578v137h211v1159h-375v-319h-151v457h1208v-457h-152v319h-374v-1159zM625 1569l-242 243v11h123l207 -148l207 148h118v-11l-241 -243h-172z" />
    <glyph glyph-name="tcaron" unicode="&#x165;" horiz-adv-x="782" 
d="M690 127v-96l-102 -25q-91 -14 -146 -14q-106 0 -157 51q-27 27 -37 65.5t-10 106.5v750h-170v131h170v274h147v-274h307v-131h-307v-719q0 -76 23 -99q20 -20 96 -20h186zM565 1229l-57 22l47 185q6 27 6 47q0 19 -6 49l-39 164v39h172v-152q0 -72 -9 -110.5t-38 -92.5z
" />
    <glyph glyph-name="Umacron" unicode="&#x16a;" horiz-adv-x="1570" 
d="M1147 1296h-209v138h559v-138h-197v-712q0 -251 -20 -353t-76 -159q-41 -41 -107.5 -56.5t-189.5 -15.5h-250q-122 0 -187 16t-103 56q-57 55 -77 156t-20 356v712h-196v138h559v-138h-209v-729q0 -196 15 -276t46 -111q20 -20 62 -29.5t139 -9.5h203q98 0 137 8.5
t61 30.5q32 30 46 108t14 279v729zM485 1577v125h598v-125h-598z" />
    <glyph glyph-name="umacron" unicode="&#x16b;" horiz-adv-x="1298" 
d="M909 0v145q-113 -91 -170.5 -119t-140.5 -28h-129q-73 0 -114.5 13.5t-73.5 45.5q-31 31 -44.5 80.5t-13.5 136.5v691h-176v131h324v-813q0 -90 32 -119q19 -19 43.5 -26t81.5 -7h113q67 0 124 21t144 77v736h-192v131h340v-967h180v-129h-328zM326 1249v125h598v-125
h-598z" />
    <glyph glyph-name="Ubreve" unicode="&#x16c;" horiz-adv-x="1570" 
d="M1147 1296h-209v138h559v-138h-197v-712q0 -251 -20 -353t-76 -159q-41 -41 -107.5 -56.5t-189.5 -15.5h-250q-122 0 -187 16t-103 56q-57 55 -77 156t-20 356v712h-196v138h559v-138h-209v-729q0 -196 15 -276t46 -111q20 -20 62 -29.5t139 -9.5h203q98 0 137 8.5
t61 30.5q32 30 46 108t14 279v729zM784 1679q176 0 205 144h107q-8 -123 -88 -191.5t-224 -68.5t-223.5 68.5t-87.5 191.5h107q29 -144 204 -144z" />
    <glyph glyph-name="ubreve" unicode="&#x16d;" horiz-adv-x="1298" 
d="M909 0v145q-113 -91 -170.5 -119t-140.5 -28h-129q-73 0 -114.5 13.5t-73.5 45.5q-31 31 -44.5 80.5t-13.5 136.5v691h-176v131h324v-813q0 -90 32 -119q19 -19 43.5 -26t81.5 -7h113q67 0 124 21t144 77v736h-192v131h340v-967h180v-129h-328zM625 1352q175 0 204 143
h107q-8 -123 -87.5 -191.5t-223.5 -68.5t-224 68.5t-88 191.5h107q29 -143 205 -143z" />
    <glyph glyph-name="Uring" unicode="&#x16e;" horiz-adv-x="1570" 
d="M858 1890h-147q-50 0 -68 -18q-22 -22 -22 -96q0 -72 22 -97q16 -16 68 -16h147q52 0 68 16q22 25 22 97q0 74 -22 96q-18 18 -68 18zM870 1575h-172q-95 0 -135 43q-28 28 -38.5 62t-10.5 96q0 61 10.5 95.5t38.5 63.5q38 41 135 41h172q98 0 136 -41q28 -29 38.5 -63.5
t10.5 -95.5q0 -62 -10.5 -96t-38.5 -62q-40 -43 -136 -43zM1147 1296h-209v138h559v-138h-197v-712q0 -251 -20 -353t-76 -159q-41 -41 -107.5 -56.5t-189.5 -15.5h-250q-122 0 -187 16t-103 56q-57 55 -77 156t-20 356v712h-196v138h559v-138h-209v-729q0 -196 15 -276
t46 -111q20 -20 62 -29.5t139 -9.5h203q98 0 137 8.5t61 30.5q32 30 46 108t14 279v729z" />
    <glyph glyph-name="uring" unicode="&#x16f;" horiz-adv-x="1298" 
d="M909 0v145q-113 -91 -170.5 -119t-140.5 -28h-129q-73 0 -114.5 13.5t-73.5 45.5q-31 31 -44.5 80.5t-13.5 136.5v691h-176v131h324v-813q0 -90 32 -119q19 -19 43.5 -26t81.5 -7h113q67 0 124 21t144 77v736h-192v131h340v-967h180v-129h-328zM711 1247h-172
q-96 0 -136 43q-28 28 -38.5 62t-10.5 96q0 61 10.5 96t38.5 64q38 41 136 41h172q97 0 135 -41q28 -29 38.5 -64t10.5 -96q0 -62 -10.5 -96t-38.5 -62q-40 -43 -135 -43zM698 1563h-147q-49 0 -68 -19q-22 -22 -22 -96q0 -71 22 -96q17 -17 68 -17h147q51 0 68 17
q22 25 22 96q0 74 -22 96q-19 19 -68 19z" />
    <glyph glyph-name="Uhungarumlaut" unicode="&#x170;" horiz-adv-x="1570" 
d="M1147 1296h-209v138h559v-138h-197v-712q0 -251 -20 -353t-76 -159q-41 -41 -107.5 -56.5t-189.5 -15.5h-250q-122 0 -187 16t-103 56q-57 55 -77 156t-20 356v712h-196v138h559v-138h-209v-729q0 -196 15 -276t46 -111q20 -20 62 -29.5t139 -9.5h203q98 0 137 8.5
t61 30.5q32 30 46 108t14 279v729zM524 1565v10l189 231h221v-10l-283 -231h-127zM901 1565v10l189 231h221v-10l-283 -231h-127z" />
    <glyph glyph-name="uhungarumlaut" unicode="&#x171;" horiz-adv-x="1298" 
d="M909 0v145q-113 -91 -170.5 -119t-140.5 -28h-129q-73 0 -114.5 13.5t-73.5 45.5q-31 31 -44.5 80.5t-13.5 136.5v691h-176v131h324v-813q0 -90 32 -119q19 -19 43.5 -26t81.5 -7h113q67 0 124 21t144 77v736h-192v131h340v-967h180v-129h-328zM741 1237v10l189 232h221
v-11l-283 -231h-127zM365 1237v10l188 232h221v-11l-282 -231h-127z" />
    <glyph glyph-name="Uogonek" unicode="&#x172;" horiz-adv-x="1570" 
d="M1147 1296h-209v138h559v-138h-197v-712q0 -251 -20 -353t-76 -159q-41 -41 -107.5 -56.5t-189.5 -15.5h-63q-58 -53 -76 -84q-20 -34 -20 -98q0 -83 14 -97q15 -12 43 -12h72q28 0 43 12q14 14 14 111h113q0 -97 -8.5 -138t-32.5 -63q-32 -28 -107 -28h-123
q-74 0 -106 28q-23 22 -32 56t-9 98q0 48 4.5 74.5t23.5 54.5q17 30 80 86h-80q-122 0 -187 16t-103 56q-57 55 -77 156t-20 356v712h-196v138h559v-138h-209v-729q0 -196 15 -276t46 -111q20 -20 62 -29.5t139 -9.5h203q98 0 137 8.5t61 30.5q32 30 46 108t14 279v729z" />
    <glyph glyph-name="uogonek" unicode="&#x173;" horiz-adv-x="1298" 
d="M1102 -168h112q0 -97 -8.5 -138t-31.5 -63q-32 -28 -107 -28h-123q-74 0 -106 28q-23 22 -32 56t-9 98q0 48 4.5 74.5t23.5 54.5q19 33 84 88v143q-113 -91 -170.5 -119t-140.5 -28h-129q-73 0 -114.5 13.5t-73.5 45.5q-31 31 -44.5 80.5t-13.5 136.5v691h-176v131h324
v-813q0 -90 32 -119q19 -19 43.5 -26t81.5 -7h113q67 0 124 21t144 77v736h-192v131h340v-967h180v-129h-225q-58 -53 -76 -84q-21 -35 -21 -98q0 -82 15 -97q15 -12 43 -12h71q28 0 43 12q15 15 15 111z" />
    <glyph glyph-name="Wcircumflex" unicode="&#x174;" horiz-adv-x="2127" 
d="M1120 1440q42 0 61.5 -14t26.5 -50l283 -1224h33l233 1144h-196v138h512v-138h-172l-271 -1241q-7 -36 -25.5 -48.5t-62.5 -12.5h-94q-43 0 -62 13t-26 50l-281 1223h-30l-279 -1223q-9 -36 -27.5 -49.5t-60.5 -13.5h-98q-42 0 -60.5 12.5t-27.5 48.5l-269 1241h-172v138
h527v-138h-197l231 -1144h33l283 1224q7 36 26.5 50t61.5 14h100zM1272 1569l-207 147l-207 -147h-119v10l242 244h172l242 -244v-10h-123z" />
    <glyph glyph-name="wcircumflex" unicode="&#x175;" horiz-adv-x="1738" 
d="M918 1098q31 0 45.5 -11t21.5 -43l225 -897h25l182 818h-162v131h443v-131h-146l-221 -918q-7 -32 -20.5 -42.5t-44.5 -10.5h-97q-30 0 -43.5 11.5t-21.5 41.5l-223 879h-23l-223 -879q-8 -30 -22 -41.5t-44 -11.5h-94q-31 0 -44.5 10.5t-20.5 42.5l-224 918h-145v131
h453v-131h-162l182 -818h25l227 897q6 31 20 42.5t45 11.5h87zM1073 1241l-207 148l-207 -148h-118v10l241 244h172l242 -244v-10h-123z" />
    <glyph glyph-name="Ycircumflex" unicode="&#x176;" horiz-adv-x="1431" 
d="M637 602l-428 694h-180v138h549v-134h-191l328 -561h14l338 561h-193v134h529v-138h-178l-434 -690v-469h210v-137h-575v137h211v465zM928 1569l-207 147l-207 -147h-119v10l242 244h172l242 -244v-10h-123z" />
    <glyph glyph-name="ycircumflex" unicode="&#x177;" horiz-adv-x="1253" 
d="M344 965l285 -766h14l277 766h-160v131h457v-131h-146l-428 -1153q-26 -69 -65 -96t-113 -27q-75 0 -217 14v121h207q27 0 40 11t23 36l45 125l-383 969h-145v131h469v-131h-160zM842 1241l-207 148l-207 -148h-119v10l242 244h172l242 -244v-10h-123z" />
    <glyph glyph-name="Ydieresis" unicode="&#x178;" horiz-adv-x="1431" 
d="M637 602l-428 694h-180v138h549v-134h-191l328 -561h14l338 561h-193v134h529v-138h-178l-434 -690v-469h210v-137h-575v137h211v465zM449 1616v194h169v-194h-169zM827 1616v194h170v-194h-170z" />
    <glyph glyph-name="Zacute" unicode="&#x179;" horiz-adv-x="1349" 
d="M573 1565v10l191 231h237v-10l-290 -231h-138zM340 133h727v307h152v-440h-1086v104l887 1196h-694v-296h-152v430h1055v-105z" />
    <glyph glyph-name="zacute" unicode="&#x17a;" horiz-adv-x="1140" 
d="M459 1237v10l190 232h238v-11l-291 -231h-137zM297 127h586v242h137v-369h-916v102l725 867h-555v-236h-137v363h887v-103z" />
    <glyph glyph-name="Zdotaccent" unicode="&#x17b;" horiz-adv-x="1349" 
d="M340 133h727v307h152v-440h-1086v104l887 1196h-694v-296h-152v430h1055v-105zM594 1614v196h176v-196h-176z" />
    <glyph glyph-name="zdotaccent" unicode="&#x17c;" horiz-adv-x="1140" 
d="M297 127h586v242h137v-369h-916v102l725 867h-555v-236h-137v363h887v-103zM479 1286v197h176v-197h-176z" />
    <glyph glyph-name="Zcaron" unicode="&#x17d;" horiz-adv-x="1349" 
d="M340 133h727v307h152v-440h-1086v104l887 1196h-694v-296h-152v430h1055v-105zM594 1569l-242 243v11h123l207 -148l207 148h119v-11l-242 -243h-172z" />
    <glyph glyph-name="zcaron" unicode="&#x17e;" horiz-adv-x="1140" 
d="M297 127h586v242h137v-369h-916v102l725 867h-555v-236h-137v363h887v-103zM479 1241l-241 244v10h122l207 -147l207 147h119v-10l-242 -244h-172z" />
    <glyph glyph-name="Aringacute" unicode="&#x1fa;" horiz-adv-x="1519" 
d="M580 0h-533v137h172l391 1223q-46 8 -73 39q-28 28 -39 62t-11 95t11 95.5t39 64.5q38 41 135 41h172q97 0 135 -41q28 -29 38.5 -64t10.5 -96t-10.5 -95t-38.5 -62q-25 -29 -72 -37l393 -1225h173v-137h-547v137h207l-109 344q-52 0 -264.5 -1t-280.5 -1l-106 -342h207
v-137zM733 1300l-213 -688h465l-213 688h-39zM831 1671h-147q-50 0 -68 -18q-22 -22 -22 -97q0 -71 22 -96q16 -16 68 -16h147q52 0 68 16q23 26 23 96q0 74 -23 97q-18 18 -68 18zM659 1866v10l191 231h237v-10l-290 -231h-138z" />
    <glyph glyph-name="aringacute" unicode="&#x1fb;" horiz-adv-x="1200" 
d="M829 780q0 79 -6 111.5t-22 48.5q-15 15 -38.5 21t-76.5 6h-197q-96 0 -127 -31q-20 -20 -28 -57t-10 -111h-148q3 117 19 174t51 94q33 33 78 46.5t122 13.5h267q86 0 131 -13.5t74 -44.5q36 -34 47.5 -86.5t11.5 -163.5v-659h176v-129h-324v139q-107 -87 -164.5 -114
t-138.5 -27h-129q-143 0 -204 61q-66 66 -66 242q0 184 68 252q38 38 107.5 56t205.5 18q170 0 321 -25v178zM549 127q73 0 131 20.5t149 77.5v287h-327q-91 0 -129 -8.5t-60 -30.5q-21 -22 -29 -53.5t-8 -97.5q0 -131 33 -164q34 -31 121 -31h119zM678 1247h-172
q-95 0 -135 43q-28 28 -38.5 62t-10.5 96q0 61 10.5 96t38.5 64q38 41 135 41h172q97 0 135 -41q28 -29 38.5 -64t10.5 -96q0 -62 -10.5 -96t-38.5 -62q-40 -43 -135 -43zM666 1563h-148q-48 0 -67 -19q-23 -23 -23 -96q0 -70 23 -96q17 -17 67 -17h148q50 0 67 17
q23 26 23 96q0 73 -23 96q-19 19 -67 19zM492 1769v11l190 231h238v-10l-291 -232h-137z" />
    <glyph glyph-name="AEacute" unicode="&#x1fc;" horiz-adv-x="2093" 
d="M836 133h200v348h-487l-199 -348h201v-133h-524v137h166l663 1159h-235v138h1316v-420h-151v282h-596v-485h450v-133h-450v-541h608v309h150v-446h-1112v133zM1036 1303h-20l-393 -691h413v691zM1159 1565v10l191 231h237v-10l-291 -231h-137z" />
    <glyph glyph-name="aeacute" unicode="&#x1fd;" horiz-adv-x="1839" 
d="M193 59q-66 66 -66 240q0 185 68 250q38 38 108 57t205 19q158 0 321 -27v182q0 79 -6 111.5t-22 48.5q-15 15 -38.5 21t-76.5 6h-197q-96 0 -127 -31q-20 -20 -28 -57t-10 -111h-148q3 117 19 174t51 94q33 33 78 46.5t122 13.5h242q87 0 132.5 -13.5t74.5 -44.5
q2 -3 11 -13t14 -17q6 10 22 26q35 35 85.5 48.5t135.5 13.5h221q162 0 222 -60q55 -55 74.5 -150t19.5 -327v-37q0 -24 -25 -24h-698q1 -179 12.5 -244.5t36.5 -89.5q18 -20 45 -26.5t86 -6.5h240q50 0 75.5 7.5t45.5 25.5q18 19 25.5 54t10.5 118h146q-3 -123 -19 -180.5
t-57 -98.5q-31 -31 -75.5 -44t-123.5 -13h-278q-87 0 -138 13.5t-85 47.5q-45 42 -64 103q-125 -104 -186 -135t-148 -31h-129q-143 0 -204 61zM844 236q-15 95 -15 272h-327q-91 0 -129 -8.5t-60 -30.5q-21 -21 -29 -53t-8 -97q0 -128 33 -161q34 -31 121 -31h119
q76 0 136.5 22.5t158.5 86.5zM1022 932q-23 -25 -33.5 -88t-11.5 -226h573q0 158 -11.5 223t-37.5 91q-17 19 -45 26t-86 7h-215q-58 0 -86 -7t-47 -26zM799 1237v10l190 232h238v-11l-291 -231h-137z" />
    <glyph glyph-name="Oslashacute" unicode="&#x1fe;" horiz-adv-x="1433" 
d="M487 1434h459h37l51 108h146l-64 -135q16 -8 43 -31q38 -38 57.5 -96t30 -190.5t10.5 -372.5t-10.5 -373t-30 -191t-57.5 -96q-32 -32 -77.5 -44.5t-135.5 -12.5h-459h-38l-52 -109h-145l63 136q-22 11 -41 30q-39 37 -58.5 96t-29.5 191t-10 373t10 372.5t29.5 190
t58.5 96.5q32 32 77.5 45t135.5 13zM340 717q0 -307 11.5 -412t37.5 -133q0 -1 1 -2t1 -2l527 1122h-404q-59 0 -84 -6t-41 -22q-26 -28 -37.5 -133t-11.5 -412zM1042 1262q-1 0 -2 1t-2 1l-524 -1121h404q58 0 83 6.5t41 22.5q27 27 38.5 131.5t11.5 413.5t-11.5 413.5
t-38.5 131.5zM606 1565v10l191 231h237v-10l-291 -231h-137z" />
    <glyph glyph-name="oslashacute" unicode="&#x1ff;" horiz-adv-x="1196" 
d="M461 0q-63 0 -88 4l-58 -106h-139l80 145l-18 18q-54 54 -73.5 150.5t-19.5 337.5q0 239 19.5 335t73.5 150q35 35 85.5 48.5t137.5 13.5h274q57 0 82 -4l62 116h139l-84 -153l24 -21q54 -54 73.5 -150t19.5 -335q0 -241 -19.5 -337.5t-73.5 -150.5q-34 -34 -85 -47.5
t-138 -13.5h-274zM901 549q0 200 -10 274t-35 101l-416 -791q5 -1 11 -1t13.5 0.5t12.5 0.5h242q58 0 86 7t47 26q27 27 38 100.5t11 282.5zM295 549q0 -196 9 -271.5t32 -103.5l414 789h-31h-242q-58 0 -86 -7t-47 -26q-27 -27 -38 -100t-11 -281zM489 1237v10l191 232h238
v-11l-291 -231h-138z" />
    <glyph glyph-name="Scommaaccent" unicode="&#x218;" horiz-adv-x="1366" 
d="M592 -143h182v-187q0 -39 -9 -63t-32 -51l-147 -174l-51 40l118 175q15 23 15 51v14h-76v195zM1202 395q0 -141 -19 -214t-65 -118q-63 -63 -209 -63h-463q-80 0 -128.5 13t-79.5 46q-44 44 -60.5 115.5t-17.5 257.5h157q1 -141 9.5 -190t29.5 -70q15 -17 39 -23t76 -6
h414q52 0 77.5 6.5t43.5 24.5q20 20 28 68t8 151q0 101 -6.5 138.5t-29.5 58.5q-15 17 -41.5 25t-85.5 14l-422 41q-86 8 -134 23.5t-77 45.5q-38 37 -53 102.5t-15 202.5q0 134 18.5 207.5t65.5 118.5q64 64 207 64h418q81 0 130 -13.5t81 -46.5q44 -44 59.5 -113
t18.5 -249h-158q-3 135 -10.5 182t-28.5 68q-15 17 -39.5 22.5t-75.5 5.5h-370q-51 0 -76 -6t-43 -24q-21 -20 -29 -68.5t-8 -144.5q0 -95 7.5 -132t29.5 -59q14 -17 40 -24t87 -13l422 -41q156 -14 209 -67q39 -39 54 -107t15 -209z" />
    <glyph glyph-name="scommaaccent" unicode="&#x219;" horiz-adv-x="1107" 
d="M465 -143h182v-187q0 -39 -9 -63t-32 -51l-147 -174l-51 40l118 175q15 23 15 51v14h-76v195zM147 795q0 184 68 252q49 49 162 49h346q121 0 168 -47q34 -34 48 -90t15 -187h-139q-3 90 -10.5 123.5t-22.5 48.5q-25 25 -92 25h-280q-63 0 -86 -23q-33 -33 -33 -143
q0 -64 5 -91.5t17 -41.5q27 -24 109 -31l319 -35q135 -14 174 -53q30 -30 42 -84t12 -158q0 -108 -16 -165.5t-52 -94.5q-49 -49 -162 -49h-368q-127 0 -174 47q-37 37 -50 91t-14 194h139q3 -97 9 -131.5t22 -50.5q23 -23 94 -23h308q65 0 90 25q15 15 22.5 46t7.5 103
q0 113 -26 139q-21 21 -105 31l-315 33q-75 8 -114 20t-62 35q-31 31 -43.5 81.5t-12.5 154.5z" />
    <glyph glyph-name="schwa" unicode="&#x259;" horiz-adv-x="1157" 
d="M145 578q0 24 25 24h698q-1 176 -12.5 241t-36.5 89q-18 20 -45 26.5t-86 6.5h-239q-50 0 -75.5 -7.5t-45.5 -25.5q-18 -20 -26 -55t-11 -117h-146q3 123 19 180t57 98q31 31 76 44.5t123 13.5h282q87 0 138 -13.5t86 -48.5q54 -54 73 -149.5t19 -337.5q0 -240 -19 -336
t-73 -150q-34 -34 -85.5 -47.5t-138.5 -13.5h-241q-162 0 -221 59q-55 55 -75 152.5t-20 329.5v37zM821 164q23 25 34.5 89t12.5 226h-573q0 -158 11.5 -223.5t37.5 -91.5q17 -19 45 -26t86 -7h213q58 0 85 7t48 26z" />
    <glyph glyph-name="circumflex" unicode="&#x2c6;" 
d="M717 1241l-207 148l-207 -148h-119v10l242 244h172l242 -244v-10h-123z" />
    <glyph glyph-name="caron" unicode="&#x2c7;" 
d="M426 1241l-242 244v10h123l207 -147l207 147h119v-10l-242 -244h-172z" />
    <glyph glyph-name="breve" unicode="&#x2d8;" 
d="M512 1352q176 0 205 143h106q-8 -123 -87.5 -191.5t-223.5 -68.5t-223.5 68.5t-87.5 191.5h106q29 -143 205 -143z" />
    <glyph glyph-name="dotaccent" unicode="&#x2d9;" 
d="M424 1286v197h176v-197h-176z" />
    <glyph glyph-name="ring" unicode="&#x2da;" 
d="M586 1563h-148q-48 0 -67 -19q-23 -23 -23 -96q0 -70 23 -96q17 -17 67 -17h148q50 0 67 17q23 26 23 96q0 73 -23 96q-19 19 -67 19zM598 1247h-172q-95 0 -135 43q-28 28 -38.5 62t-10.5 96q0 61 10.5 96t38.5 64q38 41 135 41h172q97 0 135 -41q28 -29 38.5 -64
t10.5 -96q0 -62 -10.5 -96t-38.5 -62q-40 -43 -135 -43z" />
    <glyph glyph-name="ogonek" unicode="&#x2db;" 
d="M610 -168h113q0 -97 -8.5 -138t-32.5 -63q-32 -28 -107 -28h-122q-75 0 -107 28q-23 22 -32 56t-9 98q0 47 5 74t24 55q31 51 158 147l47 -45q-76 -67 -95 -100q-20 -34 -20 -98q0 -83 14 -97q15 -12 43 -12h72q28 0 43 12q14 14 14 111z" />
    <glyph glyph-name="tilde" unicode="&#x2dc;" 
d="M213 1255v136q0 59 20 82q19 22 64 22h25q42 0 124 -31l242 -94l43 123h80v-135q0 -59 -20 -82t-64 -23h-25q-42 0 -124 31l-242 94l-43 -123h-80z" />
    <glyph glyph-name="hungarumlaut" unicode="&#x2dd;" 
d="M113 1237v10l188 232h221v-11l-282 -231h-127zM489 1237v10l189 232h221v-11l-283 -231h-127z" />
    <glyph glyph-name="commaaccent" unicode="&#x326;" 
d="M438 -143h183v-187q0 -39 -9 -63t-32 -51l-148 -174l-51 40l119 175q14 21 14 51v14h-76v195z" />
    <glyph glyph-name="Wgrave" unicode="&#x1e80;" horiz-adv-x="2127" 
d="M1120 1440q42 0 61.5 -14t26.5 -50l283 -1224h33l233 1144h-196v138h512v-138h-172l-271 -1241q-7 -36 -25.5 -48.5t-62.5 -12.5h-94q-43 0 -62 13t-26 50l-281 1223h-30l-279 -1223q-9 -36 -27.5 -49.5t-60.5 -13.5h-98q-42 0 -60.5 12.5t-27.5 48.5l-269 1241h-172v138
h527v-138h-197l231 -1144h33l283 1224q7 36 26.5 50t61.5 14h100zM1176 1565h-138l-290 231v10h237l191 -231v-10z" />
    <glyph glyph-name="wgrave" unicode="&#x1e81;" horiz-adv-x="1738" 
d="M918 1098q31 0 45.5 -11t21.5 -43l225 -897h25l182 818h-162v131h443v-131h-146l-221 -918q-7 -32 -20.5 -42.5t-44.5 -10.5h-97q-30 0 -43.5 11.5t-21.5 41.5l-223 879h-23l-223 -879q-8 -30 -22 -41.5t-44 -11.5h-94q-31 0 -44.5 10.5t-20.5 42.5l-224 918h-145v131
h453v-131h-162l182 -818h25l227 897q6 31 20 42.5t45 11.5h87zM977 1237h-137l-291 231v11h237l191 -232v-10z" />
    <glyph glyph-name="Wacute" unicode="&#x1e82;" horiz-adv-x="2127" 
d="M958 1565v10l191 231h237v-10l-290 -231h-138zM1120 1440q42 0 61.5 -14t26.5 -50l283 -1224h33l233 1144h-196v138h512v-138h-172l-271 -1241q-7 -36 -25.5 -48.5t-62.5 -12.5h-94q-43 0 -62 13t-26 50l-281 1223h-30l-279 -1223q-9 -36 -27.5 -49.5t-60.5 -13.5h-98
q-42 0 -60.5 12.5t-27.5 48.5l-269 1241h-172v138h527v-138h-197l231 -1144h33l283 1224q7 36 26.5 50t61.5 14h100z" />
    <glyph glyph-name="wacute" unicode="&#x1e83;" horiz-adv-x="1738" 
d="M760 1237v10l190 232h238v-11l-291 -231h-137zM918 1098q31 0 45.5 -11t21.5 -43l225 -897h25l182 818h-162v131h443v-131h-146l-221 -918q-7 -32 -20.5 -42.5t-44.5 -10.5h-97q-30 0 -43.5 11.5t-21.5 41.5l-223 879h-23l-223 -879q-8 -30 -22 -41.5t-44 -11.5h-94
q-31 0 -44.5 10.5t-20.5 42.5l-224 918h-145v131h453v-131h-162l182 -818h25l227 897q6 31 20 42.5t45 11.5h87z" />
    <glyph glyph-name="Wdieresis" unicode="&#x1e84;" horiz-adv-x="2127" 
d="M793 1616v194h170v-194h-170zM1171 1616v194h170v-194h-170zM1120 1440q42 0 61.5 -14t26.5 -50l283 -1224h33l233 1144h-196v138h512v-138h-172l-271 -1241q-7 -36 -25.5 -48.5t-62.5 -12.5h-94q-43 0 -62 13t-26 50l-281 1223h-30l-279 -1223q-9 -36 -27.5 -49.5
t-60.5 -13.5h-98q-42 0 -60.5 12.5t-27.5 48.5l-269 1241h-172v138h527v-138h-197l231 -1144h33l283 1224q7 36 26.5 50t61.5 14h100z" />
    <glyph glyph-name="wdieresis" unicode="&#x1e85;" horiz-adv-x="1738" 
d="M594 1288v195h170v-195h-170zM973 1288v195h170v-195h-170zM918 1098q31 0 45.5 -11t21.5 -43l225 -897h25l182 818h-162v131h443v-131h-146l-221 -918q-7 -32 -20.5 -42.5t-44.5 -10.5h-97q-30 0 -43.5 11.5t-21.5 41.5l-223 879h-23l-223 -879q-8 -30 -22 -41.5
t-44 -11.5h-94q-31 0 -44.5 10.5t-20.5 42.5l-224 918h-145v131h453v-131h-162l182 -818h25l227 897q6 31 20 42.5t45 11.5h87z" />
    <glyph glyph-name="Ygrave" unicode="&#x1ef2;" horiz-adv-x="1431" 
d="M637 602l-428 694h-180v138h549v-134h-191l328 -561h14l338 561h-193v134h529v-138h-178l-434 -690v-469h210v-137h-575v137h211v465zM831 1565h-137l-291 231v10h238l190 -231v-10z" />
    <glyph glyph-name="ygrave" unicode="&#x1ef3;" horiz-adv-x="1265" 
d="M344 965l285 -766h14l277 766h-160v131h457v-131h-146l-428 -1153q-26 -69 -65 -96t-113 -27q-75 0 -217 14v121h207q27 0 40 11t23 36l45 125l-383 969h-145v131h469v-131h-160zM745 1237h-137l-291 231v11h238l190 -232v-10z" />
    <glyph glyph-name="enspace" unicode="&#x2002;" 
 />
    <glyph glyph-name="emspace" unicode="&#x2003;" horiz-adv-x="2048" 
 />
    <glyph glyph-name="threeperemspace" unicode="&#x2004;" horiz-adv-x="681" 
 />
    <glyph glyph-name="fourperemspace" unicode="&#x2005;" horiz-adv-x="512" 
 />
    <glyph glyph-name="thinspace" unicode="&#x2009;" horiz-adv-x="272" 
 />
    <glyph glyph-name="hairspace" unicode="&#x200a;" horiz-adv-x="153" 
 />
    <glyph glyph-name="endash" unicode="&#x2013;" horiz-adv-x="1120" 
d="M987 578h-852v147h852v-147z" />
    <glyph glyph-name="emdash" unicode="&#x2014;" horiz-adv-x="2021" 
d="M1888 580h-1753v143h1753v-143z" />
    <glyph glyph-name="quoteleft" unicode="&#x2018;" horiz-adv-x="436" 
d="M311 924h-202v206q0 42 10 69.5t35 57.5l172 203l57 -45l-139 -203q-17 -28 -17 -57v-16h84v-215z" />
    <glyph glyph-name="quoteright" unicode="&#x2019;" horiz-adv-x="436" 
d="M125 1434h203v-207q0 -42 -10 -69.5t-35 -57.5l-172 -203l-58 45l140 203q16 23 16 57v17h-84v215z" />
    <glyph glyph-name="quotesinglbase" unicode="&#x201a;" horiz-adv-x="452" 
d="M133 215h203v-207q0 -42 -10 -69.5t-35 -57.5l-172 -200l-58 45l140 200q16 26 16 58v16h-84v215z" />
    <glyph glyph-name="quotedblleft" unicode="&#x201c;" horiz-adv-x="804" 
d="M311 924h-202v206q0 42 10 69.5t35 57.5l172 203l57 -45l-139 -203q-17 -28 -17 -57v-16h84v-215zM680 924h-203v206q0 42 10 69.5t35 57.5l170 203l58 -45l-140 -203q-14 -23 -14 -57v-16h84v-215z" />
    <glyph glyph-name="quotedblright" unicode="&#x201d;" horiz-adv-x="804" 
d="M492 1434h202v-207q0 -43 -9.5 -70.5t-35.5 -56.5l-170 -203l-57 45l139 203q14 20 14 57v17h-83v215zM125 1434h203v-207q0 -42 -10 -69.5t-35 -57.5l-172 -203l-58 45l140 203q16 23 16 57v17h-84v215z" />
    <glyph glyph-name="quotedblbase" unicode="&#x201e;" horiz-adv-x="821" 
d="M500 215h202v-207q0 -43 -9.5 -70.5t-35.5 -56.5l-170 -200l-57 45l139 200q15 25 15 58v16h-84v215zM133 215h203v-207q0 -42 -10 -69.5t-35 -57.5l-172 -200l-58 45l140 200q16 26 16 58v16h-84v215z" />
    <glyph glyph-name="dagger" unicode="&#x2020;" horiz-adv-x="983" 
d="M150 1159l260 -43v-61l-260 -43v147zM831 1159v-147l-260 43v61zM569 1434l-41 -275h-73l-43 275h157zM565 766l-43 -526h-61l-43 526l37 246h73z" />
    <glyph glyph-name="daggerdbl" unicode="&#x2021;" horiz-adv-x="999" 
d="M160 1159l260 -43v-61l-260 -43v147zM840 1159v-147l-260 43v61zM580 1434l-43 -275h-74l-43 275h160zM160 274v148l260 -43v-62zM840 274l-260 43v62l260 43v-148zM580 0h-160l43 274h74zM573 717l-36 -295h-74l-37 295l37 295h74z" />
    <glyph glyph-name="bullet" unicode="&#x2022;" horiz-adv-x="983" 
d="M291 514q-26 26 -36.5 72.5t-10.5 156.5q0 111 10.5 157.5t36.5 72.5q21 21 46 28t73 7h163q47 0 72.5 -7t44.5 -28q26 -26 36.5 -72.5t10.5 -157.5q0 -110 -10.5 -156.5t-36.5 -72.5q-19 -21 -44.5 -28t-72.5 -7h-163q-48 0 -73 7t-46 28z" />
    <glyph glyph-name="ellipsis" unicode="&#x2026;" horiz-adv-x="1280" 
d="M117 213h194v-213h-194v213zM545 213h192v-213h-192v213zM971 213h192v-213h-192v213z" />
    <glyph glyph-name="guilsinglleft" unicode="&#x2039;" horiz-adv-x="729" 
d="M115 498v100l315 328h176l-350 -377l352 -377h-178z" />
    <glyph glyph-name="guilsinglright" unicode="&#x203a;" horiz-adv-x="729" 
d="M610 498l-315 -326h-174l350 375l-352 379h176l315 -328v-100z" />
    <glyph glyph-name="fraction" unicode="&#x2044;" horiz-adv-x="1159" 
d="M152 -6h-132l519 756l469 690h131l-518 -752z" />
    <glyph glyph-name="Euro" unicode="&#x20ac;" horiz-adv-x="1437" 
d="M856 846h-455v-129v-117h455v-135h-453q4 -154 15.5 -214t32.5 -81q17 -17 42 -24t82 -7h377q93 0 123 33q23 22 33 82t14 215h156q-5 -195 -22.5 -278.5t-67.5 -135.5q-58 -55 -219 -55h-416q-90 0 -135.5 12.5t-77.5 44.5q-45 45 -67 129.5t-29 278.5h-146v135h144v117
q0 15 -0.5 42t-0.5 48t1 39h-144v135h148q7 188 28.5 269.5t65.5 125.5q32 32 77.5 45t135.5 13h418q88 0 137.5 -13t79.5 -43q49 -49 66 -128.5t22 -262.5h-154q-3 133 -13.5 193.5t-33.5 83.5q-15 15 -40.5 22.5t-82.5 7.5h-377q-58 0 -83 -7t-41 -23q-21 -21 -32.5 -79
t-15.5 -204h453v-135z" />
    <glyph glyph-name="published" unicode="&#x2117;" horiz-adv-x="1615" 
d="M709 739h223q52 0 67 15q8 8 13 18.5t8.5 39.5t3.5 77q0 114 -25 139q-17 14 -67 14h-223v-303zM1118 893q0 -92 -11 -133t-36 -68q-33 -33 -117 -33h-245v-243h114v-82h-313v82h111v626h-111v80h444q85 0 117 -32q25 -27 36 -67.5t11 -129.5zM317 106
q-62 64 -98.5 202.5t-36.5 408.5q0 271 36 408.5t99 201.5q52 55 126 81t219 26h290q146 0 219.5 -26t126.5 -81q40 -41 67.5 -103t47 -191.5t19.5 -315.5q0 -271 -36 -409t-98 -202q-52 -55 -126 -80.5t-220 -25.5h-290q-145 0 -219 25.5t-126 80.5zM240 717
q0 -255 31.5 -386t88.5 -188q46 -49 112 -70.5t200 -21.5h272q134 0 198.5 20.5t110.5 69.5q58 60 90.5 190.5t32.5 385.5t-32.5 385t-90.5 188q-46 49 -111 70.5t-198 21.5h-272q-135 0 -201 -20.5t-111 -69.5q-57 -59 -88.5 -189t-31.5 -386z" />
    <glyph glyph-name="servicemark" unicode="&#x2120;" horiz-adv-x="1935" 
d="M688 862q0 -74 -10 -114t-35 -66q-37 -37 -117 -37h-252q-84 0 -114 33q-25 24 -34.5 63.5t-10.5 141.5h94q2 -119 20 -140q14 -14 64 -14h215q51 0 65 16q21 21 21 117q0 52 -4 71t-15 32q-17 17 -69 22l-225 25q-89 9 -119 37q-22 22 -29.5 58t-7.5 112q0 72 10 112
t35 66q37 37 117 37h229q82 0 115 -33q25 -25 33.5 -63t9.5 -136h-94q0 107 -23 133q-15 15 -61 15h-193q-46 0 -63 -17q-19 -19 -19 -112q0 -85 19 -101q7 -7 17 -11t18.5 -5.5t33.5 -5.5l226 -23q81 -11 116 -39q21 -22 29 -59t8 -115zM817 645v80h109v629h-109v80h252
q22 0 30.5 -6.5t14.5 -28.5l203 -651h12l201 651q6 22 14.5 28.5t30.5 6.5h248v-80h-109v-629h109v-80h-293v80h90v618h-14l-215 -663q-6 -22 -14.5 -28.5t-30.5 -6.5h-56q-21 0 -29 6.5t-14 28.5l-215 663h-16v-618h92v-80h-291z" />
    <glyph glyph-name="trademark" unicode="&#x2122;" horiz-adv-x="2039" 
d="M508 725h113v-80h-324v80h117v629h-197v-172h-90v252h666v-252h-91v172h-194v-629zM922 725h108v629h-108v80h252q22 0 30.5 -6.5t14.5 -28.5l200 -651h15l200 651q6 22 14.5 28.5t30.5 6.5h246v-80h-106v-629h106v-80h-293v80h92v618h-14l-215 -663q-6 -22 -14.5 -28.5
t-30.5 -6.5h-55q-22 0 -30.5 6.5t-14.5 28.5l-215 663h-15v-618h92v-80h-290v80z" />
    <glyph glyph-name="minus" unicode="&#x2212;" horiz-adv-x="1052" 
d="M127 676v135h799v-135h-799z" />
    <glyph glyph-name="NUL" unicode="&#xe05d;" horiz-adv-x="0" 
 />
    <glyph glyph-name="aring.alt" horiz-adv-x="1200" 
d="M829 780q0 79 -6 111.5t-22 48.5q-15 15 -38.5 21t-76.5 6h-197q-96 0 -127 -31q-20 -20 -28 -57t-10 -111h-148q3 117 19 174t51 94q40 40 100 51q-24 41 -24 130q0 61 10.5 95.5t38.5 63.5q38 41 135 41h172q97 0 135 -41q28 -29 38.5 -63.5t10.5 -95.5q0 -91 -28 -134
q49 -10 84 -45q36 -34 47.5 -86.5t11.5 -163.5v-659h176v-129h-324v139q-107 -87 -164.5 -114t-138.5 -27h-129q-143 0 -204 61q-66 66 -66 242q0 184 68 252q38 38 107.5 56t205.5 18q170 0 321 -25v178zM549 127q73 0 131 20.5t149 77.5v287h-327q-91 0 -129 -8.5
t-60 -30.5q-21 -22 -29 -53.5t-8 -97.5q0 -131 33 -164q34 -31 121 -31h119zM666 1331h-148q-49 0 -67 -18q-23 -23 -23 -96q0 -71 23 -97q16 -16 67 -16h148q51 0 67 16q23 26 23 97q0 73 -23 96q-18 18 -67 18z" />
    <glyph glyph-name="aringacute.alt" horiz-adv-x="1200" 
d="M829 780q0 79 -6 111.5t-22 48.5q-15 15 -38.5 21t-76.5 6h-197q-96 0 -127 -31q-20 -20 -28 -57t-10 -111h-148q3 117 19 174t51 94q40 40 100 51q-24 41 -24 130q0 61 10.5 95.5t38.5 63.5q38 41 135 41h172q97 0 135 -41q28 -29 38.5 -63.5t10.5 -95.5q0 -91 -28 -134
q49 -10 84 -45q36 -34 47.5 -86.5t11.5 -163.5v-659h176v-129h-324v139q-107 -87 -164.5 -114t-138.5 -27h-129q-143 0 -204 61q-66 66 -66 242q0 184 68 252q38 38 107.5 56t205.5 18q170 0 321 -25v178zM549 127q73 0 131 20.5t149 77.5v287h-327q-91 0 -129 -8.5
t-60 -30.5q-21 -22 -29 -53.5t-8 -97.5q0 -131 33 -164q34 -31 121 -31h119zM666 1331h-148q-49 0 -67 -18q-23 -23 -23 -96q0 -71 23 -97q16 -16 67 -16h148q51 0 67 16q23 26 23 97q0 73 -23 96q-18 18 -67 18zM492 1536v10l190 232h238v-11l-291 -231h-137z" />
    <glyph glyph-name="registered.alt" horiz-adv-x="1615" 
d="M1077 549q2 -69 6 -133h107v-82h-123q-41 0 -57 16q-12 12 -18 49t-9 148q-2 85 -27 110q-27 27 -86 27h-196v-270h110v-80h-309v80h109v628h-109v80h447q82 0 116 -37q25 -25 35 -62t10 -118q0 -88 -24 -131t-88 -53v-2q59 -14 81 -48t25 -122zM674 760h219q51 0 70 16
q12 12 18 37t6 88q0 104 -24 125q-16 16 -68 16h-221v-282zM317 106q-62 64 -98.5 202.5t-36.5 408.5q0 271 36 408.5t99 201.5q52 55 126 81t219 26h290q146 0 219.5 -26t126.5 -81q40 -41 67.5 -103t47 -191.5t19.5 -315.5q0 -271 -36 -409t-98 -202q-52 -55 -126 -80.5
t-220 -25.5h-290q-145 0 -219 25.5t-126 80.5zM240 717q0 -255 31.5 -386t88.5 -188q46 -49 112 -70.5t200 -21.5h272q134 0 198.5 20.5t110.5 69.5q58 60 90.5 190.5t32.5 385.5t-32.5 385t-90.5 188q-46 49 -111 70.5t-198 21.5h-272q-135 0 -201 -20.5t-111 -69.5
q-57 -59 -88.5 -189t-31.5 -386z" />
    <glyph glyph-name="hcoslug" horiz-adv-x="1421" 
d="M559 37h-53q0 -25 20 -25q16 0 19 15h14q-7 -29 -37 -29q-20 0 -31.5 11t-11.5 30t12 31t29 12q42 0 39 -45zM520 72q-14 0 -14 -25h29q0 25 -15 25zM399 160q17 0 17 33q0 30 -17 30q-16 0 -16 -30q0 -33 16 -33zM430 8q16 0 16 33q0 31 -16 31t-16 -31q0 -33 16 -33z
M430 -2q-19 0 -31 11.5t-12 31.5q0 19 12 30t31 11t31 -11t12 -30t-12 -31t-31 -12zM1118 8q17 0 17 33q0 31 -17 31q-16 0 -16 -31q0 -33 16 -33zM1118 -2q-19 0 -31 11.5t-12 31.5q0 19 12 30t31 11t31 -11t12 -30t-12 -31t-31 -12zM256 152v14h14v84h-14v14h104v-41h-16
q-3 17 -7 22t-15 5h-25v-37h8q7 0 8.5 2.5t3.5 13.5h15v-47h-15q-7 16 -12 17h-8v-33h20v-14h-61zM399 150q-19 0 -31 11.5t-12 31.5q0 18 12 29t31 11t31 -11t12 -29q0 -19 -12 -31t-31 -12zM1319 -205v1639h-1217v-1639h1217zM1020 -2q-28 0 -43.5 15.5t-15.5 41.5
q0 27 16.5 44.5t38.5 17.5q18 0 33 -15l2 13h16v-45h-16q-6 19 -12.5 25.5t-18.5 6.5q-29 0 -29 -45t33 -45q25 0 29 33h16q-3 -47 -49 -47zM762 164q14 0 14 26q0 27 -14 27q-17 0 -17 -27q0 -26 17 -26zM565 0v14h13v52h-15v14h15v2q0 19 11 29t27 10q11 0 19 -4l20 4
v-107h13v-14h-47v14h10v52h-29v-52h10v-14h-47zM754 0v14h12v52h-12v14h37v-21q9 23 24 23q16 0 16 -16q0 -15 -14 -15q-12 0 -12 12v3q-6 0 -14 -19v-33h16v-14h-53zM721 150v106h-12v14h36v-55q6 18 27 18q14 0 22.5 -11t8.5 -29q0 -16 -8 -29.5t-25 -13.5q-19 0 -29 16
l-8 -16h-12zM819 154q10 0 12.5 -8t-2.5 -13q14 0 17 17l-33 67h-10v14h51v-14h-12l18 -41l17 41h-11v14h35v-14h-10l-27 -63q-13 -33 -37 -33q-22 0 -22 18q0 15 14 15zM506 877q0 26 15 42.5t40 16.5q26 0 43 -21.5t17 -56.5q0 -46 -37 -102q-30 29 -42.5 42.5t-24 35
t-11.5 43.5zM618 152v28h15q12 -18 24 -18q11 0 11 8q0 6 -25 13t-25 26q0 10 8 17t21 7q16 0 23 -10l4 10h12v-26h-14q-10 14 -21 14q-10 0 -10 -8q0 -6 24.5 -12t24.5 -25q0 -11 -7.5 -18.5t-20.5 -7.5q-12 0 -27 10l-2 -8h-15zM535 449q-46 0 -76.5 31.5t-30.5 78.5
q0 49 33 82q72 -68 151 -168q-31 -24 -77 -24zM561 250l25 4v-23h26v-14h-26v-41q0 -10 8 -10q7 0 10 14l10 -4q-6 -26 -28 -26q-25 0 -25 26v41h-14v14h14v19zM877 627q-53 -31 -95 -86q39 -45 68 -64.5t59 -19.5q54 0 88 59l15 -4q-3 -87 -49.5 -140t-114.5 -53
q-46 0 -84.5 20.5t-89.5 72.5q-84 -93 -213 -93q-93 0 -158 55t-65 136q0 129 168 186q-34 35 -49 67t-15 75q0 69 62 121.5t161 52.5q90 0 142.5 -46.5t52.5 -105.5q0 -37 -19 -69q43 2 70.5 -17t30.5 -59q53 78 123 78q43 0 72.5 -30t29.5 -77t-29.5 -79t-72.5 -32
q-58 0 -88 52zM449 152v14h12v51h-12v14h34v-20q9 22 29 22q25 0 25 -28v-39h12v-14h-45v14h8v37q0 14 -12 14q-15 0 -15 -20v-31h9v-14h-45zM913 68h37v-15h-10q-6 -12 -18 -28q7 -11 12 -11t8 11l10 -2q-7 -25 -26 -25q-15 0 -25 12q-12 -12 -31 -12q-36 0 -36 29
q0 23 26 30q-12 12 -12 25q0 11 10.5 20t24.5 9q13 0 20.5 -7.5t7.5 -17.5q0 -16 -22 -25q5 -5 12.5 -13.5t11.5 -12.5q11 11 13 18h-13v15zM879 12q7 0 16 6q-20 24 -29 33q-8 -8 -8 -18q0 -9 6 -15t15 -6zM602 86v-6h29v10q-13 0 -13 12l3 7q-3 2 -7 2q-12 0 -12 -25z
M870 88q0 -7 13 -20q10 7 10 18q0 12 -12 12q-11 0 -11 -10zM639 700q61 42 86 70q23 -23 29 -49t-2 -52.5t-29 -62.5q-68 78 -84 94zM750 37h-54q0 -25 21 -25q15 0 18 15h15q-7 -29 -37 -29q-20 0 -31.5 11t-11.5 30t12 31t29 12q42 0 39 -45zM711 72q-15 0 -15 -25h29
q0 25 -14 25zM254 0v14h16v84h-16v15h59v-15h-16v-32h45v32h-16v15h59v-15h-16v-84h16v-14h-59v14h16v37h-45v-37h16v-14h-59zM1180 27q14 0 14 -15q0 -14 -14 -14q-15 0 -15 14q0 6 4.5 10.5t10.5 4.5z" />
    <glyph glyph-name="caron.alt" 
d="M477 1133l-57 22l47 184q6 27 6 47t-6 50l-39 163v39h172v-151q0 -72 -9 -110.5t-38 -92.5z" />
    <glyph glyph-name="i.dot" horiz-adv-x="684" 
d="M270 1286v197h176v-197h-176zM616 0h-507v129h184v836h-184v131h331v-967h176v-129z" />
    </font>
</defs>
</svg>
