<?xml version="1.0" standalone="no"?>
<!DOCTYPE svg PUBLIC "-//W3C//DTD SVG 1.1//EN" "http://www.w3.org/Graphics/SVG/1.1/DTD/svg11.dtd" >
<svg xmlns="http://www.w3.org/2000/svg" xmlns:xlink="http://www.w3.org/1999/xlink" version="1.1">
<metadata>
Created by FontForge 20170731 at Thu Oct  8 11:04:18 2020
 By Aleksey,,,
Copyright (C) 2006, 2009 Hoefler &#38; Co. http://www.typography.com
</metadata>
<defs>
<font id="Vitesse-Bold" horiz-adv-x="1024" >
  <font-face 
    font-family="Vitesse Bold"
    font-weight="400"
    font-stretch="normal"
    units-per-em="2048"
    panose-1="0 0 0 0 0 0 0 0 0 0"
    ascent="1638"
    descent="-410"
    x-height="1126"
    cap-height="1434"
    bbox="-80 -702 2298 2083"
    underline-thickness="102"
    underline-position="-307"
    unicode-range="U+0020-FB04"
  />
<missing-glyph horiz-adv-x="1017" 
d="M-4 -410v2048h1026v-2048h-1026zM143 1536l367 -799l367 799h-734zM100 -156l353 770l-353 770v-1540zM920 1384l-353 -770l353 -770v1540zM510 492l-367 -799h734z" />
    <glyph glyph-name="f_f" unicode="ff" horiz-adv-x="1593" 
d="M762 1274h-146q-48 0 -65 -14q-16 -19 -16 -93v-43h208v-243h-206v-637h157v-244h-614v244h151v637h-151v245h151v58q0 106 14.5 165.5t49.5 94.5q37 37 83 52t134 15h250v-237zM1559 1274h-146q-48 0 -65 -14q-17 -20 -17 -93v-43h209v-243h-207v-637h158v-244h-614v244
h151v637h-151v245h151v58q0 106 14.5 165.5t49.5 94.5q37 37 83 52t134 15h250v-237z" />
    <glyph glyph-name="fi" unicode="fi" horiz-adv-x="1548" 
d="M1022 1266v270h321v-270h-321zM1501 0h-616v244h157v637h-157v245h465v-884h151v-242zM762 1274h-146q-48 0 -65 -14q-16 -19 -16 -93v-43h208v-243h-206v-637h157v-244h-614v244h151v637h-151v245h151v58q0 106 14.5 165.5t49.5 94.5q37 37 83 52t134 15h250v-237z" />
    <glyph glyph-name="fl" unicode="fl" horiz-adv-x="1525" 
d="M1481 0h-619v244h158v1022h-158v245h465v-1269h154v-242zM762 1274h-146q-48 0 -65 -14q-16 -19 -16 -93v-43h208v-243h-206v-637h157v-244h-614v244h151v637h-151v245h151v58q0 106 14.5 165.5t49.5 94.5q37 37 83 52t134 15h250v-237z" />
    <glyph glyph-name="f_f_i" unicode="ffi" horiz-adv-x="2344" 
d="M1819 1266v270h321v-270h-321zM2298 0h-617v244h158v637h-158v245h465v-884h152v-242zM762 1274h-146q-48 0 -65 -14q-16 -19 -16 -93v-43h208v-243h-206v-637h157v-244h-614v244h151v637h-151v245h151v58q0 106 14.5 165.5t49.5 94.5q37 37 83 52t134 15h250v-237z
M1559 1274h-146q-48 0 -65 -14q-17 -20 -17 -93v-43h209v-243h-207v-637h158v-244h-614v244h151v637h-151v245h151v58q0 106 14.5 165.5t49.5 94.5q37 37 83 52t134 15h250v-237z" />
    <glyph glyph-name="f_f_l" unicode="ffl" horiz-adv-x="2322" 
d="M2277 0h-618v244h158v1022h-158v245h465v-1269h153v-242zM762 1274h-146q-48 0 -65 -14q-16 -19 -16 -93v-43h208v-243h-206v-637h157v-244h-614v244h151v637h-151v245h151v58q0 106 14.5 165.5t49.5 94.5q37 37 83 52t134 15h250v-237zM1559 1274h-146q-48 0 -65 -14
q-17 -20 -17 -93v-43h209v-243h-207v-637h158v-244h-614v244h151v637h-151v245h151v58q0 106 14.5 165.5t49.5 94.5q37 37 83 52t134 15h250v-237z" />
    <glyph glyph-name=".notdef" horiz-adv-x="1017" 
d="M-4 -410v2048h1026v-2048h-1026zM143 1536l367 -799l367 799h-734zM100 -156l353 770l-353 770v-1540zM920 1384l-353 -770l353 -770v1540zM510 492l-367 -799h734z" />
    <glyph glyph-name=".null" horiz-adv-x="0" 
 />
    <glyph glyph-name="nonmarkingreturn" horiz-adv-x="682" 
 />
    <glyph glyph-name="space" unicode=" " horiz-adv-x="540" 
 />
    <glyph glyph-name="exclam" unicode="!" horiz-adv-x="632" 
d="M403 471h-153l-113 883v80h359v-80zM158 326h317v-326h-317v326z" />
    <glyph glyph-name="quotedbl" unicode="&#x22;" horiz-adv-x="993" 
d="M207 793l-98 569v72h333v-72l-96 -569h-139zM672 793l-97 569v72h334v-72l-98 -569h-139z" />
    <glyph glyph-name="numbersign" unicode="#" horiz-adv-x="1615" 
d="M203 1120h272l76 314h283l-70 -314h272l76 314h291l-76 -314h209v-248h-268l-68 -278h213v-248h-272l-84 -346h-291l84 346h-268l-84 -346h-293l84 346h-209v248h268l68 278h-213v248zM694 893l-76 -318h306l75 318h-305z" />
    <glyph glyph-name="dollar" unicode="$" horiz-adv-x="1386" 
d="M817 -195h-248v195h-135q-93 0 -151.5 15t-94.5 51q-44 45 -61 127t-18 270h294q5 -173 25 -193t98 -20h72v344l-195 20q-139 14 -202 74q-42 43 -58 113t-16 215q0 137 21.5 219t70.5 131q68 68 223 68h127v174h248v-174h105q179 0 243 -64q46 -46 63.5 -122.5
t20.5 -260.5h-295q-3 94 -8 130.5t-16 47.5q-19 19 -86 19h-56v-330l207 -20q142 -17 199 -74q42 -42 60 -113.5t18 -214.5q0 -147 -21 -230.5t-71 -133.5q-36 -36 -79 -52t-124 -16h-160v-195zM852 569l-64 6v-325h66q76 0 94 18q23 23 23 152q0 103 -23 123q-15 17 -96 26
zM451 903q9 -10 28 -14.5t68 -9.5l51 -7v312h-66q-66 0 -83 -17q-21 -21 -21 -139q0 -105 23 -125z" />
    <glyph glyph-name="percent" unicode="%" horiz-adv-x="1759" 
d="M422 868q50 0 65 15q19 19 19 174t-19 174q-16 16 -65 16h-37q-50 0 -66 -16q-18 -18 -18 -174t18 -174q15 -15 66 -15h37zM713 1057q0 -150 -18 -222t-56 -108q-26 -25 -61 -36t-97 -11h-155q-62 0 -97 11t-61 36q-38 36 -56 108t-18 222q0 151 18 221.5t56 107.5
q26 26 60.5 37t97.5 11h155q63 0 97.5 -11t60.5 -37q38 -37 56 -107.5t18 -221.5zM496 -6h-228l527 754l469 692h227l-526 -754zM1337 188h37q51 0 66 15q18 18 18 174t-18 174q-16 16 -66 16h-37q-49 0 -65 -16q-19 -19 -19 -174t19 -174q15 -15 65 -15zM1665 377
q0 -150 -18 -222t-56 -108q-26 -25 -60.5 -36t-96.5 -11h-156q-62 0 -97 11t-61 36q-38 36 -55.5 108t-17.5 222q0 151 17.5 222.5t55.5 107.5q25 25 60 36t98 11h156q63 0 97 -10.5t60 -36.5q38 -37 56 -108t18 -222z" />
    <glyph glyph-name="ampersand" unicode="&#x26;" horiz-adv-x="1544" 
d="M670 1434h221q173 0 235 -62q45 -45 61.5 -121.5t16.5 -246.5h-299q-2 154 -20 172q-13 16 -70 16h-65q-62 0 -80 -18q-10 -10 -13.5 -37.5t-3.5 -96.5q0 -79 19 -122q17 -42 96 -130l152 -172h14l139 224h328v-252h-162l-121 -185l139 -149h164v-254h-344l-137 154h-14
l-8 -15q-50 -77 -101.5 -109t-142.5 -32h-225q-96 0 -153.5 16.5t-98.5 57.5q-47 47 -66.5 126t-19.5 240q0 143 12.5 200t56.5 101q62 58 195 82q-37 84 -37 232q0 131 17 200t61 113q36 36 93 52t161 16zM598 244q49 0 74 12t51 49l33 47l-224 258l-49 -12q-37 -9 -57 -29
q-18 -21 -18 -133q0 -144 26 -170q17 -22 109 -22h55z" />
    <glyph glyph-name="quotesingle" unicode="'" horiz-adv-x="555" 
d="M213 793l-98 569v72h334v-72l-97 -569h-139z" />
    <glyph glyph-name="parenleft" unicode="(" horiz-adv-x="817" 
d="M174 563q0 344 23 453q16 79 89 187t232 278h197q-97 -178 -138 -264t-51 -136q-24 -123 -24 -518t24 -518q10 -50 50.5 -135t138.5 -264h-197q-159 169 -232 278t-89 187q-23 109 -23 452z" />
    <glyph glyph-name="parenright" unicode=")" horiz-adv-x="817" 
d="M643 563q0 -347 -22 -452q-16 -78 -89.5 -186.5t-232.5 -278.5h-197q98 179 138.5 264t50.5 135q24 123 24 518t-24 518q-10 50 -51 136t-138 264h197q160 -171 233 -279t89 -186q22 -105 22 -453z" />
    <glyph glyph-name="asterisk" unicode="*" horiz-adv-x="1017" 
d="M238 807l176 203l78 -45l-89 -254zM133 1182l264 -52v-90l-264 -51v193zM238 1366l165 96l89 -256l-78 -45zM782 807l-168 -96l-88 254l80 45zM887 1182v-193l-264 51v90zM782 1366l-176 -205l-80 45l88 256z" />
    <glyph glyph-name="plus" unicode="+" horiz-adv-x="1058" 
d="M653 1176v-310h308v-245h-308v-308h-245v308h-310v245h310v310h245z" />
    <glyph glyph-name="comma" unicode="," horiz-adv-x="514" 
d="M104 326h318v-281q0 -69 -20 -114.5t-68 -90.5l-191 -176l-92 74l139 184q15 21 20 34t5 36v8h-111v326z" />
    <glyph glyph-name="hyphen" unicode="-" horiz-adv-x="825" 
d="M717 530h-606v265h606v-265z" />
    <glyph glyph-name="period" unicode="." horiz-adv-x="503" 
d="M94 326h318v-326h-318v326z" />
    <glyph glyph-name="slash" unicode="/" horiz-adv-x="1091" 
d="M225 -328h-305l821 1782h306z" />
    <glyph glyph-name="zero" unicode="0" horiz-adv-x="1419" 
d="M911 1434q107 0 167 -18t102 -60q65 -65 92.5 -200t27.5 -439q0 -303 -27.5 -438.5t-92.5 -200.5q-42 -42 -102 -60t-167 -18h-403q-106 0 -165 18t-101 60q-66 64 -93.5 199.5t-27.5 439.5q0 305 27.5 440t93.5 199q42 42 101 60t165 18h403zM489 289q23 -23 105 -23
h231q50 0 71 5t34 18q10 9 16 38.5t10.5 124.5t4.5 265q0 171 -4.5 266.5t-10.5 124.5t-16 39q-25 22 -105 22h-231q-80 0 -105 -22q-9 -11 -15 -39t-10.5 -125t-4.5 -266t4.5 -265.5t10.5 -125t15 -37.5z" />
    <glyph glyph-name="one" unicode="1" horiz-adv-x="1044" 
d="M721 254h262v-254h-860v254h285v897l-236 -80l-80 240l338 125h291v-1182z" />
    <glyph glyph-name="two" unicode="2" horiz-adv-x="1376" 
d="M1233 1032q-3 -110 -16.5 -161.5t-47.5 -96.5q-48 -64 -219 -133l-385 -156q-71 -26 -96 -59q-31 -36 -31 -129v-43h525v240h286v-494h-1122v244q0 149 17 223t63 127q61 70 194 123l396 155q78 31 98 58q11 16 15.5 37t4.5 71q0 93 -24 117q-19 19 -86 19h-221
q-70 0 -90 -23q-25 -25 -27 -203h-309q0 197 20 284.5t68 135.5q66 66 243 66h431q157 0 227 -70q46 -48 66.5 -125.5t19.5 -206.5z" />
    <glyph glyph-name="three" unicode="3" horiz-adv-x="1347" 
d="M125 954q3 180 23 271.5t71 142.5q69 66 246 66h448q86 0 138 -16t88 -52q90 -93 90 -297q0 -106 -25 -174t-69 -102t-115 -54v-4q80 -17 126.5 -51t70.5 -102t24 -181q0 -233 -94 -327q-74 -74 -232 -74h-462q-92 0 -149.5 15.5t-94.5 52.5q-52 52 -72.5 145t-23.5 295
h315q3 -128 9 -169.5t18 -53.5q21 -21 90 -21h250q64 0 82 21q26 23 26 151q0 81 -7 114t-22 46q-15 18 -79 18h-267v242h256q64 0 80 16q27 30 27 146q0 106 -27 133q-18 18 -78 18h-227q-74 0 -92 -18q-12 -12 -18 -49t-9 -148h-315z" />
    <glyph glyph-name="four" unicode="4" horiz-adv-x="1411" 
d="M1085 1434v-783h232v-227h-232v-186h232v-238h-791v238h250v186h-708v127q0 53 12.5 90.5t42.5 79.5l420 618q33 51 68.5 73t86.5 22h387zM776 651v545h-24l-361 -545h385z" />
    <glyph glyph-name="five" unicode="5" horiz-adv-x="1357" 
d="M799 262q61 0 82 21q30 30 30 188q0 160 -30 186q-23 23 -90 23h-154q-62 0 -109.5 -15.5t-113.5 -58.5l-269 84l50 744h1003v-260h-737l-25 -316l17 -2q57 50 102 68t127 18h219q94 0 149.5 -16.5t94.5 -53.5q51 -52 69.5 -134t18.5 -246q0 -199 -19 -283t-71 -137
q-72 -72 -228 -72h-464q-181 0 -244 63q-47 47 -65.5 130.5t-18.5 267.5h309q2 -155 27 -180q19 -19 90 -19h250z" />
    <glyph glyph-name="six" unicode="6" horiz-adv-x="1366" 
d="M907 997q-4 80 -9.5 109.5t-16.5 42.5q-23 20 -93 20h-196q-74 0 -98 -24q-11 -12 -17.5 -38.5t-12.5 -113t-7 -233.5q72 61 122.5 82.5t125.5 21.5h208q99 0 156.5 -16.5t95.5 -54.5q50 -49 71 -127.5t21 -210.5q0 -156 -22.5 -238.5t-75.5 -138.5q-78 -78 -241 -78
h-420q-97 0 -154 19t-100 61q-66 66 -94.5 200.5t-28.5 436.5q0 292 30.5 430.5t96.5 204.5q45 45 105 63.5t167 18.5h367q95 0 152.5 -15t93.5 -51q48 -49 68.5 -136t23.5 -235h-318zM623 610q-80 0 -166 -47q3 -151 11 -205.5t24 -70.5q25 -25 102 -25h223q67 0 88 21
q27 27 27 153q0 125 -29 154q-20 20 -92 20h-188z" />
    <glyph glyph-name="seven" unicode="7" horiz-adv-x="1304" 
d="M639 0h-342l580 1176h-480v-250h-286v508h1116v-228z" />
    <glyph glyph-name="eight" unicode="8" horiz-adv-x="1349" 
d="M905 1434q160 0 234 -74q47 -47 69.5 -117.5t22.5 -183.5q0 -102 -25.5 -168t-68.5 -99t-113 -53v-4q119 -25 170 -99.5t51 -238.5q0 -122 -24.5 -196t-73.5 -123q-78 -78 -240 -78h-465q-158 0 -239 78q-49 49 -74 123.5t-25 195.5q0 164 52 238t172 100v4
q-70 20 -113 53t-68.5 99t-25.5 168q0 113 21.5 183.5t68.5 117.5q74 74 235 74h459zM481 1159q-28 -28 -28 -137q0 -118 30 -148q20 -20 84 -20h215q66 0 86 20q31 35 31 148q0 106 -31 137q-23 23 -86 23h-215q-63 0 -86 -23zM469 596q-31 -34 -31 -164q0 -128 31 -156
q19 -22 88 -22h238q66 0 88 22q30 30 30 156q0 132 -32 164q-20 20 -86 20h-238q-68 0 -88 -20z" />
    <glyph glyph-name="nine" unicode="9" horiz-adv-x="1363" 
d="M117 428h317q7 -121 27 -141q21 -21 92 -21h221q71 0 96 25q35 31 37 352q-72 -60 -122 -81t-123 -21h-193q-101 0 -164 17t-104 58q-51 50 -71.5 130t-20.5 219q0 166 22.5 251.5t75.5 141.5q76 76 242 76h419q98 0 154.5 -18.5t97.5 -61.5q67 -65 95 -198.5t28 -438.5
q0 -294 -30 -431.5t-95 -201.5q-45 -45 -106 -64.5t-166 -19.5h-391q-95 0 -152 15.5t-94 52.5q-49 49 -69 133t-23 227zM743 797q81 0 164 45q-2 117 -7 184t-11 89t-15 32q-27 27 -102 27h-225q-65 0 -88 -23q-27 -27 -27 -166q0 -83 7.5 -117.5t23.5 -50.5q20 -20 96 -20
h184z" />
    <glyph glyph-name="colon" unicode=":" horiz-adv-x="526" 
d="M117 326h317v-326h-317v326zM117 1126h317v-325h-317v325z" />
    <glyph glyph-name="semicolon" unicode=";" horiz-adv-x="516" 
d="M106 1126h318v-325h-318v325zM106 326h318v-281q0 -69 -20 -114.5t-68 -90.5l-191 -176l-92 74l140 184q15 20 19.5 33.5t4.5 36.5v8h-111v326z" />
    <glyph glyph-name="less" unicode="&#x3c;" horiz-adv-x="1017" 
d="M893 971l-504 -226l504 -225v-291l-791 387v254l791 387v-286z" />
    <glyph glyph-name="equal" unicode="=" horiz-adv-x="1058" 
d="M109 842v250h841v-250h-841zM109 397v250h841v-250h-841z" />
    <glyph glyph-name="greater" unicode="&#x3e;" horiz-adv-x="1017" 
d="M127 229v289l504 225l-504 226v288l791 -387v-254z" />
    <glyph glyph-name="question" unicode="?" horiz-adv-x="1214" 
d="M100 965q0 185 18.5 272.5t63.5 132.5q64 64 242 64h375q160 0 225 -68q46 -46 64.5 -122.5t17.5 -209.5q-2 -123 -19 -181t-73 -108q-17 -14 -41.5 -28.5t-41 -22.5t-67.5 -31t-76 -34q-58 -26 -88 -56q-27 -27 -34 -102h-244v49q2 111 11.5 159t39.5 79q26 26 63 46.5
t107 51.5q93 40 117 64q17 17 21.5 41.5t4.5 82.5q0 95 -20 115q-15 15 -84 15h-162q-69 0 -88 -19q-21 -21 -24 -190h-308zM385 326h317v-326h-317v326z" />
    <glyph glyph-name="at" unicode="@" horiz-adv-x="1861" 
d="M1440 221q43 0 66 7.5t42 27.5q31 36 44.5 125.5t13.5 296.5q0 462 -113 575q-43 43 -100 59.5t-176 16.5h-549q-129 0 -188 -19t-107 -69q-57 -55 -87 -205t-30 -473q0 -221 16 -365.5t40.5 -211t62.5 -103.5q46 -48 106.5 -67t186.5 -19h878v-104h-893q-155 0 -232 28
t-136 89q-44 44 -74 116t-52 234.5t-22 402.5q0 350 39.5 517.5t108.5 236.5q59 61 136 89t232 28h580q103 0 172 -14t106.5 -36t75.5 -61q137 -134 137 -645q0 -233 -23 -343.5t-71 -158.5q-65 -65 -172 -65h-108q-81 0 -143.5 29.5t-114.5 99.5q-85 -81 -128.5 -105
t-101.5 -24h-67q-76 0 -121 13.5t-76 45.5q-44 42 -64 128.5t-20 266.5t22 265.5t68 130.5q32 32 77 45.5t118 13.5h69q60 0 105 -22.5t121 -94.5l41 117h208l-12 -225v-492q0 -38 23 -61q21 -21 86 -21zM948 315q60 0 129 35v430q-72 35 -121 35h-77q-62 0 -82 -20
q-15 -15 -22 -63t-7 -167q0 -118 7 -166t22 -63q24 -21 82 -21h69z" />
    <glyph glyph-name="A" unicode="A" horiz-adv-x="1552" 
d="M657 0h-622v258h139l352 1079q20 60 48 81.5t88 21.5h231q60 0 87.5 -21.5t47.5 -81.5l352 -1079h138v-258h-648v254h164l-55 188h-432l-53 -188h163v-254zM750 1153l-136 -467h297l-135 467h-26z" />
    <glyph glyph-name="B" unicode="B" horiz-adv-x="1437" 
d="M565 852h316q61 0 75 14q25 28 25 154q0 120 -25 145q-17 17 -75 17h-316v-330zM565 623v-371h324q62 0 80 18q24 24 24 164q0 91 -6 125t-20 47q-17 17 -78 17h-324zM1108 735q80 -17 126.5 -51t70.5 -102t24 -181q0 -133 -23 -206t-71 -121q-74 -74 -231 -74h-928v258
h172v920h-172v256h928q84 0 137.5 -16t89.5 -52q45 -47 65.5 -118t20.5 -189q0 -149 -50 -219t-159 -101v-4z" />
    <glyph glyph-name="C" unicode="C" horiz-adv-x="1402" 
d="M946 0h-469q-99 0 -150 15t-89 53q-62 62 -88.5 198.5t-26.5 450.5q0 316 26.5 452.5t88.5 196.5q38 38 89 53t150 15h471q96 0 153.5 -14.5t90.5 -47.5q53 -53 73 -151.5t23 -305.5h-317q-3 128 -9 176t-18 60q-16 16 -88 16h-272q-76 0 -95 -16q-9 -10 -14 -39
t-8.5 -124.5t-3.5 -270.5q0 -174 3.5 -269t8.5 -124.5t14 -38.5q19 -19 95 -19h272q69 0 88 19q12 12 17.5 57.5t9.5 192.5h317q-3 -217 -22.5 -316.5t-73.5 -152.5q-35 -36 -92 -51t-154 -15z" />
    <glyph glyph-name="D" unicode="D" horiz-adv-x="1488" 
d="M872 1434q138 0 219.5 -24t139.5 -83q72 -72 105.5 -211.5t33.5 -398.5q0 -258 -34 -399t-105 -212q-58 -58 -140 -82t-219 -24h-794v258h172v920h-172v256h794zM569 1178v-920h260q66 0 97.5 7t54.5 28q28 28 38.5 113.5t10.5 310.5t-10.5 310.5t-38.5 113.5
q-23 23 -54 30t-98 7h-260z" />
    <glyph glyph-name="E" unicode="E" horiz-adv-x="1384" 
d="M248 1178h-172v256h1200v-478h-287v224h-422v-324h342v-242h-342v-358h432v250h287v-506h-1210v258h172v920z" />
    <glyph glyph-name="F" unicode="F" horiz-adv-x="1327" 
d="M248 1178h-172v256h1184v-473h-287v219h-406v-342h334v-242h-334v-338h185v-258h-676v258h172v920z" />
    <glyph glyph-name="G" unicode="G" horiz-adv-x="1427" 
d="M1290 963h-317q-3 102 -8.5 139.5t-16.5 50.5q-19 16 -90 16h-274q-76 0 -95 -16q-14 -16 -20 -100.5t-6 -335.5q0 -250 6 -336t20 -100q19 -19 95 -19h284q74 0 93 19q24 24 24 213v41h-287v239h605v-194q0 -238 -23 -344.5t-80 -163.5q-39 -39 -96 -55.5t-150 -16.5
h-477q-99 0 -150 15t-89 53q-62 62 -88.5 198.5t-26.5 450.5q0 316 26.5 452.5t88.5 196.5q38 38 89 53t150 15h473q180 0 244 -64q54 -53 73.5 -134t22.5 -273z" />
    <glyph glyph-name="H" unicode="H" horiz-adv-x="1615" 
d="M1368 1178v-920h172v-258h-653v258h162v354h-482v-354h164v-258h-655v258h172v920h-172v256h655v-256h-164v-320h482v320h-162v256h653v-256h-172z" />
    <glyph glyph-name="I" unicode="I" horiz-adv-x="841" 
d="M582 258h178v-258h-678v258h180v920h-180v256h678v-256h-178v-920z" />
    <glyph glyph-name="J" unicode="J" horiz-adv-x="1316" 
d="M774 1178h-172v256h660v-256h-168v-594q0 -168 -11 -265t-32.5 -147t-63.5 -92q-48 -48 -122 -65t-218 -17h-198q-115 0 -183 17.5t-110 60.5q-57 55 -79.5 146.5t-23.5 303.5h316q1 -123 7.5 -170t22.5 -63q24 -27 113 -27h57q141 0 168 27q20 20 28.5 72.5t8.5 193.5
v619z" />
    <glyph glyph-name="K" unicode="K" horiz-adv-x="1556" 
d="M995 254l-286 360h-142v-358h160v-256h-651v258h172v920h-172v256h651v-254h-160v-324h148l297 326h-148v252h633v-256h-137l-391 -416l405 -504h139v-258h-659v254h141z" />
    <glyph glyph-name="L" unicode="L" horiz-adv-x="1308" 
d="M248 258v920h-172v256h674v-256h-183v-922h389v260h287v-516h-1167v258h172z" />
    <glyph glyph-name="M" unicode="M" horiz-adv-x="2093" 
d="M569 1130h-28v-872h129v-258h-594v258h172v920h-172v256h667q45 0 64.5 -15.5t28.5 -60.5l204 -912h25l203 912q9 45 28 60.5t64 15.5h657v-256h-172v-920h172v-258h-618v258h127v872h-29l-264 -1056q-11 -44 -28 -59t-58 -15h-227q-40 0 -58 15t-28 59z" />
    <glyph glyph-name="N" unicode="N" horiz-adv-x="1656" 
d="M1141 508v670h-166v256h627v-256h-168v-1178h-306q-57 0 -82.5 17t-50.5 69l-432 907h-20v-735h172v-258h-637v258h172v920h-172v256h512q56 0 81 -17t52 -69l397 -840h21z" />
    <glyph glyph-name="O" unicode="O" horiz-adv-x="1437" 
d="M477 1434h484q100 0 150.5 -15t88.5 -53q62 -60 88.5 -196.5t26.5 -452.5q0 -314 -26.5 -450.5t-88.5 -198.5q-38 -38 -88.5 -53t-150.5 -15h-484q-99 0 -150 15t-89 53q-62 62 -88.5 198.5t-26.5 450.5q0 316 26.5 452.5t88.5 196.5q38 38 89 53t150 15zM463 717
q0 -175 3.5 -270.5t8.5 -124t14 -37.5q19 -19 95 -19h272q76 0 92 19q10 9 15.5 39t8.5 123.5t3 269.5q0 177 -3.5 271t-8.5 123.5t-15 39.5q-16 16 -92 16h-272q-76 0 -95 -16q-9 -10 -14 -39t-8.5 -124.5t-3.5 -270.5z" />
    <glyph glyph-name="P" unicode="P" horiz-adv-x="1372" 
d="M567 786h273q72 0 92 17q14 16 19 50.5t5 129.5t-5 129.5t-19 50.5q-20 17 -92 17h-273v-394zM1292 989q0 -179 -21 -257t-71 -128q-35 -37 -89 -51t-142 -14h-402v-281h185v-258h-676v258h172v920h-172v256h893q87 0 141.5 -14.5t89.5 -51.5q50 -50 71 -127.5t21 -251.5
z" />
    <glyph glyph-name="Q" unicode="Q" horiz-adv-x="1437" 
d="M477 1434h484q100 0 150.5 -15t88.5 -53q62 -60 88.5 -196.5t26.5 -452.5q0 -314 -26.5 -450.5t-88.5 -198.5q-32 -32 -69 -47t-101 -19l88 -211h-276l-78 209h-287q-99 0 -150 15t-89 53q-62 62 -88.5 198.5t-26.5 450.5q0 316 26.5 452.5t88.5 196.5q38 38 89 53
t150 15zM463 715q0 -176 3.5 -272t8.5 -125.5t14 -38.5q19 -19 95 -19h84l-107 275h250l96 -273q29 3 41 17q10 9 15 39t8.5 124.5t3.5 272.5t-3.5 272.5t-8.5 124t-15 39.5q-16 16 -92 16h-272q-76 0 -95 -16q-9 -10 -14 -39t-8.5 -125t-3.5 -272z" />
    <glyph glyph-name="R" unicode="R" horiz-adv-x="1482" 
d="M1290 403q0 -14 6 -143h152v-260h-295q-61 0 -91 9.5t-50 29.5q-25 25 -37.5 93t-18.5 253q-3 81 -10.5 113.5t-25.5 52.5q-20 19 -47 26t-80 7h-226v-326h176v-258h-667v258h172v920h-172v256h923q162 0 230 -68q46 -46 64 -116t18 -214q0 -95 -12 -155.5t-41.5 -98
t-69.5 -55t-107 -29.5v-4q78 -16 119.5 -43.5t64 -85.5t25.5 -162zM567 823h289q75 0 92 17q14 14 19.5 46.5t5.5 112.5q0 81 -5.5 114.5t-19.5 49.5q-20 17 -92 17h-289v-357z" />
    <glyph glyph-name="S" unicode="S" horiz-adv-x="1384" 
d="M1266 432q0 -147 -21 -230.5t-71 -133.5q-68 -68 -224 -68h-516q-92 0 -147.5 14t-91.5 49q-45 45 -63 130t-19 274h311q5 -169 22 -186q19 -19 95 -19h288q79 0 99 17q18 21 18 141q0 57 -3.5 80.5t-16.5 36.5q-15 15 -99 24l-419 45q-141 14 -203 74
q-41 43 -57.5 116.5t-16.5 219.5q0 137 21.5 219t70.5 131q68 68 219 68h480q93 0 148.5 -14.5t88.5 -47.5q46 -46 63.5 -125t20.5 -266h-309q-3 92 -8.5 127.5t-16.5 46.5q-16 16 -88 16h-266q-72 0 -86 -14q-18 -18 -18 -131q0 -58 3.5 -81t16.5 -34q11 -13 86 -22
q8 -1 12 -2l420 -45q141 -14 199 -72q42 -42 60 -118t18 -220z" />
    <glyph glyph-name="T" unicode="T" horiz-adv-x="1474" 
d="M897 258h184v-258h-688v258h185v924h-234v-273h-270v525h1327v-525h-271v273h-233v-924z" />
    <glyph glyph-name="U" unicode="U" horiz-adv-x="1595" 
d="M1053 1178h-168v256h653v-256h-168v-592q0 -246 -21.5 -344.5t-82.5 -157.5q-48 -48 -123.5 -66t-218.5 -18h-256q-142 0 -216.5 17.5t-121.5 64.5q-42 42 -63 91.5t-31.5 146t-10.5 266.5v592h-168v256h658v-256h-168v-625q0 -137 9 -189t28 -71q15 -15 51 -21t121 -6
h94q82 0 117.5 6t50.5 21q20 20 27.5 69t7.5 191v625z" />
    <glyph glyph-name="V" unicode="V" horiz-adv-x="1536" 
d="M178 1178h-143v256h653v-256h-158l236 -867h27l237 867h-158v256h629v-256h-143l-342 -1082q-21 -60 -47.5 -81t-85.5 -21h-230q-59 0 -85.5 21t-47.5 81z" />
    <glyph glyph-name="W" unicode="W" horiz-adv-x="2211" 
d="M1214 1438q60 0 91 -23.5t41 -81.5l206 -1016h23l147 861h-163v256h612v-256h-141l-230 -1080q-13 -59 -42.5 -81.5t-90.5 -22.5h-231q-61 0 -91 23.5t-40 82.5l-189 908h-20l-187 -908q-10 -59 -40 -82.5t-91 -23.5h-233q-61 0 -90.5 22.5t-42.5 81.5l-230 1080h-141
v256h637v-256h-164l148 -861h24l207 1016q10 59 40.5 82t90.5 23h190z" />
    <glyph glyph-name="X" unicode="X" horiz-adv-x="1542" 
d="M195 258l352 459l-342 461h-139v256h651v-250h-142l195 -289h18l209 289h-139v250h621v-256h-142l-340 -441l351 -479h141v-258h-668v252h156l-205 307h-20l-217 -307h155v-252h-635v258h140z" />
    <glyph glyph-name="Y" unicode="Y" horiz-adv-x="1497" 
d="M586 571l-418 607h-143v256h657v-252h-147l217 -353h12l231 353h-149v252h629v-256h-146l-424 -600v-320h182v-258h-684v258h183v313z" />
    <glyph glyph-name="Z" unicode="Z" horiz-adv-x="1402" 
d="M518 252h496v274h286v-526h-1198v233l789 951h-469v-264h-287v514h1172v-232z" />
    <glyph glyph-name="bracketleft" unicode="[" horiz-adv-x="933" 
d="M182 1464h643v-237h-342v-1297h342v-237h-643v1771z" />
    <glyph glyph-name="backslash" unicode="\" horiz-adv-x="1091" 
d="M866 -328l-821 1782h305l819 -1782h-303z" />
    <glyph glyph-name="bracketright" unicode="]" horiz-adv-x="933" 
d="M754 1464v-1771h-645v237h342v1297h-342v237h645z" />
    <glyph glyph-name="asciicircum" unicode="^" horiz-adv-x="1073" 
d="M743 979l-208 307l-209 -307h-158v10l307 451h123l307 -451v-10h-162z" />
    <glyph glyph-name="underscore" unicode="_" horiz-adv-x="1036" 
d="M-14 -367v234h1065v-234h-1065z" />
    <glyph glyph-name="grave" unicode="`" 
d="M836 1255h-238l-354 240v10h418l174 -239v-11z" />
    <glyph glyph-name="a" unicode="a" horiz-adv-x="1251" 
d="M768 725q0 79 -4.5 107.5t-15.5 41.5q-20 17 -82 17h-138q-60 0 -77 -17q-11 -11 -15.5 -33t-7.5 -77h-291q3 138 18 201t50 98q34 34 79.5 48.5t121.5 14.5h389q152 0 213 -61q38 -37 51.5 -96.5t13.5 -198.5v-526h146v-244h-451v125q-98 -81 -151 -104t-128 -23h-135
q-77 0 -121 12t-77 45q-66 66 -66 254q0 207 70 277q41 41 111.5 58.5t205.5 17.5q143 0 291 -33v96zM555 219q50 0 95.5 12t117.5 48v196h-184q-85 0 -119.5 -6t-48.5 -20q-25 -25 -25 -103q0 -87 21 -108q19 -19 80 -19h63z" />
    <glyph glyph-name="b" unicode="b" horiz-adv-x="1325" 
d="M512 1511v-530q105 92 158.5 119.5t124.5 27.5h100q91 0 143 -15.5t90 -53.5q52 -52 72.5 -154t20.5 -342q0 -235 -23 -336.5t-78 -156.5q-38 -38 -91.5 -55t-137.5 -17h-105q-73 0 -127 24.5t-147 104.5v-127h-457v244h152v1022h-152v245h457zM682 883q-70 0 -170 -47
v-547q92 -43 168 -43h96q79 0 103 24q22 22 29 77.5t7 215.5t-7 216.5t-29 76.5q-27 27 -103 27h-94z" />
    <glyph glyph-name="c" unicode="c" horiz-adv-x="1167" 
d="M430 0q-86 0 -136 16t-87 54q-40 40 -60.5 88.5t-31.5 144.5t-11 260t11 260.5t31.5 145.5t60.5 90q35 37 86 52t137 15h369q82 0 125 -16.5t75 -48.5q40 -40 57 -119.5t17 -228.5h-289q-2 131 -20 151q-22 19 -74 19h-170q-66 0 -84 -21q-13 -13 -18.5 -70.5
t-5.5 -228.5q0 -170 5.5 -227t18.5 -72q18 -18 84 -18h172q58 0 76 18q20 20 20 166h289q0 -162 -17 -242t-59 -122q-66 -66 -200 -66h-371z" />
    <glyph glyph-name="d" unicode="d" horiz-adv-x="1314" 
d="M813 0v145q-104 -92 -157.5 -119.5t-125.5 -27.5h-100q-88 0 -141 16.5t-90 53.5q-53 53 -74 154.5t-21 340.5q0 237 23.5 338.5t79.5 157.5q37 37 89.5 53t137.5 16h107q73 0 126.5 -24t145.5 -103v267h-151v243h458v-1267h152v-244h-459zM645 246q74 0 168 43v547
q-100 47 -168 47h-96q-76 0 -103 -27q-21 -21 -27.5 -77.5t-6.5 -215.5t6.5 -215t27.5 -78q24 -24 103 -24h96z" />
    <glyph glyph-name="e" unicode="e" horiz-adv-x="1183" 
d="M1036 485h-630q2 -209 26 -233q18 -21 98 -21h158q74 0 92 21q14 17 17 123h284q-2 -129 -18 -198.5t-57 -110.5q-31 -31 -75.5 -48.5t-125.5 -17.5h-375q-86 0 -136 16t-87 54q-40 40 -60.5 88.5t-31.5 144.5t-11 260t11 260.5t31.5 145.5t60.5 90q35 37 86 52t137 15
h336q87 0 138.5 -15t86.5 -52q55 -55 72.5 -152t17.5 -342v-35q0 -26 -9 -35.5t-36 -9.5zM430 874q-22 -22 -24 -215h380q0 191 -24 218q-18 18 -94 18h-138q-79 0 -100 -21z" />
    <glyph glyph-name="f" unicode="f" horiz-adv-x="796" 
d="M762 1274h-146q-48 0 -65 -14q-16 -19 -16 -93v-43h208v-243h-206v-637h157v-244h-614v244h151v637h-151v245h151v58q0 106 14.5 165.5t49.5 94.5q37 37 83 52t134 15h250v-237z" />
    <glyph glyph-name="g" unicode="g" horiz-adv-x="1312" 
d="M383 -328q-122 0 -180 58q-32 32 -46 88t-14 166h279q3 -57 18 -72q14 -14 74 -14h197q66 0 82 16q12 12 16 36t4 95v170q-102 -89 -155.5 -114t-127.5 -25h-100q-88 0 -141 16t-90 53q-53 53 -74 150t-21 307q0 208 24 305t79 152q37 37 89.5 53t137.5 16h107
q73 0 126.5 -24t145.5 -103v125h459v-245h-152v-850q0 -140 -13.5 -200t-51.5 -97q-62 -62 -213 -62h-459zM412 598q0 -136 6.5 -186t27.5 -72q25 -25 103 -25h96q74 0 168 43v478q-100 47 -168 47h-96q-76 0 -103 -27q-20 -20 -27 -70.5t-7 -187.5z" />
    <glyph glyph-name="h" unicode="h" horiz-adv-x="1355" 
d="M512 1511v-534q107 97 161 124t134 27h102q138 0 201 -63q36 -35 51 -92t15 -178v-551h145v-244h-571v242h120v520q0 65 -24 92q-25 25 -94 25h-62q-74 0 -178 -48v-589h121v-242h-578v244h152v1022h-152v245h457z" />
    <glyph glyph-name="i" unicode="i" horiz-adv-x="751" 
d="M225 1266v270h322v-270h-322zM705 0h-617v244h158v637h-158v245h465v-884h152v-242z" />
    <glyph glyph-name="j" unicode="j" horiz-adv-x="677" 
d="M211 1266v270h321v-270h-321zM467 -264q-65 -68 -227 -68q-72 0 -187 21v227h84q63 0 76 16q20 20 20 84v865h-159v245h465v-1120q0 -115 -16.5 -173t-55.5 -97z" />
    <glyph glyph-name="k" unicode="k" horiz-adv-x="1294" 
d="M1122 889l-256 -293l242 -352h152v-244h-349l-280 449h-117v-207h125v-242h-582v244h152v1022h-152v245h457v-829h117l178 213h-131v231h567v-237h-123z" />
    <glyph glyph-name="l" unicode="l" horiz-adv-x="729" 
d="M684 0h-618v244h157v1022h-157v245h464v-1269h154v-242z" />
    <glyph glyph-name="m" unicode="m" horiz-adv-x="2027" 
d="M537 1126v-149q107 97 161 124t133 27h95q137 0 200 -63q42 -42 54 -100q114 104 170 133.5t137 29.5h94q138 0 201 -63q36 -35 50.5 -92t14.5 -178v-551h146v-244h-570v242h119v520q0 65 -24 92q-25 25 -95 25h-53q-74 0 -178 -48v-36v-553h119v-242h-543v242h119v520
q0 64 -25 92q-25 25 -94 25h-53q-74 0 -178 -48v-589h118v-242h-575v244h151v637h-151v245h457z" />
    <glyph glyph-name="n" unicode="n" horiz-adv-x="1380" 
d="M537 1126v-149q107 97 161 124t133 27h103q138 0 201 -63q36 -35 50.5 -92t14.5 -178v-551h146v-244h-572v242h121v520q0 64 -25 92q-25 25 -94 25h-61q-74 0 -178 -48v-589h120v-242h-577v244h151v637h-151v245h457z" />
    <glyph glyph-name="o" unicode="o" horiz-adv-x="1226" 
d="M430 0q-86 0 -136 16t-87 54q-58 58 -80.5 160t-22.5 333q0 232 22.5 334.5t80.5 161.5q35 37 86 52t137 15h367q86 0 137 -15t88 -52q57 -59 78.5 -160.5t21.5 -335.5t-21.5 -335t-78.5 -158q-37 -38 -88 -54t-137 -16h-367zM412 563q0 -170 5.5 -227t18.5 -72
q18 -18 84 -18h189q67 0 82 18q14 15 20 73t6 226q0 116 -3.5 181.5t-8.5 87t-14 30.5q-18 21 -82 21h-189q-66 0 -84 -21q-13 -13 -18.5 -70.5t-5.5 -228.5z" />
    <glyph glyph-name="p" unicode="p" horiz-adv-x="1325" 
d="M1221 569q0 -232 -23 -333t-78 -156q-38 -38 -91.5 -55t-137.5 -17h-105q-73 0 -127 24.5t-147 104.5v-223h158v-242h-615v244h152v965h-152v245h457v-145q105 92 158.5 119.5t124.5 27.5h100q91 0 143 -15.5t90 -53.5q52 -52 72.5 -153.5t20.5 -336.5zM682 883
q-70 0 -170 -47v-537q92 -43 168 -43h96q78 0 103 25q22 22 29 77.5t7 210.5q0 156 -7 211.5t-29 75.5q-27 27 -103 27h-94z" />
    <glyph glyph-name="q" unicode="q" horiz-adv-x="1314" 
d="M104 569q0 231 23.5 332.5t79.5 157.5q37 37 89.5 53t137.5 16h107q73 0 126.5 -24t145.5 -103v125h459v-245h-152v-965h152v-244h-617v242h158v242q-105 -93 -158.5 -120.5t-124.5 -27.5h-100q-88 0 -141 16.5t-90 53.5q-53 53 -74 154t-21 337zM645 256q74 0 168 43
v537q-100 47 -168 47h-96q-76 0 -103 -27q-20 -20 -27 -76t-7 -211t6.5 -210.5t27.5 -77.5q25 -25 103 -25h96z" />
    <glyph glyph-name="r" unicode="r" horiz-adv-x="937" 
d="M537 244h153v-244h-610v244h151v637h-151v245h457v-172q97 100 150 137t116 37h100v-305h-125q-132 0 -241 -45v-534z" />
    <glyph glyph-name="s" unicode="s" horiz-adv-x="1136" 
d="M111 795q0 203 77 280q51 51 166 51h408q143 0 192 -49q34 -34 48.5 -97.5t17.5 -203.5h-272q-4 91 -19 109q-11 14 -59 14h-203q-49 0 -61 -12q-17 -17 -17 -80q0 -66 19 -82q16 -13 73 -20l344 -41q115 -13 160 -58q30 -30 41.5 -91t11.5 -173q0 -216 -77 -293
q-49 -49 -166 -49h-437q-144 0 -194 53q-35 35 -50 97.5t-18 207.5h273q2 -100 16 -116q12 -15 59 -15h236q46 0 61 15q15 12 15 86q0 64 -17 84q-13 13 -73 20l-328 41q-67 7 -105 21.5t-63 40.5q-35 35 -47 88t-12 172z" />
    <glyph glyph-name="t" unicode="t" horiz-adv-x="851" 
d="M780 244v-199l-116 -29q-98 -24 -211 -24q-138 0 -199 61q-28 28 -39.5 73t-11.5 130v625h-152v245h152v281h305v-281h274v-245h-274v-547q0 -62 16 -78q12 -12 80 -12h176z" />
    <glyph glyph-name="u" unicode="u" horiz-adv-x="1345" 
d="M844 0v150q-108 -96 -163 -124t-132 -28h-103q-137 0 -200 63q-36 36 -51 93.5t-15 177.5v549h-145v245h450v-759q0 -68 25 -93q26 -26 94 -26h62q70 0 178 47v588h-158v243h463v-882h151v-244h-456z" />
    <glyph glyph-name="v" unicode="v" horiz-adv-x="1347" 
d="M164 881h-127v245h575v-245h-131l191 -574h22l193 574h-133v245h557v-245h-125l-305 -811q-19 -44 -40.5 -59t-66.5 -15h-199q-46 0 -67.5 15t-38.5 59z" />
    <glyph glyph-name="w" unicode="w" horiz-adv-x="1880" 
d="M1016 1130q48 0 72 -15.5t34 -59.5l187 -744h18l109 570h-117v245h516v-245h-115l-200 -809q-10 -45 -33.5 -60.5t-71.5 -15.5h-205q-47 0 -71 17t-33 59l-160 649h-16l-160 -649q-9 -43 -33 -59.5t-71 -16.5h-205q-48 0 -71.5 15.5t-33.5 60.5l-200 809h-115v245h534
v-245h-116l106 -570h21l184 744q10 44 34.5 59.5t72.5 15.5h139z" />
    <glyph glyph-name="x" unicode="x" horiz-adv-x="1304" 
d="M586 236v-236h-533v244h117l268 321l-260 318h-117v243h545v-235h-117l164 -205h17l170 205h-117v235h520v-243h-115l-262 -305l271 -334h114v-244h-555v236h127l-174 219h-12l-178 -219h127z" />
    <glyph glyph-name="y" unicode="y" horiz-adv-x="1353" 
d="M485 881l199 -547h18l185 547h-131v245h561v-245h-125l-406 -1043q-37 -95 -95 -132.5t-171 -37.5q-106 0 -278 15v237h223q23 0 33.5 8t19.5 31l14 43l-370 879h-125v245h579v-245h-131z" />
    <glyph glyph-name="z" unicode="z" horiz-adv-x="1206" 
d="M469 229h383v215h264v-444h-1032v207l647 690h-352v-203h-264v432h1001v-206z" />
    <glyph glyph-name="braceleft" unicode="{" horiz-adv-x="935" 
d="M80 485v158q197 17 233 53q27 24 27 70q0 28 -19.5 152.5t-19.5 181.5q0 69 59 139.5t250 230.5h201q-123 -161 -163 -232t-40 -110q0 -46 17.5 -170t17.5 -163q0 -102 -48 -148t-202 -82v-4q153 -34 201.5 -82t48.5 -151q0 -35 -17.5 -161.5t-17.5 -168.5q0 -39 40 -110
t163 -232h-201q-191 160 -250 231.5t-59 141.5q0 52 19.5 178t19.5 160q0 38 -25 63q-38 38 -235 55z" />
    <glyph glyph-name="bar" unicode="|" horiz-adv-x="681" 
d="M481 -328h-280v1925h280v-1925z" />
    <glyph glyph-name="braceright" unicode="}" horiz-adv-x="935" 
d="M856 485q-197 -17 -235 -55q-25 -25 -25 -63q0 -34 19.5 -160t19.5 -178q0 -70 -59 -141.5t-250 -231.5h-201q123 161 163 232t40 110q0 42 -17.5 168.5t-17.5 161.5q0 103 48.5 151t201.5 82v4q-154 36 -202 82t-48 148q0 39 17.5 163t17.5 170q0 39 -40 110t-163 232
h201q191 -160 250 -230.5t59 -139.5q0 -57 -19.5 -181.5t-19.5 -152.5q0 -46 27 -70q36 -36 233 -53v-158z" />
    <glyph glyph-name="asciitilde" unicode="~" horiz-adv-x="888" 
d="M137 522v129q0 74 29 103q26 26 78 26h30q37 0 70.5 -8t97.5 -33l144 -53l57 94h109v-129q0 -73 -29 -102q-27 -27 -78 -27h-31q-37 0 -70.5 8t-97.5 33l-143 53l-57 -94h-109z" />
    <glyph glyph-name="uni00A0" unicode="&#xa0;" horiz-adv-x="577" 
 />
    <glyph glyph-name="exclamdown" unicode="&#xa1;" horiz-adv-x="632" 
d="M236 963h153l113 -883v-80h-359v80zM481 1108h-317v326h317v-326z" />
    <glyph glyph-name="cent" unicode="&#xa2;" horiz-adv-x="1169" 
d="M424 174q-87 0 -136.5 14.5t-86.5 51.5q-39 40 -60 89.5t-32 143t-11 250.5q0 229 22.5 327t80.5 156q35 38 85.5 53t137.5 15h70v184h241v-184h78q82 0 125.5 -17t75.5 -49q39 -39 56 -118t17 -220h-251q-5 129 -23 144q-15 18 -78 18h-28v-618h32q62 0 80 18
q21 21 21 160h252q0 -157 -17 -234.5t-57 -117.5q-31 -31 -76.5 -48.5t-126.5 -17.5h-80v-199h-241v199h-70zM408 434q9 -12 25 -16t56 -4h31v618h-31q-66 0 -81 -18q-14 -15 -20.5 -75t-6.5 -220q0 -111 3.5 -173.5t9 -82.5t14.5 -29z" />
    <glyph glyph-name="sterling" unicode="&#xa3;" horiz-adv-x="1411" 
d="M1286 926h-305q-1 124 -7.5 170t-21.5 61q-21 21 -100 21h-131q-90 0 -113 -23q-28 -28 -28 -188v-146h317v-235h-317v-332h432v256h286v-510h-1210v256h170v328h-170v241h170v140q0 169 21 256.5t77 142.5q42 40 104.5 56t184.5 16h287q105 0 163.5 -14.5t98.5 -53.5
q53 -54 72 -144.5t20 -297.5z" />
    <glyph glyph-name="yen" unicode="&#xa5;" horiz-adv-x="1462" 
d="M1255 725v-250h-370v-217h182v-258h-680v258h182v217h-372v250h280l-313 453h-144v256h652v-252h-148l211 -344h10l224 344h-148v252h623v-256h-146l-325 -453h282z" />
    <glyph glyph-name="section" unicode="&#xa7;" horiz-adv-x="1394" 
d="M90 739q0 160 62 222q41 38 135 47q-15 52 -15 127q0 171 78 243q33 31 82 44.5t135 13.5h289q141 0 193 -52q34 -34 48 -92.5t17 -183.5h-274q-2 77 -19 94q-12 15 -61 15h-115q-56 0 -74 -15q-14 -14 -14 -76q0 -53 21 -71q20 -16 79 -21l412 -33q73 -6 113 -20t67 -41
q56 -56 56 -231q0 -178 -70 -238q-39 -37 -125 -43q12 -55 12 -121q0 -176 -75 -248q-33 -33 -82 -47t-136 -14h-290q-84 0 -130 13.5t-75 43.5q-35 35 -51 94t-19 183h275q5 -81 20 -99q14 -14 66 -14h118q64 0 78 14q15 15 15 80q0 51 -19 70q-23 20 -88 25l-393 30
q-75 6 -116 21.5t-70 44.5q-32 34 -46 88.5t-14 146.5zM360 743q0 -54 19 -73q18 -16 84 -21l467 -33q72 -6 84 9q18 21 18 71q0 56 -20 74q-18 18 -82 21l-469 34q-71 3 -84 -10q-17 -17 -17 -72z" />
    <glyph glyph-name="dieresis" unicode="&#xa8;" 
d="M133 1260v266h309v-266h-309zM573 1260v266h310v-266h-310z" />
    <glyph glyph-name="copyright" unicode="&#xa9;" horiz-adv-x="1619" 
d="M301 106q-63 63 -99 202t-36 409q0 272 35.5 409t99.5 201q55 57 126.5 82t217.5 25h332q146 0 217.5 -25t126.5 -82q64 -64 99.5 -201t35.5 -409t-36 -410t-99 -201q-36 -38 -72.5 -59t-103.5 -34t-168 -13h-332q-101 0 -168 13t-103.5 34t-72.5 59zM274 717
q0 -248 27.5 -369t79.5 -174q39 -42 96 -60t176 -18h316q117 0 174 18t96 60q52 54 80.5 174.5t28.5 368.5t-28.5 368.5t-80.5 174.5q-39 42 -96 60.5t-174 18.5h-316q-119 0 -176 -17.5t-96 -59.5q-52 -53 -79.5 -174.5t-27.5 -370.5zM934 332h-244q-55 0 -82.5 8.5
t-48.5 30.5q-34 32 -48.5 107t-14.5 249t14.5 248t48.5 108q21 21 49 29t82 8h244q102 0 135 -33q29 -30 39 -83t12 -168h-174q-2 117 -14 129q-10 10 -47 10h-137q-40 0 -50 -10q-16 -16 -16 -238q0 -225 16 -238q10 -10 50 -10h137q39 0 47 10q6 6 8.5 30t5.5 106h176
q-3 -121 -13.5 -174.5t-39.5 -81.5q-37 -37 -135 -37z" />
    <glyph glyph-name="ordfeminine" unicode="&#xaa;" horiz-adv-x="1107" 
d="M205 1178q1 96 11.5 141t35.5 72q25 25 55 34t86 9h271q111 0 149 -41q28 -28 37.5 -69.5t9.5 -139.5v-361h103v-178h-320v88q-67 -57 -103 -73.5t-87 -16.5h-97q-53 0 -84 9.5t-55 33.5q-47 47 -47 176q0 148 49 197q29 29 79.5 42t145.5 13q108 0 199 -24v59
q0 57 -2 75.5t-10 26.5q-13 13 -56 13h-104q-33 0 -47 -11q-8 -13 -10 -75h-209zM164 322v174h799v-174h-799zM498 805q36 0 66.5 8.5t78.5 34.5v125h-127q-60 0 -82 -3.5t-31 -13.5q-16 -16 -16 -67q0 -56 14 -70t54 -14h43z" />
    <glyph glyph-name="guillemotleft" unicode="&#xab;" horiz-adv-x="1306" 
d="M92 477v172l273 291h331l-338 -377l340 -377h-333zM625 477v172l272 291h332l-338 -377l340 -377h-334z" />
    <glyph glyph-name="registered" unicode="&#xae;" horiz-adv-x="931" 
d="M424 1073h76q22 0 28 6q7 11 7 47q0 38 -7 45q-5 7 -28 7h-76v-105zM637 942q0 -15 4 -43h45v-82h-92q-33 0 -45 12q-12 16 -17 107q-2 42 -12 49q-10 10 -37 10h-59v-96h53v-82h-207v82h54v279h-54v82h279q48 0 69 -21q25 -25 25 -102q0 -54 -15 -75.5t-55 -27.5v-2
q36 -6 50 -24.5t14 -65.5zM557 692q65 0 96 9t54 32q28 29 41.5 93.5t13.5 205.5q0 140 -14 205t-41 92q-23 23 -54.5 33t-95.5 10h-182q-63 0 -95 -10t-53 -33q-29 -27 -43 -92t-14 -205q0 -141 14 -205.5t43 -93.5q21 -23 52.5 -32t95.5 -9h182zM567 623h-202
q-81 0 -121 15.5t-72 47.5q-38 38 -59 114.5t-21 231.5q0 153 21 229.5t59 114.5q31 33 71.5 48.5t121.5 15.5h202q82 0 121.5 -15t73.5 -49q36 -38 57 -114.5t21 -229.5q0 -154 -21 -231t-57 -115q-34 -33 -73.5 -48t-121.5 -15z" />
    <glyph glyph-name="macron" unicode="&#xaf;" 
d="M166 1260v221h694v-221h-694z" />
    <glyph glyph-name="degree" unicode="&#xb0;" horiz-adv-x="878" 
d="M395 903h88q51 0 68 17q18 18 18 155q0 136 -18 158q-16 16 -68 16h-88q-31 0 -43.5 -3t-21.5 -13q-21 -21 -21 -158t21 -155q15 -17 65 -17zM772 1075q0 -141 -17.5 -207t-56.5 -102q-49 -49 -157 -49h-201q-61 0 -97 11.5t-63 37.5q-38 36 -54.5 102t-16.5 207
q0 142 16.5 207.5t54.5 103.5q27 26 63 37t97 11h201q109 0 157 -48q39 -38 56.5 -103.5t17.5 -207.5z" />
    <glyph glyph-name="plusminus" unicode="&#xb1;" horiz-adv-x="1058" 
d="M653 1346v-297h308v-246h-308v-299h-245v299h-310v246h310v297h245zM98 141v244h863v-244h-863z" />
    <glyph glyph-name="acute" unicode="&#xb4;" 
d="M244 1255v11l174 239h418v-10l-355 -240h-237z" />
    <glyph glyph-name="paragraph" unicode="&#xb6;" horiz-adv-x="1267" 
d="M76 989q0 174 21 251.5t71 127.5q35 37 89.5 51.5t141.5 14.5h797v-256h-172v-920h172v-258h-676v258h185v281h-306q-88 0 -142 14t-89 51q-50 50 -71 128t-21 257z" />
    <glyph glyph-name="periodcentered" unicode="&#xb7;" horiz-adv-x="542" 
d="M113 821h317v-325h-317v325z" />
    <glyph glyph-name="cedilla" unicode="&#xb8;" 
d="M588 -55q96 0 127 -31q39 -39 39 -166q0 -68 -9.5 -101t-29.5 -53q-32 -32 -133 -32h-222l-131 104v49h271q32 0 41 9q8 8 8 34q0 27 -8 35t-41 8h-94v144h182z" />
    <glyph glyph-name="ordmasculine" unicode="&#xba;" horiz-adv-x="1077" 
d="M664 645h-250q-64 0 -101 11.5t-65 39.5q-41 41 -57.5 116t-16.5 228q0 150 17 226t57 116q28 28 65 40t101 12h250q63 0 100 -12t65 -40q40 -40 57 -116t17 -226q0 -153 -16.5 -228t-57.5 -116q-28 -28 -64.5 -39.5t-100.5 -11.5zM483 827h111q46 0 61 15q21 21 21 200
q0 176 -21 197q-14 14 -61 14h-111q-47 0 -61 -14q-21 -21 -21 -197q0 -179 21 -200q15 -15 61 -15zM172 322v174h733v-174h-733z" />
    <glyph glyph-name="guillemotright" unicode="&#xbb;" horiz-adv-x="1306" 
d="M1217 477l-275 -291h-332l338 375l-340 379h334l275 -291v-172zM684 477l-274 -291h-332l338 375l-340 379h334l274 -291v-172z" />
    <glyph glyph-name="questiondown" unicode="&#xbf;" horiz-adv-x="1214" 
d="M1114 471q0 -188 -17.5 -274t-62.5 -131q-66 -66 -241 -66h-377q-159 0 -226 70q-45 45 -63.5 122t-15.5 209q2 122 19 180t73 107q11 10 25 19.5t26 16.5t34.5 18t36.5 17.5t47.5 21.5t53.5 24q65 32 90 57q26 26 33 101h244v-50q0 -109 -10 -157t-42 -78
q-26 -26 -63 -46.5t-107 -51.5q-93 -43 -116 -66q-15 -15 -20 -41t-5 -82q0 -96 19 -115q16 -16 86 -16h159q71 0 90 19q20 20 23 192h307zM831 1108h-317v326h317v-326z" />
    <glyph glyph-name="Agrave" unicode="&#xc0;" horiz-adv-x="1552" 
d="M657 0h-622v258h139l352 1079q20 60 48 81.5t88 21.5h231q60 0 87.5 -21.5t47.5 -81.5l352 -1079h138v-258h-648v254h164l-55 188h-432l-53 -188h163v-254zM930 1552h-238l-354 240v10h418l174 -239v-11zM750 1153l-136 -467h297l-135 467h-26z" />
    <glyph glyph-name="Aacute" unicode="&#xc1;" horiz-adv-x="1552" 
d="M657 0h-622v258h139l352 1079q20 60 48 81.5t88 21.5h231q60 0 87.5 -21.5t47.5 -81.5l352 -1079h138v-258h-648v254h164l-55 188h-432l-53 -188h163v-254zM602 1552v11l174 239h418v-10l-354 -240h-238zM750 1153l-136 -467h297l-135 467h-26z" />
    <glyph glyph-name="Acircumflex" unicode="&#xc2;" horiz-adv-x="1552" 
d="M657 0h-622v258h139l352 1079q20 60 48 81.5t88 21.5h231q60 0 87.5 -21.5t47.5 -81.5l352 -1079h138v-258h-648v254h164l-55 188h-432l-53 -188h163v-254zM895 1552l-131 103l-131 -103h-256v11l246 249h288l248 -249v-11h-264zM750 1153l-136 -467h297l-135 467h-26z
" />
    <glyph glyph-name="Atilde" unicode="&#xc3;" horiz-adv-x="1552" 
d="M657 0h-622v258h139l352 1079q20 60 48 81.5t88 21.5h231q60 0 87.5 -21.5t47.5 -81.5l352 -1079h138v-258h-648v254h164l-55 188h-432l-53 -188h163v-254zM410 1559v127q0 86 34 120q29 33 95 33h45q48 0 137 -27l192 -57l48 82h165v-129q0 -89 -32 -121
q-35 -31 -95 -31h-45q-59 0 -139 27l-190 55l-47 -79h-168zM750 1153l-136 -467h297l-135 467h-26z" />
    <glyph glyph-name="Adieresis" unicode="&#xc4;" horiz-adv-x="1552" 
d="M657 0h-622v258h139l352 1079q20 60 48 81.5t88 21.5h231q60 0 87.5 -21.5t47.5 -81.5l352 -1079h138v-258h-648v254h164l-55 188h-432l-53 -188h163v-254zM391 1556v267h309v-267h-309zM831 1556v267h310v-267h-310zM750 1153l-136 -467h297l-135 467h-26z" />
    <glyph glyph-name="Aring" unicode="&#xc5;" horiz-adv-x="1552" 
d="M657 0h-622v258h139l334 1028q14 42 24 57l-4 7q-31 28 -43 69.5t-12 108.5t12 107.5t43 70.5q42 39 134 39h229q93 0 135 -39q30 -30 42.5 -71t12.5 -107q0 -126 -55 -178l-3 -4q-3 -4 -5 -5q13 -19 26 -55l336 -1028h138v-258h-648v254h164l-55 188h-432l-53 -188h163
v-254zM750 1153l-136 -467h297l-135 467h-26zM827 1597h-102q-41 0 -51 -10q-15 -15 -15 -59q0 -48 15 -60q12 -12 51 -12h102q42 0 54 12q14 14 14 60q0 42 -14 59q-10 10 -54 10z" />
    <glyph glyph-name="AE" unicode="&#xc6;" horiz-adv-x="2127" 
d="M821 256h172v188h-420l-102 -192h152v-252h-613v258h140l503 920h-198v256h1566v-478h-286v224h-422v-324h342v-242h-342v-358h432v250h287v-506h-1211v256zM993 1190h-20l-271 -504h291v504z" />
    <glyph glyph-name="Ccedilla" unicode="&#xc7;" horiz-adv-x="1402" 
d="M946 0h-469q-99 0 -150 15t-89 53q-62 62 -88.5 198.5t-26.5 450.5q0 316 26.5 452.5t88.5 196.5q38 38 89 53t150 15h471q96 0 153.5 -14.5t90.5 -47.5q53 -53 73 -151.5t23 -305.5h-317q-3 128 -9 176t-18 60q-16 16 -88 16h-272q-76 0 -95 -16q-9 -10 -14 -39
t-8.5 -124.5t-3.5 -270.5q0 -174 3.5 -269t8.5 -124.5t14 -38.5q19 -19 95 -19h272q69 0 88 19q12 12 17.5 57.5t9.5 192.5h317q-3 -217 -22.5 -316.5t-73.5 -152.5q-35 -36 -92 -51t-154 -15zM791 -55q96 0 127 -31q38 -38 38 -166q0 -68 -9 -101t-29 -53q-32 -32 -134 -32
h-221l-131 104v49h270q32 0 41 9t9 34q0 26 -9 35q-8 8 -41 8h-94v144h183z" />
    <glyph glyph-name="Egrave" unicode="&#xc8;" horiz-adv-x="1384" 
d="M248 1178h-172v256h1200v-478h-287v224h-422v-324h342v-242h-342v-358h432v250h287v-506h-1210v258h172v920zM850 1552h-238l-354 240v10h418l174 -239v-11z" />
    <glyph glyph-name="Eacute" unicode="&#xc9;" horiz-adv-x="1384" 
d="M522 1552v11l174 239h418v-10l-354 -240h-238zM248 1178h-172v256h1200v-478h-287v224h-422v-324h342v-242h-342v-358h432v250h287v-506h-1210v258h172v920z" />
    <glyph glyph-name="Ecircumflex" unicode="&#xca;" horiz-adv-x="1384" 
d="M248 1178h-172v256h1200v-478h-287v224h-422v-324h342v-242h-342v-358h432v250h287v-506h-1210v258h172v920zM815 1552l-131 103l-131 -103h-256v11l246 249h288l248 -249v-11h-264z" />
    <glyph glyph-name="Edieresis" unicode="&#xcb;" horiz-adv-x="1384" 
d="M311 1556v267h310v-267h-310zM752 1556v267h309v-267h-309zM248 1178h-172v256h1200v-478h-287v224h-422v-324h342v-242h-342v-358h432v250h287v-506h-1210v258h172v920z" />
    <glyph glyph-name="Igrave" unicode="&#xcc;" horiz-adv-x="841" 
d="M582 258h178v-258h-678v258h180v920h-180v256h678v-256h-178v-920zM584 1552h-238l-354 240v10h418l174 -239v-11z" />
    <glyph glyph-name="Iacute" unicode="&#xcd;" horiz-adv-x="841" 
d="M582 258h178v-258h-678v258h180v920h-180v256h678v-256h-178v-920zM256 1552v11l174 239h418v-10l-354 -240h-238z" />
    <glyph glyph-name="Icircumflex" unicode="&#xce;" horiz-adv-x="841" 
d="M582 258h178v-258h-678v258h180v920h-180v256h678v-256h-178v-920zM551 1552l-131 103l-131 -103h-256v11l246 249h288l248 -249v-11h-264z" />
    <glyph glyph-name="Idieresis" unicode="&#xcf;" horiz-adv-x="841" 
d="M582 258h178v-258h-678v258h180v920h-180v256h678v-256h-178v-920zM47 1556v267h309v-267h-309zM487 1556v267h310v-267h-310z" />
    <glyph glyph-name="Eth" unicode="&#xd0;" horiz-adv-x="1490" 
d="M872 1434q138 0 219.5 -24t139.5 -83q72 -72 105.5 -211.5t33.5 -398.5q0 -258 -34 -399t-105 -212q-58 -58 -140 -82t-219 -24h-794v258h172v354h-172v248h172v318h-172v256h794zM807 612h-238v-354h260q66 0 97.5 7t54.5 28q28 28 38.5 113.5t10.5 310.5t-10.5 310.5
t-38.5 113.5q-23 23 -54 30t-98 7h-260v-318h238v-248z" />
    <glyph glyph-name="Ntilde" unicode="&#xd1;" horiz-adv-x="1656" 
d="M1141 508v670h-166v256h627v-256h-168v-1178h-306q-57 0 -82.5 17t-50.5 69l-432 907h-20v-735h172v-258h-637v258h172v920h-172v256h512q56 0 81 -17t52 -69l397 -840h21zM481 1559v127q0 85 35 120q29 33 94 33h45q49 0 138 -27l192 -57l47 82h166v-129q0 -88 -33 -121
q-35 -31 -94 -31h-45q-59 0 -139 27l-191 55l-47 -79h-168z" />
    <glyph glyph-name="Ograve" unicode="&#xd2;" horiz-adv-x="1437" 
d="M477 1434h484q100 0 150.5 -15t88.5 -53q62 -60 88.5 -196.5t26.5 -452.5q0 -314 -26.5 -450.5t-88.5 -198.5q-38 -38 -88.5 -53t-150.5 -15h-484q-99 0 -150 15t-89 53q-62 62 -88.5 198.5t-26.5 450.5q0 316 26.5 452.5t88.5 196.5q38 38 89 53t150 15zM463 717
q0 -175 3.5 -270.5t8.5 -124t14 -37.5q19 -19 95 -19h272q76 0 92 19q10 9 15.5 39t8.5 123.5t3 269.5q0 177 -3.5 271t-8.5 123.5t-15 39.5q-16 16 -92 16h-272q-76 0 -95 -16q-9 -10 -14 -39t-8.5 -124.5t-3.5 -270.5zM883 1552h-238l-354 240v10h418l174 -239v-11z" />
    <glyph glyph-name="Oacute" unicode="&#xd3;" horiz-adv-x="1437" 
d="M555 1552v11l174 239h418v-10l-354 -240h-238zM477 1434h484q100 0 150.5 -15t88.5 -53q62 -60 88.5 -196.5t26.5 -452.5q0 -314 -26.5 -450.5t-88.5 -198.5q-38 -38 -88.5 -53t-150.5 -15h-484q-99 0 -150 15t-89 53q-62 62 -88.5 198.5t-26.5 450.5q0 316 26.5 452.5
t88.5 196.5q38 38 89 53t150 15zM463 717q0 -175 3.5 -270.5t8.5 -124t14 -37.5q19 -19 95 -19h272q76 0 92 19q10 9 15.5 39t8.5 123.5t3 269.5q0 177 -3.5 271t-8.5 123.5t-15 39.5q-16 16 -92 16h-272q-76 0 -95 -16q-9 -10 -14 -39t-8.5 -124.5t-3.5 -270.5z" />
    <glyph glyph-name="Ocircumflex" unicode="&#xd4;" horiz-adv-x="1437" 
d="M477 1434h484q100 0 150.5 -15t88.5 -53q62 -60 88.5 -196.5t26.5 -452.5q0 -314 -26.5 -450.5t-88.5 -198.5q-38 -38 -88.5 -53t-150.5 -15h-484q-99 0 -150 15t-89 53q-62 62 -88.5 198.5t-26.5 450.5q0 316 26.5 452.5t88.5 196.5q38 38 89 53t150 15zM463 717
q0 -175 3.5 -270.5t8.5 -124t14 -37.5q19 -19 95 -19h272q76 0 92 19q10 9 15.5 39t8.5 123.5t3 269.5q0 177 -3.5 271t-8.5 123.5t-15 39.5q-16 16 -92 16h-272q-76 0 -95 -16q-9 -10 -14 -39t-8.5 -124.5t-3.5 -270.5zM848 1552l-131 103l-131 -103h-256v11l245 249h289
l248 -249v-11h-264z" />
    <glyph glyph-name="Otilde" unicode="&#xd5;" horiz-adv-x="1437" 
d="M477 1434h484q100 0 150.5 -15t88.5 -53q62 -60 88.5 -196.5t26.5 -452.5q0 -314 -26.5 -450.5t-88.5 -198.5q-38 -38 -88.5 -53t-150.5 -15h-484q-99 0 -150 15t-89 53q-62 62 -88.5 198.5t-26.5 450.5q0 316 26.5 452.5t88.5 196.5q38 38 89 53t150 15zM463 717
q0 -175 3.5 -270.5t8.5 -124t14 -37.5q19 -19 95 -19h272q76 0 92 19q10 9 15.5 39t8.5 123.5t3 269.5q0 177 -3.5 271t-8.5 123.5t-15 39.5q-16 16 -92 16h-272q-76 0 -95 -16q-9 -10 -14 -39t-8.5 -124.5t-3.5 -270.5zM362 1559v127q0 85 35 120q29 33 95 33h45
q48 0 137 -27l192 -57l47 82h166v-129q0 -89 -32 -121q-35 -31 -95 -31h-45q-59 0 -139 27l-190 55l-48 -79h-168z" />
    <glyph glyph-name="Odieresis" unicode="&#xd6;" horiz-adv-x="1437" 
d="M344 1556v267h309v-267h-309zM784 1556v267h310v-267h-310zM477 1434h484q100 0 150.5 -15t88.5 -53q62 -60 88.5 -196.5t26.5 -452.5q0 -314 -26.5 -450.5t-88.5 -198.5q-38 -38 -88.5 -53t-150.5 -15h-484q-99 0 -150 15t-89 53q-62 62 -88.5 198.5t-26.5 450.5
q0 316 26.5 452.5t88.5 196.5q38 38 89 53t150 15zM463 717q0 -175 3.5 -270.5t8.5 -124t14 -37.5q19 -19 95 -19h272q76 0 92 19q10 9 15.5 39t8.5 123.5t3 269.5q0 177 -3.5 271t-8.5 123.5t-15 39.5q-16 16 -92 16h-272q-76 0 -95 -16q-9 -10 -14 -39t-8.5 -124.5
t-3.5 -270.5z" />
    <glyph glyph-name="multiply" unicode="&#xd7;" horiz-adv-x="1058" 
d="M289 1157l241 -239l240 239l174 -172l-242 -242l242 -239l-174 -174l-240 241l-241 -241l-172 174l239 239l-239 242z" />
    <glyph glyph-name="Oslash" unicode="&#xd8;" horiz-adv-x="1437" 
d="M477 1434h453l51 108h264l-74 -151l29 -25q62 -60 88.5 -196.5t26.5 -452.5q0 -314 -26.5 -450.5t-88.5 -198.5q-38 -38 -88.5 -53t-150.5 -15h-453l-51 -109h-264l71 152q-2 2 -11.5 10.5t-14.5 14.5q-62 62 -88.5 198.5t-26.5 450.5q0 316 26.5 452.5t88.5 196.5
q38 38 89 53t150 15zM975 717q0 238 -4 301l-346 -752h231q76 0 92 19q10 9 15.5 39t8.5 123.5t3 269.5zM463 717q0 -234 4 -297l344 747h-227q-76 0 -95 -16q-9 -10 -14 -39t-8.5 -124.5t-3.5 -270.5z" />
    <glyph glyph-name="Ugrave" unicode="&#xd9;" horiz-adv-x="1595" 
d="M1053 1178h-168v256h653v-256h-168v-592q0 -246 -21.5 -344.5t-82.5 -157.5q-48 -48 -123.5 -66t-218.5 -18h-256q-142 0 -216.5 17.5t-121.5 64.5q-42 42 -63 91.5t-31.5 146t-10.5 266.5v592h-168v256h658v-256h-168v-625q0 -137 9 -189t28 -71q15 -15 51 -21t121 -6
h94q82 0 117.5 6t50.5 21q20 20 27.5 69t7.5 191v625zM961 1552h-238l-354 240v10h417l175 -239v-11z" />
    <glyph glyph-name="Uacute" unicode="&#xda;" horiz-adv-x="1595" 
d="M633 1552v11l174 239h418v-10l-355 -240h-237zM1053 1178h-168v256h653v-256h-168v-592q0 -246 -21.5 -344.5t-82.5 -157.5q-48 -48 -123.5 -66t-218.5 -18h-256q-142 0 -216.5 17.5t-121.5 64.5q-42 42 -63 91.5t-31.5 146t-10.5 266.5v592h-168v256h658v-256h-168v-625
q0 -137 9 -189t28 -71q15 -15 51 -21t121 -6h94q82 0 117.5 6t50.5 21q20 20 27.5 69t7.5 191v625z" />
    <glyph glyph-name="Ucircumflex" unicode="&#xdb;" horiz-adv-x="1595" 
d="M1053 1178h-168v256h653v-256h-168v-592q0 -246 -21.5 -344.5t-82.5 -157.5q-48 -48 -123.5 -66t-218.5 -18h-256q-142 0 -216.5 17.5t-121.5 64.5q-42 42 -63 91.5t-31.5 146t-10.5 266.5v592h-168v256h658v-256h-168v-625q0 -137 9 -189t28 -71q15 -15 51 -21t121 -6
h94q82 0 117.5 6t50.5 21q20 20 27.5 69t7.5 191v625zM926 1552l-131 103l-131 -103h-256v11l245 249h289l248 -249v-11h-264z" />
    <glyph glyph-name="Udieresis" unicode="&#xdc;" horiz-adv-x="1595" 
d="M422 1556v267h309v-267h-309zM862 1556v267h309v-267h-309zM1053 1178h-168v256h653v-256h-168v-592q0 -246 -21.5 -344.5t-82.5 -157.5q-48 -48 -123.5 -66t-218.5 -18h-256q-142 0 -216.5 17.5t-121.5 64.5q-42 42 -63 91.5t-31.5 146t-10.5 266.5v592h-168v256h658
v-256h-168v-625q0 -137 9 -189t28 -71q15 -15 51 -21t121 -6h94q82 0 117.5 6t50.5 21q20 20 27.5 69t7.5 191v625z" />
    <glyph glyph-name="Yacute" unicode="&#xdd;" horiz-adv-x="1497" 
d="M586 571l-418 607h-143v256h657v-252h-147l217 -353h12l231 353h-149v252h629v-256h-146l-424 -600v-320h182v-258h-684v258h183v313zM598 1552v11l174 239h418v-10l-354 -240h-238z" />
    <glyph glyph-name="Thorn" unicode="&#xde;" horiz-adv-x="1341" 
d="M967 338h-402v-98h189v-240h-684v258h176v920h-176v256h682v-238h-187v-92h402q87 0 141.5 -14.5t89.5 -51.5q48 -49 69 -116.5t21 -198.5q0 -134 -21 -202.5t-69 -117.5q-35 -37 -89 -51t-142 -14zM565 573h271q78 0 92 17q24 24 24 129q0 107 -24 131q-13 16 -92 16
h-271v-293z" />
    <glyph glyph-name="germandbls" unicode="&#xdf;" horiz-adv-x="1349" 
d="M1192 1147q0 -153 -46.5 -224t-152.5 -100v-4q143 -19 200.5 -98t57.5 -279q0 -153 -22.5 -235t-71.5 -131q-76 -76 -248 -76h-252v252h142q78 0 98 20q15 15 22 57.5t7 151.5q0 167 -27 197q-18 18 -84 18h-147v242h92q66 0 82 16q14 15 20 44.5t6 101.5q0 115 -26 141
q-19 19 -80 19h-127q-55 0 -74 -19q-24 -27 -24 -115v-1126h-457v244h151v637h-151v245h151v52q0 181 78 262q38 38 87 54.5t132 16.5h349q87 0 141 -15.5t90 -51.5q44 -46 64 -115.5t20 -181.5z" />
    <glyph glyph-name="agrave" unicode="&#xe0;" horiz-adv-x="1251" 
d="M768 725q0 79 -4.5 107.5t-15.5 41.5q-20 17 -82 17h-138q-60 0 -77 -17q-11 -11 -15.5 -33t-7.5 -77h-291q3 138 18 201t50 98q34 34 79.5 48.5t121.5 14.5h389q152 0 213 -61q38 -37 51.5 -96.5t13.5 -198.5v-526h146v-244h-451v125q-98 -81 -151 -104t-128 -23h-135
q-77 0 -121 12t-77 45q-66 66 -66 254q0 207 70 277q41 41 111.5 58.5t205.5 17.5q143 0 291 -33v96zM555 219q50 0 95.5 12t117.5 48v196h-184q-85 0 -119.5 -6t-48.5 -20q-25 -25 -25 -103q0 -87 21 -108q19 -19 80 -19h63zM784 1255h-237l-354 240v10h417l174 -239v-11z
" />
    <glyph glyph-name="aacute" unicode="&#xe1;" horiz-adv-x="1251" 
d="M768 725q0 79 -4.5 107.5t-15.5 41.5q-20 17 -82 17h-138q-60 0 -77 -17q-11 -11 -15.5 -33t-7.5 -77h-291q3 138 18 201t50 98q34 34 79.5 48.5t121.5 14.5h389q152 0 213 -61q38 -37 51.5 -96.5t13.5 -198.5v-526h146v-244h-451v125q-98 -81 -151 -104t-128 -23h-135
q-77 0 -121 12t-77 45q-66 66 -66 254q0 207 70 277q41 41 111.5 58.5t205.5 17.5q143 0 291 -33v96zM555 219q50 0 95.5 12t117.5 48v196h-184q-85 0 -119.5 -6t-48.5 -20q-25 -25 -25 -103q0 -87 21 -108q19 -19 80 -19h63zM457 1255v11l174 239h418v-10l-355 -240h-237z
" />
    <glyph glyph-name="acircumflex" unicode="&#xe2;" horiz-adv-x="1251" 
d="M768 725q0 79 -4.5 107.5t-15.5 41.5q-20 17 -82 17h-138q-60 0 -77 -17q-11 -11 -15.5 -33t-7.5 -77h-291q3 138 18 201t50 98q34 34 79.5 48.5t121.5 14.5h389q152 0 213 -61q38 -37 51.5 -96.5t13.5 -198.5v-526h146v-244h-451v125q-98 -81 -151 -104t-128 -23h-135
q-77 0 -121 12t-77 45q-66 66 -66 254q0 207 70 277q41 41 111.5 58.5t205.5 17.5q143 0 291 -33v96zM750 1255l-132 103l-131 -103h-256v11l246 250h289l248 -250v-11h-264zM555 219q50 0 95.5 12t117.5 48v196h-184q-85 0 -119.5 -6t-48.5 -20q-25 -25 -25 -103
q0 -87 21 -108q19 -19 80 -19h63z" />
    <glyph glyph-name="atilde" unicode="&#xe3;" horiz-adv-x="1251" 
d="M768 725q0 79 -4.5 107.5t-15.5 41.5q-20 17 -82 17h-138q-60 0 -77 -17q-11 -11 -15.5 -33t-7.5 -77h-291q3 138 18 201t50 98q34 34 79.5 48.5t121.5 14.5h389q152 0 213 -61q38 -37 51.5 -96.5t13.5 -198.5v-526h146v-244h-451v125q-98 -81 -151 -104t-128 -23h-135
q-77 0 -121 12t-77 45q-66 66 -66 254q0 207 70 277q41 41 111.5 58.5t205.5 17.5q143 0 291 -33v96zM264 1262v127q0 85 35 120q29 33 94 33h45q51 0 137 -26l193 -58l47 82h166v-129q0 -88 -33 -121q-34 -30 -94 -30h-45q-62 0 -139 26l-191 55l-47 -79h-168zM555 219
q50 0 95.5 12t117.5 48v196h-184q-85 0 -119.5 -6t-48.5 -20q-25 -25 -25 -103q0 -87 21 -108q19 -19 80 -19h63z" />
    <glyph glyph-name="adieresis" unicode="&#xe4;" horiz-adv-x="1251" 
d="M768 725q0 79 -4.5 107.5t-15.5 41.5q-20 17 -82 17h-138q-60 0 -77 -17q-11 -11 -15.5 -33t-7.5 -77h-291q3 138 18 201t50 98q34 34 79.5 48.5t121.5 14.5h389q152 0 213 -61q38 -37 51.5 -96.5t13.5 -198.5v-526h146v-244h-451v125q-98 -81 -151 -104t-128 -23h-135
q-77 0 -121 12t-77 45q-66 66 -66 254q0 207 70 277q41 41 111.5 58.5t205.5 17.5q143 0 291 -33v96zM555 219q50 0 95.5 12t117.5 48v196h-184q-85 0 -119.5 -6t-48.5 -20q-25 -25 -25 -103q0 -87 21 -108q19 -19 80 -19h63zM246 1260v266h309v-266h-309zM686 1260v266h309
v-266h-309z" />
    <glyph glyph-name="aring" unicode="&#xe5;" horiz-adv-x="1251" 
d="M768 725q0 79 -4.5 107.5t-15.5 41.5q-20 17 -82 17h-138q-60 0 -77 -17q-11 -11 -15.5 -33t-7.5 -77h-291q3 138 18 201t50 98q34 34 79.5 48.5t121.5 14.5h389q152 0 213 -61q38 -37 51.5 -96.5t13.5 -198.5v-526h146v-244h-451v125q-98 -81 -151 -104t-128 -23h-135
q-77 0 -121 12t-77 45q-66 66 -66 254q0 207 70 277q41 41 111.5 58.5t205.5 17.5q143 0 291 -33v96zM735 1249h-229q-92 0 -133 41q-31 28 -43.5 69.5t-12.5 108.5t12.5 108t43.5 71q42 39 133 39h229q93 0 135 -39q56 -56 56 -179q0 -125 -56 -178q-41 -41 -135 -41z
M555 219q50 0 95.5 12t117.5 48v196h-184q-85 0 -119.5 -6t-48.5 -20q-25 -25 -25 -103q0 -87 21 -108q19 -19 80 -19h63zM672 1538h-103q-41 0 -51 -10q-14 -14 -14 -60q0 -48 14 -59q12 -12 51 -12h103q41 0 53 12q14 14 14 59q0 42 -14 60q-10 10 -53 10z" />
    <glyph glyph-name="ae" unicode="&#xe6;" horiz-adv-x="1851" 
d="M156 55q-66 66 -66 254q0 207 70 277q41 41 111.5 58.5t205.5 17.5q143 0 291 -33v96q0 79 -4.5 107.5t-15.5 41.5q-20 17 -82 17h-138q-60 0 -77 -17q-11 -11 -15.5 -33t-7.5 -77h-291q3 138 18 201t50 98q34 34 79.5 48.5t121.5 14.5h315q83 0 132 -20.5t83 -65.5
q38 45 87.5 65.5t129.5 20.5h281q86 0 137 -15t86 -52q55 -55 72.5 -152t17.5 -342v-35q0 -26 -9 -35.5t-36 -9.5h-629q2 -210 25 -233q21 -21 100 -21h158q72 0 90 21q15 15 18 123h283q-2 -128 -18.5 -198t-57.5 -111q-32 -32 -75.5 -49t-125.5 -17h-376q-86 0 -136.5 16
t-87.5 54q-43 40 -61 90q-127 -104 -184.5 -133t-135.5 -29h-135q-77 0 -121 12t-77 45zM780 285q-12 102 -12 190h-184q-85 0 -119.5 -6t-48.5 -20q-25 -25 -25 -103q0 -87 21 -108q19 -19 80 -19h63q50 0 97.5 13.5t127.5 52.5zM1098 874q-13 -11 -18.5 -54t-6.5 -161h379
q0 189 -25 218q-18 18 -92 18h-137q-82 0 -100 -21z" />
    <glyph glyph-name="ccedilla" unicode="&#xe7;" horiz-adv-x="1167" 
d="M430 0q-86 0 -136 16t-87 54q-40 40 -60.5 88.5t-31.5 144.5t-11 260t11 260.5t31.5 145.5t60.5 90q35 37 86 52t137 15h369q82 0 125 -16.5t75 -48.5q40 -40 57 -119.5t17 -228.5h-289q-2 131 -20 151q-22 19 -74 19h-170q-66 0 -84 -21q-13 -13 -18.5 -70.5
t-5.5 -228.5q0 -170 5.5 -227t18.5 -72q18 -18 84 -18h172q58 0 76 18q20 20 20 166h289q0 -162 -17 -242t-59 -122q-66 -66 -200 -66h-371zM657 -55q96 0 127 -31q39 -39 39 -166q0 -68 -9.5 -101t-29.5 -53q-32 -32 -133 -32h-221l-131 104v49h270q32 0 41 9q8 8 8 34
q0 27 -8 35t-41 8h-94v144h182z" />
    <glyph glyph-name="egrave" unicode="&#xe8;" horiz-adv-x="1183" 
d="M1036 485h-630q2 -209 26 -233q18 -21 98 -21h158q74 0 92 21q14 17 17 123h284q-2 -129 -18 -198.5t-57 -110.5q-31 -31 -75.5 -48.5t-125.5 -17.5h-375q-86 0 -136 16t-87 54q-40 40 -60.5 88.5t-31.5 144.5t-11 260t11 260.5t31.5 145.5t60.5 90q35 37 86 52t137 15
h336q87 0 138.5 -15t86.5 -52q55 -55 72.5 -152t17.5 -342v-35q0 -26 -9 -35.5t-36 -9.5zM430 874q-22 -22 -24 -215h380q0 191 -24 218q-18 18 -94 18h-138q-79 0 -100 -21zM766 1255h-238l-354 240v10h418l174 -239v-11z" />
    <glyph glyph-name="eacute" unicode="&#xe9;" horiz-adv-x="1183" 
d="M1036 485h-630q2 -209 26 -233q18 -21 98 -21h158q74 0 92 21q14 17 17 123h284q-2 -129 -18 -198.5t-57 -110.5q-31 -31 -75.5 -48.5t-125.5 -17.5h-375q-86 0 -136 16t-87 54q-40 40 -60.5 88.5t-31.5 144.5t-11 260t11 260.5t31.5 145.5t60.5 90q35 37 86 52t137 15
h336q87 0 138.5 -15t86.5 -52q55 -55 72.5 -152t17.5 -342v-35q0 -26 -9 -35.5t-36 -9.5zM430 874q-22 -22 -24 -215h380q0 191 -24 218q-18 18 -94 18h-138q-79 0 -100 -21zM438 1255v11l174 239h418v-10l-354 -240h-238z" />
    <glyph glyph-name="ecircumflex" unicode="&#xea;" horiz-adv-x="1183" 
d="M1036 485h-630q2 -209 26 -233q18 -21 98 -21h158q74 0 92 21q14 17 17 123h284q-2 -129 -18 -198.5t-57 -110.5q-31 -31 -75.5 -48.5t-125.5 -17.5h-375q-86 0 -136 16t-87 54q-40 40 -60.5 88.5t-31.5 144.5t-11 260t11 260.5t31.5 145.5t60.5 90q35 37 86 52t137 15
h336q87 0 138.5 -15t86.5 -52q55 -55 72.5 -152t17.5 -342v-35q0 -26 -9 -35.5t-36 -9.5zM731 1255l-131 103l-131 -103h-256v11l246 250h289l247 -250v-11h-264zM430 874q-22 -22 -24 -215h380q0 191 -24 218q-18 18 -94 18h-138q-79 0 -100 -21z" />
    <glyph glyph-name="edieresis" unicode="&#xeb;" horiz-adv-x="1183" 
d="M1036 485h-630q2 -209 26 -233q18 -21 98 -21h158q74 0 92 21q14 17 17 123h284q-2 -129 -18 -198.5t-57 -110.5q-31 -31 -75.5 -48.5t-125.5 -17.5h-375q-86 0 -136 16t-87 54q-40 40 -60.5 88.5t-31.5 144.5t-11 260t11 260.5t31.5 145.5t60.5 90q35 37 86 52t137 15
h336q87 0 138.5 -15t86.5 -52q55 -55 72.5 -152t17.5 -342v-35q0 -26 -9 -35.5t-36 -9.5zM430 874q-22 -22 -24 -215h380q0 191 -24 218q-18 18 -94 18h-138q-79 0 -100 -21zM668 1260v266h309v-266h-309zM227 1260v266h310v-266h-310z" />
    <glyph glyph-name="igrave" unicode="&#xec;" horiz-adv-x="751" 
d="M705 0h-617v244h158v637h-158v245h465v-884h152v-242zM532 1255h-237l-354 240v10h417l174 -239v-11z" />
    <glyph glyph-name="iacute" unicode="&#xed;" horiz-adv-x="751" 
d="M207 1255v11l174 239h418v-10l-355 -240h-237zM705 0h-617v244h158v637h-158v245h465v-884h152v-242z" />
    <glyph glyph-name="icircumflex" unicode="&#xee;" horiz-adv-x="751" 
d="M705 0h-617v244h158v637h-158v245h465v-884h152v-242zM500 1255l-131 103l-131 -103h-256v11l245 250h289l248 -250v-11h-264z" />
    <glyph glyph-name="idieresis" unicode="&#xef;" horiz-adv-x="751" 
d="M-4 1260v266h309v-266h-309zM436 1260v266h309v-266h-309zM705 0h-617v244h158v637h-158v245h465v-884h152v-242z" />
    <glyph glyph-name="eth" unicode="&#xf0;" horiz-adv-x="1228" 
d="M420 1309l194 57l-100 145h238l79 -81l291 86v-205l-143 -43q89 -106 113 -172q17 -46 23.5 -155.5t6.5 -367.5q0 -240 -20.5 -341t-79.5 -162q-37 -38 -88 -54t-137 -16h-367q-86 0 -136 16t-87 54q-57 57 -80 151.5t-23 286.5q0 191 23 285.5t80 152.5q35 37 86 52.5
t137 15.5h109q74 0 125.5 -23t150.5 -104q-5 127 -22 192q-11 35 -62 117l-311 -92v205zM791 264q15 15 20.5 74.5t5.5 234.5v148q-101 49 -180 49h-117q-66 0 -84 -18q-13 -14 -18.5 -64t-5.5 -180t5.5 -180t18.5 -64q18 -18 84 -18h189q67 0 82 18z" />
    <glyph glyph-name="ntilde" unicode="&#xf1;" horiz-adv-x="1380" 
d="M537 1126v-149q107 97 161 124t133 27h103q138 0 201 -63q36 -35 50.5 -92t14.5 -178v-551h146v-244h-572v242h121v520q0 64 -25 92q-25 25 -94 25h-61q-74 0 -178 -48v-589h120v-242h-577v244h151v637h-151v245h457zM354 1262v127q0 85 35 120q29 33 94 33h45
q52 0 138 -26l192 -58l47 82h166v-129q0 -88 -33 -121q-34 -30 -94 -30h-45q-62 0 -139 26l-191 55l-47 -79h-168z" />
    <glyph glyph-name="ograve" unicode="&#xf2;" horiz-adv-x="1226" 
d="M430 0q-86 0 -136 16t-87 54q-58 58 -80.5 160t-22.5 333q0 232 22.5 334.5t80.5 161.5q35 37 86 52t137 15h367q86 0 137 -15t88 -52q57 -59 78.5 -160.5t21.5 -335.5t-21.5 -335t-78.5 -158q-37 -38 -88 -54t-137 -16h-367zM412 563q0 -170 5.5 -227t18.5 -72
q18 -18 84 -18h189q67 0 82 18q14 15 20 73t6 226q0 116 -3.5 181.5t-8.5 87t-14 30.5q-18 21 -82 21h-189q-66 0 -84 -21q-13 -13 -18.5 -70.5t-5.5 -228.5zM778 1255h-237l-355 240v10h418l174 -239v-11z" />
    <glyph glyph-name="oacute" unicode="&#xf3;" horiz-adv-x="1226" 
d="M451 1255v11l174 239h417v-10l-354 -240h-237zM430 0q-86 0 -136 16t-87 54q-58 58 -80.5 160t-22.5 333q0 232 22.5 334.5t80.5 161.5q35 37 86 52t137 15h367q86 0 137 -15t88 -52q57 -59 78.5 -160.5t21.5 -335.5t-21.5 -335t-78.5 -158q-37 -38 -88 -54t-137 -16
h-367zM412 563q0 -170 5.5 -227t18.5 -72q18 -18 84 -18h189q67 0 82 18q14 15 20 73t6 226q0 116 -3.5 181.5t-8.5 87t-14 30.5q-18 21 -82 21h-189q-66 0 -84 -21q-13 -13 -18.5 -70.5t-5.5 -228.5z" />
    <glyph glyph-name="ocircumflex" unicode="&#xf4;" horiz-adv-x="1226" 
d="M430 0q-86 0 -136 16t-87 54q-58 58 -80.5 160t-22.5 333q0 232 22.5 334.5t80.5 161.5q35 37 86 52t137 15h367q86 0 137 -15t88 -52q57 -59 78.5 -160.5t21.5 -335.5t-21.5 -335t-78.5 -158q-37 -38 -88 -54t-137 -16h-367zM412 563q0 -170 5.5 -227t18.5 -72
q18 -18 84 -18h189q67 0 82 18q14 15 20 73t6 226q0 116 -3.5 181.5t-8.5 87t-14 30.5q-18 21 -82 21h-189q-66 0 -84 -21q-13 -13 -18.5 -70.5t-5.5 -228.5zM743 1255l-131 103l-131 -103h-256v11l246 250h289l248 -250v-11h-265z" />
    <glyph glyph-name="otilde" unicode="&#xf5;" horiz-adv-x="1226" 
d="M430 0q-86 0 -136 16t-87 54q-58 58 -80.5 160t-22.5 333q0 232 22.5 334.5t80.5 161.5q35 37 86 52t137 15h367q86 0 137 -15t88 -52q57 -59 78.5 -160.5t21.5 -335.5t-21.5 -335t-78.5 -158q-37 -38 -88 -54t-137 -16h-367zM412 563q0 -170 5.5 -227t18.5 -72
q18 -18 84 -18h189q67 0 82 18q14 15 20 73t6 226q0 116 -3.5 181.5t-8.5 87t-14 30.5q-18 21 -82 21h-189q-66 0 -84 -21q-13 -13 -18.5 -70.5t-5.5 -228.5zM256 1262v127q0 85 35 120q29 33 94 33h45q51 0 137 -26l193 -58l47 82h166v-129q0 -88 -33 -121q-34 -30 -94 -30
h-45q-62 0 -139 26l-191 55l-47 -79h-168z" />
    <glyph glyph-name="odieresis" unicode="&#xf6;" horiz-adv-x="1226" 
d="M240 1260v266h309v-266h-309zM680 1260v266h309v-266h-309zM430 0q-86 0 -136 16t-87 54q-58 58 -80.5 160t-22.5 333q0 232 22.5 334.5t80.5 161.5q35 37 86 52t137 15h367q86 0 137 -15t88 -52q57 -59 78.5 -160.5t21.5 -335.5t-21.5 -335t-78.5 -158q-37 -38 -88 -54
t-137 -16h-367zM412 563q0 -170 5.5 -227t18.5 -72q18 -18 84 -18h189q67 0 82 18q14 15 20 73t6 226q0 116 -3.5 181.5t-8.5 87t-14 30.5q-18 21 -82 21h-189q-66 0 -84 -21q-13 -13 -18.5 -70.5t-5.5 -228.5z" />
    <glyph glyph-name="divide" unicode="&#xf7;" horiz-adv-x="1058" 
d="M98 625v237h863v-237h-863zM387 266v260h287v-260h-287zM387 965v262h287v-262h-287z" />
    <glyph glyph-name="oslash" unicode="&#xf8;" horiz-adv-x="1226" 
d="M1102 1229l-88 -162q3 -5 8 -8q57 -59 78.5 -160.5t21.5 -335.5t-21.5 -335t-78.5 -158q-37 -38 -88 -54t-137 -16h-357l-53 -102h-260l88 161l-8 11q-58 58 -80.5 160t-22.5 333q0 232 22.5 334.5t80.5 161.5q35 37 86 52t137 15h356l56 103h260zM401 563q0 -165 5 -219
l270 539h-166q-66 0 -84 -21q-13 -13 -19 -71.5t-6 -227.5zM827 563q0 152 -6 219l-270 -536h168q67 0 82 18q14 15 20 73t6 226z" />
    <glyph glyph-name="ugrave" unicode="&#xf9;" horiz-adv-x="1345" 
d="M844 0v150q-108 -96 -163 -124t-132 -28h-103q-137 0 -200 63q-36 36 -51 93.5t-15 177.5v549h-145v245h450v-759q0 -68 25 -93q26 -26 94 -26h62q70 0 178 47v588h-158v243h463v-882h151v-244h-456zM805 1255h-238l-354 240v10h418l174 -239v-11z" />
    <glyph glyph-name="uacute" unicode="&#xfa;" horiz-adv-x="1345" 
d="M844 0v150q-108 -96 -163 -124t-132 -28h-103q-137 0 -200 63q-36 36 -51 93.5t-15 177.5v549h-145v245h450v-759q0 -68 25 -93q26 -26 94 -26h62q70 0 178 47v588h-158v243h463v-882h151v-244h-456zM477 1255v11l174 239h418v-10l-354 -240h-238z" />
    <glyph glyph-name="ucircumflex" unicode="&#xfb;" horiz-adv-x="1345" 
d="M844 0v150q-108 -96 -163 -124t-132 -28h-103q-137 0 -200 63q-36 36 -51 93.5t-15 177.5v549h-145v245h450v-759q0 -68 25 -93q26 -26 94 -26h62q70 0 178 47v588h-158v243h463v-882h151v-244h-456zM770 1255l-131 103l-131 -103h-256v11l246 250h288l248 -250v-11h-264
z" />
    <glyph glyph-name="udieresis" unicode="&#xfc;" horiz-adv-x="1345" 
d="M844 0v150q-108 -96 -163 -124t-132 -28h-103q-137 0 -200 63q-36 36 -51 93.5t-15 177.5v549h-145v245h450v-759q0 -68 25 -93q26 -26 94 -26h62q70 0 178 47v588h-158v243h463v-882h151v-244h-456zM707 1260v266h309v-266h-309zM266 1260v266h309v-266h-309z" />
    <glyph glyph-name="yacute" unicode="&#xfd;" horiz-adv-x="1333" 
d="M475 881l199 -547h18l185 547h-132v245h562v-245h-125l-406 -1043q-37 -95 -95 -132.5t-171 -37.5q-107 0 -279 15v237h224q23 0 33.5 8t19.5 31l14 43l-370 879h-125v245h579v-245h-131zM514 1255v11l174 239h418v-10l-354 -240h-238z" />
    <glyph glyph-name="thorn" unicode="&#xfe;" horiz-adv-x="1304" 
d="M186 -84v1350h-151v245h457v-530q105 92 158 119.5t124 27.5h100q91 0 143.5 -15.5t90.5 -53.5q51 -51 71.5 -152t20.5 -338q0 -233 -23 -334t-77 -155q-38 -38 -91.5 -55t-138.5 -17h-104q-73 0 -127 24.5t-147 104.5v-223h157v-242h-614v244h151zM662 883
q-70 0 -170 -47v-537q92 -43 167 -43h97q77 0 102 25q22 22 29.5 77.5t7.5 210.5q0 154 -7.5 210t-29.5 77q-27 27 -102 27h-94z" />
    <glyph glyph-name="ydieresis" unicode="&#xff;" horiz-adv-x="1333" 
d="M475 881l199 -547h18l185 547h-132v245h562v-245h-125l-406 -1043q-37 -95 -95 -132.5t-171 -37.5q-107 0 -279 15v237h224q23 0 33.5 8t19.5 31l14 43l-370 879h-125v245h579v-245h-131zM743 1260v266h310v-266h-310zM303 1260v266h309v-266h-309z" />
    <glyph glyph-name="Amacron" unicode="&#x100;" horiz-adv-x="1552" 
d="M657 0h-622v258h139l352 1079q20 60 48 81.5t88 21.5h231q60 0 87.5 -21.5t47.5 -81.5l352 -1079h138v-258h-648v254h164l-55 188h-432l-53 -188h163v-254zM420 1556v222h694v-222h-694zM750 1153l-136 -467h297l-135 467h-26z" />
    <glyph glyph-name="amacron" unicode="&#x101;" horiz-adv-x="1251" 
d="M768 725q0 79 -4.5 107.5t-15.5 41.5q-20 17 -82 17h-138q-60 0 -77 -17q-11 -11 -15.5 -33t-7.5 -77h-291q3 138 18 201t50 98q34 34 79.5 48.5t121.5 14.5h389q152 0 213 -61q38 -37 51.5 -96.5t13.5 -198.5v-526h146v-244h-451v125q-98 -81 -151 -104t-128 -23h-135
q-77 0 -121 12t-77 45q-66 66 -66 254q0 207 70 277q41 41 111.5 58.5t205.5 17.5q143 0 291 -33v96zM274 1260v221h695v-221h-695zM555 219q50 0 95.5 12t117.5 48v196h-184q-85 0 -119.5 -6t-48.5 -20q-25 -25 -25 -103q0 -87 21 -108q19 -19 80 -19h63z" />
    <glyph glyph-name="Abreve" unicode="&#x102;" horiz-adv-x="1552" 
d="M657 0h-622v258h139l352 1079q20 60 48 81.5t88 21.5h231q60 0 87.5 -21.5t47.5 -81.5l352 -1079h138v-258h-648v254h164l-55 188h-432l-53 -188h163v-254zM768 1722q60 0 90 22t39 68h225q-5 -130 -95.5 -200t-260.5 -70q-169 0 -259 70t-95 200h227q9 -46 38.5 -68
t90.5 -22zM750 1153l-136 -467h297l-135 467h-26z" />
    <glyph glyph-name="abreve" unicode="&#x103;" horiz-adv-x="1251" 
d="M768 725q0 79 -4.5 107.5t-15.5 41.5q-20 17 -82 17h-138q-60 0 -77 -17q-11 -11 -15.5 -33t-7.5 -77h-291q3 138 18 201t50 98q34 34 79.5 48.5t121.5 14.5h389q152 0 213 -61q38 -37 51.5 -96.5t13.5 -198.5v-526h146v-244h-451v125q-98 -81 -151 -104t-128 -23h-135
q-77 0 -121 12t-77 45q-66 66 -66 254q0 207 70 277q41 41 111.5 58.5t205.5 17.5q143 0 291 -33v96zM623 1425q60 0 90 22.5t39 68.5h225q-5 -130 -95.5 -200.5t-260.5 -70.5q-169 0 -259.5 70.5t-95.5 200.5h228q9 -46 38.5 -68.5t90.5 -22.5zM555 219q50 0 95.5 12
t117.5 48v196h-184q-85 0 -119.5 -6t-48.5 -20q-25 -25 -25 -103q0 -87 21 -108q19 -19 80 -19h63z" />
    <glyph glyph-name="Aogonek" unicode="&#x104;" horiz-adv-x="1552" 
d="M1309 -131h188q0 -119 -10.5 -167t-38.5 -73q-32 -30 -119 -30h-205q-86 0 -118 30q-27 24 -37.5 60.5t-10.5 99.5q0 53 5.5 81t25.5 58q17 27 72 72h-191v254h164l-55 188h-432l-53 -188h163v-254h-622v258h139l352 1079q20 60 48 81.5t88 21.5h231q60 0 87.5 -21.5
t47.5 -81.5l352 -1079h138v-258h-293q-42 -52 -47 -68q-13 -30 -13 -79q0 -61 9 -70q8 -8 28 -8h68q20 0 28 8q11 11 11 86zM750 1153l-136 -467h297l-135 467h-26z" />
    <glyph glyph-name="aogonek" unicode="&#x105;" horiz-adv-x="1251" 
d="M1014 -131h188q0 -119 -10.5 -167t-38.5 -73q-32 -30 -119 -30h-205q-86 0 -118 30q-27 24 -37 60t-10 100q0 54 5 81.5t25 57.5q22 35 74 72v125q-98 -81 -151 -104t-128 -23h-135q-77 0 -121 12t-77 45q-66 66 -66 254q0 207 70 277q41 41 111.5 58.5t205.5 17.5
q143 0 291 -33v96q0 79 -4.5 107.5t-15.5 41.5q-20 17 -82 17h-138q-60 0 -77 -17q-11 -11 -15.5 -33t-7.5 -77h-291q3 138 18 201t50 98q34 34 79.5 48.5t121.5 14.5h389q152 0 213 -61q38 -37 51.5 -96.5t13.5 -198.5v-526h146v-244h-289q-42 -52 -47 -68q-13 -30 -13 -79
q0 -61 9 -70q8 -8 28 -8h68q21 0 29 8q10 10 10 86zM555 219q50 0 95.5 12t117.5 48v196h-184q-85 0 -119.5 -6t-48.5 -20q-25 -25 -25 -103q0 -87 21 -108q19 -19 80 -19h63z" />
    <glyph glyph-name="Cacute" unicode="&#x106;" horiz-adv-x="1402" 
d="M559 1552v11l174 239h418v-10l-354 -240h-238zM946 0h-469q-99 0 -150 15t-89 53q-62 62 -88.5 198.5t-26.5 450.5q0 316 26.5 452.5t88.5 196.5q38 38 89 53t150 15h471q96 0 153.5 -14.5t90.5 -47.5q53 -53 73 -151.5t23 -305.5h-317q-3 128 -9 176t-18 60
q-16 16 -88 16h-272q-76 0 -95 -16q-9 -10 -14 -39t-8.5 -124.5t-3.5 -270.5q0 -174 3.5 -269t8.5 -124.5t14 -38.5q19 -19 95 -19h272q69 0 88 19q12 12 17.5 57.5t9.5 192.5h317q-3 -217 -22.5 -316.5t-73.5 -152.5q-35 -36 -92 -51t-154 -15z" />
    <glyph glyph-name="cacute" unicode="&#x107;" horiz-adv-x="1167" 
d="M444 1255v11l174 239h418v-10l-354 -240h-238zM430 0q-86 0 -136 16t-87 54q-40 40 -60.5 88.5t-31.5 144.5t-11 260t11 260.5t31.5 145.5t60.5 90q35 37 86 52t137 15h369q82 0 125 -16.5t75 -48.5q40 -40 57 -119.5t17 -228.5h-289q-2 131 -20 151q-22 19 -74 19h-170
q-66 0 -84 -21q-13 -13 -18.5 -70.5t-5.5 -228.5q0 -170 5.5 -227t18.5 -72q18 -18 84 -18h172q58 0 76 18q20 20 20 166h289q0 -162 -17 -242t-59 -122q-66 -66 -200 -66h-371z" />
    <glyph glyph-name="Cdotaccent" unicode="&#x10a;" horiz-adv-x="1402" 
d="M946 0h-469q-99 0 -150 15t-89 53q-62 62 -88.5 198.5t-26.5 450.5q0 316 26.5 452.5t88.5 196.5q38 38 89 53t150 15h471q96 0 153.5 -14.5t90.5 -47.5q53 -53 73 -151.5t23 -305.5h-317q-3 128 -9 176t-18 60q-16 16 -88 16h-272q-76 0 -95 -16q-9 -10 -14 -39
t-8.5 -124.5t-3.5 -270.5q0 -174 3.5 -269t8.5 -124.5t14 -38.5q19 -19 95 -19h272q69 0 88 19q12 12 17.5 57.5t9.5 192.5h317q-3 -217 -22.5 -316.5t-73.5 -152.5q-35 -36 -92 -51t-154 -15zM561 1563v270h322v-270h-322z" />
    <glyph glyph-name="cdotaccent" unicode="&#x10b;" horiz-adv-x="1167" 
d="M430 0q-86 0 -136 16t-87 54q-40 40 -60.5 88.5t-31.5 144.5t-11 260t11 260.5t31.5 145.5t60.5 90q35 37 86 52t137 15h369q82 0 125 -16.5t75 -48.5q40 -40 57 -119.5t17 -228.5h-289q-2 131 -20 151q-22 19 -74 19h-170q-66 0 -84 -21q-13 -13 -18.5 -70.5
t-5.5 -228.5q0 -170 5.5 -227t18.5 -72q18 -18 84 -18h172q58 0 76 18q20 20 20 166h289q0 -162 -17 -242t-59 -122q-66 -66 -200 -66h-371zM446 1266v270h322v-270h-322z" />
    <glyph glyph-name="Ccaron" unicode="&#x10c;" horiz-adv-x="1402" 
d="M946 0h-469q-99 0 -150 15t-89 53q-62 62 -88.5 198.5t-26.5 450.5q0 316 26.5 452.5t88.5 196.5q38 38 89 53t150 15h471q96 0 153.5 -14.5t90.5 -47.5q53 -53 73 -151.5t23 -305.5h-317q-3 128 -9 176t-18 60q-16 16 -88 16h-272q-76 0 -95 -16q-9 -10 -14 -39
t-8.5 -124.5t-3.5 -270.5q0 -174 3.5 -269t8.5 -124.5t14 -38.5q19 -19 95 -19h272q69 0 88 19q12 12 17.5 57.5t9.5 192.5h317q-3 -217 -22.5 -316.5t-73.5 -152.5q-35 -36 -92 -51t-154 -15zM573 1552l-245 250v10h262l131 -102l131 102h258v-10l-248 -250h-289z" />
    <glyph glyph-name="ccaron" unicode="&#x10d;" horiz-adv-x="1167" 
d="M430 0q-86 0 -136 16t-87 54q-40 40 -60.5 88.5t-31.5 144.5t-11 260t11 260.5t31.5 145.5t60.5 90q35 37 86 52t137 15h369q82 0 125 -16.5t75 -48.5q40 -40 57 -119.5t17 -228.5h-289q-2 131 -20 151q-22 19 -74 19h-170q-66 0 -84 -21q-13 -13 -18.5 -70.5
t-5.5 -228.5q0 -170 5.5 -227t18.5 -72q18 -18 84 -18h172q58 0 76 18q20 20 20 166h289q0 -162 -17 -242t-59 -122q-66 -66 -200 -66h-371zM459 1255l-246 250v11h262l131 -103l131 103h258v-11l-247 -250h-289z" />
    <glyph glyph-name="Dcaron" unicode="&#x10e;" horiz-adv-x="1488" 
d="M872 1434q138 0 219.5 -24t139.5 -83q72 -72 105.5 -211.5t33.5 -398.5q0 -258 -34 -399t-105 -212q-58 -58 -140 -82t-219 -24h-794v258h172v920h-172v256h794zM569 1178v-920h260q66 0 97.5 7t54.5 28q28 28 38.5 113.5t10.5 310.5t-10.5 310.5t-38.5 113.5
q-23 23 -54 30t-98 7h-260zM573 1552l-245 250v10h262l131 -102l131 102h258v-10l-248 -250h-289z" />
    <glyph glyph-name="dcaron" unicode="&#x10f;" horiz-adv-x="1314" 
d="M813 0v145q-104 -92 -157.5 -119.5t-125.5 -27.5h-100q-88 0 -141 16.5t-90 53.5q-53 53 -74 154.5t-21 340.5q0 237 23.5 338.5t79.5 157.5q37 37 89.5 53t137.5 16h107q73 0 126.5 -24t145.5 -103v267h-151v243h458v-1267h152v-244h-459zM645 246q74 0 168 43v547
q-100 47 -168 47h-96q-76 0 -103 -27q-21 -21 -27.5 -77.5t-6.5 -215.5t6.5 -215t27.5 -78q24 -24 103 -24h96zM1313 1161l-111 39l55 166q9 27 9 45q0 11 -9 43l-45 152v63h273v-158q0 -78 -13.5 -119.5t-52.5 -93.5z" />
    <glyph glyph-name="Dcroat" unicode="&#x110;" horiz-adv-x="1490" 
d="M872 1434q138 0 219.5 -24t139.5 -83q72 -72 105.5 -211.5t33.5 -398.5q0 -258 -34 -399t-105 -212q-58 -58 -140 -82t-219 -24h-794v258h172v354h-172v248h172v318h-172v256h794zM807 612h-238v-354h260q66 0 97.5 7t54.5 28q28 28 38.5 113.5t10.5 310.5t-10.5 310.5
t-38.5 113.5q-23 23 -54 30t-98 7h-260v-318h238v-248z" />
    <glyph glyph-name="dcroat" unicode="&#x111;" horiz-adv-x="1314" 
d="M813 0v145q-104 -92 -157.5 -119.5t-125.5 -27.5h-100q-88 0 -141 16.5t-90 53.5q-53 53 -74 154t-21 337q0 233 23.5 333.5t79.5 156.5q37 37 89.5 53t137.5 16h107q73 0 126.5 -24t145.5 -103v180h-254v218h254v122h307v-122h152v-230h-152v-915h152v-244h-459z
M645 246q74 0 168 43v536q-100 47 -168 47h-96q-77 0 -103 -26q-20 -20 -27 -76t-7 -211q0 -156 6.5 -211.5t27.5 -77.5q24 -24 103 -24h96z" />
    <glyph glyph-name="Emacron" unicode="&#x112;" horiz-adv-x="1384" 
d="M248 1178h-172v256h1200v-478h-287v224h-422v-324h342v-242h-342v-358h432v250h287v-506h-1210v258h172v920zM340 1556v222h694v-222h-694z" />
    <glyph glyph-name="emacron" unicode="&#x113;" horiz-adv-x="1183" 
d="M1036 485h-630q2 -209 26 -233q18 -21 98 -21h158q74 0 92 21q14 17 17 123h284q-2 -129 -18 -198.5t-57 -110.5q-31 -31 -75.5 -48.5t-125.5 -17.5h-375q-86 0 -136 16t-87 54q-40 40 -60.5 88.5t-31.5 144.5t-11 260t11 260.5t31.5 145.5t60.5 90q35 37 86 52t137 15
h336q87 0 138.5 -15t86.5 -52q55 -55 72.5 -152t17.5 -342v-35q0 -26 -9 -35.5t-36 -9.5zM254 1260v221h694v-221h-694zM430 874q-22 -22 -24 -215h380q0 191 -24 218q-18 18 -94 18h-138q-79 0 -100 -21z" />
    <glyph glyph-name="Ebreve" unicode="&#x114;" horiz-adv-x="1384" 
d="M248 1178h-172v256h1200v-478h-287v224h-422v-324h342v-242h-342v-358h432v250h287v-506h-1210v258h172v920zM688 1722q60 0 90 22t39 68h225q-5 -130 -95.5 -200t-260.5 -70q-169 0 -259 70t-95 200h227q9 -46 38.5 -68t90.5 -22z" />
    <glyph glyph-name="ebreve" unicode="&#x115;" horiz-adv-x="1183" 
d="M1036 485h-630q2 -209 26 -233q18 -21 98 -21h158q74 0 92 21q14 17 17 123h284q-2 -129 -18 -198.5t-57 -110.5q-31 -31 -75.5 -48.5t-125.5 -17.5h-375q-86 0 -136 16t-87 54q-40 40 -60.5 88.5t-31.5 144.5t-11 260t11 260.5t31.5 145.5t60.5 90q35 37 86 52t137 15
h336q87 0 138.5 -15t86.5 -52q55 -55 72.5 -152t17.5 -342v-35q0 -26 -9 -35.5t-36 -9.5zM602 1425q60 0 90 22.5t39 68.5h225q-5 -130 -95.5 -200.5t-260.5 -70.5q-169 0 -259 70.5t-95 200.5h227q9 -46 38.5 -68.5t90.5 -22.5zM430 874q-22 -22 -24 -215h380
q0 191 -24 218q-18 18 -94 18h-138q-79 0 -100 -21z" />
    <glyph glyph-name="Edotaccent" unicode="&#x116;" horiz-adv-x="1384" 
d="M248 1178h-172v256h1200v-478h-287v224h-422v-324h342v-242h-342v-358h432v250h287v-506h-1210v258h172v920zM526 1563v270h322v-270h-322z" />
    <glyph glyph-name="edotaccent" unicode="&#x117;" horiz-adv-x="1183" 
d="M1036 485h-630q2 -209 26 -233q18 -21 98 -21h158q74 0 92 21q14 17 17 123h284q-2 -129 -18 -198.5t-57 -110.5q-31 -31 -75.5 -48.5t-125.5 -17.5h-375q-86 0 -136 16t-87 54q-40 40 -60.5 88.5t-31.5 144.5t-11 260t11 260.5t31.5 145.5t60.5 90q35 37 86 52t137 15
h336q87 0 138.5 -15t86.5 -52q55 -55 72.5 -152t17.5 -342v-35q0 -26 -9 -35.5t-36 -9.5zM440 1266v270h322v-270h-322zM430 874q-22 -22 -24 -215h380q0 191 -24 218q-18 18 -94 18h-138q-79 0 -100 -21z" />
    <glyph glyph-name="Eogonek" unicode="&#x118;" horiz-adv-x="1384" 
d="M248 1178h-172v256h1200v-478h-287v224h-422v-324h342v-242h-342v-358h432v250h287v-506h-293q-42 -52 -47 -68q-12 -28 -12 -79q0 -62 8 -70t29 -8h67q21 0 29 8q10 10 10 86h189q0 -119 -10.5 -167t-38.5 -73q-32 -30 -119 -30h-205q-87 0 -119 30q-27 24 -37 60
t-10 100q0 53 5.5 81t25.5 58q18 29 71 72h-753v258h172v920z" />
    <glyph glyph-name="eogonek" unicode="&#x119;" horiz-adv-x="1183" 
d="M870 -131h189q0 -119 -10.5 -167t-38.5 -73q-32 -30 -119 -30h-205q-87 0 -119 30q-27 24 -37 60t-10 100q0 53 5.5 81t25.5 58q17 27 72 72h-193q-86 0 -136 16t-87 54q-40 40 -60.5 88.5t-31.5 144.5t-11 260t11 260.5t31.5 145.5t60.5 90q35 37 86 52t137 15h336
q87 0 138.5 -15t86.5 -52q55 -55 72.5 -152t17.5 -342v-35q0 -26 -9 -35.5t-36 -9.5h-630q2 -209 26 -233q18 -21 98 -21h158q74 0 92 21q14 17 17 123h284q-2 -129 -18 -198.5t-57 -110.5q-31 -31 -75.5 -48.5t-125.5 -17.5h-19q-42 -52 -47 -68q-12 -28 -12 -79
q0 -62 8 -70t29 -8h67q21 0 29 8q10 10 10 86zM430 874q-22 -22 -24 -215h380q0 191 -24 218q-18 18 -94 18h-138q-79 0 -100 -21z" />
    <glyph glyph-name="Ecaron" unicode="&#x11a;" horiz-adv-x="1384" 
d="M248 1178h-172v256h1200v-478h-287v224h-422v-324h342v-242h-342v-358h432v250h287v-506h-1210v258h172v920zM537 1552l-246 250v10h262l131 -102l131 102h258v-10l-248 -250h-288z" />
    <glyph glyph-name="ecaron" unicode="&#x11b;" horiz-adv-x="1183" 
d="M1036 485h-630q2 -209 26 -233q18 -21 98 -21h158q74 0 92 21q14 17 17 123h284q-2 -129 -18 -198.5t-57 -110.5q-31 -31 -75.5 -48.5t-125.5 -17.5h-375q-86 0 -136 16t-87 54q-40 40 -60.5 88.5t-31.5 144.5t-11 260t11 260.5t31.5 145.5t60.5 90q35 37 86 52t137 15
h336q87 0 138.5 -15t86.5 -52q55 -55 72.5 -152t17.5 -342v-35q0 -26 -9 -35.5t-36 -9.5zM453 1255l-246 250v11h262l131 -103l131 103h258v-11l-248 -250h-288zM430 874q-22 -22 -24 -215h380q0 191 -24 218q-18 18 -94 18h-138q-79 0 -100 -21z" />
    <glyph glyph-name="Gbreve" unicode="&#x11e;" horiz-adv-x="1427" 
d="M1290 963h-317q-3 102 -8.5 139.5t-16.5 50.5q-19 16 -90 16h-274q-76 0 -95 -16q-14 -16 -20 -100.5t-6 -335.5q0 -250 6 -336t20 -100q19 -19 95 -19h284q74 0 93 19q24 24 24 213v41h-287v239h605v-194q0 -238 -23 -344.5t-80 -163.5q-39 -39 -96 -55.5t-150 -16.5
h-477q-99 0 -150 15t-89 53q-62 62 -88.5 198.5t-26.5 450.5q0 316 26.5 452.5t88.5 196.5q38 38 89 53t150 15h473q180 0 244 -64q54 -53 73.5 -134t22.5 -273zM717 1722q60 0 90 22t39 68h225q-5 -130 -95.5 -200t-260.5 -70q-169 0 -259.5 70t-95.5 200h228
q9 -46 38.5 -68t90.5 -22z" />
    <glyph glyph-name="gbreve" unicode="&#x11f;" horiz-adv-x="1312" 
d="M383 -328q-122 0 -180 58q-32 32 -46 88t-14 166h279q3 -57 18 -72q14 -14 74 -14h197q66 0 82 16q12 12 16 36t4 95v170q-102 -89 -155.5 -114t-127.5 -25h-100q-88 0 -141 16t-90 53q-53 53 -74 150t-21 307q0 208 24 305t79 152q37 37 89.5 53t137.5 16h107
q73 0 126.5 -24t145.5 -103v125h459v-245h-152v-850q0 -140 -13.5 -200t-51.5 -97q-62 -62 -213 -62h-459zM412 598q0 -136 6.5 -186t27.5 -72q25 -25 103 -25h96q74 0 168 43v478q-100 47 -168 47h-96q-76 0 -103 -27q-20 -20 -27 -70.5t-7 -187.5zM680 1425q60 0 90 22.5
t39 68.5h225q-5 -130 -95.5 -200.5t-260.5 -70.5q-169 0 -259 70.5t-95 200.5h227q9 -46 38.5 -68.5t90.5 -22.5z" />
    <glyph glyph-name="Gdotaccent" unicode="&#x120;" horiz-adv-x="1427" 
d="M1290 963h-317q-3 102 -8.5 139.5t-16.5 50.5q-19 16 -90 16h-274q-76 0 -95 -16q-14 -16 -20 -100.5t-6 -335.5q0 -250 6 -336t20 -100q19 -19 95 -19h284q74 0 93 19q24 24 24 213v41h-287v239h605v-194q0 -238 -23 -344.5t-80 -163.5q-39 -39 -96 -55.5t-150 -16.5
h-477q-99 0 -150 15t-89 53q-62 62 -88.5 198.5t-26.5 450.5q0 316 26.5 452.5t88.5 196.5q38 38 89 53t150 15h473q180 0 244 -64q54 -53 73.5 -134t22.5 -273zM555 1563v270h322v-270h-322z" />
    <glyph glyph-name="gdotaccent" unicode="&#x121;" horiz-adv-x="1312" 
d="M383 -328q-122 0 -180 58q-32 32 -46 88t-14 166h279q3 -57 18 -72q14 -14 74 -14h197q66 0 82 16q12 12 16 36t4 95v170q-102 -89 -155.5 -114t-127.5 -25h-100q-88 0 -141 16t-90 53q-53 53 -74 150t-21 307q0 208 24 305t79 152q37 37 89.5 53t137.5 16h107
q73 0 126.5 -24t145.5 -103v125h459v-245h-152v-850q0 -140 -13.5 -200t-51.5 -97q-62 -62 -213 -62h-459zM412 598q0 -136 6.5 -186t27.5 -72q25 -25 103 -25h96q74 0 168 43v478q-100 47 -168 47h-96q-76 0 -103 -27q-20 -20 -27 -70.5t-7 -187.5zM518 1266v270h322v-270
h-322z" />
    <glyph glyph-name="Gcommaaccent" unicode="&#x122;" horiz-adv-x="1427" 
d="M582 -143h266v-240q0 -57 -16.5 -95t-57.5 -75l-160 -149l-77 63l116 154q21 33 21 59v8h-92v275zM1290 963h-317q-3 102 -8.5 139.5t-16.5 50.5q-19 16 -90 16h-274q-76 0 -95 -16q-14 -16 -20 -100.5t-6 -335.5q0 -250 6 -336t20 -100q19 -19 95 -19h284q74 0 93 19
q24 24 24 213v41h-287v239h605v-194q0 -238 -23 -344.5t-80 -163.5q-39 -39 -96 -55.5t-150 -16.5h-477q-99 0 -150 15t-89 53q-62 62 -88.5 198.5t-26.5 450.5q0 316 26.5 452.5t88.5 196.5q38 38 89 53t150 15h473q180 0 244 -64q54 -53 73.5 -134t22.5 -273z" />
    <glyph glyph-name="gcommaaccent" unicode="&#x123;" horiz-adv-x="1312" 
d="M383 -328q-122 0 -180 58q-32 32 -46 88t-14 166h279q3 -57 18 -72q14 -14 74 -14h197q66 0 82 16q12 12 16 36t4 95v170q-102 -89 -155.5 -114t-127.5 -25h-100q-88 0 -141 16t-90 53q-53 53 -74 150t-21 307q0 208 24 305t79 152q37 37 89.5 53t137.5 16h107
q73 0 126.5 -24t145.5 -103v125h459v-245h-152v-850q0 -140 -13.5 -200t-51.5 -97q-62 -62 -213 -62h-459zM412 598q0 -136 6.5 -186t27.5 -72q25 -25 103 -25h96q74 0 168 43v478q-100 47 -168 47h-96q-76 0 -103 -27q-20 -20 -27 -70.5t-7 -187.5zM793 1264h-267v239
q0 57 16.5 95t57.5 75l160 150l78 -64l-117 -153q-21 -33 -21 -60v-8h93v-274z" />
    <glyph glyph-name="Hbar" unicode="&#x126;" horiz-adv-x="1615" 
d="M1540 848h-172v-590h172v-258h-653v252h162v297h-482v-297h164v-252h-655v258h172v590h-170v217h170v121h-172v248h655v-242h-164v-119h482v119h-162v242h653v-248h-172v-121h172v-217zM567 764h482v117h-482v-117z" />
    <glyph glyph-name="hbar" unicode="&#x127;" horiz-adv-x="1355" 
d="M768 1171h-256v-204q107 97 161 124t134 27h102q138 0 201 -63q36 -35 51 -92.5t15 -178.5v-540h145v-244h-571v242h120v510q0 65 -24 92q-24 24 -94 24h-62q-76 0 -178 -47v-579h121v-242h-578v244h152v915h-152v230h152v122h305v-122h256v-218z" />
    <glyph glyph-name="Imacron" unicode="&#x12a;" horiz-adv-x="841" 
d="M582 258h178v-258h-678v258h180v920h-180v256h678v-256h-178v-920zM74 1556v222h694v-222h-694z" />
    <glyph glyph-name="imacron" unicode="&#x12b;" horiz-adv-x="751" 
d="M705 0h-617v244h158v637h-158v245h465v-884h152v-242zM23 1260v221h694v-221h-694z" />
    <glyph glyph-name="Ibreve" unicode="&#x12c;" horiz-adv-x="841" 
d="M582 258h178v-258h-678v258h180v920h-180v256h678v-256h-178v-920zM422 1722q60 0 90 22t39 68h225q-5 -130 -95.5 -200t-260.5 -70q-169 0 -259 70t-95 200h227q9 -46 38.5 -68t90.5 -22z" />
    <glyph glyph-name="ibreve" unicode="&#x12d;" horiz-adv-x="751" 
d="M705 0h-617v244h158v637h-158v245h465v-884h152v-242zM371 1425q60 0 90 22.5t39 68.5h225q-5 -130 -95.5 -200.5t-260.5 -70.5q-169 0 -259.5 70.5t-95.5 200.5h228q9 -46 38.5 -68.5t90.5 -22.5z" />
    <glyph glyph-name="Iogonek" unicode="&#x12e;" horiz-adv-x="841" 
d="M532 -131h189q0 -119 -10.5 -167t-38.5 -73q-32 -30 -119 -30h-205q-87 0 -119 30q-27 24 -37 60t-10 100q0 53 5.5 81t25.5 58q17 27 72 72h-203v258h180v920h-180v256h678v-256h-178v-920h178v-258h-311q-43 -54 -48 -68q-12 -28 -12 -79q0 -62 8 -70t29 -8h68
q20 0 28 8q10 10 10 86z" />
    <glyph glyph-name="iogonek" unicode="&#x12f;" horiz-adv-x="751" 
d="M492 -131h188q0 -119 -10.5 -167t-38.5 -73q-32 -30 -119 -30h-205q-87 0 -119 30q-27 24 -37 60t-10 100q0 53 5.5 81t25.5 58q17 27 72 72h-156v244h158v637h-158v245h465v-884h152v-242h-297q-43 -54 -48 -68q-12 -28 -12 -79q0 -62 8 -70t29 -8h68q20 0 28 8
q11 11 11 86zM225 1266v270h322v-270h-322z" />
    <glyph glyph-name="Idotaccent" unicode="&#x130;" horiz-adv-x="841" 
d="M582 258h178v-258h-678v258h180v920h-180v256h678v-256h-178v-920zM260 1563v270h322v-270h-322z" />
    <glyph glyph-name="dotlessi" unicode="&#x131;" horiz-adv-x="751" 
d="M705 0h-617v244h158v637h-158v245h465v-884h152v-242z" />
    <glyph glyph-name="Kcommaaccent" unicode="&#x136;" horiz-adv-x="1556" 
d="M995 254l-286 360h-142v-358h160v-256h-651v258h172v920h-172v256h651v-254h-160v-324h148l297 326h-148v252h633v-256h-137l-391 -416l405 -504h139v-258h-659v254h141zM657 -143h267v-240q0 -57 -16.5 -95t-57.5 -75l-160 -149l-78 63l117 154q21 33 21 59v8h-93v275z
" />
    <glyph glyph-name="kcommaaccent" unicode="&#x137;" horiz-adv-x="1282" 
d="M1120 889l-256 -293l242 -352h151v-244h-348l-280 449h-117v-207h125v-242h-582v244h152v1022h-152v245h457v-829h117l178 213h-131v231h567v-237h-123zM522 -143h266v-240q0 -58 -16.5 -95.5t-56.5 -74.5l-160 -149l-78 63l117 154q20 31 20 59v8h-92v275z" />
    <glyph glyph-name="Lacute" unicode="&#x139;" horiz-adv-x="1308" 
d="M289 1552v11l174 239h418v-10l-355 -240h-237zM248 258v920h-172v256h674v-256h-183v-922h389v260h287v-516h-1167v258h172z" />
    <glyph glyph-name="lacute" unicode="&#x13a;" horiz-adv-x="729" 
d="M211 1604v10l174 239h418v-10l-354 -239h-238zM684 0h-618v244h157v1022h-157v245h464v-1269h154v-242z" />
    <glyph glyph-name="Lcommaaccent" unicode="&#x13b;" horiz-adv-x="1308" 
d="M514 -143h266v-240q0 -58 -16.5 -95.5t-56.5 -74.5l-160 -149l-78 63l117 154q20 31 20 59v8h-92v275zM248 258v920h-172v256h674v-256h-183v-922h389v260h287v-516h-1167v258h172z" />
    <glyph glyph-name="lcommaaccent" unicode="&#x13c;" horiz-adv-x="729" 
d="M242 -143h266v-240q0 -57 -16.5 -95t-57.5 -75l-160 -149l-77 63l116 154q21 33 21 59v8h-92v275zM684 0h-618v244h157v1022h-157v245h464v-1269h154v-242z" />
    <glyph glyph-name="Lcaron" unicode="&#x13d;" horiz-adv-x="1308" 
d="M248 258v920h-172v256h674v-256h-183v-922h389v260h287v-516h-1167v258h172zM952 1085l-110 39l55 166q8 24 8 45q0 15 -8 43l-45 152v63h272v-157q0 -78 -13 -119.5t-52 -93.5z" />
    <glyph glyph-name="lcaron" unicode="&#x13e;" horiz-adv-x="729" 
d="M684 0h-618v244h157v1022h-157v245h464v-1269h154v-242zM723 1161l-111 39l56 166q8 24 8 45q0 15 -8 43l-45 152v63h272v-158q0 -78 -13.5 -119.5t-52.5 -93.5z" />
    <glyph glyph-name="Ldot" unicode="&#x13f;" horiz-adv-x="1310" 
d="M911 719v270h322v-270h-322zM248 258v920h-172v256h674v-256h-183v-922h389v260h287v-516h-1167v258h172z" />
    <glyph glyph-name="ldot" unicode="&#x140;" horiz-adv-x="907" 
d="M967 596h-275v319h275v-319zM684 0h-618v244h157v1022h-157v245h464v-1269h154v-242z" />
    <glyph glyph-name="Lslash" unicode="&#x141;" horiz-adv-x="1308" 
d="M252 258v301l-170 -45v252l170 45v367h-172v256h674v-256h-183v-281l316 84v-252l-316 -84v-389h390v260h286v-516h-1167v258h172z" />
    <glyph glyph-name="lslash" unicode="&#x142;" horiz-adv-x="729" 
d="M684 0h-618v244h157v368l-157 -41v252l157 41v402h-157v245h464v-565l154 41v-252l-154 -41v-452h154v-242z" />
    <glyph glyph-name="Nacute" unicode="&#x143;" horiz-adv-x="1656" 
d="M676 1552v11l174 239h418v-10l-355 -240h-237zM1141 508v670h-166v256h627v-256h-168v-1178h-306q-57 0 -82.5 17t-50.5 69l-432 907h-20v-735h172v-258h-637v258h172v920h-172v256h512q56 0 81 -17t52 -69l397 -840h21z" />
    <glyph glyph-name="nacute" unicode="&#x144;" horiz-adv-x="1380" 
d="M537 1126v-149q107 97 161 124t133 27h103q138 0 201 -63q36 -35 50.5 -92t14.5 -178v-551h146v-244h-572v242h121v520q0 64 -25 92q-25 25 -94 25h-61q-74 0 -178 -48v-589h120v-242h-577v244h151v637h-151v245h457zM549 1255v11l174 239h418v-10l-355 -240h-237z" />
    <glyph glyph-name="Ncommaaccent" unicode="&#x145;" horiz-adv-x="1656" 
d="M707 -143h266v-240q0 -57 -16.5 -95t-57.5 -75l-160 -149l-77 63l116 154q21 33 21 59v8h-92v275zM1141 508v670h-166v256h627v-256h-168v-1178h-306q-57 0 -82.5 17t-50.5 69l-432 907h-20v-735h172v-258h-637v258h172v920h-172v256h512q56 0 81 -17t52 -69l397 -840h21
z" />
    <glyph glyph-name="ncommaaccent" unicode="&#x146;" horiz-adv-x="1380" 
d="M537 1126v-149q107 97 161 124t133 27h103q138 0 201 -63q36 -35 50.5 -92t14.5 -178v-551h146v-244h-572v242h121v520q0 64 -25 92q-25 25 -94 25h-61q-74 0 -178 -48v-589h120v-242h-577v244h151v637h-151v245h457zM580 -143h266v-240q0 -57 -16.5 -95t-57.5 -75
l-160 -149l-77 63l116 154q21 33 21 59v8h-92v275z" />
    <glyph glyph-name="Ncaron" unicode="&#x147;" horiz-adv-x="1656" 
d="M1141 508v670h-166v256h627v-256h-168v-1178h-306q-57 0 -82.5 17t-50.5 69l-432 907h-20v-735h172v-258h-637v258h172v920h-172v256h512q56 0 81 -17t52 -69l397 -840h21zM690 1552l-246 250v10h263l131 -102l131 102h258v-10l-248 -250h-289z" />
    <glyph glyph-name="ncaron" unicode="&#x148;" horiz-adv-x="1380" 
d="M537 1126v-149q107 97 161 124t133 27h103q138 0 201 -63q36 -35 50.5 -92t14.5 -178v-551h146v-244h-572v242h121v520q0 64 -25 92q-25 25 -94 25h-61q-74 0 -178 -48v-589h120v-242h-577v244h151v637h-151v245h457zM563 1255l-246 250v11h263l131 -103l131 103h258v-11
l-248 -250h-289z" />
    <glyph glyph-name="Omacron" unicode="&#x14c;" horiz-adv-x="1437" 
d="M373 1556v222h694v-222h-694zM477 1434h484q100 0 150.5 -15t88.5 -53q62 -60 88.5 -196.5t26.5 -452.5q0 -314 -26.5 -450.5t-88.5 -198.5q-38 -38 -88.5 -53t-150.5 -15h-484q-99 0 -150 15t-89 53q-62 62 -88.5 198.5t-26.5 450.5q0 316 26.5 452.5t88.5 196.5
q38 38 89 53t150 15zM463 717q0 -175 3.5 -270.5t8.5 -124t14 -37.5q19 -19 95 -19h272q76 0 92 19q10 9 15.5 39t8.5 123.5t3 269.5q0 177 -3.5 271t-8.5 123.5t-15 39.5q-16 16 -92 16h-272q-76 0 -95 -16q-9 -10 -14 -39t-8.5 -124.5t-3.5 -270.5z" />
    <glyph glyph-name="omacron" unicode="&#x14d;" horiz-adv-x="1226" 
d="M266 1260v221h695v-221h-695zM430 0q-86 0 -136 16t-87 54q-58 58 -80.5 160t-22.5 333q0 232 22.5 334.5t80.5 161.5q35 37 86 52t137 15h367q86 0 137 -15t88 -52q57 -59 78.5 -160.5t21.5 -335.5t-21.5 -335t-78.5 -158q-37 -38 -88 -54t-137 -16h-367zM412 563
q0 -170 5.5 -227t18.5 -72q18 -18 84 -18h189q67 0 82 18q14 15 20 73t6 226q0 116 -3.5 181.5t-8.5 87t-14 30.5q-18 21 -82 21h-189q-66 0 -84 -21q-13 -13 -18.5 -70.5t-5.5 -228.5z" />
    <glyph glyph-name="Obreve" unicode="&#x14e;" horiz-adv-x="1437" 
d="M477 1434h484q100 0 150.5 -15t88.5 -53q62 -60 88.5 -196.5t26.5 -452.5q0 -314 -26.5 -450.5t-88.5 -198.5q-38 -38 -88.5 -53t-150.5 -15h-484q-99 0 -150 15t-89 53q-62 62 -88.5 198.5t-26.5 450.5q0 316 26.5 452.5t88.5 196.5q38 38 89 53t150 15zM463 717
q0 -175 3.5 -270.5t8.5 -124t14 -37.5q19 -19 95 -19h272q76 0 92 19q10 9 15.5 39t8.5 123.5t3 269.5q0 177 -3.5 271t-8.5 123.5t-15 39.5q-16 16 -92 16h-272q-76 0 -95 -16q-9 -10 -14 -39t-8.5 -124.5t-3.5 -270.5zM721 1722q60 0 90 22t39 68h225q-5 -130 -95.5 -200
t-260.5 -70q-169 0 -259 70t-95 200h227q9 -46 38.5 -68t90.5 -22z" />
    <glyph glyph-name="obreve" unicode="&#x14f;" horiz-adv-x="1226" 
d="M430 0q-86 0 -136 16t-87 54q-58 58 -80.5 160t-22.5 333q0 232 22.5 334.5t80.5 161.5q35 37 86 52t137 15h367q86 0 137 -15t88 -52q57 -59 78.5 -160.5t21.5 -335.5t-21.5 -335t-78.5 -158q-37 -38 -88 -54t-137 -16h-367zM412 563q0 -170 5.5 -227t18.5 -72
q18 -18 84 -18h189q67 0 82 18q14 15 20 73t6 226q0 116 -3.5 181.5t-8.5 87t-14 30.5q-18 21 -82 21h-189q-66 0 -84 -21q-13 -13 -18.5 -70.5t-5.5 -228.5zM614 1425q60 0 90 22.5t39 68.5h226q-5 -130 -96 -200.5t-261 -70.5q-169 0 -259 70.5t-95 200.5h227
q9 -46 38.5 -68.5t90.5 -22.5z" />
    <glyph glyph-name="Ohungarumlaut" unicode="&#x150;" horiz-adv-x="1437" 
d="M371 1552v11l147 239h367v-10l-291 -240h-223zM827 1552v11l148 239h377v-10l-301 -240h-224zM477 1434h484q100 0 150.5 -15t88.5 -53q62 -60 88.5 -196.5t26.5 -452.5q0 -314 -26.5 -450.5t-88.5 -198.5q-38 -38 -88.5 -53t-150.5 -15h-484q-99 0 -150 15t-89 53
q-62 62 -88.5 198.5t-26.5 450.5q0 316 26.5 452.5t88.5 196.5q38 38 89 53t150 15zM463 717q0 -175 3.5 -270.5t8.5 -124t14 -37.5q19 -19 95 -19h272q76 0 92 19q10 9 15.5 39t8.5 123.5t3 269.5q0 177 -3.5 271t-8.5 123.5t-15 39.5q-16 16 -92 16h-272q-76 0 -95 -16
q-9 -10 -14 -39t-8.5 -124.5t-3.5 -270.5z" />
    <glyph glyph-name="ohungarumlaut" unicode="&#x151;" horiz-adv-x="1226" 
d="M266 1255v11l148 239h366v-10l-291 -240h-223zM723 1255v11l147 239h377v-10l-301 -240h-223zM430 0q-86 0 -136 16t-87 54q-58 58 -80.5 160t-22.5 333q0 232 22.5 334.5t80.5 161.5q35 37 86 52t137 15h367q86 0 137 -15t88 -52q57 -59 78.5 -160.5t21.5 -335.5
t-21.5 -335t-78.5 -158q-37 -38 -88 -54t-137 -16h-367zM412 563q0 -170 5.5 -227t18.5 -72q18 -18 84 -18h189q67 0 82 18q14 15 20 73t6 226q0 116 -3.5 181.5t-8.5 87t-14 30.5q-18 21 -82 21h-189q-66 0 -84 -21q-13 -13 -18.5 -70.5t-5.5 -228.5z" />
    <glyph glyph-name="OE" unicode="&#x152;" horiz-adv-x="2062" 
d="M930 262v912h-283q-67 0 -98.5 -7t-52.5 -30q-29 -29 -40.5 -113.5t-11.5 -304.5q0 -223 11.5 -308t40.5 -114q22 -22 52.5 -28.5t98.5 -6.5h283zM602 0q-137 0 -218.5 24t-139.5 82q-72 72 -106 213t-34 398q0 258 34 398t106 212q58 59 139 83t219 24h1354v-478h-287
v224h-420v-324h340v-242h-340v-358h432v250h287v-506h-1366z" />
    <glyph glyph-name="oe" unicode="&#x153;" horiz-adv-x="1902" 
d="M1800 375q-2 -128 -18.5 -198t-57.5 -111q-32 -32 -75.5 -49t-124.5 -17h-328q-82 0 -129 19.5t-82 60.5l-10 10l-10 -10q-36 -41 -82.5 -60.5t-128.5 -19.5h-322q-86 0 -136 16t-87 54q-58 58 -80.5 160t-22.5 333q0 232 22.5 334.5t80.5 161.5q35 37 86 52t137 15h322
q82 0 128.5 -18.5t82.5 -58.5q3 -6 10 -13q3 6 10 13q35 39 82 58t129 19h289q87 0 138.5 -15t86.5 -52q55 -55 72.5 -152t17.5 -342v-35q0 -26 -9 -35.5t-36 -9.5h-631q2 -208 27 -233q18 -21 98 -21h158q74 0 92 21q14 17 17 123h284zM414 563q0 -170 5.5 -227t18.5 -72
q18 -18 84 -18h189q67 0 82 18q14 15 20 73t6 226q0 116 -3.5 181.5t-8.5 87t-14 30.5q-18 21 -82 21h-189q-66 0 -84 -21q-13 -13 -18.5 -70.5t-5.5 -228.5zM1149 874q-23 -23 -25 -215h381q0 191 -24 218q-18 18 -95 18h-137q-79 0 -100 -21z" />
    <glyph glyph-name="Racute" unicode="&#x154;" horiz-adv-x="1482" 
d="M571 1552v11l174 239h418v-10l-354 -240h-238zM1290 403q0 -14 6 -143h152v-260h-295q-61 0 -91 9.5t-50 29.5q-25 25 -37.5 93t-18.5 253q-3 81 -10.5 113.5t-25.5 52.5q-20 19 -47 26t-80 7h-226v-326h176v-258h-667v258h172v920h-172v256h923q162 0 230 -68
q46 -46 64 -116t18 -214q0 -95 -12 -155.5t-41.5 -98t-69.5 -55t-107 -29.5v-4q78 -16 119.5 -43.5t64 -85.5t25.5 -162zM567 823h289q75 0 92 17q14 14 19.5 46.5t5.5 112.5q0 81 -5.5 114.5t-19.5 49.5q-20 17 -92 17h-289v-357z" />
    <glyph glyph-name="racute" unicode="&#x155;" horiz-adv-x="944" 
d="M537 244h153v-244h-610v244h151v637h-151v245h457v-172q97 100 150 137t116 37h100v-305h-125q-132 0 -241 -45v-534zM326 1255v11l174 239h418v-10l-355 -240h-237z" />
    <glyph glyph-name="Rcommaaccent" unicode="&#x156;" horiz-adv-x="1482" 
d="M602 -143h266v-240q0 -58 -16.5 -95.5t-56.5 -74.5l-160 -149l-78 63l117 154q20 31 20 59v8h-92v275zM1290 403q0 -14 6 -143h152v-260h-295q-61 0 -91 9.5t-50 29.5q-25 25 -37.5 93t-18.5 253q-3 81 -10.5 113.5t-25.5 52.5q-20 19 -47 26t-80 7h-226v-326h176v-258
h-667v258h172v920h-172v256h923q162 0 230 -68q46 -46 64 -116t18 -214q0 -95 -12 -155.5t-41.5 -98t-69.5 -55t-107 -29.5v-4q78 -16 119.5 -43.5t64 -85.5t25.5 -162zM567 823h289q75 0 92 17q14 14 19.5 46.5t5.5 112.5q0 81 -5.5 114.5t-19.5 49.5q-20 17 -92 17h-289
v-357z" />
    <glyph glyph-name="rcommaaccent" unicode="&#x157;" horiz-adv-x="937" 
d="M537 244h153v-244h-610v244h151v637h-151v245h457v-172q97 100 150 137t116 37h100v-305h-125q-132 0 -241 -45v-534zM250 -143h266v-240q0 -57 -16.5 -95t-57.5 -75l-159 -149l-78 63l117 154q20 31 20 59v8h-92v275z" />
    <glyph glyph-name="Rcaron" unicode="&#x158;" horiz-adv-x="1482" 
d="M1290 403q0 -14 6 -143h152v-260h-295q-61 0 -91 9.5t-50 29.5q-25 25 -37.5 93t-18.5 253q-3 81 -10.5 113.5t-25.5 52.5q-20 19 -47 26t-80 7h-226v-326h176v-258h-667v258h172v920h-172v256h923q162 0 230 -68q46 -46 64 -116t18 -214q0 -95 -12 -155.5t-41.5 -98
t-69.5 -55t-107 -29.5v-4q78 -16 119.5 -43.5t64 -85.5t25.5 -162zM567 823h289q75 0 92 17q14 14 19.5 46.5t5.5 112.5q0 81 -5.5 114.5t-19.5 49.5q-20 17 -92 17h-289v-357zM586 1552l-246 250v10h262l131 -102l131 102h258v-10l-248 -250h-288z" />
    <glyph glyph-name="rcaron" unicode="&#x159;" horiz-adv-x="937" 
d="M537 244h153v-244h-610v244h151v637h-151v245h457v-172q97 100 150 137t116 37h100v-305h-125q-132 0 -241 -45v-534zM342 1255l-246 250v11h262l131 -103l132 103h258v-11l-248 -250h-289z" />
    <glyph glyph-name="Sacute" unicode="&#x15a;" horiz-adv-x="1384" 
d="M526 1552v11l174 239h418v-10l-354 -240h-238zM1266 432q0 -147 -21 -230.5t-71 -133.5q-68 -68 -224 -68h-516q-92 0 -147.5 14t-91.5 49q-45 45 -63 130t-19 274h311q5 -169 22 -186q19 -19 95 -19h288q79 0 99 17q18 21 18 141q0 57 -3.5 80.5t-16.5 36.5
q-15 15 -99 24l-419 45q-141 14 -203 74q-41 43 -57.5 116.5t-16.5 219.5q0 137 21.5 219t70.5 131q68 68 219 68h480q93 0 148.5 -14.5t88.5 -47.5q46 -46 63.5 -125t20.5 -266h-309q-3 92 -8.5 127.5t-16.5 46.5q-16 16 -88 16h-266q-72 0 -86 -14q-18 -18 -18 -131
q0 -58 3.5 -81t16.5 -34q11 -13 86 -22q8 -1 12 -2l420 -45q141 -14 199 -72q42 -42 60 -118t18 -220z" />
    <glyph glyph-name="sacute" unicode="&#x15b;" horiz-adv-x="1136" 
d="M408 1255v11l174 239h417v-10l-354 -240h-237zM111 795q0 203 77 280q51 51 166 51h408q143 0 192 -49q34 -34 48.5 -97.5t17.5 -203.5h-272q-4 91 -19 109q-11 14 -59 14h-203q-49 0 -61 -12q-17 -17 -17 -80q0 -66 19 -82q16 -13 73 -20l344 -41q115 -13 160 -58
q30 -30 41.5 -91t11.5 -173q0 -216 -77 -293q-49 -49 -166 -49h-437q-144 0 -194 53q-35 35 -50 97.5t-18 207.5h273q2 -100 16 -116q12 -15 59 -15h236q46 0 61 15q15 12 15 86q0 64 -17 84q-13 13 -73 20l-328 41q-67 7 -105 21.5t-63 40.5q-35 35 -47 88t-12 172z" />
    <glyph glyph-name="Scedilla" unicode="&#x15e;" horiz-adv-x="1384" 
d="M1266 432q0 -147 -21 -230.5t-71 -133.5q-68 -68 -224 -68h-516q-92 0 -147.5 14t-91.5 49q-45 45 -63 130t-19 274h311q5 -169 22 -186q19 -19 95 -19h288q79 0 99 17q18 21 18 141q0 57 -3.5 80.5t-16.5 36.5q-15 15 -99 24l-419 45q-141 14 -203 74
q-41 43 -57.5 116.5t-16.5 219.5q0 137 21.5 219t70.5 131q68 68 219 68h480q93 0 148.5 -14.5t88.5 -47.5q46 -46 63.5 -125t20.5 -266h-309q-3 92 -8.5 127.5t-16.5 46.5q-16 16 -88 16h-266q-72 0 -86 -14q-18 -18 -18 -131q0 -58 3.5 -81t16.5 -34q11 -13 86 -22
q8 -1 12 -2l420 -45q141 -14 199 -72q42 -42 60 -118t18 -220zM768 -55q96 0 127 -31q39 -39 39 -166q0 -68 -9.5 -101t-29.5 -53q-32 -32 -133 -32h-221l-131 104v49h270q32 0 41 9q8 8 8 34q0 27 -8 35t-41 8h-94v144h182z" />
    <glyph glyph-name="scedilla" unicode="&#x15f;" horiz-adv-x="1136" 
d="M111 795q0 203 77 280q51 51 166 51h408q143 0 192 -49q34 -34 48.5 -97.5t17.5 -203.5h-272q-4 91 -19 109q-11 14 -59 14h-203q-49 0 -61 -12q-17 -17 -17 -80q0 -66 19 -82q16 -13 73 -20l344 -41q115 -13 160 -58q30 -30 41.5 -91t11.5 -173q0 -216 -77 -293
q-49 -49 -166 -49h-437q-144 0 -194 53q-35 35 -50 97.5t-18 207.5h273q2 -100 16 -116q12 -15 59 -15h236q46 0 61 15q15 12 15 86q0 64 -17 84q-13 13 -73 20l-328 41q-67 7 -105 21.5t-63 40.5q-35 35 -47 88t-12 172zM639 -55q96 0 127 -31q39 -39 39 -166
q0 -68 -9.5 -101t-29.5 -53q-32 -32 -133 -32h-221l-131 104v49h270q32 0 41 9q8 8 8 34q0 27 -8 35t-41 8h-94v144h182z" />
    <glyph glyph-name="Scaron" unicode="&#x160;" horiz-adv-x="1384" 
d="M1266 432q0 -147 -21 -230.5t-71 -133.5q-68 -68 -224 -68h-516q-92 0 -147.5 14t-91.5 49q-45 45 -63 130t-19 274h311q5 -169 22 -186q19 -19 95 -19h288q79 0 99 17q18 21 18 141q0 57 -3.5 80.5t-16.5 36.5q-15 15 -99 24l-419 45q-141 14 -203 74
q-41 43 -57.5 116.5t-16.5 219.5q0 137 21.5 219t70.5 131q68 68 219 68h480q93 0 148.5 -14.5t88.5 -47.5q46 -46 63.5 -125t20.5 -266h-309q-3 92 -8.5 127.5t-16.5 46.5q-16 16 -88 16h-266q-72 0 -86 -14q-18 -18 -18 -131q0 -58 3.5 -81t16.5 -34q11 -13 86 -22
q8 -1 12 -2l420 -45q141 -14 199 -72q42 -42 60 -118t18 -220zM541 1552l-246 250v10h262l131 -102l131 102h258v-10l-248 -250h-288z" />
    <glyph glyph-name="scaron" unicode="&#x161;" horiz-adv-x="1136" 
d="M111 795q0 203 77 280q51 51 166 51h408q143 0 192 -49q34 -34 48.5 -97.5t17.5 -203.5h-272q-4 91 -19 109q-11 14 -59 14h-203q-49 0 -61 -12q-17 -17 -17 -80q0 -66 19 -82q16 -13 73 -20l344 -41q115 -13 160 -58q30 -30 41.5 -91t11.5 -173q0 -216 -77 -293
q-49 -49 -166 -49h-437q-144 0 -194 53q-35 35 -50 97.5t-18 207.5h273q2 -100 16 -116q12 -15 59 -15h236q46 0 61 15q15 12 15 86q0 64 -17 84q-13 13 -73 20l-328 41q-67 7 -105 21.5t-63 40.5q-35 35 -47 88t-12 172zM422 1255l-246 250v11h262l131 -103l131 103h258
v-11l-247 -250h-289z" />
    <glyph glyph-name="Tcommaaccent" unicode="&#x162;" horiz-adv-x="1474" 
d="M604 -143h266v-240q0 -58 -16.5 -95.5t-56.5 -74.5l-160 -149l-78 63l117 154q20 31 20 59v8h-92v275zM897 258h184v-258h-688v258h185v924h-234v-273h-270v525h1327v-525h-271v273h-233v-924z" />
    <glyph glyph-name="tcommaaccent" unicode="&#x163;" horiz-adv-x="851" 
d="M315 -143h267v-240q0 -57 -16.5 -95t-57.5 -75l-160 -149l-78 63l117 154q21 33 21 59v8h-93v275zM780 244v-199l-116 -29q-98 -24 -211 -24q-138 0 -199 61q-28 28 -39.5 73t-11.5 130v625h-152v245h152v281h305v-281h274v-245h-274v-547q0 -62 16 -78q12 -12 80 -12
h176z" />
    <glyph glyph-name="Tcaron" unicode="&#x164;" horiz-adv-x="1474" 
d="M897 258h184v-258h-688v258h185v924h-234v-273h-270v525h1327v-525h-271v273h-233v-924zM588 1552l-246 250v10h262l131 -102l131 102h258v-10l-247 -250h-289z" />
    <glyph glyph-name="tcaron" unicode="&#x165;" horiz-adv-x="851" 
d="M780 244v-199l-116 -29q-98 -24 -211 -24q-138 0 -199 61q-28 28 -39.5 73t-11.5 130v625h-152v245h152v281h305v-281h274v-245h-274v-547q0 -62 16 -78q12 -12 80 -12h176zM696 1227l-110 39l55 166q8 24 8 45q0 15 -8 43l-45 151v64h272v-158q0 -78 -13 -119.5
t-52 -93.5z" />
    <glyph glyph-name="Umacron" unicode="&#x16a;" horiz-adv-x="1595" 
d="M1053 1178h-168v256h653v-256h-168v-592q0 -246 -21.5 -344.5t-82.5 -157.5q-48 -48 -123.5 -66t-218.5 -18h-256q-142 0 -216.5 17.5t-121.5 64.5q-42 42 -63 91.5t-31.5 146t-10.5 266.5v592h-168v256h658v-256h-168v-625q0 -137 9 -189t28 -71q15 -15 51 -21t121 -6
h94q82 0 117.5 6t50.5 21q20 20 27.5 69t7.5 191v625zM451 1556v222h694v-222h-694z" />
    <glyph glyph-name="umacron" unicode="&#x16b;" horiz-adv-x="1345" 
d="M844 0v150q-108 -96 -163 -124t-132 -28h-103q-137 0 -200 63q-36 36 -51 93.5t-15 177.5v549h-145v245h450v-759q0 -68 25 -93q26 -26 94 -26h62q70 0 178 47v588h-158v243h463v-882h151v-244h-456zM295 1260v221h694v-221h-694z" />
    <glyph glyph-name="Ubreve" unicode="&#x16c;" horiz-adv-x="1595" 
d="M1053 1178h-168v256h653v-256h-168v-592q0 -246 -21.5 -344.5t-82.5 -157.5q-48 -48 -123.5 -66t-218.5 -18h-256q-142 0 -216.5 17.5t-121.5 64.5q-42 42 -63 91.5t-31.5 146t-10.5 266.5v592h-168v256h658v-256h-168v-625q0 -137 9 -189t28 -71q15 -15 51 -21t121 -6
h94q82 0 117.5 6t50.5 21q20 20 27.5 69t7.5 191v625zM799 1722q60 0 90 22t39 68h225q-5 -130 -95.5 -200t-260.5 -70q-169 0 -259.5 70t-95.5 200h228q9 -46 38.5 -68t90.5 -22z" />
    <glyph glyph-name="ubreve" unicode="&#x16d;" horiz-adv-x="1345" 
d="M844 0v150q-108 -96 -163 -124t-132 -28h-103q-137 0 -200 63q-36 36 -51 93.5t-15 177.5v549h-145v245h450v-759q0 -68 25 -93q26 -26 94 -26h62q70 0 178 47v588h-158v243h463v-882h151v-244h-456zM643 1425q60 0 90 22.5t39 68.5h225q-5 -130 -95.5 -200.5
t-260.5 -70.5q-169 0 -259 70.5t-95 200.5h227q9 -46 38.5 -68.5t90.5 -22.5z" />
    <glyph glyph-name="Uring" unicode="&#x16e;" horiz-adv-x="1595" 
d="M848 1835h-103q-41 0 -51 -10q-14 -14 -14 -60q0 -48 14 -59q12 -12 51 -12h103q41 0 53 12q14 14 14 59q0 43 -14 60q-10 10 -53 10zM911 1546h-229q-92 0 -133 41q-31 28 -43 69.5t-12 108.5t12 108t43 71q41 38 133 38h229q95 0 136 -38q30 -30 42.5 -71.5
t12.5 -107.5q0 -126 -55 -178q-41 -41 -136 -41zM1053 1178h-168v256h653v-256h-168v-592q0 -246 -21.5 -344.5t-82.5 -157.5q-48 -48 -123.5 -66t-218.5 -18h-256q-142 0 -216.5 17.5t-121.5 64.5q-42 42 -63 91.5t-31.5 146t-10.5 266.5v592h-168v256h658v-256h-168v-625
q0 -137 9 -189t28 -71q15 -15 51 -21t121 -6h94q82 0 117.5 6t50.5 21q20 20 27.5 69t7.5 191v625z" />
    <glyph glyph-name="uring" unicode="&#x16f;" horiz-adv-x="1345" 
d="M844 0v150q-108 -96 -163 -124t-132 -28h-103q-137 0 -200 63q-36 36 -51 93.5t-15 177.5v549h-145v245h450v-759q0 -68 25 -93q26 -26 94 -26h62q70 0 178 47v588h-158v243h463v-882h151v-244h-456zM756 1249h-230q-92 0 -133 41q-31 28 -43 69.5t-12 108.5t12 108
t43 71q42 39 133 39h230q93 0 135 -39q30 -30 42.5 -71.5t12.5 -107.5q0 -126 -55 -178q-41 -41 -135 -41zM692 1538h-102q-41 0 -51 -10q-15 -15 -15 -60q0 -47 15 -59q12 -12 51 -12h102q41 0 53 12q15 15 15 59q0 41 -15 60q-10 10 -53 10z" />
    <glyph glyph-name="Uhungarumlaut" unicode="&#x170;" horiz-adv-x="1595" 
d="M1053 1178h-168v256h653v-256h-168v-592q0 -246 -21.5 -344.5t-82.5 -157.5q-48 -48 -123.5 -66t-218.5 -18h-256q-142 0 -216.5 17.5t-121.5 64.5q-42 42 -63 91.5t-31.5 146t-10.5 266.5v592h-168v256h658v-256h-168v-625q0 -137 9 -189t28 -71q15 -15 51 -21t121 -6
h94q82 0 117.5 6t50.5 21q20 20 27.5 69t7.5 191v625zM449 1552v11l147 239h367v-10l-291 -240h-223zM905 1552v11l148 239h377v-10l-302 -240h-223z" />
    <glyph glyph-name="uhungarumlaut" unicode="&#x171;" horiz-adv-x="1345" 
d="M844 0v150q-108 -96 -163 -124t-132 -28h-103q-137 0 -200 63q-36 36 -51 93.5t-15 177.5v549h-145v245h450v-759q0 -68 25 -93q26 -26 94 -26h62q70 0 178 47v588h-158v243h463v-882h151v-244h-456zM750 1255v11l147 239h377v-10l-301 -240h-223zM293 1255v11l147 239
h367v-10l-291 -240h-223z" />
    <glyph glyph-name="Uogonek" unicode="&#x172;" horiz-adv-x="1595" 
d="M1053 1178h-168v256h653v-256h-168v-592q0 -246 -21.5 -344.5t-82.5 -157.5q-48 -48 -123.5 -66t-218.5 -18h-90q-43 -54 -48 -68q-12 -28 -12 -79q0 -62 8 -70t29 -8h68q20 0 28 8q11 11 11 86h188q0 -119 -10.5 -167t-38.5 -73q-32 -30 -119 -30h-205q-87 0 -119 30
q-27 24 -37 60t-10 100q0 53 5.5 81t25.5 58q17 27 72 72h-2q-142 0 -216.5 17.5t-121.5 64.5q-42 42 -63 91.5t-31.5 146t-10.5 266.5v592h-168v256h658v-256h-168v-625q0 -137 9 -189t28 -71q15 -15 51 -21t121 -6h94q82 0 117.5 6t50.5 21q20 20 27.5 69t7.5 191v625z
" />
    <glyph glyph-name="uogonek" unicode="&#x173;" horiz-adv-x="1345" 
d="M1090 -131h188q0 -119 -10.5 -167t-38.5 -73q-32 -30 -119 -30h-205q-87 0 -119 30q-27 24 -37 60t-10 100q0 53 5.5 81t25.5 58q22 35 74 72v150q-108 -96 -163 -124t-132 -28h-103q-137 0 -200 63q-36 36 -51 93.5t-15 177.5v549h-145v245h450v-759q0 -68 25 -93
q26 -26 94 -26h62q70 0 178 47v588h-158v243h463v-882h151v-244h-294q-43 -54 -48 -68q-12 -28 -12 -79q0 -62 8 -70t29 -8h68q20 0 28 8q11 11 11 86z" />
    <glyph glyph-name="Wcircumflex" unicode="&#x174;" horiz-adv-x="2211" 
d="M1214 1438q60 0 91 -23.5t41 -81.5l206 -1016h23l147 861h-163v256h612v-256h-141l-230 -1080q-13 -59 -42.5 -81.5t-90.5 -22.5h-231q-61 0 -91 23.5t-40 82.5l-189 908h-20l-187 -908q-10 -59 -40 -82.5t-91 -23.5h-233q-61 0 -90.5 22.5t-42.5 81.5l-230 1080h-141
v256h637v-256h-164l148 -861h24l207 1016q10 59 40.5 82t90.5 23h190zM1237 1552l-131 103l-131 -103h-256v11l246 249h288l248 -249v-11h-264z" />
    <glyph glyph-name="wcircumflex" unicode="&#x175;" horiz-adv-x="1855" 
d="M1006 1130q48 0 72 -15.5t34 -59.5l186 -744h19l108 570h-116v245h516v-245h-115l-201 -809q-10 -45 -33 -60.5t-71 -15.5h-205q-47 0 -71 17t-33 59l-160 649h-16l-160 -649q-9 -43 -33.5 -59.5t-71.5 -16.5h-204q-48 0 -71.5 15.5t-33.5 60.5l-201 809h-114v245h534
v-245h-116l106 -570h20l185 744q10 44 34 59.5t72 15.5h140zM1057 1255l-131 103l-131 -103h-256v11l245 250h289l248 -250v-11h-264z" />
    <glyph glyph-name="Ycircumflex" unicode="&#x176;" horiz-adv-x="1497" 
d="M586 571l-418 607h-143v256h657v-252h-147l217 -353h12l231 353h-149v252h629v-256h-146l-424 -600v-320h182v-258h-684v258h183v313zM891 1552l-131 103l-131 -103h-256v11l245 249h289l248 -249v-11h-264z" />
    <glyph glyph-name="ycircumflex" unicode="&#x177;" horiz-adv-x="1333" 
d="M475 881l199 -547h18l185 547h-132v245h562v-245h-125l-406 -1043q-37 -95 -95 -132.5t-171 -37.5q-107 0 -279 15v237h224q23 0 33.5 8t19.5 31l14 43l-370 879h-125v245h579v-245h-131zM807 1255l-131 103l-131 -103h-256v11l246 250h288l248 -250v-11h-264z" />
    <glyph glyph-name="Ydieresis" unicode="&#x178;" horiz-adv-x="1497" 
d="M586 571l-418 607h-143v256h657v-252h-147l217 -353h12l231 353h-149v252h629v-256h-146l-424 -600v-320h182v-258h-684v258h183v313zM387 1556v267h309v-267h-309zM827 1556v267h310v-267h-310z" />
    <glyph glyph-name="Zacute" unicode="&#x179;" horiz-adv-x="1402" 
d="M543 1552v11l174 239h418v-10l-355 -240h-237zM518 252h496v274h286v-526h-1198v233l789 951h-469v-264h-287v514h1172v-232z" />
    <glyph glyph-name="zacute" unicode="&#x17a;" horiz-adv-x="1206" 
d="M446 1255v11l175 239h417v-10l-354 -240h-238zM469 229h383v215h264v-444h-1032v207l647 690h-352v-203h-264v432h1001v-206z" />
    <glyph glyph-name="Zdotaccent" unicode="&#x17b;" horiz-adv-x="1402" 
d="M518 252h496v274h286v-526h-1198v233l789 951h-469v-264h-287v514h1172v-232zM545 1563v270h321v-270h-321z" />
    <glyph glyph-name="zdotaccent" unicode="&#x17c;" horiz-adv-x="1206" 
d="M469 229h383v215h264v-444h-1032v207l647 690h-352v-203h-264v432h1001v-206zM449 1266v270h321v-270h-321z" />
    <glyph glyph-name="Zcaron" unicode="&#x17d;" horiz-adv-x="1402" 
d="M518 252h496v274h286v-526h-1198v233l789 951h-469v-264h-287v514h1172v-232zM557 1552l-246 250v10h262l132 -102l131 102h258v-10l-248 -250h-289z" />
    <glyph glyph-name="zcaron" unicode="&#x17e;" horiz-adv-x="1206" 
d="M469 229h383v215h264v-444h-1032v207l647 690h-352v-203h-264v432h1001v-206zM461 1255l-246 250v11h262l131 -103l131 103h258v-11l-247 -250h-289z" />
    <glyph glyph-name="Aringacute" unicode="&#x1fa;" horiz-adv-x="1552" 
d="M657 0h-622v258h139l334 1028q14 42 24 57l-4 7q-31 28 -43 69.5t-12 108.5t12 107.5t43 70.5q42 39 134 39h229q93 0 135 -39q30 -30 42.5 -71t12.5 -107q0 -126 -55 -178l-3 -4q-3 -4 -5 -5q13 -19 26 -55l336 -1028h138v-258h-648v254h164l-55 188h-432l-53 -188h163
v-254zM625 1833v10l174 240h418v-10l-355 -240h-237zM750 1153l-136 -467h297l-135 467h-26zM827 1597h-102q-41 0 -51 -10q-15 -15 -15 -59q0 -48 15 -60q12 -12 51 -12h102q42 0 54 12q14 14 14 60q0 42 -14 59q-10 10 -54 10z" />
    <glyph glyph-name="aringacute" unicode="&#x1fb;" horiz-adv-x="1251" 
d="M768 725q0 79 -4.5 107.5t-15.5 41.5q-20 17 -82 17h-138q-60 0 -77 -17q-11 -11 -15.5 -33t-7.5 -77h-291q3 138 18 201t50 98q34 34 79.5 48.5t121.5 14.5h389q152 0 213 -61q38 -37 51.5 -96.5t13.5 -198.5v-526h146v-244h-451v125q-98 -81 -151 -104t-128 -23h-135
q-77 0 -121 12t-77 45q-66 66 -66 254q0 207 70 277q41 41 111.5 58.5t205.5 17.5q143 0 291 -33v96zM731 1249h-229q-92 0 -133 41q-31 28 -43.5 69.5t-12.5 108.5t12.5 108t43.5 71q42 39 133 39h229q93 0 135 -39q56 -56 56 -179q0 -125 -56 -178q-41 -41 -135 -41z
M555 219q50 0 95.5 12t117.5 48v196h-184q-85 0 -119.5 -6t-48.5 -20q-25 -25 -25 -103q0 -87 21 -108q19 -19 80 -19h63zM455 1792v10l174 240h418v-10l-355 -240h-237zM668 1538h-103q-41 0 -51 -10q-14 -14 -14 -60q0 -48 14 -59q12 -12 51 -12h103q41 0 53 12
q14 14 14 59q0 42 -14 60q-10 10 -53 10z" />
    <glyph glyph-name="AEacute" unicode="&#x1fc;" horiz-adv-x="2144" 
d="M834 256h172v188h-420l-103 -192h152v-252h-612v258h139l504 920h-199v256h1567v-478h-287v224h-422v-324h342v-242h-342v-358h432v250h287v-506h-1210v256zM1061 1552v11l174 239h418v-10l-355 -240h-237zM1006 1190h-21l-270 -504h291v504z" />
    <glyph glyph-name="aeacute" unicode="&#x1fd;" horiz-adv-x="1851" 
d="M156 55q-66 66 -66 254q0 207 70 277q41 41 111.5 58.5t205.5 17.5q143 0 291 -33v96q0 79 -4.5 107.5t-15.5 41.5q-20 17 -82 17h-138q-60 0 -77 -17q-11 -11 -15.5 -33t-7.5 -77h-291q3 138 18 201t50 98q34 34 79.5 48.5t121.5 14.5h315q83 0 132 -20.5t83 -65.5
q38 45 87.5 65.5t129.5 20.5h281q86 0 137 -15t86 -52q55 -55 72.5 -152t17.5 -342v-35q0 -26 -9 -35.5t-36 -9.5h-629q2 -210 25 -233q21 -21 100 -21h158q72 0 90 21q15 15 18 123h283q-2 -128 -18.5 -198t-57.5 -111q-32 -32 -75.5 -49t-125.5 -17h-376q-86 0 -136.5 16
t-87.5 54q-43 40 -61 90q-127 -104 -184.5 -133t-135.5 -29h-135q-77 0 -121 12t-77 45zM780 285q-12 102 -12 190h-184q-85 0 -119.5 -6t-48.5 -20q-25 -25 -25 -103q0 -87 21 -108q19 -19 80 -19h63q50 0 97.5 13.5t127.5 52.5zM1098 874q-13 -11 -18.5 -54t-6.5 -161h379
q0 189 -25 218q-18 18 -92 18h-137q-82 0 -100 -21zM780 1255v11l174 239h418v-10l-354 -240h-238z" />
    <glyph glyph-name="Oslashacute" unicode="&#x1fe;" horiz-adv-x="1437" 
d="M477 1434h453l51 108h264l-74 -151l29 -25q62 -60 88.5 -196.5t26.5 -452.5q0 -314 -26.5 -450.5t-88.5 -198.5q-38 -38 -88.5 -53t-150.5 -15h-453l-51 -109h-264l71 152q-2 2 -11.5 10.5t-14.5 14.5q-62 62 -88.5 198.5t-26.5 450.5q0 316 26.5 452.5t88.5 196.5
q38 38 89 53t150 15zM975 717q0 238 -4 301l-346 -752h231q76 0 92 19q10 9 15.5 39t8.5 123.5t3 269.5zM463 717q0 -234 4 -297l344 747h-227q-76 0 -95 -16q-9 -10 -14 -39t-8.5 -124.5t-3.5 -270.5zM555 1552v11l174 239h418v-10l-354 -240h-238z" />
    <glyph glyph-name="oslashacute" unicode="&#x1ff;" horiz-adv-x="1226" 
d="M1102 1229l-88 -162q3 -5 8 -8q57 -59 78.5 -160.5t21.5 -335.5t-21.5 -335t-78.5 -158q-37 -38 -88 -54t-137 -16h-357l-53 -102h-260l88 161l-8 11q-58 58 -80.5 160t-22.5 333q0 232 22.5 334.5t80.5 161.5q35 37 86 52t137 15h356l56 103h260zM451 1255v11l174 239
h417v-10l-354 -240h-237zM401 563q0 -165 5 -219l270 539h-166q-66 0 -84 -21q-13 -13 -19 -71.5t-6 -227.5zM827 563q0 152 -6 219l-270 -536h168q67 0 82 18q14 15 20 73t6 226z" />
    <glyph glyph-name="Scommaaccent" unicode="&#x218;" horiz-adv-x="1384" 
d="M557 -143h266v-240q0 -58 -16.5 -95.5t-56.5 -74.5l-160 -149l-78 63l117 154q20 31 20 59v8h-92v275zM1266 432q0 -147 -21 -230.5t-71 -133.5q-68 -68 -224 -68h-516q-92 0 -147.5 14t-91.5 49q-45 45 -63 130t-19 274h311q5 -169 22 -186q19 -19 95 -19h288
q79 0 99 17q18 21 18 141q0 57 -3.5 80.5t-16.5 36.5q-15 15 -99 24l-419 45q-141 14 -203 74q-41 43 -57.5 116.5t-16.5 219.5q0 137 21.5 219t70.5 131q68 68 219 68h480q93 0 148.5 -14.5t88.5 -47.5q46 -46 63.5 -125t20.5 -266h-309q-3 92 -8.5 127.5t-16.5 46.5
q-16 16 -88 16h-266q-72 0 -86 -14q-18 -18 -18 -131q0 -58 3.5 -81t16.5 -34q11 -13 86 -22q8 -1 12 -2l420 -45q141 -14 199 -72q42 -42 60 -118t18 -220z" />
    <glyph glyph-name="scommaaccent" unicode="&#x219;" horiz-adv-x="1136" 
d="M438 -143h267v-240q0 -57 -16.5 -95t-57.5 -75l-160 -149l-78 63l117 154q20 31 20 59v8h-92v275zM111 795q0 203 77 280q51 51 166 51h408q143 0 192 -49q34 -34 48.5 -97.5t17.5 -203.5h-272q-4 91 -19 109q-11 14 -59 14h-203q-49 0 -61 -12q-17 -17 -17 -80
q0 -66 19 -82q16 -13 73 -20l344 -41q115 -13 160 -58q30 -30 41.5 -91t11.5 -173q0 -216 -77 -293q-49 -49 -166 -49h-437q-144 0 -194 53q-35 35 -50 97.5t-18 207.5h273q2 -100 16 -116q12 -15 59 -15h236q46 0 61 15q15 12 15 86q0 64 -17 84q-13 13 -73 20l-328 41
q-67 7 -105 21.5t-63 40.5q-35 35 -47 88t-12 172z" />
    <glyph glyph-name="schwa" unicode="&#x259;" horiz-adv-x="1187" 
d="M113 596q0 26 9 35.5t36 9.5h630q-2 209 -26 233q-18 21 -98 21h-158q-74 0 -92 -21q-14 -17 -17 -122h-284q2 129 18 198.5t57 110.5q31 31 75.5 48t125.5 17h375q86 0 136 -15.5t87 -53.5q40 -40 60.5 -88.5t31.5 -145t11 -260.5q0 -239 -22 -337t-81 -158
q-35 -37 -86 -52.5t-137 -15.5h-336q-86 0 -138 15.5t-87 52.5q-55 55 -72.5 151.5t-17.5 341.5v35zM764 252q22 22 24 215h-380q0 -190 24 -217q19 -19 94 -19h138q79 0 100 21z" />
    <glyph glyph-name="circumflex" unicode="&#x2c6;" 
d="M639 1255l-131 103l-131 -103h-256v11l246 250h288l248 -250v-11h-264z" />
    <glyph glyph-name="caron" unicode="&#x2c7;" 
d="M367 1255l-246 250v11h262l131 -103l131 103h258v-11l-248 -250h-288z" />
    <glyph glyph-name="breve" unicode="&#x2d8;" 
d="M514 1425q60 0 90 22.5t39 68.5h225q-5 -130 -95.5 -200.5t-260.5 -70.5q-169 0 -259 70.5t-95 200.5h227q9 -46 38.5 -68.5t90.5 -22.5z" />
    <glyph glyph-name="dotaccent" unicode="&#x2d9;" 
d="M350 1266v270h322v-270h-322z" />
    <glyph glyph-name="ring" unicode="&#x2da;" 
d="M563 1538h-102q-41 0 -51 -10q-15 -15 -15 -60q0 -47 15 -59q12 -12 51 -12h102q41 0 53 12q15 15 15 59q0 41 -15 60q-10 10 -53 10zM627 1249h-230q-92 0 -133 41q-31 28 -43 69.5t-12 108.5t12 108t43 71q42 39 133 39h230q93 0 135 -39q30 -30 42.5 -71.5
t12.5 -107.5q0 -126 -55 -178q-41 -41 -135 -41z" />
    <glyph glyph-name="ogonek" unicode="&#x2db;" 
d="M596 -131h188q0 -119 -10.5 -167t-38.5 -73q-32 -30 -119 -30h-204q-87 0 -119 30q-27 24 -37 60t-10 100q0 54 5 81.5t25 57.5q42 62 195 156l55 -68q-2 -3 -17.5 -21.5t-27.5 -35t-16 -27.5q-12 -28 -12 -79q0 -62 8 -70t28 -8h68q21 0 29 8q10 10 10 86z" />
    <glyph glyph-name="tilde" unicode="&#x2dc;" 
d="M133 1262v127q0 85 35 120q29 33 94 33h45q51 0 137 -26l193 -58l47 82h166v-129q0 -88 -33 -121q-34 -30 -94 -30h-45q-62 0 -139 26l-191 55l-47 -79h-168z" />
    <glyph glyph-name="hungarumlaut" unicode="&#x2dd;" 
d="M82 1255v11l147 239h367v-10l-291 -240h-223zM539 1255v11l147 239h377v-10l-301 -240h-223z" />
    <glyph glyph-name="commaaccent" unicode="&#x326;" 
d="M395 -143h267v-240q0 -57 -16.5 -95t-57.5 -75l-160 -149l-78 63l117 154q20 31 20 59v8h-92v275z" />
    <glyph glyph-name="Wgrave" unicode="&#x1e80;" horiz-adv-x="2211" 
d="M1214 1438q60 0 91 -23.5t41 -81.5l206 -1016h23l147 861h-163v256h612v-256h-141l-230 -1080q-13 -59 -42.5 -81.5t-90.5 -22.5h-231q-61 0 -91 23.5t-40 82.5l-189 908h-20l-187 -908q-10 -59 -40 -82.5t-91 -23.5h-233q-61 0 -90.5 22.5t-42.5 81.5l-230 1080h-141
v256h637v-256h-164l148 -861h24l207 1016q10 59 40.5 82t90.5 23h190zM1272 1552h-238l-354 240v10h418l174 -239v-11z" />
    <glyph glyph-name="wgrave" unicode="&#x1e81;" horiz-adv-x="1855" 
d="M1006 1130q48 0 72 -15.5t34 -59.5l186 -744h19l108 570h-116v245h516v-245h-115l-201 -809q-10 -45 -33 -60.5t-71 -15.5h-205q-47 0 -71 17t-33 59l-160 649h-16l-160 -649q-9 -43 -33.5 -59.5t-71.5 -16.5h-204q-48 0 -71.5 15.5t-33.5 60.5l-201 809h-114v245h534
v-245h-116l106 -570h20l185 744q10 44 34 59.5t72 15.5h140zM1090 1255h-238l-354 240v10h417l175 -239v-11z" />
    <glyph glyph-name="Wacute" unicode="&#x1e82;" horiz-adv-x="2211" 
d="M944 1552v11l174 239h418v-10l-354 -240h-238zM1214 1438q60 0 91 -23.5t41 -81.5l206 -1016h23l147 861h-163v256h612v-256h-141l-230 -1080q-13 -59 -42.5 -81.5t-90.5 -22.5h-231q-61 0 -91 23.5t-40 82.5l-189 908h-20l-187 -908q-10 -59 -40 -82.5t-91 -23.5h-233
q-61 0 -90.5 22.5t-42.5 81.5l-230 1080h-141v256h637v-256h-164l148 -861h24l207 1016q10 59 40.5 82t90.5 23h190z" />
    <glyph glyph-name="wacute" unicode="&#x1e83;" horiz-adv-x="1855" 
d="M764 1255v11l174 239h418v-10l-355 -240h-237zM1006 1130q48 0 72 -15.5t34 -59.5l186 -744h19l108 570h-116v245h516v-245h-115l-201 -809q-10 -45 -33 -60.5t-71 -15.5h-205q-47 0 -71 17t-33 59l-160 649h-16l-160 -649q-9 -43 -33.5 -59.5t-71.5 -16.5h-204
q-48 0 -71.5 15.5t-33.5 60.5l-201 809h-114v245h534v-245h-116l106 -570h20l185 744q10 44 34 59.5t72 15.5h140z" />
    <glyph glyph-name="Wdieresis" unicode="&#x1e84;" horiz-adv-x="2211" 
d="M733 1556v267h309v-267h-309zM1174 1556v267h309v-267h-309zM1214 1438q60 0 91 -23.5t41 -81.5l206 -1016h23l147 861h-163v256h612v-256h-141l-230 -1080q-13 -59 -42.5 -81.5t-90.5 -22.5h-231q-61 0 -91 23.5t-40 82.5l-189 908h-20l-187 -908q-10 -59 -40 -82.5
t-91 -23.5h-233q-61 0 -90.5 22.5t-42.5 81.5l-230 1080h-141v256h637v-256h-164l148 -861h24l207 1016q10 59 40.5 82t90.5 23h190z" />
    <glyph glyph-name="wdieresis" unicode="&#x1e85;" horiz-adv-x="1855" 
d="M553 1260v266h309v-266h-309zM993 1260v266h310v-266h-310zM1006 1130q48 0 72 -15.5t34 -59.5l186 -744h19l108 570h-116v245h516v-245h-115l-201 -809q-10 -45 -33 -60.5t-71 -15.5h-205q-47 0 -71 17t-33 59l-160 649h-16l-160 -649q-9 -43 -33.5 -59.5t-71.5 -16.5
h-204q-48 0 -71.5 15.5t-33.5 60.5l-201 809h-114v245h534v-245h-116l106 -570h20l185 744q10 44 34 59.5t72 15.5h140z" />
    <glyph glyph-name="Ygrave" unicode="&#x1ef2;" horiz-adv-x="1497" 
d="M586 571l-418 607h-143v256h657v-252h-147l217 -353h12l231 353h-149v252h629v-256h-146l-424 -600v-320h182v-258h-684v258h183v313zM924 1552h-238l-354 240v10h418l174 -239v-11z" />
    <glyph glyph-name="ygrave" unicode="&#x1ef3;" horiz-adv-x="1343" 
d="M475 881l199 -547h18l185 547h-132v245h562v-245h-125l-406 -1043q-37 -95 -95 -132.5t-171 -37.5q-107 0 -279 15v237h224q23 0 33.5 8t19.5 31l14 43l-370 879h-125v245h579v-245h-131zM842 1255h-238l-354 240v10h418l174 -239v-11z" />
    <glyph glyph-name="enspace" unicode="&#x2002;" 
 />
    <glyph glyph-name="emspace" unicode="&#x2003;" horiz-adv-x="2048" 
 />
    <glyph glyph-name="threeperemspace" unicode="&#x2004;" horiz-adv-x="681" 
 />
    <glyph glyph-name="fourperemspace" unicode="&#x2005;" horiz-adv-x="512" 
 />
    <glyph glyph-name="thinspace" unicode="&#x2009;" horiz-adv-x="272" 
 />
    <glyph glyph-name="hairspace" unicode="&#x200a;" horiz-adv-x="153" 
 />
    <glyph glyph-name="endash" unicode="&#x2013;" horiz-adv-x="1101" 
d="M993 532h-882v259h882v-259z" />
    <glyph glyph-name="emdash" unicode="&#x2014;" horiz-adv-x="2013" 
d="M1905 535h-1794v253h1794v-253z" />
    <glyph glyph-name="quoteleft" unicode="&#x2018;" horiz-adv-x="528" 
d="M414 799h-318v282q0 68 20 113t68 90l191 176l92 -74l-139 -184q-15 -21 -20 -33.5t-5 -35.5v-9h111v-325z" />
    <glyph glyph-name="quoteright" unicode="&#x2019;" horiz-adv-x="528" 
d="M115 1434h317v-281q0 -68 -20 -114t-68 -89l-188 -178l-95 76l140 182q16 23 21 36t5 34v8h-112v326z" />
    <glyph glyph-name="quotesinglbase" unicode="&#x201a;" horiz-adv-x="538" 
d="M129 326h313v-281q0 -69 -20 -114.5t-68 -90.5l-188 -176l-94 74l139 184q16 22 21.5 35t5.5 35v8h-109v326z" />
    <glyph glyph-name="quotedblleft" unicode="&#x201c;" horiz-adv-x="995" 
d="M412 799h-316v282q0 68 20 113t68 90l191 176l92 -74l-139 -184q-15 -21 -20 -33.5t-5 -35.5v-9h109v-325zM877 799h-314v282q0 68 20 113t68 90l189 176l94 -74l-139 -184q-16 -22 -21.5 -34.5t-5.5 -34.5v-9h109v-325z" />
    <glyph glyph-name="quotedblright" unicode="&#x201d;" horiz-adv-x="995" 
d="M584 1434h315v-281q0 -68 -20 -114t-68 -89l-190 -178l-93 76l140 182q15 22 19.5 35t4.5 35v8h-108v326zM119 1434h313v-281q0 -68 -20 -114t-68 -89l-188 -178l-95 76l140 182q16 23 21 36t5 34v8h-108v326z" />
    <glyph glyph-name="quotedblbase" unicode="&#x201e;" horiz-adv-x="1005" 
d="M594 326h315v-281q0 -69 -20 -114.5t-68 -90.5l-190 -176l-92 74l139 184q15 20 19.5 33.5t4.5 36.5v8h-108v326zM129 326h313v-281q0 -69 -20 -114.5t-68 -90.5l-188 -176l-94 74l139 184q16 22 21.5 35t5.5 35v8h-109v326z" />
    <glyph glyph-name="dagger" unicode="&#x2020;" horiz-adv-x="960" 
d="M127 1182l258 -58v-90l-258 -57v205zM834 1182v-205l-256 57v90zM594 1434l-57 -269h-111l-57 269h225zM584 770l-52 -537h-104l-51 537l49 223h111z" />
    <glyph glyph-name="daggerdbl" unicode="&#x2021;" horiz-adv-x="989" 
d="M141 1182l258 -58v-90l-258 -57v205zM848 1182v-205l-256 57v90zM608 1434l-57 -269h-111l-57 269h225zM141 252v205l258 -58v-90zM848 252l-256 57v90l256 58v-205zM608 0h-225l57 268h111zM598 717l-47 -277h-111l-47 277l47 276h111z" />
    <glyph glyph-name="bullet" unicode="&#x2022;" horiz-adv-x="1067" 
d="M268 442q-36 34 -49.5 94.5t-13.5 206.5t14 207.5t49 96.5q26 25 58.5 34t91.5 9h231q59 0 91.5 -9t60.5 -34q35 -35 49 -96.5t14 -207.5t-13.5 -206.5t-49.5 -94.5q-27 -26 -60 -35.5t-92 -9.5h-231q-59 0 -91.5 9.5t-58.5 35.5z" />
    <glyph glyph-name="ellipsis" unicode="&#x2026;" horiz-adv-x="1499" 
d="M94 319h312v-319h-312v319zM594 319h311v-319h-311v319zM1096 319h311v-319h-311v319z" />
    <glyph glyph-name="guilsinglleft" unicode="&#x2039;" horiz-adv-x="776" 
d="M92 477v172l273 291h331l-338 -377l340 -377h-333z" />
    <glyph glyph-name="guilsinglright" unicode="&#x203a;" horiz-adv-x="776" 
d="M684 477l-274 -291h-332l338 375l-340 379h334l274 -291v-172z" />
    <glyph glyph-name="fraction" unicode="&#x2044;" horiz-adv-x="1263" 
d="M248 -6h-228l527 754l469 692h227l-526 -754z" />
    <glyph glyph-name="Euro" unicode="&#x20ac;" horiz-adv-x="1503" 
d="M901 799h-338v-82v-74h338v-207h-336q5 -147 25 -164q11 -11 29.5 -14.5t64.5 -3.5h291q72 0 90 18q11 12 16 63t9 200h303q-3 -216 -23 -316t-74 -153q-35 -36 -91.5 -51t-153.5 -15h-459q-99 0 -150.5 15t-89.5 53q-46 46 -72 127t-36 235h-148v215h142v72v80h-142v215
h150q10 152 35.5 231t70.5 123q38 38 89.5 53t150.5 15h461q96 0 153 -14.5t90 -47.5q53 -53 72.5 -151t22.5 -306h-301q-5 225 -25 248q-17 17 -90 17h-291q-74 0 -94 -17q-18 -22 -23 -157h334v-207z" />
    <glyph glyph-name="published" unicode="&#x2117;" horiz-adv-x="1619" 
d="M758 766h139q41 0 51 10q13 13 13 96q0 88 -13 101q-11 8 -51 8h-139v-215zM1147 877q0 -96 -12 -139t-39 -72q-35 -35 -129 -35h-209v-156h102v-141h-373v141h97v506h-97v141h480q95 0 129 -37q27 -27 39 -69.5t12 -138.5zM301 106q-63 63 -99 202t-36 409
q0 272 35.5 409t99.5 201q55 57 126.5 82t217.5 25h332q146 0 217.5 -25t126.5 -82q64 -64 99.5 -201t35.5 -409t-36 -410t-99 -201q-36 -38 -72.5 -59t-103.5 -34t-168 -13h-332q-101 0 -168 13t-103.5 34t-72.5 59zM274 717q0 -248 27.5 -369t79.5 -174q39 -42 96 -60
t176 -18h316q117 0 174 18t96 60q52 54 80.5 174.5t28.5 368.5t-28.5 368.5t-80.5 174.5q-39 42 -96 60.5t-174 18.5h-316q-119 0 -176 -17.5t-96 -59.5q-52 -53 -79.5 -174.5t-27.5 -370.5z" />
    <glyph glyph-name="servicemark" unicode="&#x2120;" horiz-adv-x="1994" 
d="M727 877q0 -83 -11.5 -130t-39.5 -75q-40 -37 -125 -37h-291q-96 0 -131 35q-26 25 -35.5 71.5t-11.5 153.5h178q2 -93 14 -102q8 -11 52 -11h153q47 0 56 11q10 13 10 75q0 52 -10 62q-10 13 -56 16l-233 25q-82 9 -111 41q-25 25 -34 65.5t-9 122.5q0 146 51 197
q37 37 123 37h271q95 0 133 -35q24 -24 33 -67.5t12 -147.5h-178q-2 79 -15 92q-8 10 -49 10h-141q-36 0 -47 -8q-11 -11 -11 -70q0 -50 13 -63q4 -5 11 -7.5t14 -3.5l28 -4l233 -24q75 -8 111 -41q23 -23 33 -66t10 -122zM825 635v143h93v512h-93v144h371q28 0 40 -9
t19 -36l111 -484h14l111 484q6 27 17.5 36t39.5 9h365v-144h-92v-512h92v-143h-348v143h71v469h-16l-145 -567q-6 -26 -17.5 -35.5t-36.5 -9.5h-116q-26 0 -37 9.5t-17 35.5l-147 567h-17v-469h72v-143h-334z" />
    <glyph glyph-name="trademark" unicode="&#x2122;" horiz-adv-x="2097" 
d="M555 778h98v-143h-387v143h103v514h-125v-151h-156v293h746v-293h-156v151h-123v-514zM926 778h94v512h-94v144h372q27 0 39.5 -9t18.5 -36l110 -484h15l110 484q7 27 19.5 36t40.5 9h364v-144h-92v-512h92v-143h-348v143h70v469h-17l-145 -567q-6 -26 -17 -35.5
t-36 -9.5h-117q-25 0 -36 9.5t-17 35.5l-146 567h-16v-469h70v-143h-334v143z" />
    <glyph glyph-name="minus" unicode="&#x2212;" horiz-adv-x="1058" 
d="M98 621v245h863v-245h-863z" />
    <glyph glyph-name="NUL" unicode="&#xe05d;" horiz-adv-x="0" 
 />
    <glyph glyph-name="aring.alt" horiz-adv-x="1251" 
d="M768 725q0 79 -4.5 107.5t-15.5 41.5q-20 17 -82 17h-138q-60 0 -77 -17q-11 -11 -15.5 -33t-7.5 -77h-291q3 138 18 201t50 98q46 46 114 57q-6 38 -6 88q0 66 12.5 107t43.5 71q42 39 133 39h229q93 0 135 -39q30 -30 43 -71.5t13 -106.5q0 -54 -9 -94q57 -14 95 -49
q38 -37 51.5 -96.5t13.5 -198.5v-526h146v-244h-451v125q-98 -81 -151 -104t-128 -23h-135q-77 0 -121 12t-77 45q-66 66 -66 254q0 207 70 277q41 41 111.5 58.5t205.5 17.5q143 0 291 -33v96zM555 219q50 0 95.5 12t117.5 48v196h-184q-85 0 -119.5 -6t-48.5 -20
q-25 -25 -25 -103q0 -87 21 -108q19 -19 80 -19h63zM668 1278h-103q-41 0 -51 -10q-14 -14 -14 -60q0 -48 14 -59q12 -12 51 -12h103q41 0 53 12q14 14 14 59q0 42 -14 60q-10 10 -53 10z" />
    <glyph glyph-name="aringacute.alt" horiz-adv-x="1251" 
d="M768 725q0 79 -4.5 107.5t-15.5 41.5q-20 17 -82 17h-138q-60 0 -77 -17q-11 -11 -15.5 -33t-7.5 -77h-291q3 138 18 201t50 98q46 46 114 57q-6 38 -6 88q0 66 12.5 107t43.5 71q42 39 133 39h229q93 0 135 -39q30 -30 43 -71.5t13 -106.5q0 -54 -9 -94q57 -14 95 -49
q38 -37 51.5 -96.5t13.5 -198.5v-526h146v-244h-451v125q-98 -81 -151 -104t-128 -23h-135q-77 0 -121 12t-77 45q-66 66 -66 254q0 207 70 277q41 41 111.5 58.5t205.5 17.5q143 0 291 -33v96zM555 219q50 0 95.5 12t117.5 48v196h-184q-85 0 -119.5 -6t-48.5 -20
q-25 -25 -25 -103q0 -87 21 -108q19 -19 80 -19h63zM455 1532v10l174 240h418v-10l-355 -240h-237zM668 1278h-103q-41 0 -51 -10q-14 -14 -14 -60q0 -48 14 -59q12 -12 51 -12h103q41 0 53 12q14 14 14 59q0 42 -14 60q-10 10 -53 10z" />
    <glyph glyph-name="registered.alt" horiz-adv-x="1619" 
d="M1112 557q0 -32 4 -82h82v-141h-160q-55 0 -77 22q-13 13 -20 50.5t-11 138.5q-2 73 -21 92q-18 18 -67 18h-113v-180h94v-141h-362v141h94v506h-94v141h491q85 0 125 -37q26 -24 34.5 -61.5t8.5 -120.5q0 -98 -26 -135.5t-99 -48.5v-2q64 -12 89 -44.5t28 -115.5z
M729 786h141q44 0 52 11q14 14 14 86q0 74 -14 88q-10 10 -52 10h-141v-195zM301 106q-63 63 -99 202t-36 409q0 272 35.5 409t99.5 201q55 57 126.5 82t217.5 25h332q146 0 217.5 -25t126.5 -82q64 -64 99.5 -201t35.5 -409t-36 -410t-99 -201q-36 -38 -72.5 -59
t-103.5 -34t-168 -13h-332q-101 0 -168 13t-103.5 34t-72.5 59zM274 717q0 -248 27.5 -369t79.5 -174q39 -42 96 -60t176 -18h316q117 0 174 18t96 60q52 54 80.5 174.5t28.5 368.5t-28.5 368.5t-80.5 174.5q-39 42 -96 60.5t-174 18.5h-316q-119 0 -176 -17.5t-96 -59.5
q-52 -53 -79.5 -174.5t-27.5 -370.5z" />
    <glyph glyph-name="hcoslug" horiz-adv-x="1421" 
d="M559 37h-53q0 -25 20 -25q16 0 19 15h14q-7 -29 -37 -29q-20 0 -31.5 11t-11.5 30t12 31t29 12q42 0 39 -45zM520 72q-14 0 -14 -25h29q0 25 -15 25zM399 160q17 0 17 33q0 30 -17 30q-16 0 -16 -30q0 -33 16 -33zM430 8q16 0 16 33q0 31 -16 31t-16 -31q0 -33 16 -33z
M430 -2q-19 0 -31 11.5t-12 31.5q0 19 12 30t31 11t31 -11t12 -30t-12 -31t-31 -12zM1118 8q17 0 17 33q0 31 -17 31q-16 0 -16 -31q0 -33 16 -33zM1118 -2q-19 0 -31 11.5t-12 31.5q0 19 12 30t31 11t31 -11t12 -30t-12 -31t-31 -12zM256 152v14h14v84h-14v14h104v-41h-16
q-3 17 -7 22t-15 5h-25v-37h8q7 0 8.5 2.5t3.5 13.5h15v-47h-15q-7 16 -12 17h-8v-33h20v-14h-61zM399 150q-19 0 -31 11.5t-12 31.5q0 18 12 29t31 11t31 -11t12 -29q0 -19 -12 -31t-31 -12zM1319 -205v1639h-1217v-1639h1217zM1020 -2q-28 0 -43.5 15.5t-15.5 41.5
q0 27 16.5 44.5t38.5 17.5q18 0 33 -15l2 13h16v-45h-16q-6 19 -12.5 25.5t-18.5 6.5q-29 0 -29 -45t33 -45q25 0 29 33h16q-3 -47 -49 -47zM762 164q14 0 14 26q0 27 -14 27q-17 0 -17 -27q0 -26 17 -26zM565 0v14h13v52h-15v14h15v2q0 19 11 29t27 10q11 0 19 -4l20 4
v-107h13v-14h-47v14h10v52h-29v-52h10v-14h-47zM754 0v14h12v52h-12v14h37v-21q9 23 24 23q16 0 16 -16q0 -15 -14 -15q-12 0 -12 12v3q-6 0 -14 -19v-33h16v-14h-53zM721 150v106h-12v14h36v-55q6 18 27 18q14 0 22.5 -11t8.5 -29q0 -16 -8 -29.5t-25 -13.5q-19 0 -29 16
l-8 -16h-12zM819 154q10 0 12.5 -8t-2.5 -13q14 0 17 17l-33 67h-10v14h51v-14h-12l18 -41l17 41h-11v14h35v-14h-10l-27 -63q-13 -33 -37 -33q-22 0 -22 18q0 15 14 15zM506 877q0 26 15 42.5t40 16.5q26 0 43 -21.5t17 -56.5q0 -46 -37 -102q-30 29 -42.5 42.5t-24 35
t-11.5 43.5zM618 152v28h15q12 -18 24 -18q11 0 11 8q0 6 -25 13t-25 26q0 10 8 17t21 7q16 0 23 -10l4 10h12v-26h-14q-10 14 -21 14q-10 0 -10 -8q0 -6 24.5 -12t24.5 -25q0 -11 -7.5 -18.5t-20.5 -7.5q-12 0 -27 10l-2 -8h-15zM535 449q-46 0 -76.5 31.5t-30.5 78.5
q0 49 33 82q72 -68 151 -168q-31 -24 -77 -24zM561 250l25 4v-23h26v-14h-26v-41q0 -10 8 -10q7 0 10 14l10 -4q-6 -26 -28 -26q-25 0 -25 26v41h-14v14h14v19zM877 627q-53 -31 -95 -86q39 -45 68 -64.5t59 -19.5q54 0 88 59l15 -4q-3 -87 -49.5 -140t-114.5 -53
q-46 0 -84.5 20.5t-89.5 72.5q-84 -93 -213 -93q-93 0 -158 55t-65 136q0 129 168 186q-34 35 -49 67t-15 75q0 69 62 121.5t161 52.5q90 0 142.5 -46.5t52.5 -105.5q0 -37 -19 -69q43 2 70.5 -17t30.5 -59q53 78 123 78q43 0 72.5 -30t29.5 -77t-29.5 -79t-72.5 -32
q-58 0 -88 52zM449 152v14h12v51h-12v14h34v-20q9 22 29 22q25 0 25 -28v-39h12v-14h-45v14h8v37q0 14 -12 14q-15 0 -15 -20v-31h9v-14h-45zM913 68h37v-15h-10q-6 -12 -18 -28q7 -11 12 -11t8 11l10 -2q-7 -25 -26 -25q-15 0 -25 12q-12 -12 -31 -12q-36 0 -36 29
q0 23 26 30q-12 12 -12 25q0 11 10.5 20t24.5 9q13 0 20.5 -7.5t7.5 -17.5q0 -16 -22 -25q5 -5 12.5 -13.5t11.5 -12.5q11 11 13 18h-13v15zM879 12q7 0 16 6q-20 24 -29 33q-8 -8 -8 -18q0 -9 6 -15t15 -6zM602 86v-6h29v10q-13 0 -13 12l3 7q-3 2 -7 2q-12 0 -12 -25z
M870 88q0 -7 13 -20q10 7 10 18q0 12 -12 12q-11 0 -11 -10zM639 700q61 42 86 70q23 -23 29 -49t-2 -52.5t-29 -62.5q-68 78 -84 94zM750 37h-54q0 -25 21 -25q15 0 18 15h15q-7 -29 -37 -29q-20 0 -31.5 11t-11.5 30t12 31t29 12q42 0 39 -45zM711 72q-15 0 -15 -25h29
q0 25 -14 25zM254 0v14h16v84h-16v15h59v-15h-16v-32h45v32h-16v15h59v-15h-16v-84h16v-14h-59v14h16v37h-45v-37h16v-14h-59zM1180 27q14 0 14 -15q0 -14 -14 -14q-15 0 -15 14q0 6 4.5 10.5t10.5 4.5z" />
    <glyph glyph-name="caron.alt" 
d="M446 1161l-110 39l55 166q8 24 8 45q0 15 -8 43l-45 152v63h272v-158q0 -78 -13 -119.5t-52 -93.5z" />
    <glyph glyph-name="i.dot" horiz-adv-x="751" 
d="M225 1266v270h322v-270h-322zM705 0h-617v244h158v637h-158v245h465v-884h152v-242z" />
    </font>
</defs>
</svg>
