<?xml version="1.0" standalone="no"?>
<!DOCTYPE svg PUBLIC "-//W3C//DTD SVG 1.1//EN" "http://www.w3.org/Graphics/SVG/1.1/DTD/svg11.dtd" >
<svg xmlns="http://www.w3.org/2000/svg" xmlns:xlink="http://www.w3.org/1999/xlink" version="1.1">
<metadata>
Created by FontForge 20170731 at Thu Oct  8 11:04:19 2020
 By Aleksey,,,
Copyright (C) 2006, 2009 Hoefler &#38; Co. http://www.typography.com
</metadata>
<defs>
<font id="Vitesse-BoldItalic" horiz-adv-x="1015" >
  <font-face 
    font-family="Vitesse Bold"
    font-weight="400"
    font-style="italic"
    font-stretch="normal"
    units-per-em="2048"
    panose-1="0 0 0 0 0 0 0 0 0 0"
    ascent="1638"
    descent="-410"
    x-height="1126"
    cap-height="1434"
    bbox="-311 -702 2372 2083"
    underline-thickness="102"
    underline-position="-307"
    slope="-14"
    unicode-range="U+0020-FB04"
  />
<missing-glyph horiz-adv-x="1011" 
d="M-6 -410v2048h1024v-2048h-1024zM139 1536l367 -799l366 799h-733zM96 -156l353 770l-353 770v-1540zM915 1384l-352 -770l352 -770v1540zM506 492l-367 -799h733z" />
    <glyph glyph-name="f_f" unicode="ff" horiz-adv-x="1587" 
d="M926 1276h-133q-53 0 -72 -16q-19 -17 -39 -91l-10 -45h198l-59 -239h-197l-161 -643h168l-58 -242h-616l59 242h141l160 643h-160l60 241h162l14 58q24 102 52 161t67 93q46 40 99.5 56.5t143.5 16.5h240zM1718 1276h-133q-53 0 -72 -16q-18 -16 -38 -91l-11 -45h199
l-59 -239h-197l-162 -643h168l-57 -242h-617l60 242h141l160 643h-160l59 241h162l15 58q24 103 51.5 161.5t66.5 92.5q46 40 100 56.5t144 16.5h240z" />
    <glyph glyph-name="fi" unicode="fi" horiz-adv-x="1536" 
d="M1190 1266l65 270h322l-66 -270h-321zM1364 0h-616l59 242h147l162 643h-168l60 241h475l-221 -886h161zM926 1276h-133q-53 0 -72 -16q-19 -17 -39 -91l-10 -45h198l-59 -239h-197l-161 -643h168l-58 -242h-616l59 242h141l160 643h-160l60 241h162l14 58q24 102 52 161
t67 93q46 40 99.5 56.5t143.5 16.5h240z" />
    <glyph glyph-name="fl" unicode="fl" horiz-adv-x="1513" 
d="M1346 0h-621l59 242h150l256 1026h-168l59 243h475l-317 -1271h164zM926 1276h-133q-53 0 -72 -16q-19 -17 -39 -91l-10 -45h198l-59 -239h-197l-161 -643h168l-58 -242h-616l59 242h141l160 643h-160l60 241h162l14 58q24 102 52 161t67 93q46 40 99.5 56.5t143.5 16.5
h240z" />
    <glyph glyph-name="f_f_i" unicode="ffi" horiz-adv-x="2330" 
d="M1985 1266l65 270h322l-66 -270h-321zM2159 0h-617l60 242h147l162 643h-168l59 241h475l-221 -886h162zM926 1276h-133q-53 0 -72 -16q-19 -17 -39 -91l-10 -45h198l-59 -239h-197l-161 -643h168l-58 -242h-616l59 242h141l160 643h-160l60 241h162l14 58q24 102 52 161
t67 93q46 40 99.5 56.5t143.5 16.5h240zM1718 1276h-133q-53 0 -72 -16q-18 -16 -38 -91l-11 -45h199l-59 -239h-197l-162 -643h168l-57 -242h-617l60 242h141l160 643h-160l59 241h162l15 58q24 103 51.5 161.5t66.5 92.5q46 40 100 56.5t144 16.5h240z" />
    <glyph glyph-name="f_f_l" unicode="ffl" horiz-adv-x="2301" 
d="M2134 0h-621l60 242h149l256 1026h-168l60 243h475l-317 -1271h163zM926 1276h-133q-53 0 -72 -16q-19 -17 -39 -91l-10 -45h198l-59 -239h-197l-161 -643h168l-58 -242h-616l59 242h141l160 643h-160l60 241h162l14 58q24 102 52 161t67 93q46 40 99.5 56.5t143.5 16.5
h240zM1718 1276h-133q-53 0 -72 -16q-18 -16 -38 -91l-11 -45h199l-59 -239h-197l-162 -643h168l-57 -242h-617l60 242h141l160 643h-160l59 241h162l15 58q24 103 51.5 161.5t66.5 92.5q46 40 100 56.5t144 16.5h240z" />
    <glyph glyph-name=".notdef" horiz-adv-x="1011" 
d="M-6 -410v2048h1024v-2048h-1024zM139 1536l367 -799l366 799h-733zM96 -156l353 770l-353 770v-1540zM915 1384l-352 -770l352 -770v1540zM506 492l-367 -799h733z" />
    <glyph glyph-name=".null" horiz-adv-x="0" 
 />
    <glyph glyph-name="nonmarkingreturn" horiz-adv-x="682" 
 />
    <glyph glyph-name="space" unicode=" " horiz-adv-x="520" 
 />
    <glyph glyph-name="exclam" unicode="!" horiz-adv-x="622" 
d="M377 471h-154l107 883l22 80h357l-19 -80zM94 326h318l-80 -326h-318z" />
    <glyph glyph-name="quotedbl" unicode="&#x22;" horiz-adv-x="993" 
d="M266 793l51 641h326v-72l-240 -569h-137zM731 793l51 641h326v-72l-240 -569h-137z" />
    <glyph glyph-name="numbersign" unicode="#" horiz-adv-x="1605" 
d="M334 1120h272l150 314h284l-141 -314h250l149 314h295l-149 -314h213l-60 -243h-268l-133 -285h215l-55 -244h-275l-163 -348h-295l163 348h-249l-164 -348h-295l164 348h-209l55 244h268l136 285h-218zM776 895l-151 -322h286l150 322h-285z" />
    <glyph glyph-name="dollar" unicode="$" horiz-adv-x="1368" 
d="M618 -195h-247l49 195h-88q-170 0 -236 66q-33 34 -43 84.5t-0.5 123t39.5 191.5h291q-41 -172 -14 -199q16 -16 92 -16h49l92 366l-137 29q-81 18 -120 34t-69 46q-45 44 -51.5 117t21.5 205q26 117 60 185t81 114q84 88 260 88h129l43 174h248l-43 -174h63
q166 0 228 -62q48 -48 51 -133.5t-35 -253.5h-293q19 93 22.5 129.5t-7.5 52.5q-22 19 -97 19h-22l-88 -350l147 -31q82 -18 123 -34.5t70 -45.5q45 -45 52 -116t-26 -203q-33 -129 -66.5 -199t-82.5 -119q-88 -88 -262 -88h-133zM854 563l-72 15l-82 -328h66q76 0 94 18
q26 26 51 142q14 60 15 86t-13 43q-16 16 -59 24zM600 887l66 -15l77 314h-53q-75 0 -94 -19q-25 -25 -51 -133q-22 -104 -4 -125q14 -14 59 -22z" />
    <glyph glyph-name="percent" unicode="%" horiz-adv-x="1748" 
d="M362 -6h-237l709 754l630 692h238l-707 -754zM424 1057q-39 -153 -16 -176q15 -15 57 -15h35q50 0 65 17q23 21 64 174q39 155 16 178q-14 14 -57 14h-35q-50 0 -66 -16q-26 -26 -63 -176zM829 1042q-50 -220 -124 -294q-37 -37 -80.5 -52.5t-106.5 -15.5h-129
q-63 0 -94 10t-53 33q-80 80 -19 348q49 217 125 297q37 37 80 51.5t107 14.5h129q63 0 93.5 -10t53.5 -33q80 -76 18 -349zM1200 377q-39 -153 -16 -176q15 -15 57 -15h35q48 0 65 17q25 25 62 174q39 155 16 178q-14 14 -57 14h-35q-46 0 -65 -16q-26 -29 -62 -176z
M1604 362q-51 -224 -125 -294q-38 -38 -80.5 -53t-106.5 -15h-127q-63 0 -95 10.5t-54 32.5q-80 83 -17 348q30 134 60 198t65 99q37 37 79.5 51.5t107.5 14.5h127q63 0 95 -10.5t54 -32.5q78 -78 17 -349z" />
    <glyph glyph-name="ampersand" unicode="&#x26;" horiz-adv-x="1503" 
d="M1257 0h-313l-102 166h-15l-22 -27q-66 -77 -125 -109t-150 -32h-165q-106 0 -165 17.5t-96 54.5q-52 50 -57.5 134t29.5 234q31 134 53.5 185t65.5 94q78 78 249 106q-12 37 -12 84q0 74 25 168q27 114 53.5 171.5t67.5 96.5q51 51 117.5 71t176.5 20h154
q107 0 161.5 -15t84.5 -45q48 -46 50.5 -129.5t-34.5 -240.5h-299q21 91 23 129.5t-11 46.5q-14 14 -75 14h-41q-65 0 -88 -23q-20 -20 -45 -127q-15 -56 -15 -96q0 -65 76 -182l94 -150h15l194 224h328l-64 -250h-166l-161 -187l98 -151h166zM373 436q-20 -81 -21 -121
t15 -51q19 -22 106 -22h33q51 0 77.5 11t59.5 50l59 70l-157 245l-51 -10q-47 -12 -68 -33q-25 -22 -53 -139z" />
    <glyph glyph-name="quotesingle" unicode="'" horiz-adv-x="555" 
d="M272 793l52 641h325v-72l-239 -569h-138z" />
    <glyph glyph-name="parenleft" unicode="(" horiz-adv-x="806" 
d="M180 594q85 335 139 453q36 79 124 175.5t284 258.5h213q-145 -183 -203 -262.5t-82 -128.5q-59 -131 -153 -519q-107 -418 -107 -520q0 -109 80 -405h-180q-201 330 -201 493q0 116 86 455z" />
    <glyph glyph-name="parenright" unicode=")" horiz-adv-x="806" 
d="M631 535q-37 -152 -77 -280.5t-62 -172.5q-35 -81 -122.5 -177t-285.5 -259h-213q146 182 204.5 262t80.5 129q55 115 155 518q105 421 105 522q0 122 -80 404h182q199 -326 199 -494q0 -113 -86 -452z" />
    <glyph glyph-name="asterisk" unicode="*" horiz-adv-x="1007" 
d="M307 881l219 155l66 -63l-148 -225zM297 1270l242 -113l-21 -88l-268 14zM442 1423l185 54l24 -269l-88 -24zM836 750l-187 -54l-22 269l86 24zM1026 1090l-45 -189l-244 115l21 86zM971 1292l-221 -155l-66 61l147 227z" />
    <glyph glyph-name="plus" unicode="+" horiz-adv-x="1058" 
d="M807 1176l-78 -310h309l-61 -243h-309l-76 -310h-246l76 310h-307l61 243h307l78 310h246z" />
    <glyph glyph-name="comma" unicode="," horiz-adv-x="503" 
d="M41 326h317l-71 -281q-17 -71 -47 -116t-90 -89l-234 -176l-76 74l185 184q22 22 30.5 35t14.5 35l2 8h-113z" />
    <glyph glyph-name="hyphen" unicode="-" horiz-adv-x="811" 
d="M698 532h-600l66 261h600z" />
    <glyph glyph-name="period" unicode="." horiz-adv-x="493" 
d="M31 326h317l-80 -326h-319z" />
    <glyph glyph-name="slash" unicode="/" horiz-adv-x="1081" 
d="M6 -328h-317l1265 1782h316z" />
    <glyph glyph-name="zero" unicode="0" horiz-adv-x="1404" 
d="M729 1434h318q112 0 169 -18t95 -56q44 -44 62 -118.5t5.5 -213t-61.5 -342.5q-66 -276 -119 -398t-115 -182q-63 -63 -133.5 -84.5t-189.5 -21.5h-318q-112 0 -169 18t-95 56q-44 44 -62 118.5t-5.5 213.5t61.5 342q66 277 119 398t115 183q63 63 133 84t190 21z
M940 1171h-184q-53 0 -77.5 -5t-39.5 -19q-41 -41 -139 -430q-43 -170 -60.5 -263t-16.5 -125t15 -46q19 -19 111 -19h184q54 0 78 5t39 20q40 36 139 428q43 170 60.5 263t16.5 125t-15 46q-20 20 -111 20z" />
    <glyph glyph-name="one" unicode="1" horiz-adv-x="1044" 
d="M645 252h266l-61 -252h-862l63 252h281l223 893l-256 -80l-20 246l370 125h291z" />
    <glyph glyph-name="two" unicode="2" horiz-adv-x="1361" 
d="M254 948q49 191 85.5 271.5t84.5 128.5q49 47 117.5 66.5t167.5 19.5h368q91 0 140 -17t81 -49q97 -95 37 -336q-26 -109 -53 -162t-72 -98q-68 -71 -254 -137l-409 -150q-94 -36 -119 -65q-29 -25 -53 -125l-10 -45h509l60 244h285l-123 -494h-1108l59 244
q35 144 69.5 218.5t80.5 119.5q79 79 245 139l420 149q88 33 113 58q29 32 47 108q20 88 0 117q-17 23 -92 23h-193q-73 0 -98 -25q-30 -30 -76 -203h-309z" />
    <glyph glyph-name="three" unicode="3" horiz-adv-x="1337" 
d="M104 508h316q-20 -86 -27.5 -133t-6 -64t10.5 -26q23 -23 105 -23h207q69 0 94 25q28 28 59 149q18 82 18 115t-16 49t-88 16h-233l59 240h246q67 0 86 21q30 30 59 141q26 107 0 133q-20 20 -82 20h-200q-79 0 -99 -22q-28 -24 -71 -193h-310q40 170 77 255t91 139
q50 48 117.5 66t167.5 18h381q165 0 229 -64q99 -95 45 -313q-37 -147 -105.5 -218.5t-180.5 -99.5v-4q101 -33 137.5 -110t-0.5 -224q-31 -124 -67.5 -191.5t-84.5 -115.5q-51 -51 -116 -72.5t-156 -21.5h-383q-106 0 -165 17t-95 53q-52 52 -56 150.5t37 287.5z" />
    <glyph glyph-name="four" unicode="4" horiz-adv-x="1400" 
d="M37 424l20 90q16 71 48 124t90 118l526 583q45 52 86 73.5t96 21.5h391l-196 -783h239l-55 -227h-242l-47 -188h242l-59 -236h-789l57 236h240l47 188h-694zM788 651l138 543h-23l-477 -543h362z" />
    <glyph glyph-name="five" unicode="5" horiz-adv-x="1343" 
d="M100 461h308q-19 -87 -20 -128.5t13 -51.5q23 -23 107 -23h203q67 0 92 25q39 44 74 188q23 100 23 135.5t-17 52.5q-21 21 -99 21h-116q-62 0 -114 -16t-130 -58l-246 84l236 744h989l-64 -258h-723l-106 -318l10 -4q69 51 119 69.5t133 18.5h162q99 0 154 -15t88 -48
q56 -58 59.5 -153t-35.5 -249q-43 -179 -79.5 -256t-86.5 -127q-97 -94 -270 -94h-393q-186 0 -252 63q-52 53 -55.5 143t36.5 255z" />
    <glyph glyph-name="six" unicode="6" horiz-adv-x="1347" 
d="M1282 1368q50 -50 56.5 -145.5t-23.5 -225.5h-314q16 78 16.5 108t-13.5 48q-18 18 -103 18h-151q-81 0 -111 -30q-48 -48 -133 -381q88 61 143.5 82.5t130.5 21.5h142q108 0 165 -15.5t93 -53.5q50 -52 56 -143.5t-24 -215.5q-31 -139 -69 -212.5t-92 -127.5
q-96 -96 -285 -96h-328q-113 0 -169.5 17.5t-96.5 56.5q-44 44 -61.5 119.5t-4 214.5t63.5 342q65 262 121.5 382.5t120.5 184.5q67 67 139.5 92t189.5 25h279q107 0 167 -15.5t95 -50.5zM635 612q-80 0 -176 -47q-23 -104 -31.5 -164.5t-6 -83t12.5 -32.5q28 -25 117 -25
h180q73 0 98 25q35 39 60 151q29 125 0 154q-22 22 -107 22h-147z" />
    <glyph glyph-name="seven" unicode="7" horiz-adv-x="1288" 
d="M506 0h-352l850 1178h-453l-64 -250h-284l127 506h1100l-58 -228z" />
    <glyph glyph-name="eight" unicode="8" horiz-adv-x="1335" 
d="M565 1022q-32 -118 0 -150q20 -20 99 -20h176q69 0 94 25q33 30 63 145q15 65 13.5 95t-19.5 48q-19 19 -92 19h-178q-71 0 -98 -27q-32 -32 -58 -135zM762 0h-383q-103 0 -161 18.5t-95 55.5q-104 104 -51 332q35 153 105.5 229.5t195.5 101.5v4q-91 38 -126.5 115
t-2.5 211q47 186 133 272q54 54 120.5 74.5t159.5 20.5h396q174 0 241 -76q88 -98 39 -309q-35 -145 -101.5 -213.5t-176.5 -96.5v-4q207 -74 137 -344q-30 -115 -63.5 -180t-77.5 -111q-100 -100 -289 -100zM510 250h197q74 0 98 24q34 38 65 160q33 131 0 164
q-20 20 -94 20h-203q-75 0 -98 -26q-34 -34 -65 -158q-35 -126 -2 -162q22 -22 102 -22z" />
    <glyph glyph-name="nine" unicode="9" horiz-adv-x="1351" 
d="M100 428h314q-15 -70 -15.5 -101t13.5 -44q22 -19 102 -19h168q82 0 111 29q49 54 125 354q-86 -61 -142 -82.5t-131 -21.5h-145q-107 0 -165 16.5t-93 52.5q-50 51 -54.5 146.5t25.5 226.5q32 144 72 220t96 134q98 95 285 95h327q114 0 171 -17.5t96 -56.5
q44 -44 61.5 -119.5t4 -214.5t-63.5 -342q-65 -261 -122 -382.5t-120 -182.5q-68 -68 -141 -93.5t-189 -25.5h-293q-107 0 -167 15.5t-95 50.5q-51 51 -58.5 143t23.5 219zM791 795q83 0 174 45q26 115 36 184t7.5 92t-11.5 33q-15 15 -38 21t-78 6h-176q-76 0 -103 -27
q-36 -36 -65 -166q-33 -138 -7 -164q24 -24 113 -24h148z" />
    <glyph glyph-name="colon" unicode=":" horiz-adv-x="516" 
d="M53 326h318l-80 -326h-320zM254 1126h317l-82 -325h-317z" />
    <glyph glyph-name="semicolon" unicode=";" horiz-adv-x="505" 
d="M244 1126h317l-82 -325h-317zM43 326h317l-71 -281q-17 -70 -47.5 -115t-89.5 -90l-234 -176l-76 74l187 184q34 34 43 70l2 8h-113z" />
    <glyph glyph-name="less" unicode="&#x3c;" horiz-adv-x="1017" 
d="M993 954l-561 -225l449 -225l-70 -275l-694 387l63 254l887 387z" />
    <glyph glyph-name="equal" unicode="=" horiz-adv-x="1058" 
d="M178 844l64 246h841l-63 -246h-842zM68 399l63 246h842l-64 -246h-841z" />
    <glyph glyph-name="greater" unicode="&#x3e;" horiz-adv-x="1017" 
d="M45 229l72 306l559 223l-447 225l72 274l694 -387l-63 -254z" />
    <glyph glyph-name="question" unicode="?" horiz-adv-x="1196" 
d="M317 326h318l-82 -326h-317zM195 965q45 180 80.5 260.5t82.5 126.5q47 47 113 64.5t166 17.5h317q166 0 230 -64q48 -48 53.5 -132.5t-27.5 -209.5q-29 -108 -54 -159t-69 -95q-18 -18 -39.5 -33t-54 -30t-53.5 -24t-71 -28t-74 -28q-77 -30 -111 -64q-19 -16 -49 -96
h-244q1 3 6.5 25t5.5 24q28 107 48 155t49 77q42 42 188 100q13 5 19 8q117 44 139 68q17 15 26 37t23 79q22 95 2 115q-17 17 -96 17h-133q-43 0 -63.5 -5t-33.5 -18q-22 -22 -69 -188h-307z" />
    <glyph glyph-name="at" unicode="@" horiz-adv-x="1835" 
d="M252 563q-53 -218 -69.5 -365t-3.5 -221t50 -112q37 -35 94.5 -52.5t184.5 -17.5h829l-22 -102h-834q-107 0 -175 13t-100 31.5t-67 53.5q-156 152 -6 772q45 185 89.5 321t85 216.5t70 124t64.5 78.5q69 69 162 100t250 31h510q150 0 223.5 -24t122.5 -73
q48 -49 68 -128.5t9.5 -217.5t-58.5 -332q-53 -215 -98.5 -317t-92.5 -149q-79 -82 -207 -82h-80q-85 0 -138.5 31.5t-104.5 111.5q-128 -96 -173.5 -119.5t-113.5 -23.5h-47q-111 0 -162 51q-45 44 -47 134.5t43 281.5q41 167 76.5 243.5t83.5 124.5q41 43 94 58.5
t125 15.5h45q49 0 91 -23.5t136 -101.5l74 125h211l-72 -229l-117 -476q-12 -51 11 -77q19 -19 69 -19q46 0 74 9t53 36q34 32 67 116t81 277q67 280 66.5 414.5t-62.5 194.5q-31 31 -86 48t-182 17h-492q-136 0 -207.5 -22.5t-132.5 -85.5q-40 -41 -74 -99t-84.5 -201
t-103.5 -360zM840 313q11 0 21.5 1t18 2t19 5t17.5 6t20.5 8.5t21 9.5t26.5 13l30 15l100 401q-74 43 -131 43h-49q-68 0 -92 -24q-39 -39 -86 -230q-30 -123 -33.5 -169t14.5 -62q19 -19 76 -19h27z" />
    <glyph glyph-name="A" unicode="A" horiz-adv-x="1527" 
d="M963 252l-7 192h-430l-102 -192h168l-62 -252h-632l61 256h133l621 1081q34 61 66 82t91 21h199q79 0 107.5 -27.5t33.5 -103.5l80 -1053h148l-64 -256h-633l62 252h160zM928 1153h-27l-250 -469h297z" />
    <glyph glyph-name="B" unicode="B" horiz-adv-x="1411" 
d="M948 434q36 147 8 172q-19 19 -82 19h-299l-92 -375h312q66 0 88 22q30 30 65 162zM-57 0l63 254h162l229 926h-182l64 254h856q175 0 241 -66q99 -99 41 -319q-37 -142 -107 -211.5t-190 -98.5v-4q56 -16 92.5 -42t59 -68t21 -100.5t-22.5 -139.5q-31 -117 -62.5 -180
t-74.5 -105q-100 -100 -281 -100h-909zM1004 1186h-289l-82 -334h299q68 0 86 20q32 32 63 148q29 121 4 149q-17 17 -81 17z" />
    <glyph glyph-name="C" unicode="C" horiz-adv-x="1378" 
d="M946 535h320q-53 -210 -91.5 -302t-87.5 -141q-53 -53 -117 -72.5t-171 -19.5h-400q-101 0 -154 17t-89 53q-40 40 -55 113.5t0.5 215.5t66.5 351q49 199 91.5 322.5t74 176.5t74.5 97q50 50 114 69t170 19h402q102 0 153.5 -16t87.5 -52q49 -49 55 -150t-34 -301h-316
q20 86 27 138t5 71.5t-11 28.5q-16 16 -103 16h-227q-79 0 -100 -18q-12 -12 -23.5 -40t-39 -124t-70.5 -270q-42 -172 -61 -266.5t-18 -125.5t11 -42q19 -19 102 -19h228q82 0 100 21q14 12 31.5 61t54.5 189z" />
    <glyph glyph-name="D" unicode="D" horiz-adv-x="1472" 
d="M279 1434h745q127 0 206 -22t130 -73q80 -80 84 -239t-62 -418q-56 -229 -114.5 -353t-128.5 -194q-78 -78 -175 -106.5t-247 -28.5h-774l63 254h162l229 926h-180zM717 1180l-230 -926h250q69 0 106.5 8.5t63.5 34.5q31 31 61.5 115.5t84.5 304.5q56 225 64.5 315.5
t-21.5 116.5q-17 19 -46.5 25t-99.5 6h-233z" />
    <glyph glyph-name="E" unicode="E" horiz-adv-x="1357" 
d="M395 1180h-184l63 254h1203l-121 -476h-285l55 224h-411l-82 -326h332l-60 -240h-332l-90 -364h424l62 254h286l-127 -506h-1185l63 254h160z" />
    <glyph glyph-name="F" unicode="F" horiz-adv-x="1300" 
d="M211 1180l63 254h1186l-119 -473h-286l55 221h-395l-86 -346h323l-61 -238h-322l-84 -344h197l-64 -254h-675l63 254h160l229 926h-184z" />
    <glyph glyph-name="G" unicode="G" horiz-adv-x="1406" 
d="M748 774h585q-77 -338 -125.5 -477.5t-117.5 -208.5q-50 -50 -114.5 -69t-168.5 -19h-408q-101 0 -153 16t-88 52q-41 41 -56 115t0 215.5t66 351.5q49 199 92 323t74 176.5t72 93.5q51 51 116 71t170 20h408q100 0 151.5 -16t85.5 -48q47 -47 54.5 -138.5t-23.5 -268.5
h-311q22 101 23.5 143.5t-11.5 48.5q-10 10 -29.5 13t-72.5 3h-234q-82 0 -100 -18q-12 -12 -24 -41t-40 -126t-71 -269q-42 -173 -61 -268.5t-18 -126.5t11 -43q19 -19 102 -19h244q83 0 101 21q14 12 32 62.5t54 195.5h-273z" />
    <glyph glyph-name="H" unicode="H" horiz-adv-x="1595" 
d="M1507 1180l-229 -926h182l-63 -254h-654l62 254h153l89 360h-472l-88 -360h172l-61 -254h-655l63 254h162l229 926h-182l64 254h653l-62 -254h-153l-80 -322h471l80 322h-172l61 254h656l-64 -254h-162z" />
    <glyph glyph-name="I" unicode="I" horiz-adv-x="833" 
d="M502 254h188l-61 -254h-680l63 254h170l230 926h-187l62 254h678l-62 -254h-172z" />
    <glyph glyph-name="J" unicode="J" horiz-adv-x="1290" 
d="M49 526h309q-27 -120 -31.5 -166.5t11.5 -68.5q25 -25 117 -25h34q76 0 112.5 6.5t57.5 26.5q21 21 41.5 72.5t53.5 187.5l153 621h-180l64 254h659l-64 -254h-159l-148 -596q-59 -234 -101 -326t-99 -149q-66 -66 -151.5 -88.5t-235.5 -22.5h-119q-236 0 -316 80
q-54 54 -56.5 155.5t48.5 292.5z" />
    <glyph glyph-name="K" unicode="K" horiz-adv-x="1533" 
d="M915 252l-196 362h-144l-88 -360h166l-61 -254h-649l63 256h162l229 924h-180l64 254h647l-62 -252h-149l-80 -326h135l365 328h-142l62 250h633l-64 -254h-129l-502 -449l273 -475h164l-64 -256h-657l61 252h143z" />
    <glyph glyph-name="L" unicode="L" horiz-adv-x="1286" 
d="M168 256l229 924h-180l64 254h673l-63 -254h-174l-230 -926h377l66 262h287l-127 -516h-1147l63 256h162z" />
    <glyph glyph-name="M" unicode="M" horiz-adv-x="2060" 
d="M991 0h-184q-63 0 -84 22.5t-21 90.5l5 1020h-29l-217 -879h137l-63 -254h-592l63 254h162l229 926h-182l64 254h616q66 0 86.5 -21.5t17.5 -87.5l-16 -874h25l419 907q22 45 45.5 60.5t69.5 15.5h658l-62 -254h-164l-229 -926h182l-61 -254h-617l64 254h114l218 879h-29
l-520 -1059q-22 -43 -43.5 -58.5t-61.5 -15.5z" />
    <glyph glyph-name="N" unicode="N" horiz-adv-x="1634" 
d="M1278 0h-256q-76 0 -105 23.5t-47 93.5l-200 897h-21l-186 -760h176l-64 -254h-630l63 254h162l229 926h-182l64 254h469q76 0 104.5 -23t46.5 -94l184 -836h21l174 699h-170l61 254h623l-63 -254h-158z" />
    <glyph glyph-name="O" unicode="O" horiz-adv-x="1419" 
d="M498 717q-32 -131 -50.5 -216.5t-23.5 -129.5t-3.5 -62t9.5 -26q19 -19 102 -19h234q82 0 100 21q12 12 23.5 40t39 124t70.5 268q33 131 51.5 217t24 130.5t4 62.5t-9.5 26q-10 10 -30 13t-74 3h-234q-79 0 -100 -18q-12 -12 -23.5 -40t-39 -124t-70.5 -270zM1329 684
q-49 -199 -91 -321.5t-73.5 -176.5t-72.5 -94q-51 -53 -115.5 -72.5t-171.5 -19.5h-406q-101 0 -153.5 16.5t-87.5 51.5q-41 41 -56 115t0 215.5t66 351.5q70 286 122.5 407.5t115.5 185.5q53 51 117 71t169 20h408q102 0 153 -15.5t86 -50.5q42 -42 57 -116.5t0 -215
t-67 -352.5z" />
    <glyph glyph-name="P" unicode="P" horiz-adv-x="1347" 
d="M281 1434h827q99 0 156.5 -15t91.5 -49q50 -50 56 -139t-30 -248q-39 -161 -75 -233.5t-84 -120.5q-52 -52 -115.5 -71t-159.5 -19h-391l-70 -283h195l-64 -256h-675l63 256h162l229 924h-180zM954 1182h-237l-99 -396h261q79 0 98 19q18 14 32 48.5t38 129.5
q22 87 23.5 129t-13.5 51q-16 19 -103 19z" />
    <glyph glyph-name="Q" unicode="Q" horiz-adv-x="1423" 
d="M1329 684q-49 -199 -91 -321.5t-73.5 -176.5t-72.5 -94q-79 -82 -211 -90l37 -211h-269l-28 209h-222q-101 0 -153.5 16.5t-87.5 51.5q-41 41 -56 115t0 215.5t66 351.5q70 286 122.5 407.5t115.5 185.5q53 51 117 71t169 20h408q102 0 153 -15.5t86 -50.5
q42 -42 57 -116.5t0 -215t-67 -352.5zM498 717q-32 -131 -50.5 -216.5t-23.5 -129.5t-3.5 -62t9.5 -26q19 -19 102 -19h54l-39 271h241l31 -269q30 2 47 19q12 12 23.5 40t39 124t70.5 268q33 131 51.5 217t24 130.5t4 62.5t-9.5 26q-10 10 -30 13t-74 3h-234
q-79 0 -100 -18q-12 -12 -23.5 -40t-39 -124t-70.5 -270z" />
    <glyph glyph-name="R" unicode="R" horiz-adv-x="1460" 
d="M627 821h272q76 0 102 21q33 33 64 159q20 77 21 113.5t-13 48.5q-16 19 -100 19h-256zM897 385q15 78 13.5 112.5t-19.5 53.5q-18 20 -45 27.5t-86 7.5h-193l-80 -332h175l-62 -254h-657l63 254h162l229 926h-182l64 254h851q189 0 254 -76q42 -49 48 -126.5t-27 -219.5
q-21 -85 -48.5 -141t-67.5 -90t-84 -51t-111 -30v-4q70 -18 104.5 -49.5t45 -93.5t-12.5 -160q-4 -18 -10 -47t-10 -51t-7 -39h156l-64 -256h-258q-73 0 -106 9.5t-53 31.5q-17 20 -21.5 51t4.5 101t35 192z" />
    <glyph glyph-name="S" unicode="S" horiz-adv-x="1361" 
d="M618 899l373 -82q81 -18 123 -35t70 -45q46 -46 53 -123t-25 -208q-32 -128 -66.5 -198t-84.5 -120q-88 -88 -262 -88h-467q-170 0 -236 66q-48 50 -48.5 141t40.5 260h305q-35 -165 -12 -188q16 -19 92 -19h277q42 0 61.5 4t32.5 17q27 27 51 129q14 52 14.5 76.5
t-12.5 39.5q-17 17 -59 25l-375 80q-84 19 -123.5 35.5t-69.5 46.5q-45 44 -51 120.5t25 206.5q48 206 145 306q92 88 260 88h436q166 0 228 -62q49 -49 52.5 -136t-32.5 -255h-307q17 90 18.5 126.5t-10.5 47.5q-19 19 -94 19h-240q-73 0 -92 -19q-22 -22 -49 -121
q-12 -51 -12 -75.5t12 -34.5q15 -18 59 -25z" />
    <glyph glyph-name="T" unicode="T" horiz-adv-x="1447" 
d="M809 254h195l-64 -254h-688l63 254h174l232 930h-229l-68 -273h-270l133 523h1315l-134 -523h-268l68 273h-228z" />
    <glyph glyph-name="U" unicode="U" horiz-adv-x="1570" 
d="M692 1180l-151 -613q-35 -145 -39 -203t16 -71q14 -16 52 -22.5t126 -6.5h64q87 0 122.5 6.5t57.5 28.5t42 72t54 186l154 623h-174l61 254h652l-62 -254h-160l-147 -594q-40 -162 -74.5 -259.5t-59.5 -137.5t-63 -78q-67 -67 -154.5 -89t-238.5 -22h-176q-262 0 -348 86
q-62 62 -67 171t52 349l142 574h-176l61 254h653l-61 -254h-158z" />
    <glyph glyph-name="V" unicode="V" horiz-adv-x="1517" 
d="M733 -6h-196q-78 0 -107.5 28.5t-34.5 104.5l-67 1053h-150l62 254h637l-62 -254h-158l27 -869h27l448 869h-162l62 254h637l-62 -254h-137l-606 -1084q-36 -60 -67.5 -81t-90.5 -21z" />
    <glyph glyph-name="W" unicode="W" horiz-adv-x="2183" 
d="M1403 1438q60 0 84.5 -23t21.5 -82l-47 -1016h23l360 861h-172l62 256h620l-61 -256h-135l-492 -1080q-27 -59 -62 -81.5t-96 -22.5h-231q-60 0 -84 23.5t-20 82.5l43 912h-21l-410 -912q-26 -59 -61 -82.5t-94 -23.5h-232q-61 0 -85 22.5t-21 81.5l39 1080h-152l62 256
h622l-61 -256h-162l-53 -859h22l449 1014q26 59 62 82t96 23h186z" />
    <glyph glyph-name="X" unicode="X" horiz-adv-x="1533" 
d="M113 256l495 483l-246 441h-155l63 254h641l-61 -248h-139l141 -271h20l265 271h-146l62 248h630l-63 -254h-129l-481 -467l254 -457h155l-63 -256h-658l62 250h153l-147 289h-21l-278 -289h162l-62 -250h-645l62 256h129z" />
    <glyph glyph-name="Y" unicode="Y" horiz-adv-x="1474" 
d="M575 573l-256 607h-155l63 254h633l-63 -250h-146l140 -359h12l315 359h-160l64 250h643l-63 -254h-140l-567 -607l-78 -317h193l-64 -256h-684l64 256h172z" />
    <glyph glyph-name="Z" unicode="Z" horiz-adv-x="1376" 
d="M444 250h474l69 274h285l-131 -524h-1182l57 236l1002 950h-447l-67 -264h-285l131 512h1153l-57 -236z" />
    <glyph glyph-name="bracketleft" unicode="[" horiz-adv-x="923" 
d="M403 1464h639l-57 -235h-340l-321 -1301h346l-60 -235h-649z" />
    <glyph glyph-name="backslash" unicode="\" horiz-adv-x="1081" 
d="M645 -328l-377 1782h295l375 -1782h-293z" />
    <glyph glyph-name="bracketright" unicode="]" horiz-adv-x="923" 
d="M975 1464l-443 -1771h-638l57 235h340l321 1301h-344l58 235h649z" />
    <glyph glyph-name="asciicircum" unicode="^" horiz-adv-x="1073" 
d="M858 979l-133 307l-285 -307h-166v10l420 451h123l195 -451v-10h-154z" />
    <glyph glyph-name="underscore" unicode="_" horiz-adv-x="1026" 
d="M-244 -365l58 230h1052l-55 -230h-1055z" />
    <glyph glyph-name="grave" unicode="`" 
d="M1001 1255h-221l-305 240l2 10h408l116 -239v-11z" />
    <glyph glyph-name="a" unicode="a" horiz-adv-x="1232" 
d="M1098 723l-121 -481h156l-58 -242h-457l31 129q-119 -82 -181.5 -106.5t-137.5 -24.5h-74q-79 0 -119.5 13.5t-70.5 43.5q-78 78 -29 277q43 168 113 235q53 53 132.5 74t217.5 21q135 0 270 -33l25 96q19 78 20 109t-12 40q-19 19 -74 19h-117q-62 0 -86 -21
q-23 -23 -45 -106h-291q33 126 60.5 186t62.5 95q44 44 100 61.5t136 17.5h336q135 0 198 -63q44 -43 47 -120.5t-32 -219.5zM457 219q44 0 90 14t137 56l47 188h-178q-84 0 -117.5 -7t-54.5 -28q-26 -26 -43 -94q-20 -86 4 -110q22 -19 76 -19h39z" />
    <glyph glyph-name="b" unicode="b" horiz-adv-x="1304" 
d="M731 -2h-61q-60 0 -112.5 27t-156.5 112l-32 -137h-447l58 242h143l256 1026h-162l59 243h469l-133 -530q133 95 192.5 121t139.5 26h51q78 0 123.5 -15t79.5 -48q55 -56 55.5 -167.5t-55.5 -348.5q-52 -211 -94 -306.5t-98 -152.5q-53 -53 -118.5 -72.5t-156.5 -19.5z
M784 883q-16 0 -29.5 -1t-28.5 -5t-24 -6t-28.5 -10.5t-27.5 -12t-35.5 -16.5t-39.5 -19l-129 -518q87 -51 162 -51h74q83 0 115 32q24 24 46 82.5t58 208.5q38 161 43 215.5t-18 77.5q-20 23 -91 23h-47z" />
    <glyph glyph-name="c" unicode="c" horiz-adv-x="1144" 
d="M641 0h-303q-145 0 -211 66q-62 62 -67.5 174t49.5 346q51 210 92.5 302t93.5 146q54 54 116 73t158 19h279q145 0 211 -63q47 -49 54 -129t-23 -221h-287q15 75 15.5 109.5t-11.5 45.5q-15 15 -84 15h-127q-40 0 -58 -4.5t-32 -18.5q-17 -15 -37 -72.5t-61 -224.5
q-27 -111 -38 -175.5t-9.5 -90t12.5 -35.5q15 -18 86 -18h133q60 0 82 20q25 29 61 166h289q-39 -157 -72.5 -231.5t-77.5 -116.5q-79 -82 -233 -82z" />
    <glyph glyph-name="d" unicode="d" horiz-adv-x="1294" 
d="M575 1128h62q60 0 110.5 -27t155.5 -114l72 283h-164l59 241h471l-317 -1269h162l-60 -242h-462l34 150q-137 -99 -196 -125.5t-140 -26.5h-51q-78 0 -123 15.5t-79 49.5q-55 55 -55.5 166.5t55.5 350.5q52 211 94 305.5t98 150.5q53 53 118 72.5t156 19.5zM522 244
q36 0 68.5 8.5t54.5 18t90 42.5l129 518q-89 52 -162 52h-73q-45 0 -71 -7t-44 -26q-24 -22 -46 -80.5t-58 -208.5q-39 -162 -43.5 -216.5t18.5 -78.5q22 -22 90 -22h47z" />
    <glyph glyph-name="e" unicode="e" horiz-adv-x="1159" 
d="M625 0h-287q-80 0 -128.5 16t-82.5 50q-62 62 -67.5 174t49.5 346q51 210 92.5 302t93.5 146q54 54 116 73t158 19h275q81 0 128.5 -15t80.5 -48q61 -61 61.5 -175t-61.5 -358q-6 -25 -17.5 -34t-38.5 -9h-612q-20 -84 -27 -134.5t-4.5 -71.5t13.5 -31q19 -19 90 -19h108
q58 0 80 4t39 19q21 21 47 121h283q-35 -126 -64.5 -187.5t-66.5 -97.5q-52 -52 -109.5 -71t-148.5 -19zM502 872q-13 -13 -28.5 -55t-45.5 -158h363q26 114 29.5 163.5t-11.5 58.5q-16 16 -88 16h-111q-83 0 -108 -25z" />
    <glyph glyph-name="f" unicode="f" horiz-adv-x="794" 
d="M926 1276h-133q-53 0 -72 -16q-19 -17 -39 -91l-10 -45h198l-59 -239h-197l-161 -643h168l-58 -242h-616l59 242h141l160 643h-160l60 241h162l14 58q24 102 52 161t67 93q46 40 99.5 56.5t143.5 16.5h240z" />
    <glyph glyph-name="g" unicode="g" horiz-adv-x="1292" 
d="M-2 -16h281q-6 -47 8 -64q19 -22 88 -22h155q67 0 88 18q14 14 24.5 38t27.5 91l43 178q-133 -95 -192.5 -121t-139.5 -26h-41q-138 0 -203 65q-58 59 -63 164t47 322q46 182 87 269.5t93 139.5q53 53 118 72.5t156 19.5h62q60 0 112 -27.5t156 -113.5l35 139h446
l-61 -241h-141l-213 -854q-33 -136 -59.5 -194.5t-69.5 -96.5q-77 -68 -238 -68h-389q-74 0 -116 15t-70 45q-34 37 -42 90.5t11 161.5zM420 602q-31 -133 -33 -187t19 -69q24 -24 92 -24h45q51 0 87 13t126 58l110 436q-96 54 -164 54h-73q-45 0 -71 -7t-44 -26
q-22 -21 -42 -71t-52 -177z" />
    <glyph glyph-name="h" unicode="h" horiz-adv-x="1331" 
d="M713 0l184 745q19 84 -8 111q-25 25 -76 25h-27q-45 0 -86 -13t-129 -53l-143 -575h164l-57 -240h-613l58 242h143l256 1026h-162l59 243h469l-135 -540q142 103 198.5 130t133.5 27h57q120 0 181 -61q84 -84 24 -322l-127 -503h156l-59 -242h-461z" />
    <glyph glyph-name="i" unicode="i" horiz-adv-x="743" 
d="M397 1266l66 270h321l-65 -270h-322zM571 0h-616l59 242h148l162 643h-168l59 241h475l-221 -886h162z" />
    <glyph glyph-name="j" unicode="j" horiz-adv-x="669" 
d="M383 1266l68 270h321l-67 -270h-322zM678 1126l-281 -1120q-26 -108 -52 -161t-64 -91q-48 -48 -110.5 -67t-152.5 -19q-72 0 -182 21l55 227h80q65 0 86 21q24 24 35 79l217 869h-168l60 241h477z" />
    <glyph glyph-name="k" unicode="k" horiz-adv-x="1269" 
d="M748 1511l-205 -829h98l223 215h-131l58 229h565l-60 -235h-116l-330 -316l149 -333h177l-62 -242h-338l-180 453h-111l-53 -213h129l-59 -240h-578l58 242h143l256 1026h-162l60 243h469z" />
    <glyph glyph-name="l" unicode="l" horiz-adv-x="714" 
d="M547 0h-621l60 242h149l256 1026h-168l60 243h475l-318 -1271h164z" />
    <glyph glyph-name="m" unicode="m" horiz-adv-x="1994" 
d="M731 0l184 745q22 83 -8 113q-23 23 -76 23h-24q-42 0 -82.5 -13t-126.5 -53l-145 -575h163l-57 -240h-612l59 242h141l162 643h-162l60 241h463l-37 -157q145 105 201 132t131 27h55q117 0 178 -61q43 -43 49 -121q168 123 224.5 152.5t136.5 29.5h55q117 0 178 -61
q84 -84 25 -322l-127 -503h155l-57 -242h-463l185 745q22 82 -9 113q-23 23 -75 23h-25q-42 0 -83 -13.5t-130 -54.5q-7 -43 -14 -68l-127 -503h155l-57 -242h-463z" />
    <glyph glyph-name="n" unicode="n" horiz-adv-x="1355" 
d="M559 0h-612l59 242h141l162 643h-162l60 241h463l-37 -157q145 105 201 132t133 27h57q119 0 180 -61q84 -84 25 -322l-127 -503h155l-59 -242h-461l185 745q19 85 -9 113q-27 23 -75 23h-27q-45 0 -86 -13t-129 -53l-143 -575h163z" />
    <glyph glyph-name="o" unicode="o" horiz-adv-x="1204" 
d="M1098 541q-51 -210 -93 -302.5t-94 -144.5q-54 -54 -116.5 -74t-157.5 -20h-299q-80 0 -128.5 16t-82.5 50q-62 62 -67.5 174t49.5 346q51 210 92.5 302t93.5 146q54 54 116 73t158 19h299q81 0 129 -15.5t82 -49.5q62 -62 68 -173.5t-49 -346.5zM408 563
q-27 -112 -38 -176t-9.5 -90t12.5 -37q16 -16 86 -16h151q40 0 58.5 4.5t31.5 17.5q18 18 38.5 75t60.5 222q27 113 38 177t9.5 89.5t-12.5 36.5q-17 17 -86 17h-152q-40 0 -58 -4.5t-32 -18.5q-17 -15 -37 -72.5t-61 -224.5z" />
    <glyph glyph-name="p" unicode="p" horiz-adv-x="1306" 
d="M735 8h-63q-59 0 -110 26.5t-156 112.5l-60 -235h168l-57 -240h-617l60 242h141l242 969h-162l61 243h463l-35 -147q136 96 195.5 122.5t140.5 26.5h51q78 0 123 -15t78 -48q56 -56 57 -167t-55 -345q-50 -204 -91 -301.5t-91 -147.5q-51 -51 -117 -73.5t-166 -22.5z
M784 883q-12 0 -22.5 -0.5t-22.5 -3t-19.5 -3.5t-21.5 -6.5t-19.5 -7.5t-23 -10t-23.5 -11l-29 -14.5t-32 -15.5l-127 -506q87 -51 162 -51h74q81 0 117 33q22 24 43.5 80.5t58.5 203.5q38 155 42.5 212t-17.5 77q-23 23 -93 23h-47z" />
    <glyph glyph-name="q" unicode="q" horiz-adv-x="1300" 
d="M637 -90l61 248q-137 -97 -195.5 -123.5t-137.5 -26.5h-52q-78 0 -123 16t-79 50q-55 55 -55.5 164.5t55.5 345.5q51 208 92.5 302t97.5 150q53 53 118 72.5t156 19.5h62q60 0 112 -27.5t156 -113.5l35 139h453l-62 -241h-147l-240 -973h156l-60 -240h-616l59 238h154z
M524 254q50 0 84.5 12t112.5 51l18 9l127 503q-96 54 -164 54h-73q-45 0 -71 -7t-44 -26q-24 -22 -46 -80t-56 -205q-39 -158 -43.5 -211.5t18.5 -77.5q22 -22 90 -22h47z" />
    <glyph glyph-name="r" unicode="r" horiz-adv-x="929" 
d="M670 1126l-39 -159q110 92 169.5 126.5t121.5 34.5h100l-76 -305h-106q-125 0 -252 -47l-135 -534h159l-57 -242h-608l59 242h141l162 643h-162l60 241h463z" />
    <glyph glyph-name="s" unicode="s" horiz-adv-x="1095" 
d="M43 358h266q-10 -49 -11.5 -70.5t9.5 -41.5q23 -19 72 -19h194q51 0 68 17q18 18 35 84q15 58 -2 75q-12 12 -49 21l-269 61q-119 26 -166 70q-70 71 -24 258q40 163 125 248q65 65 196 65h365q123 0 176 -53q36 -36 42 -103t-21 -194h-271q6 32 8 48.5t0.5 33
t-10.5 25.5q-16 16 -69 16h-164q-54 0 -68 -16q-16 -13 -33 -76q-14 -61 4 -76q9 -12 50 -20l270 -60q67 -13 103 -28.5t61 -40.5q68 -68 24 -260q-42 -171 -127 -256q-63 -66 -194 -66h-400q-124 0 -178 57q-70 67 -12 301z" />
    <glyph glyph-name="t" unicode="t" horiz-adv-x="847" 
d="M694 244l-51 -199l-115 -29q-110 -24 -190 -24q-118 0 -180 59q-69 69 -23 258l144 576h-160l59 241h162l70 281h307l-70 -281h256l-59 -241h-258l-133 -533q-17 -71 2 -90q18 -18 86 -18h153z" />
    <glyph glyph-name="u" unicode="u" horiz-adv-x="1320" 
d="M1272 1126l-221 -884h161l-59 -242h-463l37 156q-144 -104 -200.5 -131t-133.5 -27h-57q-117 0 -180 63q-84 84 -25 320l127 504h-156l60 241h461l-185 -745q-19 -84 8 -111q22 -22 76 -22h27q46 0 87 12.5t126 52.5l143 574h-164l60 239h471z" />
    <glyph glyph-name="v" unicode="v" horiz-adv-x="1312" 
d="M242 885h-138l60 241h561l-59 -241h-121l39 -578h22l328 578h-141l59 241h561l-59 -241h-115l-502 -815q-27 -44 -52.5 -59t-70.5 -15h-182q-50 0 -72 18.5t-28 67.5z" />
    <glyph glyph-name="w" unicode="w" horiz-adv-x="1851" 
d="M168 1126h522l-61 -243h-111l-26 -572h20l354 744q21 44 49 59.5t76 15.5h115q63 0 89 -20t26 -76l-4 -725h20l246 574h-129l61 243h527l-62 -243h-108l-394 -811q-21 -45 -48 -60.5t-75 -15.5h-172q-66 0 -92.5 22.5t-25.5 81.5l8 621h-19l-309 -649q-20 -43 -48 -59.5
t-75 -16.5h-168q-68 0 -96.5 21.5t-28.5 84.5l9 781h-132z" />
    <glyph glyph-name="x" unicode="x" horiz-adv-x="1286" 
d="M508 236l-57 -236h-531l60 244h102l371 342l-205 299h-119l61 241h535l-55 -233h-119l129 -203h10l207 203h-115l56 233h524l-62 -241h-102l-362 -328l213 -313h118l-59 -244h-547l57 236h127l-135 213h-10l-215 -213h123z" />
    <glyph glyph-name="y" unicode="y" horiz-adv-x="1329" 
d="M238 885h-134l62 241h563l-61 -241h-129l65 -551h23l313 551h-141l61 241h567l-61 -241h-115l-657 -1047q-60 -95 -127.5 -132.5t-181.5 -37.5q-96 0 -265 15l58 235h205q25 0 40.5 9.5t30.5 35.5l27 45z" />
    <glyph glyph-name="z" unicode="z" horiz-adv-x="1183" 
d="M391 227h365l53 213h260l-111 -440h-1019l51 213l803 688h-338l-52 -205h-260l109 430h987l-51 -211z" />
    <glyph glyph-name="braceleft" unicode="{" horiz-adv-x="925" 
d="M434 1118q15 64 86.5 129.5t294.5 222.5h217q-168 -168 -222 -232t-62 -101q-12 -49 -29 -177t-25 -163q-25 -102 -83.5 -148t-219.5 -80l-2 -4q109 -28 154 -70t45 -104q0 -61 -62.5 -216.5t-62.5 -197.5q0 -96 115 -321h-179q-129 130 -180 204.5t-51 133.5
q0 49 30 132.5t60.5 159t30.5 105.5q0 28 -19 45t-63 27q-45 10 -152 22l41 158q102 10 176 29q51 13 77 33.5t36 64.5q7 28 21 159.5t28 188.5z" />
    <glyph glyph-name="bar" unicode="|" horiz-adv-x="671" 
d="M256 -328h-283l482 1925h280z" />
    <glyph glyph-name="braceright" unicode="}" horiz-adv-x="925" 
d="M543 358q-5 -25 -20 -157t-29 -191q-15 -66 -86 -132t-293 -222h-219q166 165 221 230.5t65 103.5q12 48 28 174.5t26 165.5q17 70 45 109t87 67t171 53v4q-107 27 -152 68.5t-45 103.5q0 50 31 134.5t62.5 164t31.5 115.5q0 91 -115 321h176q131 -133 182.5 -205.5
t51.5 -131.5q0 -48 -30 -132t-60.5 -160t-30.5 -106q0 -27 18.5 -43t63.5 -26q53 -12 149 -23l-38 -158q-109 -11 -177 -28q-50 -13 -76.5 -34t-37.5 -65z" />
    <glyph glyph-name="asciitilde" unicode="~" horiz-adv-x="888" 
d="M129 522l29 119q18 81 55 111q36 28 88 28h25q65 0 127 -28l163 -66l78 92h113l-29 -119q-18 -83 -53 -108q-39 -31 -88 -31h-27q-56 0 -125 29l-163 65l-80 -92h-113z" />
    <glyph glyph-name="uni00A0" unicode="&#xa0;" horiz-adv-x="557" 
 />
    <glyph glyph-name="exclamdown" unicode="&#xa1;" horiz-adv-x="632" 
d="M346 963h154l-107 -881l-22 -82h-357l19 80zM629 1108h-318l80 326h318z" />
    <glyph glyph-name="cent" unicode="&#xa2;" horiz-adv-x="1163" 
d="M588 -25h-242l47 199h-14q-147 0 -211 64q-62 62 -69 169.5t46 337.5q51 205 91.5 293.5t93.5 141.5q54 54 116.5 74t157.5 20h64l47 184h241l-47 -184h11q144 0 208 -64q45 -47 51 -126t-22 -216h-250q12 76 13 106.5t-11 43.5q-14 16 -84 16h-4l-153 -620h30
q35 0 52 3.5t30 16.5q26 26 60 160h254q-38 -151 -71 -224.5t-75 -115.5q-83 -80 -235 -80h-78zM389 430q16 -16 86 -16h6l154 620h-27q-40 0 -58.5 -4.5t-31.5 -17.5q-17 -17 -36 -71.5t-60 -217.5q-27 -108 -37.5 -170.5t-8.5 -87t13 -35.5z" />
    <glyph glyph-name="sterling" unicode="&#xa3;" horiz-adv-x="1398" 
d="M682 967l-37 -146h303l-57 -233h-305l-84 -336h420l65 258h287l-127 -510h-1194l61 254h166l84 332h-168l58 237h170l38 154q37 152 74.5 230t87.5 128q56 56 127 78.5t174 22.5h269q103 0 159.5 -15.5t89.5 -50.5q59 -57 62.5 -157.5t-41.5 -286.5h-305q28 118 31 170
t-15 65q-21 21 -88 21h-131q-73 0 -100 -27q-37 -37 -74 -188z" />
    <glyph glyph-name="yen" unicode="&#xa5;" horiz-adv-x="1456" 
d="M1290 725l-61 -250h-369l-53 -219h192l-63 -256h-680l63 256h173l53 219h-369l62 250h278l-192 455h-154l61 254h631l-63 -250h-146l131 -353h13l305 353h-162l64 250h638l-61 -254h-139l-430 -455h278z" />
    <glyph glyph-name="section" unicode="&#xa7;" horiz-adv-x="1388" 
d="M207 332h274q-13 -82 6 -101q14 -14 72 -14h94q59 0 78 19q16 16 29 63q12 47 -4 63q-11 14 -58 23l-319 68q-91 19 -133 35t-70 44q-79 82 -33 254q34 123 90 179q55 55 173 65q-3 57 16 127q38 140 121 213q42 36 97 51t144 15h240q149 0 199 -50q35 -35 40 -97
t-18 -181h-274q13 79 -4 96q-15 15 -70 15h-92q-59 0 -78 -19q-14 -14 -27 -61q-15 -49 0 -64q10 -10 60 -20l323 -70q90 -18 133 -35.5t70 -44.5q80 -83 33 -258q-30 -116 -88 -178q-56 -56 -172 -66q3 -44 -17 -124q-39 -142 -120 -213q-43 -37 -98.5 -52.5t-143.5 -15.5
h-248q-150 0 -201 51q-37 38 -42 100.5t18 182.5zM512 676l418 -88q70 -17 98 8q18 22 27 51q13 59 -8 80q-20 20 -95 35l-417 90q-74 15 -99 -10q-14 -14 -26 -51q-15 -57 10 -80q17 -20 92 -35z" />
    <glyph glyph-name="dieresis" unicode="&#xa8;" 
d="M303 1260l68 266h309l-68 -266h-309zM743 1260l68 266h309l-67 -266h-310z" />
    <glyph glyph-name="copyright" unicode="&#xa9;" horiz-adv-x="1615" 
d="M963 625h176q-30 -112 -52.5 -164t-52.5 -82q-28 -28 -64 -37.5t-93 -9.5h-220q-56 0 -82.5 8t-46.5 25q-32 26 -31.5 112.5t40.5 249.5q41 167 72 238.5t67 105.5q28 29 61.5 39t93.5 10h218q97 0 135 -33q28 -29 28.5 -85.5t-24.5 -165.5h-174q25 116 14 129
q-10 10 -49 10h-127q-43 0 -55 -12q-18 -18 -72 -236q-24 -96 -34.5 -148t-10 -68t5.5 -22q10 -10 49 -10h129q41 0 51 10q13 13 48 136zM1489 713q-33 -138 -68.5 -242.5t-70.5 -169.5t-61 -100.5t-58 -67.5q-69 -70 -158.5 -101.5t-241.5 -31.5h-249q-153 0 -224.5 23.5
t-121.5 72.5q-148 148 -31 625q33 139 69 244t71 169.5t60.5 100t55.5 65.5q71 71 160.5 102.5t240.5 31.5h250q154 0 224.5 -23t121.5 -74q148 -148 31 -624zM311 717q-40 -165 -50 -278.5t4.5 -175.5t51.5 -99q33 -33 92.5 -51.5t186.5 -18.5h246q122 0 191 22t124 77
q57 57 111.5 171t113.5 353q40 165 50 279t-4.5 176t-51.5 98q-34 34 -92 51.5t-186 17.5h-246q-122 0 -187.5 -19.5t-119.5 -70.5q-131 -114 -234 -532z" />
    <glyph glyph-name="ordfeminine" unicode="&#xaa;" horiz-adv-x="1105" 
d="M666 645l18 84q-77 -54 -117.5 -70t-89.5 -16h-59q-61 0 -92.5 9t-55.5 32q-53 53 -18 195q27 118 82 170q35 35 93 50t157 15q89 0 190 -24l14 59q13 53 15 74.5t-6 29.5q-13 13 -58 13h-92q-39 0 -51 -15q-12 -12 -29 -73h-209q25 93 44 135t44 67q31 31 70 42.5
t98 11.5h234q63 0 94.5 -9t54.5 -32q31 -31 32.5 -84.5t-25.5 -161.5l-80 -326h100l-41 -176h-317zM106 324l44 172h794l-43 -172h-795zM551 803q63 0 164 49l30 123h-133q-58 0 -79.5 -3.5t-34.5 -15.5q-18 -18 -29 -67q-13 -55 4 -72q11 -14 53 -14h25z" />
    <glyph glyph-name="guillemotleft" unicode="&#xab;" horiz-adv-x="1306" 
d="M825 186l-213 320l37 153l338 281h346l-440 -381l242 -373h-310zM293 186l-213 320l37 153l338 281h336l-435 -375l246 -379h-309z" />
    <glyph glyph-name="registered" unicode="&#xae;" horiz-adv-x="931" 
d="M954 1030q-58 -243 -147 -332q-40 -40 -90 -57.5t-137 -17.5h-146q-85 0 -127 13t-71 42q-88 88 -23 356q35 148 71 219t76 111t91 58t137 18h147q84 0 126.5 -13t70.5 -41q87 -87 22 -356zM287 1032q-31 -143 -28.5 -208t32.5 -97q37 -37 151 -37h146q68 0 105 11.5
t67 43.5q68 63 121 287q60 239 -4 303q-35 39 -150 39h-145q-67 0 -104 -11.5t-68 -41.5q-67 -67 -123 -289zM541 817h-203l20 80h50l69 283h-53l20 80h258q52 0 76 -21q27 -27 6 -109q-12 -50 -32 -70t-62 -28q32 -9 42 -28.5t1 -59.5q-8 -40 -8 -45h47l-20 -82h-84
q-31 0 -45 14q-15 15 2 101q9 44 -2 55q-10 10 -41 10h-47l-25 -100h49zM580 1180l-27 -107h72q26 0 32 6q10 10 19 47q8 42 0 50q-4 4 -29 4h-67z" />
    <glyph glyph-name="macron" unicode="&#xaf;" 
d="M338 1262l53 219h694l-53 -219h-694z" />
    <glyph glyph-name="degree" unicode="&#xb0;" horiz-adv-x="874" 
d="M438 1075q-34 -138 -10 -162q12 -12 66 -12h69q55 0 72 17q26 26 59 157q34 139 11 162q-11 14 -66 14h-70q-55 0 -71 -18q-26 -23 -60 -158zM891 1061q-27 -120 -54.5 -177.5t-68.5 -99.5q-67 -67 -195 -67h-143q-66 0 -102 12.5t-62 38.5q-43 41 -49 110.5t25 211.5
q27 120 55 178t68 98q68 68 194 68h143q66 0 102.5 -12.5t61.5 -37.5q43 -43 49.5 -111.5t-24.5 -211.5z" />
    <glyph glyph-name="plusminus" unicode="&#xb1;" horiz-adv-x="1058" 
d="M848 1346l-74 -299h307l-59 -242h-309l-74 -299h-246l74 299h-307l59 242h309l74 299h246zM-6 143l61 242h863l-62 -242h-862z" />
    <glyph glyph-name="acute" unicode="&#xb4;" 
d="M412 1255v11l231 239h422l-2 -10l-406 -240h-245z" />
    <glyph glyph-name="paragraph" unicode="&#xb6;" horiz-adv-x="1259" 
d="M690 539h-233q-101 0 -161 17t-93 56q-43 50 -49 134t30 243q37 162 73.5 235.5t84.5 121.5q51 51 114.5 69.5t161.5 18.5h783l-64 -256h-168l-229 -920h176l-63 -258h-676l63 258h181z" />
    <glyph glyph-name="periodcentered" unicode="&#xb7;" horiz-adv-x="542" 
d="M176 821h318l-80 -325h-320z" />
    <glyph glyph-name="cedilla" unicode="&#xb8;" 
d="M295 -199h-84l37 144h141q62 0 93 -7t50 -26q43 -43 15 -168q-16 -63 -30.5 -91.5t-35.5 -49.5q-41 -41 -151 -41h-221l-105 104l12 47h273q30 0 43 8q9 7 16 35q6 23 -2 35q-8 10 -51 10z" />
    <glyph glyph-name="ordmasculine" unicode="&#xba;" horiz-adv-x="1071" 
d="M1016 1034q-34 -143 -65 -209.5t-72 -107.5q-40 -41 -84.5 -56.5t-114.5 -15.5h-207q-66 0 -101 10.5t-61 36.5q-44 44 -47.5 126.5t31.5 228.5q34 141 65 207.5t72 109.5q40 40 84.5 55t114.5 15h207q65 0 100 -10.5t61 -34.5q44 -44 48 -126.5t-31 -228.5zM115 322
l43 174h727l-43 -174h-727zM518 1038q-45 -173 -20 -198q15 -15 67 -15h92q50 0 66 19q26 22 70 196q45 176 20 201q-14 14 -68 14h-92q-50 0 -65 -18q-26 -22 -70 -199z" />
    <glyph glyph-name="guillemotright" unicode="&#xbb;" horiz-adv-x="1306" 
d="M-25 186l441 381l-242 373h311l211 -317l-34 -156l-338 -281h-349zM520 186l432 375l-245 379h311l211 -317l-35 -156l-338 -281h-336z" />
    <glyph glyph-name="questiondown" unicode="&#xbf;" horiz-adv-x="1214" 
d="M969 1108h-318l80 326h318zM1090 471q-44 -179 -79.5 -260t-82.5 -129q-47 -47 -113.5 -64.5t-165.5 -17.5h-319q-165 0 -228 63q-50 50 -55.5 135t29.5 210q27 106 52.5 157.5t70.5 96.5q15 15 35 29t35 23t49 23t47.5 19.5t61 23t62.5 23.5q80 30 113 63q25 29 47 97
h244q0 -2 -5.5 -24.5t-6.5 -25.5q-26 -105 -45.5 -152t-49.5 -77q-32 -32 -78.5 -55t-129.5 -54q-115 -44 -140 -67q-15 -18 -24.5 -40.5t-22.5 -76.5q-24 -95 -2 -117q16 -16 94 -16h133q76 0 99 23t67 190h308z" />
    <glyph glyph-name="Agrave" unicode="&#xc0;" horiz-adv-x="1527" 
d="M963 252l-7 192h-430l-102 -192h168l-62 -252h-632l61 256h133l621 1081q34 61 66 82t91 21h199q79 0 107.5 -27.5t33.5 -103.5l80 -1053h148l-64 -256h-633l62 252h160zM1169 1552h-221l-305 240l2 10h408l116 -239v-11zM928 1153h-27l-250 -469h297z" />
    <glyph glyph-name="Aacute" unicode="&#xc1;" horiz-adv-x="1527" 
d="M963 252l-7 192h-430l-102 -192h168l-62 -252h-632l61 256h133l621 1081q34 61 66 82t91 21h199q79 0 107.5 -27.5t33.5 -103.5l80 -1053h148l-64 -256h-633l62 252h160zM844 1552v11l231 239h422l-2 -10l-405 -240h-246zM928 1153h-27l-250 -469h297z" />
    <glyph glyph-name="Acircumflex" unicode="&#xc2;" horiz-adv-x="1527" 
d="M963 252l-7 192h-430l-102 -192h168l-62 -252h-632l61 256h133l621 1081q34 61 66 82t91 21h199q79 0 107.5 -27.5t33.5 -103.5l80 -1053h148l-64 -256h-633l62 252h160zM1145 1552l-103 103l-159 -103h-262v11l309 249h289l184 -249v-11h-258zM928 1153h-27l-250 -469
h297z" />
    <glyph glyph-name="Atilde" unicode="&#xc3;" horiz-adv-x="1527" 
d="M963 252l-7 192h-430l-102 -192h168l-62 -252h-632l61 256h133l621 1081q34 61 66 82t91 21h199q79 0 107.5 -27.5t33.5 -103.5l80 -1053h148l-64 -256h-633l62 252h160zM655 1559l31 127q22 85 66 120q37 33 100 33h35q62 0 139 -29l172 -61l72 88h166l-33 -129
q-20 -86 -64 -121q-39 -31 -100 -31h-35q-68 0 -139 29l-170 62l-74 -88h-166zM928 1153h-27l-250 -469h297z" />
    <glyph glyph-name="Adieresis" unicode="&#xc4;" horiz-adv-x="1527" 
d="M963 252l-7 192h-430l-102 -192h168l-62 -252h-632l61 256h133l621 1081q34 61 66 82t91 21h199q79 0 107.5 -27.5t33.5 -103.5l80 -1053h148l-64 -256h-633l62 252h160zM637 1556l68 267h309l-68 -267h-309zM1077 1556l68 267h309l-68 -267h-309zM928 1153h-27
l-250 -469h297z" />
    <glyph glyph-name="Aring" unicode="&#xc5;" horiz-adv-x="1527" 
d="M1305 1520q-13 -59 -30 -92t-46 -64q-13 -13 -33 -25q11 -22 18 -82l76 -1001h148l-64 -256h-633l62 252h160l-7 192h-430l-102 -192h168l-62 -252h-632l61 256h133l590 1030q28 48 51 68q-55 58 -28 180q13 59 29.5 92.5t47.5 65.5q56 53 162 53h184q103 0 148 -45
q56 -56 29 -180zM901 1153l-250 -469h297l-20 469h-27zM948 1456h90q45 0 62 17q15 15 22 53q10 45 -6 61q-10 10 -55 10h-90q-46 0 -60 -14t-24 -55q-8 -46 6 -60q12 -12 55 -12z" />
    <glyph glyph-name="AE" unicode="&#xc6;" horiz-adv-x="2109" 
d="M602 1180l64 254h1562l-121 -476h-284l55 224h-412l-82 -326h332l-59 -240h-332l-90 -364h424l61 254h287l-127 -506h-1190l62 254h163l48 192h-414l-154 -196h148l-62 -250h-612l63 254h138l733 926h-201zM1149 1192h-19l-397 -508h289z" />
    <glyph glyph-name="Ccedilla" unicode="&#xc7;" horiz-adv-x="1378" 
d="M946 535h320q-53 -210 -91.5 -302t-87.5 -141q-53 -53 -117 -72.5t-171 -19.5h-400q-101 0 -154 17t-89 53q-40 40 -55 113.5t0.5 215.5t66.5 351q49 199 91.5 322.5t74 176.5t74.5 97q50 50 114 69t170 19h402q102 0 153.5 -16t87.5 -52q49 -49 55 -150t-34 -301h-316
q20 86 27 138t5 71.5t-11 28.5q-16 16 -103 16h-227q-79 0 -100 -18q-12 -12 -23.5 -40t-39 -124t-70.5 -270q-42 -172 -61 -266.5t-18 -125.5t11 -42q19 -19 102 -19h228q82 0 100 21q14 12 31.5 61t54.5 189zM496 -199h-84l37 144h141q62 0 93 -7t50 -26q43 -43 15 -168
q-16 -63 -30.5 -91.5t-35.5 -49.5q-41 -41 -152 -41h-221l-104 104l12 47h272q30 0 43 8q10 8 17 35q6 23 -2 35q-7 10 -51 10z" />
    <glyph glyph-name="Egrave" unicode="&#xc8;" horiz-adv-x="1357" 
d="M395 1180h-184l63 254h1203l-121 -476h-285l55 224h-411l-82 -326h332l-60 -240h-332l-90 -364h424l62 254h286l-127 -506h-1185l63 254h160zM1083 1552h-221l-305 240l2 10h408l116 -239v-11z" />
    <glyph glyph-name="Eacute" unicode="&#xc9;" horiz-adv-x="1357" 
d="M758 1552v11l231 239h422l-2 -10l-405 -240h-246zM395 1180h-184l63 254h1203l-121 -476h-285l55 224h-411l-82 -326h332l-60 -240h-332l-90 -364h424l62 254h286l-127 -506h-1185l63 254h160z" />
    <glyph glyph-name="Ecircumflex" unicode="&#xca;" horiz-adv-x="1357" 
d="M395 1180h-184l63 254h1203l-121 -476h-285l55 224h-411l-82 -326h332l-60 -240h-332l-90 -364h424l62 254h286l-127 -506h-1185l63 254h160zM1057 1552l-103 103l-159 -103h-263v11l310 249h288l185 -249v-11h-258z" />
    <glyph glyph-name="Edieresis" unicode="&#xcb;" horiz-adv-x="1357" 
d="M551 1556l67 267h310l-68 -267h-309zM991 1556l68 267h309l-68 -267h-309zM395 1180h-184l63 254h1203l-121 -476h-285l55 224h-411l-82 -326h332l-60 -240h-332l-90 -364h424l62 254h286l-127 -506h-1185l63 254h160z" />
    <glyph glyph-name="Igrave" unicode="&#xcc;" horiz-adv-x="833" 
d="M502 254h188l-61 -254h-680l63 254h170l230 926h-187l62 254h678l-62 -254h-172zM823 1552h-221l-305 240l2 10h408l116 -239v-11z" />
    <glyph glyph-name="Iacute" unicode="&#xcd;" horiz-adv-x="833" 
d="M502 254h188l-61 -254h-680l63 254h170l230 926h-187l62 254h678l-62 -254h-172zM498 1552v11l231 239h422l-2 -10l-406 -240h-245z" />
    <glyph glyph-name="Icircumflex" unicode="&#xce;" horiz-adv-x="833" 
d="M502 254h188l-61 -254h-680l63 254h170l230 926h-187l62 254h678l-62 -254h-172zM797 1552l-103 103l-159 -103h-263v11l310 249h288l185 -249v-11h-258z" />
    <glyph glyph-name="Idieresis" unicode="&#xcf;" horiz-adv-x="833" 
d="M502 254h188l-61 -254h-680l63 254h170l230 926h-187l62 254h678l-62 -254h-172zM291 1556l67 267h310l-68 -267h-309zM731 1556l68 267h309l-68 -267h-309z" />
    <glyph glyph-name="Eth" unicode="&#xd0;" horiz-adv-x="1472" 
d="M279 1434h745q127 0 206 -22t130 -73q80 -80 84 -239t-62 -418q-56 -229 -114.5 -353t-128.5 -194q-78 -78 -175 -106.5t-247 -28.5h-774l63 254h162l88 360h-168l62 244h167l80 322h-180zM717 1180l-80 -322h237l-61 -244h-238l-88 -360h250q69 0 106.5 8.5t63.5 34.5
q31 31 61.5 115.5t84.5 304.5q56 225 64.5 315.5t-21.5 116.5q-17 19 -46.5 25t-99.5 6h-233z" />
    <glyph glyph-name="Ntilde" unicode="&#xd1;" horiz-adv-x="1634" 
d="M1278 0h-256q-76 0 -105 23.5t-47 93.5l-200 897h-21l-186 -760h176l-64 -254h-630l63 254h162l229 926h-182l64 254h469q76 0 104.5 -23t46.5 -94l184 -836h21l174 699h-170l61 254h623l-63 -254h-158zM723 1559l31 127q23 86 65 120q37 33 101 33h34q63 0 140 -29
l172 -61l71 88h166l-33 -129q-20 -87 -63 -121q-39 -31 -100 -31h-35q-68 0 -139 29l-170 62l-74 -88h-166z" />
    <glyph glyph-name="Ograve" unicode="&#xd2;" horiz-adv-x="1419" 
d="M498 717q-32 -131 -50.5 -216.5t-23.5 -129.5t-3.5 -62t9.5 -26q19 -19 102 -19h234q82 0 100 21q12 12 23.5 40t39 124t70.5 268q33 131 51.5 217t24 130.5t4 62.5t-9.5 26q-10 10 -30 13t-74 3h-234q-79 0 -100 -18q-12 -12 -23.5 -40t-39 -124t-70.5 -270zM1329 684
q-49 -199 -91 -321.5t-73.5 -176.5t-72.5 -94q-51 -53 -115.5 -72.5t-171.5 -19.5h-406q-101 0 -153.5 16.5t-87.5 51.5q-41 41 -56 115t0 215.5t66 351.5q70 286 122.5 407.5t115.5 185.5q53 51 117 71t169 20h408q102 0 153 -15.5t86 -50.5q42 -42 57 -116.5t0 -215
t-67 -352.5zM1108 1552h-221l-305 240l2 10h407l117 -239v-11z" />
    <glyph glyph-name="Oacute" unicode="&#xd3;" horiz-adv-x="1419" 
d="M784 1552v11l232 239h422l-2 -10l-406 -240h-246zM498 717q-32 -131 -50.5 -216.5t-23.5 -129.5t-3.5 -62t9.5 -26q19 -19 102 -19h234q82 0 100 21q12 12 23.5 40t39 124t70.5 268q33 131 51.5 217t24 130.5t4 62.5t-9.5 26q-10 10 -30 13t-74 3h-234q-79 0 -100 -18
q-12 -12 -23.5 -40t-39 -124t-70.5 -270zM1329 684q-49 -199 -91 -321.5t-73.5 -176.5t-72.5 -94q-51 -53 -115.5 -72.5t-171.5 -19.5h-406q-101 0 -153.5 16.5t-87.5 51.5q-41 41 -56 115t0 215.5t66 351.5q70 286 122.5 407.5t115.5 185.5q53 51 117 71t169 20h408
q102 0 153 -15.5t86 -50.5q42 -42 57 -116.5t0 -215t-67 -352.5z" />
    <glyph glyph-name="Ocircumflex" unicode="&#xd4;" horiz-adv-x="1419" 
d="M1329 684q-49 -199 -91 -321.5t-73.5 -176.5t-72.5 -94q-51 -53 -115.5 -72.5t-171.5 -19.5h-406q-101 0 -153.5 16.5t-87.5 51.5q-41 41 -56 115t0 215.5t66 351.5q70 286 122.5 407.5t115.5 185.5q53 51 117 71t169 20h408q102 0 153 -15.5t86 -50.5q42 -42 57 -116.5
t0 -215t-67 -352.5zM498 717q-32 -131 -50.5 -216.5t-23.5 -129.5t-3.5 -62t9.5 -26q19 -19 102 -19h234q82 0 100 21q12 12 23.5 40t39 124t70.5 268q33 131 51.5 217t24 130.5t4 62.5t-9.5 26q-10 10 -30 13t-74 3h-234q-79 0 -100 -18q-12 -12 -23.5 -40t-39 -124
t-70.5 -270zM1083 1552l-102 103l-160 -103h-262v11l309 249h289l184 -249v-11h-258z" />
    <glyph glyph-name="Otilde" unicode="&#xd5;" horiz-adv-x="1419" 
d="M498 717q-32 -131 -50.5 -216.5t-23.5 -129.5t-3.5 -62t9.5 -26q19 -19 102 -19h234q82 0 100 21q12 12 23.5 40t39 124t70.5 268q33 131 51.5 217t24 130.5t4 62.5t-9.5 26q-10 10 -30 13t-74 3h-234q-79 0 -100 -18q-12 -12 -23.5 -40t-39 -124t-70.5 -270zM1329 684
q-49 -199 -91 -321.5t-73.5 -176.5t-72.5 -94q-51 -53 -115.5 -72.5t-171.5 -19.5h-406q-101 0 -153.5 16.5t-87.5 51.5q-41 41 -56 115t0 215.5t66 351.5q70 286 122.5 407.5t115.5 185.5q53 51 117 71t169 20h408q102 0 153 -15.5t86 -50.5q42 -42 57 -116.5t0 -215
t-67 -352.5zM594 1559l31 127q23 86 65 120q37 33 101 33h34q63 0 140 -29l172 -61l71 88h166l-33 -129q-20 -87 -63 -121q-39 -31 -100 -31h-35q-68 0 -139 29l-170 62l-74 -88h-166z" />
    <glyph glyph-name="Odieresis" unicode="&#xd6;" horiz-adv-x="1419" 
d="M575 1556l68 267h309l-67 -267h-310zM1016 1556l67 267h310l-68 -267h-309zM498 717q-32 -131 -50.5 -216.5t-23.5 -129.5t-3.5 -62t9.5 -26q19 -19 102 -19h234q82 0 100 21q12 12 23.5 40t39 124t70.5 268q33 131 51.5 217t24 130.5t4 62.5t-9.5 26q-10 10 -30 13
t-74 3h-234q-79 0 -100 -18q-12 -12 -23.5 -40t-39 -124t-70.5 -270zM1329 684q-49 -199 -91 -321.5t-73.5 -176.5t-72.5 -94q-51 -53 -115.5 -72.5t-171.5 -19.5h-406q-101 0 -153.5 16.5t-87.5 51.5q-41 41 -56 115t0 215.5t66 351.5q70 286 122.5 407.5t115.5 185.5
q53 51 117 71t169 20h408q102 0 153 -15.5t86 -50.5q42 -42 57 -116.5t0 -215t-67 -352.5z" />
    <glyph glyph-name="multiply" unicode="&#xd7;" horiz-adv-x="1058" 
d="M418 1163l190 -250l293 238l139 -184l-292 -236l186 -250l-199 -155l-188 247l-295 -235l-139 182l297 238l-191 248z" />
    <glyph glyph-name="Oslash" unicode="&#xd8;" horiz-adv-x="1419" 
d="M1329 684q-49 -199 -91 -321.5t-73.5 -176.5t-72.5 -94q-51 -53 -115.5 -72.5t-171.5 -19.5h-406h-39l-77 -109h-265l132 183q-38 43 -51 118t2.5 214.5t66.5 343.5q70 286 122.5 407.5t115.5 185.5q53 51 117 71t169 20h408h37l77 108h265l-133 -182q39 -43 52 -118.5
t-3 -214t-66 -343.5zM999 717q46 184 66 287l-524 -740h225q82 0 100 21q12 12 23.5 40t39 124t70.5 268zM498 717q-41 -160 -64 -281l518 733h-221q-79 0 -100 -18q-12 -12 -23.5 -40t-39 -124t-70.5 -270z" />
    <glyph glyph-name="Ugrave" unicode="&#xd9;" horiz-adv-x="1570" 
d="M692 1180l-151 -613q-35 -145 -39 -203t16 -71q14 -16 52 -22.5t126 -6.5h64q87 0 122.5 6.5t57.5 28.5t42 72t54 186l154 623h-174l61 254h652l-62 -254h-160l-147 -594q-40 -162 -74.5 -259.5t-59.5 -137.5t-63 -78q-67 -67 -154.5 -89t-238.5 -22h-176q-262 0 -348 86
q-62 62 -67 171t52 349l142 574h-176l61 254h653l-61 -254h-158zM1186 1552h-221l-306 240l3 10h407l117 -239v-11z" />
    <glyph glyph-name="Uacute" unicode="&#xda;" horiz-adv-x="1570" 
d="M862 1552v11l232 239h422l-3 -10l-405 -240h-246zM692 1180l-151 -613q-35 -145 -39 -203t16 -71q14 -16 52 -22.5t126 -6.5h64q87 0 122.5 6.5t57.5 28.5t42 72t54 186l154 623h-174l61 254h652l-62 -254h-160l-147 -594q-40 -162 -74.5 -259.5t-59.5 -137.5t-63 -78
q-67 -67 -154.5 -89t-238.5 -22h-176q-262 0 -348 86q-62 62 -67 171t52 349l142 574h-176l61 254h653l-61 -254h-158z" />
    <glyph glyph-name="Ucircumflex" unicode="&#xdb;" horiz-adv-x="1570" 
d="M692 1180l-151 -613q-35 -145 -39 -203t16 -71q14 -16 52 -22.5t126 -6.5h64q87 0 122.5 6.5t57.5 28.5t42 72t54 186l154 623h-174l61 254h652l-62 -254h-160l-147 -594q-40 -162 -74.5 -259.5t-59.5 -137.5t-63 -78q-67 -67 -154.5 -89t-238.5 -22h-176q-262 0 -348 86
q-62 62 -67 171t52 349l142 574h-176l61 254h653l-61 -254h-158zM1161 1552l-102 103l-160 -103h-262v11l309 249h289l184 -249v-11h-258z" />
    <glyph glyph-name="Udieresis" unicode="&#xdc;" horiz-adv-x="1570" 
d="M653 1556l68 267h309l-67 -267h-310zM1094 1556l67 267h309l-67 -267h-309zM692 1180l-151 -613q-35 -145 -39 -203t16 -71q14 -16 52 -22.5t126 -6.5h64q87 0 122.5 6.5t57.5 28.5t42 72t54 186l154 623h-174l61 254h652l-62 -254h-160l-147 -594q-40 -162 -74.5 -259.5
t-59.5 -137.5t-63 -78q-67 -67 -154.5 -89t-238.5 -22h-176q-262 0 -348 86q-62 62 -67 171t52 349l142 574h-176l61 254h653l-61 -254h-158z" />
    <glyph glyph-name="Yacute" unicode="&#xdd;" horiz-adv-x="1474" 
d="M575 573l-256 607h-155l63 254h633l-63 -250h-146l140 -359h12l315 359h-160l64 250h643l-63 -254h-140l-567 -607l-78 -317h193l-64 -256h-684l64 256h172zM815 1552v11l232 239h421l-2 -10l-405 -240h-246z" />
    <glyph glyph-name="Thorn" unicode="&#xde;" horiz-adv-x="1298" 
d="M1276 741q-27 -115 -58.5 -191t-50.5 -101.5t-51 -57.5q-45 -45 -88 -58.5t-133 -13.5h-397l-13 -57h189l-66 -262h-655l65 262h170l224 909h-195l66 263h655l-66 -263h-161l-6 -34h327q157 0 207 -50q21 -20 34.5 -43.5t23 -62.5t4.5 -99.5t-25 -140.5zM950 731
q18 75 28 124l3 11q-3 4 -30 4h-38h-278l-70 -286h342q7 7 14 30.5t29 116.5z" />
    <glyph glyph-name="germandbls" unicode="&#xdf;" horiz-adv-x="1320" 
d="M887 481q41 166 8 195q-19 22 -94 22h-111l58 240h86q73 0 94 23q26 23 55 139q25 114 -2 141q-19 19 -84 19h-92q-59 0 -82 -23q-29 -29 -49 -111l-281 -1126h-446l59 242h141l160 643h-160l60 241h162l12 52q42 174 133 252q49 44 106 62.5t142 18.5h278q171 0 234 -63
q91 -88 35 -322q-34 -145 -95.5 -210.5t-175.5 -92.5v-4q64 -14 104 -40t62 -71.5t20.5 -114.5t-26.5 -165q-34 -138 -70 -209t-86 -121q-56 -56 -126 -77t-166 -21h-246l61 250h137q85 0 107 24q34 30 78 207z" />
    <glyph glyph-name="agrave" unicode="&#xe0;" horiz-adv-x="1232" 
d="M1098 723l-121 -481h156l-58 -242h-457l31 129q-119 -82 -181.5 -106.5t-137.5 -24.5h-74q-79 0 -119.5 13.5t-70.5 43.5q-78 78 -29 277q43 168 113 235q53 53 132.5 74t217.5 21q135 0 270 -33l25 96q19 78 20 109t-12 40q-19 19 -74 19h-117q-62 0 -86 -21
q-23 -23 -45 -106h-291q33 126 60.5 186t62.5 95q44 44 100 61.5t136 17.5h336q135 0 198 -63q44 -43 47 -120.5t-32 -219.5zM457 219q44 0 90 14t137 56l47 188h-178q-84 0 -117.5 -7t-54.5 -28q-26 -26 -43 -94q-20 -86 4 -110q22 -19 76 -19h39zM954 1255h-221l-305 240
l2 10h408l116 -239v-11z" />
    <glyph glyph-name="aacute" unicode="&#xe1;" horiz-adv-x="1232" 
d="M1098 723l-121 -481h156l-58 -242h-457l31 129q-119 -82 -181.5 -106.5t-137.5 -24.5h-74q-79 0 -119.5 13.5t-70.5 43.5q-78 78 -29 277q43 168 113 235q53 53 132.5 74t217.5 21q135 0 270 -33l25 96q19 78 20 109t-12 40q-19 19 -74 19h-117q-62 0 -86 -21
q-23 -23 -45 -106h-291q33 126 60.5 186t62.5 95q44 44 100 61.5t136 17.5h336q135 0 198 -63q44 -43 47 -120.5t-32 -219.5zM629 1255v11l231 239h422l-2 -10l-406 -240h-245zM457 219q44 0 90 14t137 56l47 188h-178q-84 0 -117.5 -7t-54.5 -28q-26 -26 -43 -94
q-20 -86 4 -110q22 -19 76 -19h39z" />
    <glyph glyph-name="acircumflex" unicode="&#xe2;" horiz-adv-x="1232" 
d="M1098 723l-121 -481h156l-58 -242h-457l31 129q-119 -82 -181.5 -106.5t-137.5 -24.5h-74q-79 0 -119.5 13.5t-70.5 43.5q-78 78 -29 277q43 168 113 235q53 53 132.5 74t217.5 21q135 0 270 -33l25 96q19 78 20 109t-12 40q-19 19 -74 19h-117q-62 0 -86 -21
q-23 -23 -45 -106h-291q33 126 60.5 186t62.5 95q44 44 100 61.5t136 17.5h336q135 0 198 -63q44 -43 47 -120.5t-32 -219.5zM928 1255l-103 103l-159 -103h-263v11l310 250h288l185 -250v-11h-258zM457 219q44 0 90 14t137 56l47 188h-178q-84 0 -117.5 -7t-54.5 -28
q-26 -26 -43 -94q-20 -86 4 -110q22 -19 76 -19h39z" />
    <glyph glyph-name="atilde" unicode="&#xe3;" horiz-adv-x="1232" 
d="M1098 723l-121 -481h156l-58 -242h-457l31 129q-119 -82 -181.5 -106.5t-137.5 -24.5h-74q-79 0 -119.5 13.5t-70.5 43.5q-78 78 -29 277q43 168 113 235q53 53 132.5 74t217.5 21q135 0 270 -33l25 96q19 78 20 109t-12 40q-19 19 -74 19h-117q-62 0 -86 -21
q-23 -23 -45 -106h-291q33 126 60.5 186t62.5 95q44 44 100 61.5t136 17.5h336q135 0 198 -63q44 -43 47 -120.5t-32 -219.5zM440 1262l31 127q22 85 66 120q37 33 100 33h35q62 0 139 -29l172 -61l72 88h166l-33 -129q-20 -86 -64 -121q-38 -30 -100 -30h-35q-71 0 -139 28
l-170 62l-74 -88h-166zM457 219q44 0 90 14t137 56l47 188h-178q-84 0 -117.5 -7t-54.5 -28q-26 -26 -43 -94q-20 -86 4 -110q22 -19 76 -19h39z" />
    <glyph glyph-name="adieresis" unicode="&#xe4;" horiz-adv-x="1232" 
d="M1098 723l-121 -481h156l-58 -242h-457l31 129q-119 -82 -181.5 -106.5t-137.5 -24.5h-74q-79 0 -119.5 13.5t-70.5 43.5q-78 78 -29 277q43 168 113 235q53 53 132.5 74t217.5 21q135 0 270 -33l25 96q19 78 20 109t-12 40q-19 19 -74 19h-117q-62 0 -86 -21
q-23 -23 -45 -106h-291q33 126 60.5 186t62.5 95q44 44 100 61.5t136 17.5h336q135 0 198 -63q44 -43 47 -120.5t-32 -219.5zM457 219q44 0 90 14t137 56l47 188h-178q-84 0 -117.5 -7t-54.5 -28q-26 -26 -43 -94q-20 -86 4 -110q22 -19 76 -19h39zM420 1260l67 266h310
l-68 -266h-309zM860 1260l68 266h309l-68 -266h-309z" />
    <glyph glyph-name="aring" unicode="&#xe5;" horiz-adv-x="1232" 
d="M1098 723l-121 -481h156l-58 -242h-457l31 129q-119 -82 -181.5 -106.5t-137.5 -24.5h-74q-79 0 -119.5 13.5t-70.5 43.5q-78 78 -29 277q43 168 113 235q53 53 132.5 74t217.5 21q135 0 270 -33l25 96q19 78 20 109t-12 40q-19 19 -74 19h-117q-62 0 -86 -21
q-23 -23 -45 -106h-291q33 126 60.5 186t62.5 95q44 44 100 61.5t136 17.5h336q135 0 198 -63q44 -43 47 -120.5t-32 -219.5zM1149 1460q-13 -58 -29.5 -91t-46.5 -64q-59 -56 -164 -56h-184q-100 0 -145 45q-59 59 -31 181q13 59 30 91.5t48 65.5q57 54 161 54h185
q101 0 147 -46q56 -56 29 -180zM457 219q44 0 90 14t137 56l47 188h-178q-84 0 -117.5 -7t-54.5 -28q-26 -26 -43 -94q-20 -86 4 -110q22 -19 76 -19h39zM793 1397h90q45 0 61 16t23 53q10 46 -6 62q-10 10 -56 10h-90q-45 0 -59 -14q-15 -15 -25 -56q-8 -45 6 -59
q12 -12 56 -12z" />
    <glyph glyph-name="ae" unicode="&#xe6;" horiz-adv-x="1808" 
d="M772 66q-40 37 -55 98q-150 -105 -220.5 -135.5t-150.5 -30.5h-90q-79 0 -119.5 13.5t-70.5 43.5q-78 78 -29 277q43 168 113 235q53 53 132.5 74t217.5 21q135 0 270 -33l25 96q14 52 18.5 83t2 43t-10.5 21q-21 21 -76 21h-117q-62 0 -86 -21q-23 -23 -45 -106h-291
q33 126 60.5 186t62.5 95q44 44 100 61.5t136 17.5h266q135 0 193 -61q7 -7 20 -29q56 53 116.5 71.5t153.5 18.5h193q81 0 129.5 -15t81.5 -48q61 -61 61.5 -175t-61.5 -358q-6 -25 -18 -34t-39 -9h-611q-20 -84 -27.5 -134.5t-5 -71.5t12.5 -31q19 -19 90 -19h110
q57 0 79.5 4t37.5 19q21 21 47 121h285q-35 -126 -64.5 -187.5t-66.5 -97.5q-54 -52 -110.5 -71t-147.5 -19h-289q-147 0 -213 66zM709 299q3 73 24 178h-180q-84 0 -117.5 -7t-54.5 -28q-26 -26 -43 -94q-20 -86 4 -110q22 -19 76 -19h39q47 0 96.5 16t155.5 64zM1151 872
q-27 -27 -76 -213h365q26 117 29 163.5t-13 58.5q-16 16 -88 16h-111q-84 0 -106 -25z" />
    <glyph glyph-name="ccedilla" unicode="&#xe7;" horiz-adv-x="1144" 
d="M641 0h-303q-145 0 -211 66q-62 62 -67.5 174t49.5 346q51 210 92.5 302t93.5 146q54 54 116 73t158 19h279q145 0 211 -63q47 -49 54 -129t-23 -221h-287q15 75 15.5 109.5t-11.5 45.5q-15 15 -84 15h-127q-40 0 -58 -4.5t-32 -18.5q-17 -15 -37 -72.5t-61 -224.5
q-27 -111 -38 -175.5t-9.5 -90t12.5 -35.5q15 -18 86 -18h133q60 0 82 20q25 29 61 166h289q-39 -157 -72.5 -231.5t-77.5 -116.5q-79 -82 -233 -82zM360 -199h-84l37 144h142q62 0 93 -7t50 -26q42 -42 14 -168q-25 -101 -65 -141q-41 -41 -152 -41h-221l-104 104l12 47
h272q30 0 43 8q10 8 17 35q6 23 -2 35q-8 10 -52 10z" />
    <glyph glyph-name="egrave" unicode="&#xe8;" horiz-adv-x="1159" 
d="M625 0h-287q-80 0 -128.5 16t-82.5 50q-62 62 -67.5 174t49.5 346q51 210 92.5 302t93.5 146q54 54 116 73t158 19h275q81 0 128.5 -15t80.5 -48q61 -61 61.5 -175t-61.5 -358q-6 -25 -17.5 -34t-38.5 -9h-612q-20 -84 -27 -134.5t-4.5 -71.5t13.5 -31q19 -19 90 -19h108
q58 0 80 4t39 19q21 21 47 121h283q-35 -126 -64.5 -187.5t-66.5 -97.5q-52 -52 -109.5 -71t-148.5 -19zM502 872q-13 -13 -28.5 -55t-45.5 -158h363q26 114 29.5 163.5t-11.5 58.5q-16 16 -88 16h-111q-83 0 -108 -25zM918 1255h-222l-305 240l2 10h408l117 -239v-11z" />
    <glyph glyph-name="eacute" unicode="&#xe9;" horiz-adv-x="1159" 
d="M625 0h-287q-80 0 -128.5 16t-82.5 50q-62 62 -67.5 174t49.5 346q51 210 92.5 302t93.5 146q54 54 116 73t158 19h275q81 0 128.5 -15t80.5 -48q61 -61 61.5 -175t-61.5 -358q-6 -25 -17.5 -34t-38.5 -9h-612q-20 -84 -27 -134.5t-4.5 -71.5t13.5 -31q19 -19 90 -19h108
q58 0 80 4t39 19q21 21 47 121h283q-35 -126 -64.5 -187.5t-66.5 -97.5q-52 -52 -109.5 -71t-148.5 -19zM592 1255v11l231 239h422l-2 -10l-405 -240h-246zM502 872q-13 -13 -28.5 -55t-45.5 -158h363q26 114 29.5 163.5t-11.5 58.5q-16 16 -88 16h-111q-83 0 -108 -25z" />
    <glyph glyph-name="ecircumflex" unicode="&#xea;" horiz-adv-x="1159" 
d="M625 0h-287q-80 0 -128.5 16t-82.5 50q-62 62 -67.5 174t49.5 346q51 210 92.5 302t93.5 146q54 54 116 73t158 19h275q81 0 128.5 -15t80.5 -48q61 -61 61.5 -175t-61.5 -358q-6 -25 -17.5 -34t-38.5 -9h-612q-20 -84 -27 -134.5t-4.5 -71.5t13.5 -31q19 -19 90 -19h108
q58 0 80 4t39 19q21 21 47 121h283q-35 -126 -64.5 -187.5t-66.5 -97.5q-52 -52 -109.5 -71t-148.5 -19zM891 1255l-103 103l-159 -103h-262v11l309 250h289l184 -250v-11h-258zM502 872q-13 -13 -28.5 -55t-45.5 -158h363q26 114 29.5 163.5t-11.5 58.5q-16 16 -88 16h-111
q-83 0 -108 -25z" />
    <glyph glyph-name="edieresis" unicode="&#xeb;" horiz-adv-x="1159" 
d="M625 0h-287q-80 0 -128.5 16t-82.5 50q-62 62 -67.5 174t49.5 346q51 210 92.5 302t93.5 146q54 54 116 73t158 19h275q81 0 128.5 -15t80.5 -48q61 -61 61.5 -175t-61.5 -358q-6 -25 -17.5 -34t-38.5 -9h-612q-20 -84 -27 -134.5t-4.5 -71.5t13.5 -31q19 -19 90 -19h108
q58 0 80 4t39 19q21 21 47 121h283q-35 -126 -64.5 -187.5t-66.5 -97.5q-52 -52 -109.5 -71t-148.5 -19zM823 1260l68 266h309l-67 -266h-310zM383 1260l68 266h309l-68 -266h-309zM502 872q-13 -13 -28.5 -55t-45.5 -158h363q26 114 29.5 163.5t-11.5 58.5q-16 16 -88 16
h-111q-83 0 -108 -25z" />
    <glyph glyph-name="igrave" unicode="&#xec;" horiz-adv-x="743" 
d="M571 0h-616l59 242h148l162 643h-168l59 241h475l-221 -886h162zM698 1255h-221l-305 240l2 10h408l116 -239v-11z" />
    <glyph glyph-name="iacute" unicode="&#xed;" horiz-adv-x="743" 
d="M373 1255v11l231 239h422l-2 -10l-406 -240h-245zM571 0h-616l59 242h148l162 643h-168l59 241h475l-221 -886h162z" />
    <glyph glyph-name="icircumflex" unicode="&#xee;" horiz-adv-x="743" 
d="M571 0h-616l59 242h148l162 643h-168l59 241h475l-221 -886h162zM672 1255l-103 103l-159 -103h-263v11l310 250h288l185 -250v-11h-258z" />
    <glyph glyph-name="idieresis" unicode="&#xef;" horiz-adv-x="743" 
d="M164 1260l67 266h310l-68 -266h-309zM604 1260l68 266h309l-68 -266h-309zM571 0h-616l59 242h148l162 643h-168l59 241h475l-221 -886h162z" />
    <glyph glyph-name="eth" unicode="&#xf0;" horiz-adv-x="1204" 
d="M1102 553q-37 -152 -71 -245.5t-64 -140.5t-72 -85q-50 -46 -108 -64t-150 -18h-299q-150 0 -217 70q-37 40 -53.5 93t-11 144t37.5 221q43 185 84 270t101 136q51 45 111 62.5t151 17.5h75q59 0 108.5 -25.5t149.5 -107.5q29 129 29 184q0 36 -33 127l-323 -92l49 209
l199 55q-25 54 -64 147h238l59 -81l301 86l-49 -207l-143 -41q65 -117 65 -193q0 -105 -100 -522zM797 563l39 160q-82 47 -154 47h-115q-65 0 -88 -18q-17 -16 -35.5 -63.5t-50.5 -180.5q-51 -214 -22 -246q15 -18 88 -18h151q40 0 57 4t29 16q19 15 39.5 72t61.5 227z" />
    <glyph glyph-name="ntilde" unicode="&#xf1;" horiz-adv-x="1355" 
d="M559 0h-612l59 242h141l162 643h-162l60 241h463l-37 -157q145 105 201 132t133 27h57q119 0 180 -61q84 -84 25 -322l-127 -503h155l-59 -242h-461l185 745q19 85 -9 113q-27 23 -75 23h-27q-45 0 -86 -13t-129 -53l-143 -575h163zM518 1262l31 127q23 86 65 120
q37 33 101 33h35q62 0 139 -29l172 -61l72 88h165l-32 -129q-20 -86 -64 -121q-38 -30 -100 -30h-35q-71 0 -139 28l-170 62l-74 -88h-166z" />
    <glyph glyph-name="ograve" unicode="&#xf2;" horiz-adv-x="1204" 
d="M1098 541q-51 -210 -93 -302.5t-94 -144.5q-54 -54 -116.5 -74t-157.5 -20h-299q-80 0 -128.5 16t-82.5 50q-62 62 -67.5 174t49.5 346q51 210 92.5 302t93.5 146q54 54 116 73t158 19h299q81 0 129 -15.5t82 -49.5q62 -62 68 -173.5t-49 -346.5zM408 563
q-27 -112 -38 -176t-9.5 -90t12.5 -37q16 -16 86 -16h151q40 0 58.5 4.5t31.5 17.5q18 18 38.5 75t60.5 222q27 113 38 177t9.5 89.5t-12.5 36.5q-17 17 -86 17h-152q-40 0 -58 -4.5t-32 -18.5q-17 -15 -37 -72.5t-61 -224.5zM928 1255h-221l-306 240l2 10h408l117 -239v-11
z" />
    <glyph glyph-name="oacute" unicode="&#xf3;" horiz-adv-x="1204" 
d="M602 1255v11l232 239h421l-2 -10l-405 -240h-246zM1098 541q-51 -210 -93 -302.5t-94 -144.5q-54 -54 -116.5 -74t-157.5 -20h-299q-80 0 -128.5 16t-82.5 50q-62 62 -67.5 174t49.5 346q51 210 92.5 302t93.5 146q54 54 116 73t158 19h299q81 0 129 -15.5t82 -49.5
q62 -62 68 -173.5t-49 -346.5zM408 563q-27 -112 -38 -176t-9.5 -90t12.5 -37q16 -16 86 -16h151q40 0 58.5 4.5t31.5 17.5q18 18 38.5 75t60.5 222q27 113 38 177t9.5 89.5t-12.5 36.5q-17 17 -86 17h-152q-40 0 -58 -4.5t-32 -18.5q-17 -15 -37 -72.5t-61 -224.5z" />
    <glyph glyph-name="ocircumflex" unicode="&#xf4;" horiz-adv-x="1204" 
d="M1098 541q-51 -210 -93 -302.5t-94 -144.5q-54 -54 -116.5 -74t-157.5 -20h-299q-80 0 -128.5 16t-82.5 50q-62 62 -67.5 174t49.5 346q51 210 92.5 302t93.5 146q54 54 116 73t158 19h299q81 0 129 -15.5t82 -49.5q62 -62 68 -173.5t-49 -346.5zM408 563
q-27 -112 -38 -176t-9.5 -90t12.5 -37q16 -16 86 -16h151q40 0 58.5 4.5t31.5 17.5q18 18 38.5 75t60.5 222q27 113 38 177t9.5 89.5t-12.5 36.5q-17 17 -86 17h-152q-40 0 -58 -4.5t-32 -18.5q-17 -15 -37 -72.5t-61 -224.5zM901 1255l-102 103l-160 -103h-262v11l309 250
h289l184 -250v-11h-258z" />
    <glyph glyph-name="otilde" unicode="&#xf5;" horiz-adv-x="1204" 
d="M1098 541q-51 -210 -93 -302.5t-94 -144.5q-54 -54 -116.5 -74t-157.5 -20h-299q-80 0 -128.5 16t-82.5 50q-62 62 -67.5 174t49.5 346q51 210 92.5 302t93.5 146q54 54 116 73t158 19h299q81 0 129 -15.5t82 -49.5q62 -62 68 -173.5t-49 -346.5zM408 563
q-27 -112 -38 -176t-9.5 -90t12.5 -37q16 -16 86 -16h151q40 0 58.5 4.5t31.5 17.5q18 18 38.5 75t60.5 222q27 113 38 177t9.5 89.5t-12.5 36.5q-17 17 -86 17h-152q-40 0 -58 -4.5t-32 -18.5q-17 -15 -37 -72.5t-61 -224.5zM414 1262l30 127q22 85 66 120q37 33 100 33h35
q62 0 139 -29l172 -61l72 88h166l-33 -129q-20 -87 -63 -121q-38 -30 -101 -30h-34q-72 0 -140 28l-170 62l-73 -88h-166z" />
    <glyph glyph-name="odieresis" unicode="&#xf6;" horiz-adv-x="1204" 
d="M393 1260l68 266h309l-68 -266h-309zM834 1260l67 266h309l-67 -266h-309zM1098 541q-51 -210 -93 -302.5t-94 -144.5q-54 -54 -116.5 -74t-157.5 -20h-299q-80 0 -128.5 16t-82.5 50q-62 62 -67.5 174t49.5 346q51 210 92.5 302t93.5 146q54 54 116 73t158 19h299
q81 0 129 -15.5t82 -49.5q62 -62 68 -173.5t-49 -346.5zM408 563q-27 -112 -38 -176t-9.5 -90t12.5 -37q16 -16 86 -16h151q40 0 58.5 4.5t31.5 17.5q18 18 38.5 75t60.5 222q27 113 38 177t9.5 89.5t-12.5 36.5q-17 17 -86 17h-152q-40 0 -58 -4.5t-32 -18.5
q-17 -15 -37 -72.5t-61 -224.5z" />
    <glyph glyph-name="divide" unicode="&#xf7;" horiz-adv-x="1058" 
d="M115 627l59 235h862l-59 -235h-862zM313 266l66 262h287l-66 -262h-287zM487 965l66 262h287l-66 -262h-287z" />
    <glyph glyph-name="oslash" unicode="&#xf8;" horiz-adv-x="1214" 
d="M1098 541q-51 -210 -93 -302.5t-94 -144.5q-54 -54 -116.5 -74t-157.5 -20h-299h-43l-80 -102h-262l151 192q-46 64 -46 173.5t51 322.5q51 210 92.5 302t93.5 146q54 54 116 73t158 19h299q31 0 45 -2l80 105h260l-153 -193q46 -64 46.5 -173t-48.5 -322zM809 563
q30 122 41 201l-385 -520h156q40 0 58.5 4.5t31.5 17.5q18 18 37.5 74.5t60.5 222.5zM397 563q-24 -96 -43 -198l387 518h-155q-40 0 -58 -4.5t-32 -18.5q-18 -16 -38 -73.5t-61 -223.5z" />
    <glyph glyph-name="ugrave" unicode="&#xf9;" horiz-adv-x="1320" 
d="M1272 1126l-221 -884h161l-59 -242h-463l37 156q-144 -104 -200.5 -131t-133.5 -27h-57q-117 0 -180 63q-84 84 -25 320l127 504h-156l60 241h461l-185 -745q-19 -84 8 -111q22 -22 76 -22h27q46 0 87 12.5t126 52.5l143 574h-164l60 239h471zM971 1255h-221l-306 240
l2 10h408l117 -239v-11z" />
    <glyph glyph-name="uacute" unicode="&#xfa;" horiz-adv-x="1320" 
d="M1272 1126l-221 -884h161l-59 -242h-463l37 156q-144 -104 -200.5 -131t-133.5 -27h-57q-117 0 -180 63q-84 84 -25 320l127 504h-156l60 241h461l-185 -745q-19 -84 8 -111q22 -22 76 -22h27q46 0 87 12.5t126 52.5l143 574h-164l60 239h471zM645 1255v11l232 239h421
l-2 -10l-405 -240h-246z" />
    <glyph glyph-name="ucircumflex" unicode="&#xfb;" horiz-adv-x="1320" 
d="M1272 1126l-221 -884h161l-59 -242h-463l37 156q-144 -104 -200.5 -131t-133.5 -27h-57q-117 0 -180 63q-84 84 -25 320l127 504h-156l60 241h461l-185 -745q-19 -84 8 -111q22 -22 76 -22h27q46 0 87 12.5t126 52.5l143 574h-164l60 239h471zM944 1255l-102 103
l-160 -103h-262v11l309 250h289l184 -250v-11h-258z" />
    <glyph glyph-name="udieresis" unicode="&#xfc;" horiz-adv-x="1320" 
d="M1272 1126l-221 -884h161l-59 -242h-463l37 156q-144 -104 -200.5 -131t-133.5 -27h-57q-117 0 -180 63q-84 84 -25 320l127 504h-156l60 241h461l-185 -745q-19 -84 8 -111q22 -22 76 -22h27q46 0 87 12.5t126 52.5l143 574h-164l60 239h471zM877 1260l67 266h309
l-67 -266h-309zM436 1260l68 266h309l-68 -266h-309z" />
    <glyph glyph-name="yacute" unicode="&#xfd;" horiz-adv-x="1329" 
d="M238 885h-134l62 241h563l-61 -241h-129l65 -551h23l313 551h-141l61 241h567l-61 -241h-115l-657 -1047q-60 -95 -127.5 -132.5t-181.5 -37.5q-96 0 -265 15l58 235h205q25 0 40.5 9.5t30.5 35.5l27 45zM678 1255v11l231 239h422l-2 -10l-405 -240h-246z" />
    <glyph glyph-name="thorn" unicode="&#xfe;" horiz-adv-x="1280" 
d="M322 -88h167l-57 -240h-616l57 242h143l338 1354h-161l59 243h469l-133 -530q133 95 192.5 121t139.5 26h51q78 0 123.5 -15t79.5 -48q55 -56 55.5 -167.5t-55.5 -348.5q-50 -202 -90.5 -298.5t-90.5 -146.5q-51 -51 -116.5 -73.5t-165.5 -22.5h-64q-59 0 -110 26.5
t-156 112.5zM760 883q-16 0 -29.5 -1t-28.5 -5t-24 -6t-28.5 -10.5t-27.5 -12t-35.5 -16.5t-39.5 -19l-127 -508q87 -51 162 -51h73q81 0 117 33q23 25 45 82t57 202q38 157 42.5 212.5t-19.5 76.5q-20 23 -90 23h-47z" />
    <glyph glyph-name="ydieresis" unicode="&#xff;" horiz-adv-x="1329" 
d="M238 885h-134l62 241h563l-61 -241h-129l65 -551h23l313 551h-141l61 241h567l-61 -241h-115l-657 -1047q-60 -95 -127.5 -132.5t-181.5 -37.5q-96 0 -265 15l58 235h205q25 0 40.5 9.5t30.5 35.5l27 45zM909 1260l68 266h309l-67 -266h-310zM469 1260l68 266h309
l-68 -266h-309z" />
    <glyph glyph-name="Amacron" unicode="&#x100;" horiz-adv-x="1527" 
d="M963 252l-7 192h-430l-102 -192h168l-62 -252h-632l61 256h133l621 1081q34 61 66 82t91 21h199q79 0 107.5 -27.5t33.5 -103.5l80 -1053h148l-64 -256h-633l62 252h160zM666 1559l53 219h694l-53 -219h-694zM928 1153h-27l-250 -469h297z" />
    <glyph glyph-name="amacron" unicode="&#x101;" horiz-adv-x="1232" 
d="M1098 723l-121 -481h156l-58 -242h-457l31 129q-119 -82 -181.5 -106.5t-137.5 -24.5h-74q-79 0 -119.5 13.5t-70.5 43.5q-78 78 -29 277q43 168 113 235q53 53 132.5 74t217.5 21q135 0 270 -33l25 96q19 78 20 109t-12 40q-19 19 -74 19h-117q-62 0 -86 -21
q-23 -23 -45 -106h-291q33 126 60.5 186t62.5 95q44 44 100 61.5t136 17.5h336q135 0 198 -63q44 -43 47 -120.5t-32 -219.5zM451 1262l53 219h694l-53 -219h-694zM457 219q44 0 90 14t137 56l47 188h-178q-84 0 -117.5 -7t-54.5 -28q-26 -26 -43 -94q-20 -86 4 -110
q22 -19 76 -19h39z" />
    <glyph glyph-name="Abreve" unicode="&#x102;" horiz-adv-x="1527" 
d="M963 252l-7 192h-430l-102 -192h168l-62 -252h-632l61 256h133l621 1081q34 61 66 82t91 21h199q79 0 107.5 -27.5t33.5 -103.5l80 -1053h148l-64 -256h-633l62 252h160zM1059 1720q96 0 141 92h230q-88 -270 -404 -270q-152 0 -233.5 73.5t-73.5 196.5h225
q3 -38 33.5 -65t81.5 -27zM928 1153h-27l-250 -469h297z" />
    <glyph glyph-name="abreve" unicode="&#x103;" horiz-adv-x="1232" 
d="M1098 723l-121 -481h156l-58 -242h-457l31 129q-119 -82 -181.5 -106.5t-137.5 -24.5h-74q-79 0 -119.5 13.5t-70.5 43.5q-78 78 -29 277q43 168 113 235q53 53 132.5 74t217.5 21q135 0 270 -33l25 96q19 78 20 109t-12 40q-19 19 -74 19h-117q-62 0 -86 -21
q-23 -23 -45 -106h-291q33 126 60.5 186t62.5 95q44 44 100 61.5t136 17.5h336q135 0 198 -63q44 -43 47 -120.5t-32 -219.5zM844 1423q95 0 141 93h229q-88 -271 -403 -271q-152 0 -233.5 74t-73.5 197h225q3 -38 33.5 -65.5t81.5 -27.5zM457 219q44 0 90 14t137 56l47 188
h-178q-84 0 -117.5 -7t-54.5 -28q-26 -26 -43 -94q-20 -86 4 -110q22 -19 76 -19h39z" />
    <glyph glyph-name="Aogonek" unicode="&#x104;" horiz-adv-x="1527" 
d="M975 -147q-12 -51 -4 -66q7 -12 43 -12h49q20 0 31 8q12 9 32 86h187q-30 -117 -50 -162.5t-51 -71.5q-41 -36 -133 -36h-155q-110 0 -144 34q-25 27 -30.5 65.5t4.5 92.5q9 48 23 78t42 61q31 35 88 70h-166l62 252h160l-7 192h-430l-102 -192h168l-62 -252h-632l61 256
h133l621 1081q34 61 66 82t91 21h199q79 0 107.5 -27.5t33.5 -103.5l80 -1053h148l-64 -256h-297q-45 -39 -69 -70q-20 -24 -33 -77zM928 1153h-27l-250 -469h297z" />
    <glyph glyph-name="aogonek" unicode="&#x105;" horiz-adv-x="1232" 
d="M682 -147q-12 -51 -4 -66q7 -12 43 -12h49q20 0 31 8q13 10 33 86h186q-30 -118 -50 -163t-50 -71q-41 -36 -134 -36h-155q-110 0 -144 34q-25 27 -30.5 65.5t4.5 92.5q9 48 23 78t42 61q20 26 92 72l31 127q-119 -82 -181.5 -106.5t-137.5 -24.5h-74q-79 0 -119.5 13.5
t-70.5 43.5q-78 78 -29 277q43 168 113 235q53 53 132.5 74t217.5 21q135 0 270 -33l25 96q19 78 20 109t-12 40q-19 19 -74 19h-117q-62 0 -86 -21q-23 -23 -45 -106h-291q33 126 60.5 186t62.5 95q44 44 100 61.5t136 17.5h336q135 0 198 -63q44 -43 47 -120.5t-32 -219.5
l-121 -481h156l-58 -242h-291q-45 -39 -69 -70q-20 -24 -33 -77zM457 219q44 0 90 14t137 56l47 188h-178q-84 0 -117.5 -7t-54.5 -28q-26 -26 -43 -94q-20 -86 4 -110q22 -19 76 -19h39z" />
    <glyph glyph-name="Cacute" unicode="&#x106;" horiz-adv-x="1378" 
d="M793 1552v11l231 239h422l-2 -10l-406 -240h-245zM946 535h320q-53 -210 -91.5 -302t-87.5 -141q-53 -53 -117 -72.5t-171 -19.5h-400q-101 0 -154 17t-89 53q-40 40 -55 113.5t0.5 215.5t66.5 351q49 199 91.5 322.5t74 176.5t74.5 97q50 50 114 69t170 19h402
q102 0 153.5 -16t87.5 -52q49 -49 55 -150t-34 -301h-316q20 86 27 138t5 71.5t-11 28.5q-16 16 -103 16h-227q-79 0 -100 -18q-12 -12 -23.5 -40t-39 -124t-70.5 -270q-42 -172 -61 -266.5t-18 -125.5t11 -42q19 -19 102 -19h228q82 0 100 21q14 12 31.5 61t54.5 189z" />
    <glyph glyph-name="cacute" unicode="&#x107;" horiz-adv-x="1144" 
d="M604 1255v11l232 239h421l-2 -10l-405 -240h-246zM641 0h-303q-145 0 -211 66q-62 62 -67.5 174t49.5 346q51 210 92.5 302t93.5 146q54 54 116 73t158 19h279q145 0 211 -63q47 -49 54 -129t-23 -221h-287q15 75 15.5 109.5t-11.5 45.5q-15 15 -84 15h-127
q-40 0 -58 -4.5t-32 -18.5q-17 -15 -37 -72.5t-61 -224.5q-27 -111 -38 -175.5t-9.5 -90t12.5 -35.5q15 -18 86 -18h133q60 0 82 20q25 29 61 166h289q-39 -157 -72.5 -231.5t-77.5 -116.5q-79 -82 -233 -82z" />
    <glyph glyph-name="Cdotaccent" unicode="&#x10a;" horiz-adv-x="1378" 
d="M946 535h320q-53 -210 -91.5 -302t-87.5 -141q-53 -53 -117 -72.5t-171 -19.5h-400q-101 0 -154 17t-89 53q-40 40 -55 113.5t0.5 215.5t66.5 351q49 199 91.5 322.5t74 176.5t74.5 97q50 50 114 69t170 19h402q102 0 153.5 -16t87.5 -52q49 -49 55 -150t-34 -301h-316
q20 86 27 138t5 71.5t-11 28.5q-16 16 -103 16h-227q-79 0 -100 -18q-12 -12 -23.5 -40t-39 -124t-70.5 -270q-42 -172 -61 -266.5t-18 -125.5t11 -42q19 -19 102 -19h228q82 0 100 21q14 12 31.5 61t54.5 189zM803 1565l65 268h322l-66 -268h-321z" />
    <glyph glyph-name="cdotaccent" unicode="&#x10b;" horiz-adv-x="1144" 
d="M641 0h-303q-145 0 -211 66q-62 62 -67.5 174t49.5 346q51 210 92.5 302t93.5 146q54 54 116 73t158 19h279q145 0 211 -63q47 -49 54 -129t-23 -221h-287q15 75 15.5 109.5t-11.5 45.5q-15 15 -84 15h-127q-40 0 -58 -4.5t-32 -18.5q-17 -15 -37 -72.5t-61 -224.5
q-27 -111 -38 -175.5t-9.5 -90t12.5 -35.5q15 -18 86 -18h133q60 0 82 20q25 29 61 166h289q-39 -157 -72.5 -231.5t-77.5 -116.5q-79 -82 -233 -82zM614 1268l66 268h321l-65 -268h-322z" />
    <glyph glyph-name="Ccaron" unicode="&#x10c;" horiz-adv-x="1378" 
d="M946 535h320q-53 -210 -91.5 -302t-87.5 -141q-53 -53 -117 -72.5t-171 -19.5h-400q-101 0 -154 17t-89 53q-40 40 -55 113.5t0.5 215.5t66.5 351q49 199 91.5 322.5t74 176.5t74.5 97q50 50 114 69t170 19h402q102 0 153.5 -16t87.5 -52q49 -49 55 -150t-34 -301h-316
q20 86 27 138t5 71.5t-11 28.5q-16 16 -103 16h-227q-79 0 -100 -18q-12 -12 -23.5 -40t-39 -124t-70.5 -270q-42 -172 -61 -266.5t-18 -125.5t11 -42q19 -19 102 -19h228q82 0 100 21q14 12 31.5 61t54.5 189zM881 1812l102 -102l160 102h262v-10l-309 -250h-289l-184 250
v10h258z" />
    <glyph glyph-name="ccaron" unicode="&#x10d;" horiz-adv-x="1144" 
d="M641 0h-303q-145 0 -211 66q-62 62 -67.5 174t49.5 346q51 210 92.5 302t93.5 146q54 54 116 73t158 19h279q145 0 211 -63q47 -49 54 -129t-23 -221h-287q15 75 15.5 109.5t-11.5 45.5q-15 15 -84 15h-127q-40 0 -58 -4.5t-32 -18.5q-17 -15 -37 -72.5t-61 -224.5
q-27 -111 -38 -175.5t-9.5 -90t12.5 -35.5q15 -18 86 -18h133q60 0 82 20q25 29 61 166h289q-39 -157 -72.5 -231.5t-77.5 -116.5q-79 -82 -233 -82zM692 1516l103 -103l159 103h263v-11l-310 -250h-289l-184 250v11h258z" />
    <glyph glyph-name="Dcaron" unicode="&#x10e;" horiz-adv-x="1472" 
d="M279 1434h745q127 0 206 -22t130 -73q80 -80 84 -239t-62 -418q-56 -229 -114.5 -353t-128.5 -194q-78 -78 -175 -106.5t-247 -28.5h-774l63 254h162l229 926h-180zM717 1180l-230 -926h250q69 0 106.5 8.5t63.5 34.5q31 31 61.5 115.5t84.5 304.5q56 225 64.5 315.5
t-21.5 116.5q-17 19 -46.5 25t-99.5 6h-233zM881 1812l102 -102l160 102h262v-10l-309 -250h-289l-184 250v10h258z" />
    <glyph glyph-name="dcaron" unicode="&#x10f;" horiz-adv-x="1294" 
d="M575 1128h62q60 0 110.5 -27t155.5 -114l72 283h-164l59 241h471l-317 -1269h162l-60 -242h-462l34 150q-137 -99 -196 -125.5t-140 -26.5h-51q-78 0 -123 15.5t-79 49.5q-55 55 -55.5 166.5t55.5 350.5q52 211 94 305.5t98 150.5q53 53 118 72.5t156 19.5zM522 244
q36 0 68.5 8.5t54.5 18t90 42.5l129 518q-89 52 -162 52h-73q-45 0 -71 -7t-44 -26q-24 -22 -46 -80.5t-58 -208.5q-39 -162 -43.5 -216.5t18.5 -78.5q22 -22 90 -22h47zM1749 1669l-41 -160q-20 -76 -44 -117t-77 -94l-147 -143l-90 51l88 160q22 42 22 88v152l17 63h272z
" />
    <glyph glyph-name="Dcroat" unicode="&#x110;" horiz-adv-x="1472" 
d="M279 1434h745q127 0 206 -22t130 -73q80 -80 84 -239t-62 -418q-56 -229 -114.5 -353t-128.5 -194q-78 -78 -175 -106.5t-247 -28.5h-774l63 254h162l88 360h-168l62 244h167l80 322h-180zM717 1180l-80 -322h237l-61 -244h-238l-88 -360h250q69 0 106.5 8.5t63.5 34.5
q31 31 61.5 115.5t84.5 304.5q56 225 64.5 315.5t-21.5 116.5q-17 19 -46.5 25t-99.5 6h-233z" />
    <glyph glyph-name="dcroat" unicode="&#x111;" horiz-adv-x="1294" 
d="M1034 1511h307l-30 -122h147l-55 -228h-150l-229 -919h162l-60 -242h-462l34 150q-137 -99 -196 -125.5t-140 -26.5h-51q-78 0 -123 15.5t-79 49.5q-55 55 -56 166.5t56 350.5q51 205 92.5 297.5t97.5 148.5q53 53 118 72.5t156 19.5h62q60 0 111.5 -27t154.5 -112
l49 195h-258l53 215h259zM408 551q-36 -154 -40.5 -209.5t17.5 -75.5q22 -22 90 -22h47q36 0 68.5 8.5t54 18.5t92.5 44l125 506q-87 51 -162 51h-73q-46 0 -71.5 -6.5t-43.5 -25.5q-24 -22 -46 -80.5t-58 -208.5z" />
    <glyph glyph-name="Emacron" unicode="&#x112;" horiz-adv-x="1357" 
d="M395 1180h-184l63 254h1203l-121 -476h-285l55 224h-411l-82 -326h332l-60 -240h-332l-90 -364h424l62 254h286l-127 -506h-1185l63 254h160zM580 1559l53 219h694l-53 -219h-694z" />
    <glyph glyph-name="emacron" unicode="&#x113;" horiz-adv-x="1159" 
d="M625 0h-287q-80 0 -128.5 16t-82.5 50q-62 62 -67.5 174t49.5 346q51 210 92.5 302t93.5 146q54 54 116 73t158 19h275q81 0 128.5 -15t80.5 -48q61 -61 61.5 -175t-61.5 -358q-6 -25 -17.5 -34t-38.5 -9h-612q-20 -84 -27 -134.5t-4.5 -71.5t13.5 -31q19 -19 90 -19h108
q58 0 80 4t39 19q21 21 47 121h283q-35 -126 -64.5 -187.5t-66.5 -97.5q-52 -52 -109.5 -71t-148.5 -19zM412 1262l53 219h694l-53 -219h-694zM502 872q-13 -13 -28.5 -55t-45.5 -158h363q26 114 29.5 163.5t-11.5 58.5q-16 16 -88 16h-111q-83 0 -108 -25z" />
    <glyph glyph-name="Ebreve" unicode="&#x114;" horiz-adv-x="1357" 
d="M395 1180h-184l63 254h1203l-121 -476h-285l55 224h-411l-82 -326h332l-60 -240h-332l-90 -364h424l62 254h286l-127 -506h-1185l63 254h160zM973 1720q96 0 141 92h229q-88 -270 -403 -270q-152 0 -233.5 73.5t-73.5 196.5h225q3 -38 33.5 -65t81.5 -27z" />
    <glyph glyph-name="ebreve" unicode="&#x115;" horiz-adv-x="1159" 
d="M625 0h-287q-80 0 -128.5 16t-82.5 50q-62 62 -67.5 174t49.5 346q51 210 92.5 302t93.5 146q54 54 116 73t158 19h275q81 0 128.5 -15t80.5 -48q61 -61 61.5 -175t-61.5 -358q-6 -25 -17.5 -34t-38.5 -9h-612q-20 -84 -27 -134.5t-4.5 -71.5t13.5 -31q19 -19 90 -19h108
q58 0 80 4t39 19q21 21 47 121h283q-35 -126 -64.5 -187.5t-66.5 -97.5q-52 -52 -109.5 -71t-148.5 -19zM807 1423q95 0 141 93h230q-44 -135 -147 -203t-257 -68q-152 0 -233.5 74t-73.5 197h225q3 -38 33.5 -65.5t81.5 -27.5zM502 872q-13 -13 -28.5 -55t-45.5 -158h363
q26 114 29.5 163.5t-11.5 58.5q-16 16 -88 16h-111q-83 0 -108 -25z" />
    <glyph glyph-name="Edotaccent" unicode="&#x116;" horiz-adv-x="1357" 
d="M395 1180h-184l63 254h1203l-121 -476h-285l55 224h-411l-82 -326h332l-60 -240h-332l-90 -364h424l62 254h286l-127 -506h-1185l63 254h160zM768 1565l66 268h321l-65 -268h-322z" />
    <glyph glyph-name="edotaccent" unicode="&#x117;" horiz-adv-x="1159" 
d="M625 0h-287q-80 0 -128.5 16t-82.5 50q-62 62 -67.5 174t49.5 346q51 210 92.5 302t93.5 146q54 54 116 73t158 19h275q81 0 128.5 -15t80.5 -48q61 -61 61.5 -175t-61.5 -358q-6 -25 -17.5 -34t-38.5 -9h-612q-20 -84 -27 -134.5t-4.5 -71.5t13.5 -31q19 -19 90 -19h108
q58 0 80 4t39 19q21 21 47 121h283q-35 -126 -64.5 -187.5t-66.5 -97.5q-52 -52 -109.5 -71t-148.5 -19zM600 1268l66 268h321l-65 -268h-322zM502 872q-13 -13 -28.5 -55t-45.5 -158h363q26 114 29.5 163.5t-11.5 58.5q-16 16 -88 16h-111q-83 0 -108 -25z" />
    <glyph glyph-name="Eogonek" unicode="&#x118;" horiz-adv-x="1357" 
d="M395 1180h-184l63 254h1203l-121 -476h-285l55 224h-411l-82 -326h332l-60 -240h-332l-90 -364h424l62 254h286l-127 -506h-286q-48 -42 -70 -70q-20 -24 -33 -77q-12 -51 -4 -66q7 -12 43 -12h49q20 0 31 8q13 10 33 86h186q-30 -118 -50 -163t-50 -71q-41 -36 -133 -36
h-156q-109 0 -143 34q-25 27 -31 65t4 93q9 47 23 77t43 62q31 35 88 70h-729l63 254h160z" />
    <glyph glyph-name="eogonek" unicode="&#x119;" horiz-adv-x="1159" 
d="M528 -147q-12 -51 -4 -66q7 -12 43 -12h49q20 0 31 8q13 10 33 86h186q-30 -118 -50 -163t-50 -71q-41 -36 -133 -36h-156q-109 0 -143 34q-25 27 -31 65t4 93q9 47 23 77t43 62q31 35 88 70h-123q-80 0 -128.5 16t-82.5 50q-62 62 -67.5 174t49.5 346q51 210 92.5 302
t93.5 146q54 54 116 73t158 19h275q81 0 128.5 -15t80.5 -48q61 -61 61.5 -175t-61.5 -358q-6 -25 -17.5 -34t-38.5 -9h-612q-20 -84 -27 -134.5t-4.5 -71.5t13.5 -31q19 -19 90 -19h108q58 0 80 4t39 19q21 21 47 121h283q-35 -126 -64.5 -187.5t-66.5 -97.5
q-52 -52 -108 -71t-144 -19q-48 -42 -70 -70q-20 -24 -33 -77zM502 872q-13 -13 -28.5 -55t-45.5 -158h363q26 114 29.5 163.5t-11.5 58.5q-16 16 -88 16h-111q-83 0 -108 -25z" />
    <glyph glyph-name="Ecaron" unicode="&#x11a;" horiz-adv-x="1357" 
d="M395 1180h-184l63 254h1203l-121 -476h-285l55 224h-411l-82 -326h332l-60 -240h-332l-90 -364h424l62 254h286l-127 -506h-1185l63 254h160zM846 1812l102 -102l160 102h262v-10l-309 -250h-289l-184 250v10h258z" />
    <glyph glyph-name="ecaron" unicode="&#x11b;" horiz-adv-x="1159" 
d="M625 0h-287q-80 0 -128.5 16t-82.5 50q-62 62 -67.5 174t49.5 346q51 210 92.5 302t93.5 146q54 54 116 73t158 19h275q81 0 128.5 -15t80.5 -48q61 -61 61.5 -175t-61.5 -358q-6 -25 -17.5 -34t-38.5 -9h-612q-20 -84 -27 -134.5t-4.5 -71.5t13.5 -31q19 -19 90 -19h108
q58 0 80 4t39 19q21 21 47 121h283q-35 -126 -64.5 -187.5t-66.5 -97.5q-52 -52 -109.5 -71t-148.5 -19zM680 1516l102 -103l160 103h262v-11l-309 -250h-289l-184 250v11h258zM502 872q-13 -13 -28.5 -55t-45.5 -158h363q26 114 29.5 163.5t-11.5 58.5q-16 16 -88 16h-111
q-83 0 -108 -25z" />
    <glyph glyph-name="Gbreve" unicode="&#x11e;" horiz-adv-x="1406" 
d="M748 774h585q-77 -338 -125.5 -477.5t-117.5 -208.5q-50 -50 -114.5 -69t-168.5 -19h-408q-101 0 -153 16t-88 52q-41 41 -56 115t0 215.5t66 351.5q49 199 92 323t74 176.5t72 93.5q51 51 116 71t170 20h408q100 0 151.5 -16t85.5 -48q47 -47 54.5 -138.5t-23.5 -268.5
h-311q22 101 23.5 143.5t-11.5 48.5q-10 10 -29.5 13t-72.5 3h-234q-82 0 -100 -18q-12 -12 -24 -41t-40 -126t-71 -269q-42 -173 -61 -268.5t-18 -126.5t11 -43q19 -19 102 -19h244q83 0 101 21q14 12 32 62.5t54 195.5h-273zM991 1720q97 0 142 92h229q-88 -270 -404 -270
q-152 0 -233.5 73.5t-73.5 196.5h226q3 -38 33 -65t81 -27z" />
    <glyph glyph-name="gbreve" unicode="&#x11f;" horiz-adv-x="1292" 
d="M-2 -16h281q-6 -47 8 -64q19 -22 88 -22h155q67 0 88 18q14 14 24.5 38t27.5 91l43 178q-133 -95 -192.5 -121t-139.5 -26h-41q-138 0 -203 65q-58 59 -63 164t47 322q46 182 87 269.5t93 139.5q53 53 118 72.5t156 19.5h62q60 0 112 -27.5t156 -113.5l35 139h446
l-61 -241h-141l-213 -854q-33 -136 -59.5 -194.5t-69.5 -96.5q-77 -68 -238 -68h-389q-74 0 -116 15t-70 45q-34 37 -42 90.5t11 161.5zM420 602q-31 -133 -33 -187t19 -69q24 -24 92 -24h45q51 0 87 13t126 58l110 436q-96 54 -164 54h-73q-45 0 -71 -7t-44 -26
q-22 -21 -42 -71t-52 -177zM891 1423q95 0 141 93h230q-44 -135 -147 -203t-257 -68q-152 0 -233.5 74t-73.5 197h225q3 -38 33.5 -65.5t81.5 -27.5z" />
    <glyph glyph-name="Gdotaccent" unicode="&#x120;" horiz-adv-x="1406" 
d="M748 774h585q-77 -338 -125.5 -477.5t-117.5 -208.5q-50 -50 -114.5 -69t-168.5 -19h-408q-101 0 -153 16t-88 52q-41 41 -56 115t0 215.5t66 351.5q49 199 92 323t74 176.5t72 93.5q51 51 116 71t170 20h408q100 0 151.5 -16t85.5 -48q47 -47 54.5 -138.5t-23.5 -268.5
h-311q22 101 23.5 143.5t-11.5 48.5q-10 10 -29.5 13t-72.5 3h-234q-82 0 -100 -18q-12 -12 -24 -41t-40 -126t-71 -269q-42 -173 -61 -268.5t-18 -126.5t11 -43q19 -19 102 -19h244q83 0 101 21q14 12 32 62.5t54 195.5h-273zM784 1565l66 268h321l-65 -268h-322z" />
    <glyph glyph-name="gdotaccent" unicode="&#x121;" horiz-adv-x="1292" 
d="M-2 -16h281q-6 -47 8 -64q19 -22 88 -22h155q67 0 88 18q14 14 24.5 38t27.5 91l43 178q-133 -95 -192.5 -121t-139.5 -26h-41q-138 0 -203 65q-58 59 -63 164t47 322q46 182 87 269.5t93 139.5q53 53 118 72.5t156 19.5h62q60 0 112 -27.5t156 -113.5l35 139h446
l-61 -241h-141l-213 -854q-33 -136 -59.5 -194.5t-69.5 -96.5q-77 -68 -238 -68h-389q-74 0 -116 15t-70 45q-34 37 -42 90.5t11 161.5zM420 602q-31 -133 -33 -187t19 -69q24 -24 92 -24h45q51 0 87 13t126 58l110 436q-96 54 -164 54h-73q-45 0 -71 -7t-44 -26
q-22 -21 -42 -71t-52 -177zM684 1268l66 268h321l-65 -268h-322z" />
    <glyph glyph-name="Gcommaaccent" unicode="&#x122;" horiz-adv-x="1406" 
d="M401 -143h267l-60 -240q-15 -58 -40 -96t-74 -74l-199 -149l-64 63l156 154q31 35 37 59l2 8h-94zM748 774h585q-77 -338 -125.5 -477.5t-117.5 -208.5q-50 -50 -114.5 -69t-168.5 -19h-408q-101 0 -153 16t-88 52q-41 41 -56 115t0 215.5t66 351.5q49 199 92 323
t74 176.5t72 93.5q51 51 116 71t170 20h408q100 0 151.5 -16t85.5 -48q47 -47 54.5 -138.5t-23.5 -268.5h-311q22 101 23.5 143.5t-11.5 48.5q-10 10 -29.5 13t-72.5 3h-234q-82 0 -100 -18q-12 -12 -24 -41t-40 -126t-71 -269q-42 -173 -61 -268.5t-18 -126.5t11 -43
q19 -19 102 -19h244q83 0 101 21q14 12 32 62.5t54 195.5h-273z" />
    <glyph glyph-name="gcommaaccent" unicode="&#x123;" horiz-adv-x="1292" 
d="M-2 -16h281q-6 -47 8 -64q19 -22 88 -22h155q67 0 88 18q14 14 24.5 38t27.5 91l43 178q-133 -95 -192.5 -121t-139.5 -26h-41q-138 0 -203 65q-58 59 -63 164t47 322q46 182 87 269.5t93 139.5q53 53 118 72.5t156 19.5h62q60 0 112 -27.5t156 -113.5l35 139h446
l-61 -241h-141l-213 -854q-33 -136 -59.5 -194.5t-69.5 -96.5q-77 -68 -238 -68h-389q-74 0 -116 15t-70 45q-34 37 -42 90.5t11 161.5zM420 602q-31 -133 -33 -187t19 -69q24 -24 92 -24h45q51 0 87 13t126 58l110 436q-96 54 -164 54h-73q-45 0 -71 -7t-44 -26
q-22 -21 -42 -71t-52 -177zM961 1264h-267l60 239q15 58 40 96t74 74l199 150l63 -64l-155 -153q-30 -35 -37 -60l-2 -8h94z" />
    <glyph glyph-name="Hbar" unicode="&#x126;" horiz-adv-x="1595" 
d="M1507 1180l-28 -115h176l-56 -217h-174l-147 -594h182l-63 -254h-654l62 254h153l72 297h-471l-72 -297h172l-61 -254h-655l63 254h162l147 594h-174l56 217h172l28 115h-182l64 254h653l-62 -254h-153l-29 -109h471l29 109h-172l61 254h656l-64 -254h-162zM612 762h471
l29 121h-471z" />
    <glyph glyph-name="hbar" unicode="&#x127;" horiz-adv-x="1329" 
d="M440 1511h305l-30 -122h252l-54 -215h-251l-54 -213q142 103 198.5 130t133.5 27h57q120 0 181 -61q84 -84 24 -322l-125 -493h156l-59 -242h-461l182 735q19 84 -8 111q-24 24 -76 24h-27q-46 0 -87 -12.5t-128 -52.5l-141 -565h164l-57 -240h-613l58 242h143l229 919
h-153l55 228h156z" />
    <glyph glyph-name="Imacron" unicode="&#x12a;" horiz-adv-x="833" 
d="M502 254h188l-61 -254h-680l63 254h170l230 926h-187l62 254h678l-62 -254h-172zM319 1559l54 219h694l-53 -219h-695z" />
    <glyph glyph-name="imacron" unicode="&#x12b;" horiz-adv-x="743" 
d="M571 0h-616l59 242h148l162 643h-168l59 241h475l-221 -886h162zM195 1262l53 219h694l-53 -219h-694z" />
    <glyph glyph-name="Ibreve" unicode="&#x12c;" horiz-adv-x="833" 
d="M502 254h188l-61 -254h-680l63 254h170l230 926h-187l62 254h678l-62 -254h-172zM713 1720q96 0 141 92h229q-88 -270 -403 -270q-152 0 -233.5 73.5t-73.5 196.5h225q3 -38 33.5 -65t81.5 -27z" />
    <glyph glyph-name="ibreve" unicode="&#x12d;" horiz-adv-x="743" 
d="M571 0h-616l59 242h148l162 643h-168l59 241h475l-221 -886h162zM588 1423q95 0 141 93h229q-88 -271 -403 -271q-152 0 -233.5 74t-73.5 197h225q3 -38 33.5 -65.5t81.5 -27.5z" />
    <glyph glyph-name="Iogonek" unicode="&#x12e;" horiz-adv-x="833" 
d="M199 -147q-12 -51 -4 -66q7 -12 43 -12h49q19 0 30 8q13 10 33 86h187q-30 -117 -50 -162.5t-51 -71.5q-41 -36 -133 -36h-156q-109 0 -143 34q-25 27 -31 65t4 93q9 47 23 77t43 62q31 35 88 70h-182l63 254h170l230 926h-187l62 254h678l-62 -254h-172l-229 -926h188
l-61 -254h-328q-48 -42 -70 -70q-18 -23 -32 -77z" />
    <glyph glyph-name="iogonek" unicode="&#x12f;" horiz-adv-x="743" 
d="M166 -147q-12 -51 -4 -66q7 -12 43 -12h49q20 0 31 8q12 9 32 86h187q-30 -117 -50 -162.5t-51 -71.5q-41 -36 -133 -36h-155q-110 0 -144 34q-25 27 -30.5 65.5t4.5 92.5q9 48 23 78t42 61q31 35 88 70h-143l59 242h148l162 643h-168l59 241h475l-221 -886h162l-60 -240
h-303q-45 -39 -69 -70q-20 -24 -33 -77zM397 1266l66 270h321l-65 -270h-322z" />
    <glyph glyph-name="Idotaccent" unicode="&#x130;" horiz-adv-x="833" 
d="M502 254h188l-61 -254h-680l63 254h170l230 926h-187l62 254h678l-62 -254h-172zM508 1565l65 268h322l-66 -268h-321z" />
    <glyph glyph-name="dotlessi" unicode="&#x131;" horiz-adv-x="743" 
d="M571 0h-616l59 242h148l162 643h-168l59 241h475l-221 -886h162z" />
    <glyph glyph-name="Kcommaaccent" unicode="&#x136;" horiz-adv-x="1533" 
d="M915 252l-196 362h-144l-88 -360h166l-61 -254h-649l63 256h162l229 924h-180l64 254h647l-62 -252h-149l-80 -326h135l365 328h-142l62 250h633l-64 -254h-129l-502 -449l273 -475h164l-64 -256h-657l61 252h143zM477 -143h266l-59 -240q-15 -58 -40.5 -96t-74.5 -74
l-198 -149l-64 63l156 154q31 35 37 59l2 8h-94z" />
    <glyph glyph-name="kcommaaccent" unicode="&#x137;" horiz-adv-x="1269" 
d="M748 1511l-205 -829h98l223 215h-131l58 229h565l-60 -235h-116l-330 -316l149 -333h177l-62 -242h-338l-180 453h-111l-53 -213h129l-59 -240h-578l58 242h143l256 1026h-162l60 243h469zM346 -143h266l-59 -240q-15 -58 -40.5 -96t-74.5 -74l-198 -149l-64 63l156 154
q31 35 37 59l2 8h-95z" />
    <glyph glyph-name="Lacute" unicode="&#x139;" horiz-adv-x="1286" 
d="M530 1552v11l232 239h422l-2 -10l-406 -240h-246zM168 256l229 924h-180l64 254h673l-63 -254h-174l-230 -926h377l66 262h287l-127 -516h-1147l63 256h162z" />
    <glyph glyph-name="lacute" unicode="&#x13a;" horiz-adv-x="714" 
d="M461 1604v10l231 239h422l-2 -10l-405 -239h-246zM547 0h-621l60 242h149l256 1026h-168l60 243h475l-318 -1271h164z" />
    <glyph glyph-name="Lcommaaccent" unicode="&#x13b;" horiz-adv-x="1286" 
d="M274 -143h267l-60 -240q-15 -58 -40 -96t-74 -74l-199 -149l-64 63l156 154q31 35 37 59l2 8h-94zM168 256l229 924h-180l64 254h673l-63 -254h-174l-230 -926h377l66 262h287l-127 -516h-1147l63 256h162z" />
    <glyph glyph-name="lcommaaccent" unicode="&#x13c;" horiz-adv-x="714" 
d="M57 -143h267l-60 -240q-15 -58 -40 -96t-74 -74l-199 -149l-64 63l156 154q31 35 37 59l2 8h-94zM547 0h-621l60 242h149l256 1026h-168l60 243h475l-318 -1271h164z" />
    <glyph glyph-name="Lcaron" unicode="&#x13d;" horiz-adv-x="1286" 
d="M1395 1593l-41 -159q-20 -76 -44 -117t-77 -94l-148 -144l-90 51l88 160q23 44 23 88v152l16 63h273zM168 256l229 924h-180l64 254h673l-63 -254h-174l-230 -926h377l66 262h287l-127 -516h-1147l63 256h162z" />
    <glyph glyph-name="lcaron" unicode="&#x13e;" horiz-adv-x="714" 
d="M1167 1669l-41 -160q-20 -76 -44 -117.5t-76 -93.5l-148 -143l-90 51l88 160q23 44 23 88v152l16 63h272zM547 0h-621l60 242h149l256 1026h-168l60 243h475l-318 -1271h164z" />
    <glyph glyph-name="Ldot" unicode="&#x13f;" horiz-adv-x="1308" 
d="M938 719l66 270h323l-67 -270h-322zM168 256l229 924h-180l64 254h673l-63 -254h-174l-230 -926h377l66 262h287l-127 -516h-1147l63 256h162z" />
    <glyph glyph-name="ldot" unicode="&#x140;" horiz-adv-x="903" 
d="M690 596l80 319h274l-79 -319h-275zM547 0h-621l60 242h149l256 1026h-168l60 243h475l-318 -1271h164z" />
    <glyph glyph-name="Lslash" unicode="&#x141;" horiz-adv-x="1286" 
d="M172 256l76 303l-180 -45l61 252l180 45l92 369h-180l64 254h673l-63 -254h-174l-70 -283l332 84l-61 -252l-334 -84l-96 -391h376l66 262h287l-127 -516h-1147l63 256h162z" />
    <glyph glyph-name="lslash" unicode="&#x142;" horiz-adv-x="714" 
d="M547 0h-621l60 242h149l92 370l-168 -41l64 252l168 41l100 404h-168l60 243h475l-142 -565l166 41l-63 -252l-166 -41l-113 -454h164z" />
    <glyph glyph-name="Nacute" unicode="&#x143;" horiz-adv-x="1634" 
d="M913 1552v11l232 239h422l-2 -10l-406 -240h-246zM1278 0h-256q-76 0 -105 23.5t-47 93.5l-200 897h-21l-186 -760h176l-64 -254h-630l63 254h162l229 926h-182l64 254h469q76 0 104.5 -23t46.5 -94l184 -836h21l174 699h-170l61 254h623l-63 -254h-158z" />
    <glyph glyph-name="nacute" unicode="&#x144;" horiz-adv-x="1355" 
d="M559 0h-612l59 242h141l162 643h-162l60 241h463l-37 -157q145 105 201 132t133 27h57q119 0 180 -61q84 -84 25 -322l-127 -503h155l-59 -242h-461l185 745q19 85 -9 113q-27 23 -75 23h-27q-45 0 -86 -13t-129 -53l-143 -575h163zM707 1255v11l231 239h422l-2 -10
l-406 -240h-245z" />
    <glyph glyph-name="Ncommaaccent" unicode="&#x145;" horiz-adv-x="1634" 
d="M524 -143h267l-60 -240q-15 -58 -40.5 -96t-74.5 -74l-198 -149l-64 63l156 154q31 35 37 59l2 8h-94zM1278 0h-256q-76 0 -105 23.5t-47 93.5l-200 897h-21l-186 -760h176l-64 -254h-630l63 254h162l229 926h-182l64 254h469q76 0 104.5 -23t46.5 -94l184 -836h21
l174 699h-170l61 254h623l-63 -254h-158z" />
    <glyph glyph-name="ncommaaccent" unicode="&#x146;" horiz-adv-x="1355" 
d="M559 0h-612l59 242h141l162 643h-162l60 241h463l-37 -157q145 105 201 132t133 27h57q119 0 180 -61q84 -84 25 -322l-127 -503h155l-59 -242h-461l185 745q19 85 -9 113q-27 23 -75 23h-27q-45 0 -86 -13t-129 -53l-143 -575h163zM399 -143h267l-60 -240
q-15 -58 -40 -96t-74 -74l-199 -149l-64 63l156 154q31 35 37 59l2 8h-94z" />
    <glyph glyph-name="Ncaron" unicode="&#x147;" horiz-adv-x="1634" 
d="M1278 0h-256q-76 0 -105 23.5t-47 93.5l-200 897h-21l-186 -760h176l-64 -254h-630l63 254h162l229 926h-182l64 254h469q76 0 104.5 -23t46.5 -94l184 -836h21l174 699h-170l61 254h623l-63 -254h-158zM1001 1812l103 -102l160 102h262v-10l-309 -250h-289l-185 250v10
h258z" />
    <glyph glyph-name="ncaron" unicode="&#x148;" horiz-adv-x="1355" 
d="M559 0h-612l59 242h141l162 643h-162l60 241h463l-37 -157q145 105 201 132t133 27h57q119 0 180 -61q84 -84 25 -322l-127 -503h155l-59 -242h-461l185 745q19 85 -9 113q-27 23 -75 23h-27q-45 0 -86 -13t-129 -53l-143 -575h163zM795 1516l102 -103l160 103h262v-11
l-309 -250h-289l-184 250v11h258z" />
    <glyph glyph-name="Omacron" unicode="&#x14c;" horiz-adv-x="1419" 
d="M604 1559l53 219h695l-54 -219h-694zM498 717q-32 -131 -50.5 -216.5t-23.5 -129.5t-3.5 -62t9.5 -26q19 -19 102 -19h234q82 0 100 21q12 12 23.5 40t39 124t70.5 268q33 131 51.5 217t24 130.5t4 62.5t-9.5 26q-10 10 -30 13t-74 3h-234q-79 0 -100 -18
q-12 -12 -23.5 -40t-39 -124t-70.5 -270zM1329 684q-49 -199 -91 -321.5t-73.5 -176.5t-72.5 -94q-51 -53 -115.5 -72.5t-171.5 -19.5h-406q-101 0 -153.5 16.5t-87.5 51.5q-41 41 -56 115t0 215.5t66 351.5q70 286 122.5 407.5t115.5 185.5q53 51 117 71t169 20h408
q102 0 153 -15.5t86 -50.5q42 -42 57 -116.5t0 -215t-67 -352.5z" />
    <glyph glyph-name="omacron" unicode="&#x14d;" horiz-adv-x="1204" 
d="M422 1262l53 219h694l-53 -219h-694zM1098 541q-51 -210 -93 -302.5t-94 -144.5q-54 -54 -116.5 -74t-157.5 -20h-299q-80 0 -128.5 16t-82.5 50q-62 62 -67.5 174t49.5 346q51 210 92.5 302t93.5 146q54 54 116 73t158 19h299q81 0 129 -15.5t82 -49.5q62 -62 68 -173.5
t-49 -346.5zM408 563q-27 -112 -38 -176t-9.5 -90t12.5 -37q16 -16 86 -16h151q40 0 58.5 4.5t31.5 17.5q18 18 38.5 75t60.5 222q27 113 38 177t9.5 89.5t-12.5 36.5q-17 17 -86 17h-152q-40 0 -58 -4.5t-32 -18.5q-17 -15 -37 -72.5t-61 -224.5z" />
    <glyph glyph-name="Obreve" unicode="&#x14e;" horiz-adv-x="1419" 
d="M498 717q-32 -131 -50.5 -216.5t-23.5 -129.5t-3.5 -62t9.5 -26q19 -19 102 -19h234q82 0 100 21q12 12 23.5 40t39 124t70.5 268q33 131 51.5 217t24 130.5t4 62.5t-9.5 26q-10 10 -30 13t-74 3h-234q-79 0 -100 -18q-12 -12 -23.5 -40t-39 -124t-70.5 -270zM1329 684
q-49 -199 -91 -321.5t-73.5 -176.5t-72.5 -94q-51 -53 -115.5 -72.5t-171.5 -19.5h-406q-101 0 -153.5 16.5t-87.5 51.5q-41 41 -56 115t0 215.5t66 351.5q70 286 122.5 407.5t115.5 185.5q53 51 117 71t169 20h408q102 0 153 -15.5t86 -50.5q42 -42 57 -116.5t0 -215
t-67 -352.5zM997 1720q97 0 142 92h229q-88 -270 -403 -270q-152 0 -234 73.5t-74 196.5h226q3 -38 33 -65t81 -27z" />
    <glyph glyph-name="obreve" unicode="&#x14f;" horiz-adv-x="1204" 
d="M1098 541q-51 -210 -93 -302.5t-94 -144.5q-54 -54 -116.5 -74t-157.5 -20h-299q-80 0 -128.5 16t-82.5 50q-62 62 -67.5 174t49.5 346q51 210 92.5 302t93.5 146q54 54 116 73t158 19h299q81 0 129 -15.5t82 -49.5q62 -62 68 -173.5t-49 -346.5zM408 563
q-27 -112 -38 -176t-9.5 -90t12.5 -37q16 -16 86 -16h151q40 0 58.5 4.5t31.5 17.5q18 18 38.5 75t60.5 222q27 113 38 177t9.5 89.5t-12.5 36.5q-17 17 -86 17h-152q-40 0 -58 -4.5t-32 -18.5q-17 -15 -37 -72.5t-61 -224.5zM817 1423q95 0 141 93h230q-44 -135 -147 -203
t-257 -68q-152 0 -233.5 74t-73.5 197h225q3 -38 33.5 -65.5t81.5 -27.5z" />
    <glyph glyph-name="Ohungarumlaut" unicode="&#x150;" horiz-adv-x="1419" 
d="M602 1552v11l205 239h367v-10l-345 -240h-227zM1059 1552v11l211 239h377v-10l-359 -240h-229zM498 717q-32 -131 -50.5 -216.5t-23.5 -129.5t-3.5 -62t9.5 -26q19 -19 102 -19h234q82 0 100 21q12 12 23.5 40t39 124t70.5 268q33 131 51.5 217t24 130.5t4 62.5t-9.5 26
q-10 10 -30 13t-74 3h-234q-79 0 -100 -18q-12 -12 -23.5 -40t-39 -124t-70.5 -270zM1329 684q-49 -199 -91 -321.5t-73.5 -176.5t-72.5 -94q-51 -53 -115.5 -72.5t-171.5 -19.5h-406q-101 0 -153.5 16.5t-87.5 51.5q-41 41 -56 115t0 215.5t66 351.5q70 286 122.5 407.5
t115.5 185.5q53 51 117 71t169 20h408q102 0 153 -15.5t86 -50.5q42 -42 57 -116.5t0 -215t-67 -352.5z" />
    <glyph glyph-name="ohungarumlaut" unicode="&#x151;" horiz-adv-x="1204" 
d="M420 1255v11l205 239h366v-10l-344 -240h-227zM877 1255v11l210 239h377v-10l-358 -240h-229zM1098 541q-51 -210 -93 -302.5t-94 -144.5q-54 -54 -116.5 -74t-157.5 -20h-299q-80 0 -128.5 16t-82.5 50q-62 62 -67.5 174t49.5 346q51 210 92.5 302t93.5 146
q54 54 116 73t158 19h299q81 0 129 -15.5t82 -49.5q62 -62 68 -173.5t-49 -346.5zM408 563q-27 -112 -38 -176t-9.5 -90t12.5 -37q16 -16 86 -16h151q40 0 58.5 4.5t31.5 17.5q18 18 38.5 75t60.5 222q27 113 38 177t9.5 89.5t-12.5 36.5q-17 17 -86 17h-152q-40 0 -58 -4.5
t-32 -18.5q-17 -15 -37 -72.5t-61 -224.5z" />
    <glyph glyph-name="OE" unicode="&#x152;" horiz-adv-x="2031" 
d="M1802 0h-1294q-128 0 -207.5 22.5t-130.5 73.5q-78 78 -82.5 238t59.5 418q57 231 115.5 353.5t130.5 194.5q76 76 173.5 105t246.5 29h1337l-120 -476h-285l55 224h-411l-82 -326h331l-59 -240h-332l-90 -364h424l61 254h287zM1069 1180h-276q-69 0 -106.5 -8.5
t-63.5 -34.5q-30 -30 -61 -115.5t-85 -302.5q-55 -229 -64 -317.5t21 -116.5q19 -18 49.5 -24.5t98.5 -6.5h258z" />
    <glyph glyph-name="oe" unicode="&#x153;" horiz-adv-x="1861" 
d="M1327 0h-235q-156 0 -222 66q-16 16 -18 20q-53 -50 -113.5 -68t-152.5 -18h-248q-80 0 -128.5 16t-82.5 50q-62 62 -67.5 174t49.5 346q51 210 92.5 302t93.5 146q54 54 116 73t158 19h248q81 0 129 -15.5t82 -49.5q12 -12 21 -27q54 54 116 73t158 19h223
q81 0 128.5 -15t80.5 -48q61 -61 61.5 -175t-61.5 -358q-6 -25 -17 -34t-38 -9h-613q-20 -84 -27 -134.5t-4.5 -71.5t13.5 -31q19 -19 90 -19h109q58 0 79.5 4t38.5 19q22 22 48 121h282q-35 -126 -64.5 -187.5t-66.5 -97.5q-52 -52 -109.5 -71t-148.5 -19zM408 563
q-27 -112 -38 -176t-9.5 -90t12.5 -37q16 -16 86 -16h151q40 0 58.5 4.5t31.5 17.5q18 18 38.5 75t60.5 222q27 113 38 177t9.5 89.5t-12.5 36.5q-17 17 -86 17h-152q-40 0 -58 -4.5t-32 -18.5q-17 -15 -37 -72.5t-61 -224.5zM1204 872q-13 -13 -28.5 -55t-45.5 -158h363
q26 114 29.5 163.5t-11.5 58.5q-16 16 -88 16h-110q-84 0 -109 -25z" />
    <glyph glyph-name="Racute" unicode="&#x154;" horiz-adv-x="1460" 
d="M803 1552v11l231 239h422l-2 -10l-405 -240h-246zM627 821h272q76 0 102 21q33 33 64 159q20 77 21 113.5t-13 48.5q-16 19 -100 19h-256zM897 385q15 78 13.5 112.5t-19.5 53.5q-18 20 -45 27.5t-86 7.5h-193l-80 -332h175l-62 -254h-657l63 254h162l229 926h-182
l64 254h851q189 0 254 -76q42 -49 48 -126.5t-27 -219.5q-21 -85 -48.5 -141t-67.5 -90t-84 -51t-111 -30v-4q70 -18 104.5 -49.5t45 -93.5t-12.5 -160q-4 -18 -10 -47t-10 -51t-7 -39h156l-64 -256h-258q-73 0 -106 9.5t-53 31.5q-17 20 -21.5 51t4.5 101t35 192z" />
    <glyph glyph-name="racute" unicode="&#x155;" horiz-adv-x="929" 
d="M670 1126l-39 -159q110 92 169.5 126.5t121.5 34.5h100l-76 -305h-106q-125 0 -252 -47l-135 -534h159l-57 -242h-608l59 242h141l162 643h-162l60 241h463zM494 1255v11l231 239h422l-2 -10l-406 -240h-245z" />
    <glyph glyph-name="Rcommaaccent" unicode="&#x156;" horiz-adv-x="1460" 
d="M422 -143h266l-59 -240q-15 -58 -40.5 -96t-74.5 -74l-199 -149l-63 63l156 154q29 34 36 59l2 8h-94zM627 821h272q76 0 102 21q33 33 64 159q20 77 21 113.5t-13 48.5q-16 19 -100 19h-256zM897 385q15 78 13.5 112.5t-19.5 53.5q-18 20 -45 27.5t-86 7.5h-193
l-80 -332h175l-62 -254h-657l63 254h162l229 926h-182l64 254h851q189 0 254 -76q42 -49 48 -126.5t-27 -219.5q-21 -85 -48.5 -141t-67.5 -90t-84 -51t-111 -30v-4q70 -18 104.5 -49.5t45 -93.5t-12.5 -160q-4 -18 -10 -47t-10 -51t-7 -39h156l-64 -256h-258
q-73 0 -106 9.5t-53 31.5q-17 20 -21.5 51t4.5 101t35 192z" />
    <glyph glyph-name="rcommaaccent" unicode="&#x157;" horiz-adv-x="929" 
d="M670 1126l-39 -159q110 92 169.5 126.5t121.5 34.5h100l-76 -305h-106q-125 0 -252 -47l-135 -534h159l-57 -242h-608l59 242h141l162 643h-162l60 241h463zM78 -143h266l-59 -240q-15 -58 -40.5 -96t-74.5 -74l-199 -149l-63 63l155 154q31 35 37 59l2 8h-94z" />
    <glyph glyph-name="Rcaron" unicode="&#x158;" horiz-adv-x="1460" 
d="M897 385q15 78 13.5 112.5t-19.5 53.5q-18 20 -45 27.5t-86 7.5h-193l-80 -332h175l-62 -254h-657l63 254h162l229 926h-182l64 254h851q189 0 254 -76q42 -49 48 -126.5t-27 -219.5q-21 -85 -48.5 -141t-67.5 -90t-84 -51t-111 -30v-4q70 -18 104.5 -49.5t45 -93.5
t-12.5 -160q-4 -18 -10 -47t-10 -51t-7 -39h156l-64 -256h-258q-73 0 -106 9.5t-53 31.5q-17 20 -21.5 51t4.5 101t35 192zM627 821h272q76 0 102 21q33 33 64 159q20 77 21 113.5t-13 48.5q-16 19 -100 19h-256zM891 1812l102 -102l160 102h262v-10l-309 -250h-289
l-184 250v10h258z" />
    <glyph glyph-name="rcaron" unicode="&#x159;" horiz-adv-x="929" 
d="M670 1126l-39 -159q110 92 169.5 126.5t121.5 34.5h100l-76 -305h-106q-125 0 -252 -47l-135 -534h159l-57 -242h-608l59 242h141l162 643h-162l60 241h463zM582 1516l102 -103l160 103h262v-11l-309 -250h-289l-184 250v11h258z" />
    <glyph glyph-name="Sacute" unicode="&#x15a;" horiz-adv-x="1361" 
d="M764 1552v11l231 239h422l-2 -10l-405 -240h-246zM618 899l373 -82q81 -18 123 -35t70 -45q46 -46 53 -123t-25 -208q-32 -128 -66.5 -198t-84.5 -120q-88 -88 -262 -88h-467q-170 0 -236 66q-48 50 -48.5 141t40.5 260h305q-35 -165 -12 -188q16 -19 92 -19h277
q42 0 61.5 4t32.5 17q27 27 51 129q14 52 14.5 76.5t-12.5 39.5q-17 17 -59 25l-375 80q-84 19 -123.5 35.5t-69.5 46.5q-45 44 -51 120.5t25 206.5q48 206 145 306q92 88 260 88h436q166 0 228 -62q49 -49 52.5 -136t-32.5 -255h-307q17 90 18.5 126.5t-10.5 47.5
q-19 19 -94 19h-240q-73 0 -92 -19q-22 -22 -49 -121q-12 -51 -12 -75.5t12 -34.5q15 -18 59 -25z" />
    <glyph glyph-name="sacute" unicode="&#x15b;" horiz-adv-x="1095" 
d="M565 1255v11l232 239h422l-2 -10l-406 -240h-246zM43 358h266q-10 -49 -11.5 -70.5t9.5 -41.5q23 -19 72 -19h194q51 0 68 17q18 18 35 84q15 58 -2 75q-12 12 -49 21l-269 61q-119 26 -166 70q-70 71 -24 258q40 163 125 248q65 65 196 65h365q123 0 176 -53
q36 -36 42 -103t-21 -194h-271q6 32 8 48.5t0.5 33t-10.5 25.5q-16 16 -69 16h-164q-54 0 -68 -16q-16 -13 -33 -76q-14 -61 4 -76q9 -12 50 -20l270 -60q67 -13 103 -28.5t61 -40.5q68 -68 24 -260q-42 -171 -127 -256q-63 -66 -194 -66h-400q-124 0 -178 57
q-70 67 -12 301z" />
    <glyph glyph-name="Scedilla" unicode="&#x15e;" horiz-adv-x="1361" 
d="M618 899l373 -82q81 -18 123 -35t70 -45q46 -46 53 -123t-25 -208q-32 -128 -66.5 -198t-84.5 -120q-88 -88 -262 -88h-467q-170 0 -236 66q-48 50 -48.5 141t40.5 260h305q-35 -165 -12 -188q16 -19 92 -19h277q42 0 61.5 4t32.5 17q27 27 51 129q14 52 14.5 76.5
t-12.5 39.5q-17 17 -59 25l-375 80q-84 19 -123.5 35.5t-69.5 46.5q-45 44 -51 120.5t25 206.5q48 206 145 306q92 88 260 88h436q166 0 228 -62q49 -49 52.5 -136t-32.5 -255h-307q17 90 18.5 126.5t-10.5 47.5q-19 19 -94 19h-240q-73 0 -92 -19q-22 -22 -49 -121
q-12 -51 -12 -75.5t12 -34.5q15 -18 59 -25zM469 -199h-84l37 144h141q62 0 93.5 -7t50.5 -26q42 -42 14 -168q-16 -63 -30.5 -91.5t-35.5 -49.5q-41 -41 -151 -41h-221l-105 104l12 47h273q30 0 43 8q9 7 16 35q6 23 -2 35q-8 10 -51 10z" />
    <glyph glyph-name="scedilla" unicode="&#x15f;" horiz-adv-x="1095" 
d="M43 358h266q-10 -49 -11.5 -70.5t9.5 -41.5q23 -19 72 -19h194q51 0 68 17q18 18 35 84q15 58 -2 75q-12 12 -49 21l-269 61q-119 26 -166 70q-70 71 -24 258q40 163 125 248q65 65 196 65h365q123 0 176 -53q36 -36 42 -103t-21 -194h-271q6 32 8 48.5t0.5 33
t-10.5 25.5q-16 16 -69 16h-164q-54 0 -68 -16q-16 -13 -33 -76q-14 -61 4 -76q9 -12 50 -20l270 -60q67 -13 103 -28.5t61 -40.5q68 -68 24 -260q-42 -171 -127 -256q-63 -66 -194 -66h-400q-124 0 -178 57q-70 67 -12 301zM338 -199h-84l37 144h141q62 0 93 -7t50 -26
q43 -43 15 -168q-16 -63 -30.5 -91.5t-35.5 -49.5q-41 -41 -151 -41h-221l-105 104l12 47h273q30 0 43 8q9 7 16 35q6 23 -2 35q-7 10 -51 10z" />
    <glyph glyph-name="Scaron" unicode="&#x160;" horiz-adv-x="1361" 
d="M618 899l373 -82q81 -18 123 -35t70 -45q46 -46 53 -123t-25 -208q-32 -128 -66.5 -198t-84.5 -120q-88 -88 -262 -88h-467q-170 0 -236 66q-48 50 -48.5 141t40.5 260h305q-35 -165 -12 -188q16 -19 92 -19h277q42 0 61.5 4t32.5 17q27 27 51 129q14 52 14.5 76.5
t-12.5 39.5q-17 17 -59 25l-375 80q-84 19 -123.5 35.5t-69.5 46.5q-45 44 -51 120.5t25 206.5q48 206 145 306q92 88 260 88h436q166 0 228 -62q49 -49 52.5 -136t-32.5 -255h-307q17 90 18.5 126.5t-10.5 47.5q-19 19 -94 19h-240q-73 0 -92 -19q-22 -22 -49 -121
q-12 -51 -12 -75.5t12 -34.5q15 -18 59 -25zM852 1812l102 -102l160 102h262v-10l-309 -250h-289l-184 250v10h258z" />
    <glyph glyph-name="scaron" unicode="&#x161;" horiz-adv-x="1095" 
d="M43 358h266q-10 -49 -11.5 -70.5t9.5 -41.5q23 -19 72 -19h194q51 0 68 17q18 18 35 84q15 58 -2 75q-12 12 -49 21l-269 61q-119 26 -166 70q-70 71 -24 258q40 163 125 248q65 65 196 65h365q123 0 176 -53q36 -36 42 -103t-21 -194h-271q6 32 8 48.5t0.5 33
t-10.5 25.5q-16 16 -69 16h-164q-54 0 -68 -16q-16 -13 -33 -76q-14 -61 4 -76q9 -12 50 -20l270 -60q67 -13 103 -28.5t61 -40.5q68 -68 24 -260q-42 -171 -127 -256q-63 -66 -194 -66h-400q-124 0 -178 57q-70 67 -12 301zM653 1516l103 -103l159 103h263v-11l-310 -250
h-288l-185 250v11h258z" />
    <glyph glyph-name="Tcommaaccent" unicode="&#x162;" horiz-adv-x="1447" 
d="M422 -143h266l-59 -240q-15 -58 -40.5 -96t-74.5 -74l-199 -149l-63 63l156 154q29 34 36 59l2 8h-94zM809 254h195l-64 -254h-688l63 254h174l232 930h-229l-68 -273h-270l133 523h1315l-134 -523h-268l68 273h-228z" />
    <glyph glyph-name="tcommaaccent" unicode="&#x163;" horiz-adv-x="847" 
d="M137 -143h266l-59 -240q-15 -58 -40.5 -96t-74.5 -74l-198 -149l-64 63l156 154q31 35 37 59l2 8h-94zM694 244l-51 -199l-115 -29q-110 -24 -190 -24q-118 0 -180 59q-69 69 -23 258l144 576h-160l59 241h162l70 281h307l-70 -281h256l-59 -241h-258l-133 -533
q-17 -71 2 -90q18 -18 86 -18h153z" />
    <glyph glyph-name="Tcaron" unicode="&#x164;" horiz-adv-x="1447" 
d="M809 254h195l-64 -254h-688l63 254h174l232 930h-229l-68 -273h-270l133 523h1315l-134 -523h-268l68 273h-228zM899 1812l102 -102l160 102h262v-10l-309 -250h-289l-184 250v10h258z" />
    <glyph glyph-name="tcaron" unicode="&#x165;" horiz-adv-x="847" 
d="M1159 1735l-41 -160q-20 -76 -44 -117t-77 -94l-147 -143l-90 51l88 160q22 42 22 88v151l17 64h272zM694 244l-51 -199l-115 -29q-110 -24 -190 -24q-118 0 -180 59q-69 69 -23 258l144 576h-160l59 241h162l70 281h307l-70 -281h256l-59 -241h-258l-133 -533
q-17 -71 2 -90q18 -18 86 -18h153z" />
    <glyph glyph-name="Umacron" unicode="&#x16a;" horiz-adv-x="1570" 
d="M692 1180l-151 -613q-35 -145 -39 -203t16 -71q14 -16 52 -22.5t126 -6.5h64q87 0 122.5 6.5t57.5 28.5t42 72t54 186l154 623h-174l61 254h652l-62 -254h-160l-147 -594q-40 -162 -74.5 -259.5t-59.5 -137.5t-63 -78q-67 -67 -154.5 -89t-238.5 -22h-176q-262 0 -348 86
q-62 62 -67 171t52 349l142 574h-176l61 254h653l-61 -254h-158zM682 1559l53 219h695l-54 -219h-694z" />
    <glyph glyph-name="umacron" unicode="&#x16b;" horiz-adv-x="1320" 
d="M1272 1126l-221 -884h161l-59 -242h-463l37 156q-144 -104 -200.5 -131t-133.5 -27h-57q-117 0 -180 63q-84 84 -25 320l127 504h-156l60 241h461l-185 -745q-19 -84 8 -111q22 -22 76 -22h27q46 0 87 12.5t126 52.5l143 574h-164l60 239h471zM465 1262l53 219h694
l-53 -219h-694z" />
    <glyph glyph-name="Ubreve" unicode="&#x16c;" horiz-adv-x="1570" 
d="M692 1180l-151 -613q-35 -145 -39 -203t16 -71q14 -16 52 -22.5t126 -6.5h64q87 0 122.5 6.5t57.5 28.5t42 72t54 186l154 623h-174l61 254h652l-62 -254h-160l-147 -594q-40 -162 -74.5 -259.5t-59.5 -137.5t-63 -78q-67 -67 -154.5 -89t-238.5 -22h-176q-262 0 -348 86
q-62 62 -67 171t52 349l142 574h-176l61 254h653l-61 -254h-158zM1077 1720q97 0 142 92h229q-88 -270 -404 -270q-152 0 -233.5 73.5t-73.5 196.5h226q3 -38 33 -65t81 -27z" />
    <glyph glyph-name="ubreve" unicode="&#x16d;" horiz-adv-x="1320" 
d="M1272 1126l-221 -884h161l-59 -242h-463l37 156q-144 -104 -200.5 -131t-133.5 -27h-57q-117 0 -180 63q-84 84 -25 320l127 504h-156l60 241h461l-185 -745q-19 -84 8 -111q22 -22 76 -22h27q46 0 87 12.5t126 52.5l143 574h-164l60 239h471zM860 1423q95 0 141 93h230
q-44 -135 -147 -203t-257 -68q-152 0 -233.5 74t-73.5 197h225q3 -38 33.5 -65.5t81.5 -27.5z" />
    <glyph glyph-name="Uring" unicode="&#x16e;" horiz-adv-x="1570" 
d="M1024 1694h90q46 0 62 16q15 15 22 53q10 46 -6 62q-10 10 -55 10h-90q-46 0 -60 -14t-24 -56q-8 -45 6 -59q12 -12 55 -12zM1380 1757q-13 -59 -29.5 -91.5t-45.5 -63.5q-59 -56 -164 -56h-185q-100 0 -145 45q-59 59 -31 181q13 59 30 91.5t48 65.5q56 53 162 53h184
q103 0 148 -45q55 -55 28 -180zM692 1180l-151 -613q-35 -145 -39 -203t16 -71q14 -16 52 -22.5t126 -6.5h64q87 0 122.5 6.5t57.5 28.5t42 72t54 186l154 623h-174l61 254h652l-62 -254h-160l-147 -594q-40 -162 -74.5 -259.5t-59.5 -137.5t-63 -78q-67 -67 -154.5 -89
t-238.5 -22h-176q-262 0 -348 86q-62 62 -67 171t52 349l142 574h-176l61 254h653l-61 -254h-158z" />
    <glyph glyph-name="uring" unicode="&#x16f;" horiz-adv-x="1320" 
d="M1272 1126l-221 -884h161l-59 -242h-463l37 156q-144 -104 -200.5 -131t-133.5 -27h-57q-117 0 -180 63q-84 84 -25 320l127 504h-156l60 241h461l-185 -745q-19 -84 8 -111q22 -22 76 -22h27q46 0 87 12.5t126 52.5l143 574h-164l60 239h471zM1163 1460
q-13 -58 -29.5 -91t-46.5 -64q-59 -56 -163 -56h-185q-100 0 -145 45q-59 59 -31 181q13 59 30 91.5t48 65.5q57 54 162 54h184q102 0 148 -46q55 -55 28 -180zM807 1397h90q45 0 61 16t23 53q10 46 -6 62q-10 10 -55 10h-91q-45 0 -59 -14q-15 -15 -25 -56q-8 -44 7 -59
q12 -12 55 -12z" />
    <glyph glyph-name="Uhungarumlaut" unicode="&#x170;" horiz-adv-x="1570" 
d="M692 1180l-151 -613q-35 -145 -39 -203t16 -71q14 -16 52 -22.5t126 -6.5h64q87 0 122.5 6.5t57.5 28.5t42 72t54 186l154 623h-174l61 254h652l-62 -254h-160l-147 -594q-40 -162 -74.5 -259.5t-59.5 -137.5t-63 -78q-67 -67 -154.5 -89t-238.5 -22h-176q-262 0 -348 86
q-62 62 -67 171t52 349l142 574h-176l61 254h653l-61 -254h-158zM680 1552v11l205 239h366v-10l-344 -240h-227zM1137 1552v11l211 239h376v-10l-358 -240h-229z" />
    <glyph glyph-name="uhungarumlaut" unicode="&#x171;" horiz-adv-x="1320" 
d="M1272 1126l-221 -884h161l-59 -242h-463l37 156q-144 -104 -200.5 -131t-133.5 -27h-57q-117 0 -180 63q-84 84 -25 320l127 504h-156l60 241h461l-185 -745q-19 -84 8 -111q22 -22 76 -22h27q46 0 87 12.5t126 52.5l143 574h-164l60 239h471zM920 1255v11l210 239h377
v-10l-358 -240h-229zM463 1255v11l205 239h366v-10l-344 -240h-227z" />
    <glyph glyph-name="Uogonek" unicode="&#x172;" horiz-adv-x="1570" 
d="M692 1180l-151 -613q-35 -145 -39 -203t16 -71q14 -16 52 -22.5t126 -6.5h64q87 0 122.5 6.5t57.5 28.5t42 72t54 186l154 623h-174l61 254h652l-62 -254h-160l-147 -594q-40 -162 -74.5 -259.5t-59.5 -137.5t-63 -78q-67 -67 -154.5 -89t-238.5 -22h-84q-48 -42 -70 -70
q-18 -23 -32 -77q-12 -51 -4 -66q7 -12 43 -12h49q19 0 30 8q13 10 33 86h187q-30 -117 -50 -162.5t-51 -71.5q-41 -36 -133 -36h-156q-109 0 -143 34q-25 27 -31 65t4 93q9 47 23 77t43 62q21 27 90 70q-197 11 -272 86q-62 62 -67 171t52 349l142 574h-176l61 254h653
l-61 -254h-158z" />
    <glyph glyph-name="uogonek" unicode="&#x173;" horiz-adv-x="1320" 
d="M1272 1126l-221 -884h161l-59 -242h-297q-48 -42 -70 -70q-18 -23 -32 -77q-12 -51 -4 -66q7 -12 43 -12h49q19 0 30 8q13 10 33 86h187q-30 -117 -50 -162.5t-51 -71.5q-41 -36 -133 -36h-156q-109 0 -143 34q-25 27 -31 65t4 93q9 47 23 77t43 62q20 26 92 72l37 156
q-146 -105 -202 -132.5t-132 -27.5h-57q-117 0 -180 63q-84 84 -25 320l127 504h-156l60 241h461l-185 -745q-19 -84 8 -111q22 -22 76 -22h27q46 0 87 12.5t126 52.5l143 574h-164l60 239h471z" />
    <glyph glyph-name="Wcircumflex" unicode="&#x174;" horiz-adv-x="2183" 
d="M1403 1438q60 0 84.5 -23t21.5 -82l-47 -1016h23l360 861h-172l62 256h620l-61 -256h-135l-492 -1080q-27 -59 -62 -81.5t-96 -22.5h-231q-60 0 -84 23.5t-20 82.5l43 912h-21l-410 -912q-26 -59 -61 -82.5t-94 -23.5h-232q-61 0 -85 22.5t-21 81.5l39 1080h-152l62 256
h622l-61 -256h-162l-53 -859h22l449 1014q26 59 62 82t96 23h186zM1473 1552l-103 103l-160 -103h-262v11l309 249h289l185 -249v-11h-258z" />
    <glyph glyph-name="wcircumflex" unicode="&#x175;" horiz-adv-x="1851" 
d="M168 1126h522l-61 -243h-111l-26 -572h20l354 744q21 44 49 59.5t76 15.5h115q63 0 89 -20t26 -76l-4 -725h20l246 574h-129l61 243h527l-62 -243h-108l-394 -811q-21 -45 -48 -60.5t-75 -15.5h-172q-66 0 -92.5 22.5t-25.5 81.5l8 621h-19l-309 -649q-20 -43 -48 -59.5
t-75 -16.5h-168q-68 0 -96.5 21.5t-28.5 84.5l9 781h-132zM1235 1255l-102 103l-160 -103h-262v11l309 250h289l184 -250v-11h-258z" />
    <glyph glyph-name="Ycircumflex" unicode="&#x176;" horiz-adv-x="1474" 
d="M575 573l-256 607h-155l63 254h633l-63 -250h-146l140 -359h12l315 359h-160l64 250h643l-63 -254h-140l-567 -607l-78 -317h193l-64 -256h-684l64 256h172zM1114 1552l-102 103l-160 -103h-262v11l309 249h289l184 -249v-11h-258z" />
    <glyph glyph-name="ycircumflex" unicode="&#x177;" horiz-adv-x="1329" 
d="M238 885h-134l62 241h563l-61 -241h-129l65 -551h23l313 551h-141l61 241h567l-61 -241h-115l-657 -1047q-60 -95 -127.5 -132.5t-181.5 -37.5q-96 0 -265 15l58 235h205q25 0 40.5 9.5t30.5 35.5l27 45zM977 1255l-103 103l-159 -103h-262v11l309 250h289l184 -250v-11
h-258z" />
    <glyph glyph-name="Ydieresis" unicode="&#x178;" horiz-adv-x="1474" 
d="M575 573l-256 607h-155l63 254h633l-63 -250h-146l140 -359h12l315 359h-160l64 250h643l-63 -254h-140l-567 -607l-78 -317h193l-64 -256h-684l64 256h172zM606 1556l68 267h309l-68 -267h-309zM1047 1556l67 267h309l-67 -267h-309z" />
    <glyph glyph-name="Zacute" unicode="&#x179;" horiz-adv-x="1376" 
d="M780 1552v11l232 239h422l-2 -10l-406 -240h-246zM444 250h474l69 274h285l-131 -524h-1182l57 236l1002 950h-447l-67 -264h-285l131 512h1153l-57 -236z" />
    <glyph glyph-name="zacute" unicode="&#x17a;" horiz-adv-x="1183" 
d="M602 1255v11l232 239h421l-2 -10l-405 -240h-246zM391 227h365l53 213h260l-111 -440h-1019l51 213l803 688h-338l-52 -205h-260l109 430h987l-51 -211z" />
    <glyph glyph-name="Zdotaccent" unicode="&#x17b;" horiz-adv-x="1376" 
d="M444 250h474l69 274h285l-131 -524h-1182l57 236l1002 950h-447l-67 -264h-285l131 512h1153l-57 -236zM788 1565l66 268h322l-66 -268h-322z" />
    <glyph glyph-name="zdotaccent" unicode="&#x17c;" horiz-adv-x="1183" 
d="M391 227h365l53 213h260l-111 -440h-1019l51 213l803 688h-338l-52 -205h-260l109 430h987l-51 -211zM610 1268l66 268h321l-65 -268h-322z" />
    <glyph glyph-name="Zcaron" unicode="&#x17d;" horiz-adv-x="1376" 
d="M444 250h474l69 274h285l-131 -524h-1182l57 236l1002 950h-447l-67 -264h-285l131 512h1153l-57 -236zM868 1812l103 -102l159 102h263v-10l-310 -250h-288l-185 250v10h258z" />
    <glyph glyph-name="zcaron" unicode="&#x17e;" horiz-adv-x="1183" 
d="M391 227h365l53 213h260l-111 -440h-1019l51 213l803 688h-338l-52 -205h-260l109 430h987l-51 -211zM690 1516l103 -103l159 103h262v-11l-309 -250h-289l-184 250v11h258z" />
    <glyph glyph-name="Aringacute" unicode="&#x1fa;" horiz-adv-x="1527" 
d="M1307 1520q-13 -59 -30 -92t-46 -64l-35 -27q11 -20 18 -80l76 -1001h148l-64 -256h-633l62 252h160l-7 192h-430l-102 -192h168l-62 -252h-632l61 256h133l590 1030q26 45 51 70q-54 57 -26 178q13 59 29.5 92.5t47.5 65.5q56 53 162 53h184q103 0 148 -45
q56 -56 29 -180zM930 1833v10l231 240h422l-2 -10l-405 -240h-246zM901 1153l-250 -469h297l-20 469h-27zM950 1456h90q45 0 62 17q15 15 22 53q10 45 -6 61q-10 10 -55 10h-90q-46 0 -60 -14t-24 -55q-8 -46 6 -60q12 -12 55 -12z" />
    <glyph glyph-name="aringacute" unicode="&#x1fb;" horiz-adv-x="1239" 
d="M1098 723l-121 -481h156l-58 -242h-457l31 129q-119 -82 -181.5 -106.5t-137.5 -24.5h-74q-79 0 -119.5 13.5t-70.5 43.5q-78 78 -29 277q43 168 113 235q53 53 132.5 74t217.5 21q135 0 270 -33l25 96q19 78 20 109t-12 40q-19 19 -74 19h-117q-62 0 -86 -21
q-23 -23 -45 -106h-291q33 126 60.5 186t62.5 95q44 44 100 61.5t136 17.5h336q135 0 198 -63q44 -43 47 -120.5t-32 -219.5zM1145 1460q-13 -58 -29.5 -91t-46.5 -64q-59 -56 -164 -56h-184q-101 0 -146 45q-58 58 -30 181q13 59 30 91.5t48 65.5q57 54 161 54h185
q101 0 147 -46q56 -56 29 -180zM762 1792v10l231 240h422l-2 -10l-405 -240h-246zM457 219q44 0 90 14t137 56l47 188h-178q-84 0 -117.5 -7t-54.5 -28q-26 -26 -43 -94q-20 -86 4 -110q22 -19 76 -19h39zM788 1397h91q45 0 61 16t23 53q10 45 -7 62q-10 10 -55 10h-90
q-45 0 -59 -14q-15 -15 -25 -56q-8 -45 6 -59q12 -12 55 -12z" />
    <glyph glyph-name="AEacute" unicode="&#x1fc;" horiz-adv-x="2109" 
d="M602 1180l64 254h1562l-121 -476h-284l55 224h-412l-82 -326h332l-59 -240h-332l-90 -364h424l61 254h287l-127 -506h-1190l62 254h163l48 192h-414l-154 -196h148l-62 -250h-612l63 254h138l733 926h-201zM1288 1552v11l232 239h422l-3 -10l-405 -240h-246zM1149 1192
h-19l-397 -508h289z" />
    <glyph glyph-name="aeacute" unicode="&#x1fd;" horiz-adv-x="1808" 
d="M772 66q-40 37 -55 98q-150 -105 -220.5 -135.5t-150.5 -30.5h-90q-79 0 -119.5 13.5t-70.5 43.5q-78 78 -29 277q43 168 113 235q53 53 132.5 74t217.5 21q135 0 270 -33l25 96q14 52 18.5 83t2 43t-10.5 21q-21 21 -76 21h-117q-62 0 -86 -21q-23 -23 -45 -106h-291
q33 126 60.5 186t62.5 95q44 44 100 61.5t136 17.5h266q135 0 193 -61q7 -7 20 -29q56 53 116.5 71.5t153.5 18.5h193q81 0 129.5 -15t81.5 -48q61 -61 61.5 -175t-61.5 -358q-6 -25 -18 -34t-39 -9h-611q-20 -84 -27.5 -134.5t-5 -71.5t12.5 -31q19 -19 90 -19h110
q57 0 79.5 4t37.5 19q21 21 47 121h285q-35 -126 -64.5 -187.5t-66.5 -97.5q-54 -52 -110.5 -71t-147.5 -19h-289q-147 0 -213 66zM895 1255v11l231 239h422l-2 -10l-405 -240h-246zM709 299q3 73 24 178h-180q-84 0 -117.5 -7t-54.5 -28q-26 -26 -43 -94q-20 -86 4 -110
q22 -19 76 -19h39q47 0 96.5 16t155.5 64zM1151 872q-27 -27 -76 -213h365q26 117 29 163.5t-13 58.5q-16 16 -88 16h-111q-84 0 -106 -25z" />
    <glyph glyph-name="Oslashacute" unicode="&#x1fe;" horiz-adv-x="1419" 
d="M1329 684q-49 -199 -91 -321.5t-73.5 -176.5t-72.5 -94q-51 -53 -115.5 -72.5t-171.5 -19.5h-406h-39l-77 -109h-265l132 183q-38 43 -51 118t2.5 214.5t66.5 343.5q70 286 122.5 407.5t115.5 185.5q53 51 117 71t169 20h408h37l77 108h265l-133 -182q39 -43 52 -118.5
t-3 -214t-66 -343.5zM999 717q46 184 66 287l-524 -740h225q82 0 100 21q12 12 23.5 40t39 124t70.5 268zM498 717q-41 -160 -64 -281l518 733h-221q-79 0 -100 -18q-12 -12 -23.5 -40t-39 -124t-70.5 -270zM791 1552v11l231 239h422l-2 -10l-406 -240h-245z" />
    <glyph glyph-name="oslashacute" unicode="&#x1ff;" horiz-adv-x="1214" 
d="M1098 541q-51 -210 -93 -302.5t-94 -144.5q-54 -54 -116.5 -74t-157.5 -20h-299h-43l-80 -102h-262l151 192q-46 64 -46 173.5t51 322.5q51 210 92.5 302t93.5 146q54 54 116 73t158 19h299q31 0 45 -2l80 105h260l-153 -193q46 -64 46.5 -173t-48.5 -322zM602 1255v11
l232 239h421l-2 -10l-405 -240h-246zM809 563q30 122 41 201l-385 -520h156q40 0 58.5 4.5t31.5 17.5q18 18 37.5 74.5t60.5 222.5zM397 563q-24 -96 -43 -198l387 518h-155q-40 0 -58 -4.5t-32 -18.5q-18 -16 -38 -73.5t-61 -223.5z" />
    <glyph glyph-name="Scommaaccent" unicode="&#x218;" horiz-adv-x="1361" 
d="M375 -143h266l-59 -240q-15 -58 -40.5 -96t-74.5 -74l-199 -149l-63 63l155 154q31 35 37 59l2 8h-94zM618 899l373 -82q81 -18 123 -35t70 -45q46 -46 53 -123t-25 -208q-32 -128 -66.5 -198t-84.5 -120q-88 -88 -262 -88h-467q-170 0 -236 66q-48 50 -48.5 141
t40.5 260h305q-35 -165 -12 -188q16 -19 92 -19h277q42 0 61.5 4t32.5 17q27 27 51 129q14 52 14.5 76.5t-12.5 39.5q-17 17 -59 25l-375 80q-84 19 -123.5 35.5t-69.5 46.5q-45 44 -51 120.5t25 206.5q48 206 145 306q92 88 260 88h436q166 0 228 -62q49 -49 52.5 -136
t-32.5 -255h-307q17 90 18.5 126.5t-10.5 47.5q-19 19 -94 19h-240q-73 0 -92 -19q-22 -22 -49 -121q-12 -51 -12 -75.5t12 -34.5q15 -18 59 -25z" />
    <glyph glyph-name="scommaaccent" unicode="&#x219;" horiz-adv-x="1095" 
d="M250 -143h266l-59 -240q-15 -58 -40.5 -96t-74.5 -74l-199 -149l-63 63l156 154q29 34 36 59l2 8h-94zM43 358h266q-10 -49 -11.5 -70.5t9.5 -41.5q23 -19 72 -19h194q51 0 68 17q18 18 35 84q15 58 -2 75q-12 12 -49 21l-269 61q-119 26 -166 70q-70 71 -24 258
q40 163 125 248q65 65 196 65h365q123 0 176 -53q36 -36 42 -103t-21 -194h-271q6 32 8 48.5t0.5 33t-10.5 25.5q-16 16 -69 16h-164q-54 0 -68 -16q-16 -13 -33 -76q-14 -61 4 -76q9 -12 50 -20l270 -60q67 -13 103 -28.5t61 -40.5q68 -68 24 -260q-42 -171 -127 -256
q-63 -66 -194 -66h-400q-124 0 -178 57q-70 67 -12 301z" />
    <glyph glyph-name="schwa" unicode="&#x259;" horiz-adv-x="1159" 
d="M430 752h-285q35 126 64 187t67 99q53 52 110 70t149 18h286q148 0 213 -65q62 -62 67.5 -173.5t-48.5 -346.5q-51 -210 -93 -302.5t-96 -144.5q-55 -55 -116.5 -74.5t-155.5 -19.5h-275q-81 0 -129.5 15t-81.5 48q-61 61 -61.5 176t61.5 357q6 25 18.5 35t39.5 10h610
q28 123 32 176t-11 62q-18 18 -90 18h-111q-59 0 -81 -4t-36 -21q-22 -22 -47 -120zM657 254q13 13 28.5 55.5t45.5 159.5h-362q-26 -118 -29 -163.5t12 -57.5q17 -17 88 -17h111q83 0 106 23z" />
    <glyph glyph-name="circumflex" unicode="&#x2c6;" 
d="M817 1255l-102 103l-160 -103h-262v11l309 250h289l184 -250v-11h-258z" />
    <glyph glyph-name="caron" unicode="&#x2c7;" 
d="M610 1516l103 -103l159 103h263v-11l-310 -250h-288l-185 250v11h258z" />
    <glyph glyph-name="breve" unicode="&#x2d8;" 
d="M731 1423q95 0 141 93h230q-44 -135 -147 -203t-257 -68q-152 0 -233.5 74t-73.5 197h225q3 -38 33.5 -65.5t81.5 -27.5z" />
    <glyph glyph-name="dotaccent" unicode="&#x2d9;" 
d="M524 1268l66 268h321l-65 -268h-322z" />
    <glyph glyph-name="ring" unicode="&#x2da;" 
d="M678 1397h90q45 0 61 16t23 53q10 46 -6 62q-10 10 -55 10h-91q-45 0 -59 -14q-15 -15 -25 -56q-8 -44 7 -59q12 -12 55 -12zM1034 1460q-13 -58 -29.5 -91t-46.5 -64q-59 -56 -163 -56h-185q-100 0 -145 45q-59 59 -31 181q13 59 30 91.5t48 65.5q57 54 162 54h184
q102 0 148 -46q55 -55 28 -180z" />
    <glyph glyph-name="ogonek" unicode="&#x2db;" 
d="M270 -147q-12 -51 -4 -66q7 -12 43 -12h49q20 0 31 8q13 10 33 86h186q-30 -118 -50 -163t-50 -71q-41 -36 -133 -36h-156q-109 0 -143 34q-25 27 -31 65t4 93q9 47 23 77t43 62q58 63 235 154l41 -68q-66 -59 -88 -86q-20 -24 -33 -77z" />
    <glyph glyph-name="tilde" unicode="&#x2dc;" horiz-adv-x="1011" 
d="M305 1262l31 127q23 86 65 120q37 33 101 33h35q62 0 139 -29l172 -61l72 88h165l-32 -129q-20 -86 -64 -121q-37 -30 -100 -30h-35q-71 0 -139 28l-170 62l-74 -88h-166z" />
    <glyph glyph-name="hungarumlaut" unicode="&#x2dd;" 
d="M252 1255v11l205 239h366v-10l-344 -240h-227zM709 1255v11l211 239h376v-10l-358 -240h-229z" />
    <glyph glyph-name="commaaccent" unicode="&#x326;" 
d="M217 -143h266l-59 -240q-15 -58 -40.5 -96t-74.5 -74l-198 -149l-64 63l156 154q31 35 37 59l2 8h-95z" />
    <glyph glyph-name="Wgrave" unicode="&#x1e80;" horiz-adv-x="2183" 
d="M1403 1438q60 0 84.5 -23t21.5 -82l-47 -1016h23l360 861h-172l62 256h620l-61 -256h-135l-492 -1080q-27 -59 -62 -81.5t-96 -22.5h-231q-60 0 -84 23.5t-20 82.5l43 912h-21l-410 -912q-26 -59 -61 -82.5t-94 -23.5h-232q-61 0 -85 22.5t-21 81.5l39 1080h-152l62 256
h622l-61 -256h-162l-53 -859h22l449 1014q26 59 62 82t96 23h186zM1499 1552h-221l-305 240l2 10h407l117 -239v-11z" />
    <glyph glyph-name="wgrave" unicode="&#x1e81;" horiz-adv-x="1851" 
d="M168 1126h522l-61 -243h-111l-26 -572h20l354 744q21 44 49 59.5t76 15.5h115q63 0 89 -20t26 -76l-4 -725h20l246 574h-129l61 243h527l-62 -243h-108l-394 -811q-21 -45 -48 -60.5t-75 -15.5h-172q-66 0 -92.5 22.5t-25.5 81.5l8 621h-19l-309 -649q-20 -43 -48 -59.5
t-75 -16.5h-168q-68 0 -96.5 21.5t-28.5 84.5l9 781h-132zM1260 1255h-222l-305 240l2 10h408l117 -239v-11z" />
    <glyph glyph-name="Wacute" unicode="&#x1e82;" horiz-adv-x="2183" 
d="M1174 1552v11l231 239h422l-2 -10l-406 -240h-245zM1403 1438q60 0 84.5 -23t21.5 -82l-47 -1016h23l360 861h-172l62 256h620l-61 -256h-135l-492 -1080q-27 -59 -62 -81.5t-96 -22.5h-231q-60 0 -84 23.5t-20 82.5l43 912h-21l-410 -912q-26 -59 -61 -82.5t-94 -23.5
h-232q-61 0 -85 22.5t-21 81.5l39 1080h-152l62 256h622l-61 -256h-162l-53 -859h22l449 1014q26 59 62 82t96 23h186z" />
    <glyph glyph-name="wacute" unicode="&#x1e83;" horiz-adv-x="1851" 
d="M936 1255v11l231 239h422l-2 -10l-405 -240h-246zM168 1126h522l-61 -243h-111l-26 -572h20l354 744q21 44 49 59.5t76 15.5h115q63 0 89 -20t26 -76l-4 -725h20l246 574h-129l61 243h527l-62 -243h-108l-394 -811q-21 -45 -48 -60.5t-75 -15.5h-172q-66 0 -92.5 22.5
t-25.5 81.5l8 621h-19l-309 -649q-20 -43 -48 -59.5t-75 -16.5h-168q-68 0 -96.5 21.5t-28.5 84.5l9 781h-132z" />
    <glyph glyph-name="Wdieresis" unicode="&#x1e84;" horiz-adv-x="2183" 
d="M967 1556l67 267h309l-67 -267h-309zM1407 1556l68 267h309l-68 -267h-309zM1403 1438q60 0 84.5 -23t21.5 -82l-47 -1016h23l360 861h-172l62 256h620l-61 -256h-135l-492 -1080q-27 -59 -62 -81.5t-96 -22.5h-231q-60 0 -84 23.5t-20 82.5l43 912h-21l-410 -912
q-26 -59 -61 -82.5t-94 -23.5h-232q-61 0 -85 22.5t-21 81.5l39 1080h-152l62 256h622l-61 -256h-162l-53 -859h22l449 1014q26 59 62 82t96 23h186z" />
    <glyph glyph-name="wdieresis" unicode="&#x1e85;" horiz-adv-x="1851" 
d="M727 1260l68 266h309l-68 -266h-309zM1167 1260l68 266h309l-67 -266h-310zM168 1126h522l-61 -243h-111l-26 -572h20l354 744q21 44 49 59.5t76 15.5h115q63 0 89 -20t26 -76l-4 -725h20l246 574h-129l61 243h527l-62 -243h-108l-394 -811q-21 -45 -48 -60.5t-75 -15.5
h-172q-66 0 -92.5 22.5t-25.5 81.5l8 621h-19l-309 -649q-20 -43 -48 -59.5t-75 -16.5h-168q-68 0 -96.5 21.5t-28.5 84.5l9 781h-132z" />
    <glyph glyph-name="Ygrave" unicode="&#x1ef2;" horiz-adv-x="1474" 
d="M575 573l-256 607h-155l63 254h633l-63 -250h-146l140 -359h12l315 359h-160l64 250h643l-63 -254h-140l-567 -607l-78 -317h193l-64 -256h-684l64 256h172zM1139 1552h-221l-306 240l2 10h408l117 -239v-11z" />
    <glyph glyph-name="ygrave" unicode="&#x1ef3;" horiz-adv-x="1329" 
d="M238 885h-134l62 241h563l-61 -241h-129l65 -551h23l313 551h-141l61 241h567l-61 -241h-115l-657 -1047q-60 -95 -127.5 -132.5t-181.5 -37.5q-96 0 -265 15l58 235h205q25 0 40.5 9.5t30.5 35.5l27 45zM1001 1255h-221l-305 240l2 10h408l116 -239v-11z" />
    <glyph glyph-name="enspace" unicode="&#x2002;" horiz-adv-x="1024" 
 />
    <glyph glyph-name="emspace" unicode="&#x2003;" horiz-adv-x="2048" 
 />
    <glyph glyph-name="threeperemspace" unicode="&#x2004;" horiz-adv-x="681" 
 />
    <glyph glyph-name="fourperemspace" unicode="&#x2005;" horiz-adv-x="512" 
 />
    <glyph glyph-name="thinspace" unicode="&#x2009;" horiz-adv-x="272" 
 />
    <glyph glyph-name="hairspace" unicode="&#x200a;" horiz-adv-x="153" 
 />
    <glyph glyph-name="endash" unicode="&#x2013;" horiz-adv-x="1085" 
d="M975 535h-877l64 256h876z" />
    <glyph glyph-name="emdash" unicode="&#x2014;" horiz-adv-x="1982" 
d="M1874 537h-1774l62 251h1773z" />
    <glyph glyph-name="quoteleft" unicode="&#x2018;" horiz-adv-x="518" 
d="M469 799h-317l69 282q17 69 47.5 113.5t89.5 89.5l234 176l76 -74l-185 -184q-21 -21 -29 -33.5t-14 -35.5l-2 -9h111z" />
    <glyph glyph-name="quoteright" unicode="&#x2019;" horiz-adv-x="518" 
d="M328 1434h317l-70 -281q-17 -69 -48 -114.5t-89 -88.5l-233 -178l-76 76l184 182q34 36 43 70l2 8h-110z" />
    <glyph glyph-name="quotesinglbase" unicode="&#x201a;" horiz-adv-x="538" 
d="M68 326h317l-72 -281q-17 -71 -47 -116t-90 -89l-233 -176l-76 74l184 184q22 22 30.5 35t14.5 35l2 8h-112z" />
    <glyph glyph-name="quotedblleft" unicode="&#x201c;" horiz-adv-x="985" 
d="M934 799h-318l72 282q17 70 47 114.5t90 88.5l234 176l76 -74l-185 -184q-22 -22 -30.5 -34.5t-14.5 -34.5l-2 -9h113zM469 799h-317l69 282q17 69 47.5 113.5t89.5 89.5l234 176l76 -74l-185 -184q-21 -21 -29 -33.5t-14 -35.5l-2 -9h111z" />
    <glyph glyph-name="quotedblright" unicode="&#x201d;" horiz-adv-x="985" 
d="M328 1434h317l-70 -281q-17 -69 -48 -114.5t-89 -88.5l-233 -178l-76 76l184 182q34 36 43 70l2 8h-110zM795 1434h317l-72 -281q-18 -70 -48 -115.5t-89 -87.5l-233 -178l-76 76l184 182q37 39 45 70l2 8h-112z" />
    <glyph glyph-name="quotedblbase" unicode="&#x201e;" horiz-adv-x="1005" 
d="M68 326h317l-72 -281q-17 -71 -47 -116t-90 -89l-233 -176l-76 74l184 184q22 22 30.5 35t14.5 35l2 8h-112zM532 326h318l-70 -281q-17 -70 -47.5 -115t-89.5 -90l-233 -176l-76 74l184 184q34 34 43 70l2 8h-110z" />
    <glyph glyph-name="dagger" unicode="&#x2020;" horiz-adv-x="960" 
d="M283 1182l243 -58l-22 -90l-271 -57zM989 1182l-51 -205l-242 57l23 90zM811 1434l-125 -269h-108l10 269h223zM635 770l-182 -537h-105l82 537l105 223h108z" />
    <glyph glyph-name="daggerdbl" unicode="&#x2021;" horiz-adv-x="989" 
d="M297 1182l244 -58l-23 -90l-270 -57zM1004 1182l-52 -205l-241 57l22 90zM825 1434l-125 -269h-108l10 269h223zM66 252l51 205l241 -58l-22 -90zM772 252l-244 57l23 90l270 58zM467 0h-223l125 268h108zM635 717l-115 -277h-110l22 277l117 276h108z" />
    <glyph glyph-name="bullet" unicode="&#x2022;" horiz-adv-x="1060" 
d="M549 1090h174q73 0 108 -9t58 -32q37 -37 40.5 -102t-28.5 -204q-31 -141 -56 -195.5t-65 -92.5q-34 -34 -73.5 -46t-100.5 -12h-174q-72 0 -107 8.5t-57 30.5q-39 39 -42.5 104.5t28.5 202.5q31 141 56 196t65 95q35 33 73.5 44.5t100.5 11.5z" />
    <glyph glyph-name="ellipsis" unicode="&#x2026;" horiz-adv-x="1499" 
d="M33 319h311l-78 -319h-311zM535 319h311l-78 -319h-311zM1034 319h312l-78 -319h-312z" />
    <glyph glyph-name="guilsinglleft" unicode="&#x2039;" horiz-adv-x="776" 
d="M80 506l37 153l338 281h346l-441 -381l242 -373h-309z" />
    <glyph glyph-name="guilsinglright" unicode="&#x203a;" horiz-adv-x="776" 
d="M-25 186l441 381l-242 373h311l211 -317l-34 -156l-338 -281h-349z" />
    <glyph glyph-name="fraction" unicode="&#x2044;" horiz-adv-x="1263" 
d="M119 -6h-238l709 754l633 692h235l-704 -754z" />
    <glyph glyph-name="Euro" unicode="&#x20ac;" horiz-adv-x="1486" 
d="M1067 535h307q-51 -209 -90 -301.5t-88 -141.5q-53 -53 -117 -72.5t-170 -19.5h-393q-101 0 -153 16.5t-87 51.5q-45 44 -58.5 124.5t5.5 239.5h-157l53 211h141l27 107l10 47h-139l51 213h147q44 143 82.5 215t83.5 116q51 53 116.5 73t172.5 20h391q102 0 155 -16
t87 -50q50 -50 55.5 -152t-33.5 -301h-307q20 93 28 146t7 74t-10 30q-10 10 -30.5 13.5t-72.5 3.5h-245q-80 0 -99 -19q-22 -22 -63 -159h334l-52 -205h-335l-21 -82l-18 -76h333l-49 -203h-329q-28 -147 -7 -168q11 -11 32 -14.5t73 -3.5h244q80 0 100 20q25 26 88 263z
" />
    <glyph glyph-name="published" unicode="&#x2117;" horiz-adv-x="1615" 
d="M1034 874q20 84 6 101q-8 8 -57 8h-119l-53 -217h133q43 0 53 10q19 16 37 98zM1221 872q-21 -86 -41 -126.5t-47 -67.5q-47 -47 -150 -47h-207l-39 -158h105l-35 -139h-371l33 139h92l127 510h-98l35 139h448q106 0 139 -41q24 -27 26.5 -74t-17.5 -135zM1489 713
q-33 -138 -68.5 -242.5t-70.5 -169.5t-61 -100.5t-58 -67.5q-69 -70 -158.5 -101.5t-241.5 -31.5h-249q-153 0 -224.5 23.5t-121.5 72.5q-148 148 -31 625q33 139 69 244t71 169.5t60.5 100t55.5 65.5q71 71 160.5 102.5t240.5 31.5h250q154 0 224.5 -23t121.5 -74
q148 -148 31 -624zM311 717q-40 -165 -50 -278.5t4.5 -175.5t51.5 -99q33 -33 92.5 -51.5t186.5 -18.5h246q122 0 191 22t124 77q57 57 111.5 171t113.5 353q40 165 50 279t-4.5 176t-51.5 98q-34 34 -92 51.5t-186 17.5h-246q-122 0 -187.5 -19.5t-119.5 -70.5
q-131 -114 -234 -532z" />
    <glyph glyph-name="servicemark" unicode="&#x2120;" horiz-adv-x="1994" 
d="M850 635l35 143h90l127 512h-101l35 144h367q32 0 41.5 -10t9.5 -44l-6 -475h14l234 488q12 25 24.5 33t38.5 8h369l-37 -144h-88l-127 -512h100l-34 -143h-353l35 143h68l118 475h-16l-291 -577q-12 -25 -23.5 -33t-33.5 -8h-117q-29 0 -39 10t-10 41l-2 567h-16
l-119 -475h74l-35 -143h-332zM866 1182h-174q14 79 10 90q-1 3 -4 6q-13 10 -53 10h-129q-39 0 -51 -12q-14 -14 -27 -66q-13 -46 0 -59q9 -9 33 -14l205 -45q75 -15 108 -48q50 -50 15 -184q-30 -119 -84 -176q-49 -49 -146 -49h-262q-94 0 -131 37q-27 27 -27.5 77.5
t23.5 145.5h172q-11 -59 -13 -75.5t5 -28.5q15 -11 53 -11h148q40 0 53 13t28 69q13 51 3 64q-9 9 -35 14l-207 45q-76 18 -105 47q-26 26 -29.5 68t13.5 114q32 120 82 170t143 50h246q93 0 127 -37q27 -25 28.5 -73.5t-18.5 -141.5z" />
    <glyph glyph-name="trademark" unicode="&#x2122;" horiz-adv-x="2097" 
d="M610 778h101l-35 -143h-387l35 143h100l127 514h-125l-37 -151h-156l74 293h746l-74 -293h-156l37 151h-123zM952 635l35 143h88l127 512h-100l37 144h366q32 0 41.5 -10t9.5 -44l-6 -475h13l233 488q12 24 25.5 32.5t38.5 8.5h368l-35 -144h-90l-127 -512h103l-37 -143
h-352l36 143h66l119 475h-17l-288 -577q-12 -24 -24 -32.5t-36 -8.5h-114q-31 0 -40.5 10t-9.5 41l-4 567h-16l-119 -475h74l-35 -143h-330z" />
    <glyph glyph-name="minus" unicode="&#x2212;" horiz-adv-x="1058" 
d="M115 623l61 243h862l-61 -243h-862z" />
    <glyph glyph-name="NUL" unicode="&#xe05d;" horiz-adv-x="0" 
 />
    <glyph glyph-name="aring.alt" horiz-adv-x="1232" 
d="M1098 723l-121 -481h156l-58 -242h-457l31 129q-119 -82 -181.5 -106.5t-137.5 -24.5h-74q-79 0 -119.5 13.5t-70.5 43.5q-78 78 -29 277q43 168 113 235q53 53 132.5 74t217.5 21q135 0 270 -33l25 96q19 78 20 109t-12 40q-19 19 -74 19h-117q-62 0 -86 -21
q-23 -23 -45 -106h-291q33 126 60.5 186t62.5 95q55 55 144 71q-5 36 8 96q13 59 30 92.5t48 65.5q56 53 162 53h184q102 0 147 -45q56 -56 29 -180q-14 -62 -35 -100q25 -13 53 -37q44 -43 47 -120.5t-32 -219.5zM457 219q44 0 90 14t137 56l47 188h-178q-84 0 -117.5 -7
t-54.5 -28q-26 -26 -43 -94q-20 -86 4 -110q22 -19 76 -19h39zM709 1137h90q45 0 61 16t23 53q10 46 -6 62q-10 10 -56 10h-90q-45 0 -59 -14q-15 -15 -25 -56q-8 -45 6 -59q12 -12 56 -12z" />
    <glyph glyph-name="aringacute.alt" horiz-adv-x="1232" 
d="M1098 723l-121 -481h156l-58 -242h-457l31 129q-119 -82 -181.5 -106.5t-137.5 -24.5h-74q-79 0 -119.5 13.5t-70.5 43.5q-78 78 -29 277q43 168 113 235q53 53 132.5 74t217.5 21q135 0 270 -33l25 96q19 78 20 109t-12 40q-19 19 -74 19h-117q-62 0 -86 -21
q-23 -23 -45 -106h-291q33 126 60.5 186t62.5 95q57 57 150 73q-5 34 8 94q13 59 30 92.5t48 65.5q56 53 162 53h184q102 0 147 -45q56 -56 29 -180q-12 -58 -37 -102q32 -18 49 -35q44 -43 47 -120.5t-32 -219.5zM686 1532v10l232 240h421l-2 -10l-405 -240h-246zM457 219
q44 0 90 14t137 56l47 188h-178q-84 0 -117.5 -7t-54.5 -28q-26 -26 -43 -94q-20 -86 4 -110q22 -19 76 -19h39zM715 1137h90q45 0 61 16t23 53q10 46 -6 62q-10 10 -56 10h-90q-45 0 -59 -14q-15 -15 -25 -56q-8 -45 6 -59q12 -12 56 -12z" />
    <glyph glyph-name="registered.alt" horiz-adv-x="1615" 
d="M1489 713q-33 -138 -68.5 -242.5t-70.5 -169.5t-61 -100.5t-58 -67.5q-69 -70 -158.5 -101.5t-241.5 -31.5h-249q-153 0 -224.5 23.5t-121.5 72.5q-148 148 -31 625q33 139 69 244t71 169.5t60.5 100t55.5 65.5q71 71 160.5 102.5t240.5 31.5h250q154 0 224.5 -23
t121.5 -74q148 -148 31 -624zM311 717q-40 -165 -50 -278.5t4.5 -175.5t51.5 -99q33 -33 92.5 -51.5t186.5 -18.5h246q122 0 191 22t124 77q57 57 111.5 171t113.5 353q40 165 50 279t-4.5 176t-51.5 98q-34 34 -92 51.5t-186 17.5h-246q-122 0 -187.5 -19.5t-119.5 -70.5
q-131 -114 -234 -532zM598 1122h459q53 0 81 -8.5t50 -30.5q48 -48 12 -190q-23 -90 -59 -126.5t-109 -47.5v-2q56 -14 74 -51t0 -111q-6 -43 -16 -80h86l-35 -141h-142q-61 0 -81 20q-15 13 -14.5 52.5t18.5 134.5q16 78 -4 98q-16 16 -72 16h-92l-45 -182h90l-35 -139
h-356l34 139h90l127 510h-96zM965 983h-129l-50 -199h138q40 0 53 13q18 15 35 86q17 73 4 90q-8 10 -51 10z" />
    <glyph glyph-name="hcoslug" horiz-adv-x="1421" 
d="M559 37h-53q0 -25 20 -25q16 0 19 15h14q-7 -29 -37 -29q-20 0 -31.5 11t-11.5 30t12 31t29 12q42 0 39 -45zM520 72q-14 0 -14 -25h29q0 25 -15 25zM399 160q17 0 17 33q0 30 -17 30q-16 0 -16 -30q0 -33 16 -33zM430 8q16 0 16 33q0 31 -16 31t-16 -31q0 -33 16 -33z
M430 -2q-19 0 -31 11.5t-12 31.5q0 19 12 30t31 11t31 -11t12 -30t-12 -31t-31 -12zM1118 8q17 0 17 33q0 31 -17 31q-16 0 -16 -31q0 -33 16 -33zM1118 -2q-19 0 -31 11.5t-12 31.5q0 19 12 30t31 11t31 -11t12 -30t-12 -31t-31 -12zM256 152v14h14v84h-14v14h104v-41h-16
q-3 17 -7 22t-15 5h-25v-37h8q7 0 8.5 2.5t3.5 13.5h15v-47h-15q-7 16 -12 17h-8v-33h20v-14h-61zM399 150q-19 0 -31 11.5t-12 31.5q0 18 12 29t31 11t31 -11t12 -29q0 -19 -12 -31t-31 -12zM1319 -205v1639h-1217v-1639h1217zM1020 -2q-28 0 -43.5 15.5t-15.5 41.5
q0 27 16.5 44.5t38.5 17.5q18 0 33 -15l2 13h16v-45h-16q-6 19 -12.5 25.5t-18.5 6.5q-29 0 -29 -45t33 -45q25 0 29 33h16q-3 -47 -49 -47zM762 164q14 0 14 26q0 27 -14 27q-17 0 -17 -27q0 -26 17 -26zM565 0v14h13v52h-15v14h15v2q0 19 11 29t27 10q11 0 19 -4l20 4
v-107h13v-14h-47v14h10v52h-29v-52h10v-14h-47zM754 0v14h12v52h-12v14h37v-21q9 23 24 23q16 0 16 -16q0 -15 -14 -15q-12 0 -12 12v3q-6 0 -14 -19v-33h16v-14h-53zM721 150v106h-12v14h36v-55q6 18 27 18q14 0 22.5 -11t8.5 -29q0 -16 -8 -29.5t-25 -13.5q-19 0 -29 16
l-8 -16h-12zM819 154q10 0 12.5 -8t-2.5 -13q14 0 17 17l-33 67h-10v14h51v-14h-12l18 -41l17 41h-11v14h35v-14h-10l-27 -63q-13 -33 -37 -33q-22 0 -22 18q0 15 14 15zM506 877q0 26 15 42.5t40 16.5q26 0 43 -21.5t17 -56.5q0 -46 -37 -102q-30 29 -42.5 42.5t-24 35
t-11.5 43.5zM618 152v28h15q12 -18 24 -18q11 0 11 8q0 6 -25 13t-25 26q0 10 8 17t21 7q16 0 23 -10l4 10h12v-26h-14q-10 14 -21 14q-10 0 -10 -8q0 -6 24.5 -12t24.5 -25q0 -11 -7.5 -18.5t-20.5 -7.5q-12 0 -27 10l-2 -8h-15zM535 449q-46 0 -76.5 31.5t-30.5 78.5
q0 49 33 82q72 -68 151 -168q-31 -24 -77 -24zM561 250l25 4v-23h26v-14h-26v-41q0 -10 8 -10q7 0 10 14l10 -4q-6 -26 -28 -26q-25 0 -25 26v41h-14v14h14v19zM877 627q-53 -31 -95 -86q39 -45 68 -64.5t59 -19.5q54 0 88 59l15 -4q-3 -87 -49.5 -140t-114.5 -53
q-46 0 -84.5 20.5t-89.5 72.5q-84 -93 -213 -93q-93 0 -158 55t-65 136q0 129 168 186q-34 35 -49 67t-15 75q0 69 62 121.5t161 52.5q90 0 142.5 -46.5t52.5 -105.5q0 -37 -19 -69q43 2 70.5 -17t30.5 -59q53 78 123 78q43 0 72.5 -30t29.5 -77t-29.5 -79t-72.5 -32
q-58 0 -88 52zM449 152v14h12v51h-12v14h34v-20q9 22 29 22q25 0 25 -28v-39h12v-14h-45v14h8v37q0 14 -12 14q-15 0 -15 -20v-31h9v-14h-45zM913 68h37v-15h-10q-6 -12 -18 -28q7 -11 12 -11t8 11l10 -2q-7 -25 -26 -25q-15 0 -25 12q-12 -12 -31 -12q-36 0 -36 29
q0 23 26 30q-12 12 -12 25q0 11 10.5 20t24.5 9q13 0 20.5 -7.5t7.5 -17.5q0 -16 -22 -25q5 -5 12.5 -13.5t11.5 -12.5q11 11 13 18h-13v15zM879 12q7 0 16 6q-20 24 -29 33q-8 -8 -8 -18q0 -9 6 -15t15 -6zM602 86v-6h29v10q-13 0 -13 12l3 7q-3 2 -7 2q-12 0 -12 -25z
M870 88q0 -7 13 -20q10 7 10 18q0 12 -12 12q-11 0 -11 -10zM639 700q61 42 86 70q23 -23 29 -49t-2 -52.5t-29 -62.5q-68 78 -84 94zM750 37h-54q0 -25 21 -25q15 0 18 15h15q-7 -29 -37 -29q-20 0 -31.5 11t-11.5 30t12 31t29 12q42 0 39 -45zM711 72q-15 0 -15 -25h29
q0 25 -14 25zM254 0v14h16v84h-16v15h59v-15h-16v-32h45v32h-16v15h59v-15h-16v-84h16v-14h-59v14h16v37h-45v-37h16v-14h-59zM1180 27q14 0 14 -15q0 -14 -14 -14q-15 0 -15 14q0 6 4.5 10.5t10.5 4.5z" />
    <glyph glyph-name="caron.alt" 
d="M907 1669l-41 -160q-20 -76 -44 -117t-77 -94l-147 -143l-90 51l88 160q22 42 22 88v152l17 63h272z" />
    <glyph glyph-name="i.dot" horiz-adv-x="743" 
d="M397 1266l66 270h321l-65 -270h-322zM571 0h-616l59 242h148l162 643h-168l59 241h475l-221 -886h162z" />
    </font>
</defs>
</svg>
