<?xml version="1.0" encoding="UTF-8" standalone="no"?>
<!-- Generator: Adobe Illustrator 19.0.0, SVG Export Plug-In . SVG Version: 6.00 Build 0)  -->

<svg
   xmlns:dc="http://purl.org/dc/elements/1.1/"
   xmlns:cc="http://creativecommons.org/ns#"
   xmlns:rdf="http://www.w3.org/1999/02/22-rdf-syntax-ns#"
   xmlns:svg="http://www.w3.org/2000/svg"
   xmlns="http://www.w3.org/2000/svg"
   xmlns:xlink="http://www.w3.org/1999/xlink"
   xmlns:sodipodi="http://sodipodi.sourceforge.net/DTD/sodipodi-0.dtd"
   xmlns:inkscape="http://www.inkscape.org/namespaces/inkscape"
   version="1.1"
   id="Layer_1"
   x="0px"
   y="0px"
   viewBox="0 0 821.31263 1026.4741"
   xml:space="preserve"
   inkscape:version="0.48.4 r9939"
   sodipodi:docname="Patch_of_the_New_York_City_Police_Department.svg"
   width="821.31262"
   height="1026.4741"><metadata
     id="metadata4205"><rdf:RDF><cc:Work
         rdf:about=""><dc:format>image/svg+xml</dc:format><dc:type
           rdf:resource="http://purl.org/dc/dcmitype/StillImage" /><dc:title /></cc:Work></rdf:RDF></metadata><defs
     id="defs4203"><inkscape:path-effect
       effect="powerstroke"
       id="path-effect4546"
       is_visible="true"
       offset_points="0.0017818209,0.16621565"
       sort_points="true"
       interpolator_type="Linear"
       interpolator_beta="0.2"
       start_linecap_type="zerowidth"
       linejoin_type="round"
       miter_limit="4"
       end_linecap_type="zerowidth"
       cusp_linecap_type="round" /><linearGradient
       inkscape:collect="always"
       xlink:href="#linearGradient4512"
       id="linearGradient4530"
       gradientUnits="userSpaceOnUse"
       x1="58.009102"
       y1="65.0625"
       x2="46.259102"
       y2="65.1875" /><linearGradient
       inkscape:collect="always"
       xlink:href="#linearGradient4454"
       id="linearGradient4502"
       gradientUnits="userSpaceOnUse"
       gradientTransform="matrix(1.0347222,0,0,1,481.84253,19.625)"
       x1="62.822021"
       y1="67.106178"
       x2="63.750099"
       y2="68.34362" /><linearGradient
       inkscape:collect="always"
       xlink:href="#linearGradient4454"
       id="linearGradient4500"
       gradientUnits="userSpaceOnUse"
       gradientTransform="matrix(1.0347222,0,0,1,478.46753,11.25)"
       x1="62.822021"
       y1="67.106178"
       x2="63.750099"
       y2="68.34362" /><linearGradient
       inkscape:collect="always"
       xlink:href="#linearGradient3796"
       id="linearGradient4417"
       x1="569.92804"
       y1="64.763893"
       x2="595.38391"
       y2="93.048164"
       gradientUnits="userSpaceOnUse" /><linearGradient
       inkscape:collect="always"
       xlink:href="#linearGradient3796"
       id="linearGradient4394"
       x1="679.88318"
       y1="108.60451"
       x2="699.68213"
       y2="158.8091"
       gradientUnits="userSpaceOnUse" /><radialGradient
       inkscape:collect="always"
       xlink:href="#linearGradient3796"
       id="radialGradient4377"
       cx="532.70172"
       cy="35.691959"
       fx="532.70172"
       fy="35.691959"
       r="23.15"
       gradientTransform="matrix(-0.01012438,0.18425794,-0.77108078,-0.04236416,553.05067,-52.983963)"
       gradientUnits="userSpaceOnUse" /><linearGradient
       inkscape:collect="always"
       xlink:href="#linearGradient3806"
       id="linearGradient3812"
       x1="675.99408"
       y1="288.91675"
       x2="568.51385"
       y2="154.56645"
       gradientUnits="userSpaceOnUse" /><linearGradient
       inkscape:collect="always"
       xlink:href="#linearGradient3796"
       id="linearGradient3802"
       x1="490.02499"
       y1="49.914646"
       x2="678.11542"
       y2="310.12994"
       gradientUnits="userSpaceOnUse" /><linearGradient
       inkscape:collect="always"
       id="linearGradient3796"><stop
         style="stop-color:#ffffff;stop-opacity:1;"
         offset="0"
         id="stop3798" /><stop
         style="stop-color:#ffffff;stop-opacity:0;"
         offset="1"
         id="stop3800" /></linearGradient><linearGradient
       inkscape:collect="always"
       id="linearGradient3806"><stop
         style="stop-color:#1a1a1a;stop-opacity:1;"
         offset="0"
         id="stop3808" /><stop
         style="stop-color:#1a1a1a;stop-opacity:0;"
         offset="1"
         id="stop3810" /></linearGradient><linearGradient
       inkscape:collect="always"
       id="linearGradient4454"><stop
         style="stop-color:#000000;stop-opacity:1;"
         offset="0"
         id="stop4456" /><stop
         style="stop-color:#000000;stop-opacity:0;"
         offset="1"
         id="stop4458" /></linearGradient><linearGradient
       inkscape:collect="always"
       id="linearGradient4512"><stop
         style="stop-color:#cecece;stop-opacity:1;"
         offset="0"
         id="stop4514" /><stop
         style="stop-color:#9e9e89;stop-opacity:1"
         offset="1"
         id="stop4516" /></linearGradient><inkscape:path-effect
       effect="powerstroke"
       id="path-effect4546-8"
       is_visible="true"
       offset_points="0.0017818209,0.16621565"
       sort_points="true"
       interpolator_type="Linear"
       interpolator_beta="0.2"
       start_linecap_type="zerowidth"
       linejoin_type="round"
       miter_limit="4"
       end_linecap_type="zerowidth"
       cusp_linecap_type="round" /><pattern
       y="0"
       x="0"
       height="6"
       width="6"
       patternUnits="userSpaceOnUse"
       id="EMFhbasepattern" /><filter
       inkscape:collect="always"
       id="filter4344"
       x="-0.012077904"
       width="1.0241559"
       y="-0.011937833"
       height="1.0238757"
       color-interpolation-filters="sRGB"><feGaussianBlur
         inkscape:collect="always"
         stdDeviation="0.34209622"
         id="feGaussianBlur4346" /></filter><pattern
       y="0"
       x="0"
       height="6"
       width="6"
       patternUnits="userSpaceOnUse"
       id="EMFhbasepattern-4" /><pattern
       y="0"
       x="0"
       height="6"
       width="6"
       patternUnits="userSpaceOnUse"
       id="EMFhbasepattern-7" /><filter
       inkscape:collect="always"
       id="filter4307"
       x="-0.017076343"
       width="1.0341527"
       y="-0.014436853"
       height="1.0288737"
       color-interpolation-filters="sRGB"><feGaussianBlur
         inkscape:collect="always"
         stdDeviation="0.70377465"
         id="feGaussianBlur4309" /></filter></defs><sodipodi:namedview
     pagecolor="#ffffff"
     bordercolor="#666666"
     borderopacity="1"
     objecttolerance="10"
     gridtolerance="10"
     guidetolerance="10"
     inkscape:pageopacity="0"
     inkscape:pageshadow="2"
     inkscape:window-width="1920"
     inkscape:window-height="1096"
     id="namedview4201"
     showgrid="false"
     inkscape:zoom="0.31799089"
     inkscape:cx="780.37182"
     inkscape:cy="327.98972"
     inkscape:window-x="-8"
     inkscape:window-y="-8"
     inkscape:window-maximized="1"
     inkscape:current-layer="g4944"
     showguides="false"
     fit-margin-top="0"
     fit-margin-left="0"
     fit-margin-right="0"
     fit-margin-bottom="0" /><style
     type="text/css"
     id="style4137">
	.st0{fill:#F8C12C;}
	.st1{fill:#1E2453;}
	.st2{fill:#FFFFFF;}
	.st3{fill:#5D5E5E;}
	.st4{fill:#61ADDF;}
</style><g
     id="XMLID_1_"
     transform="translate(-0.13735871,901.74497)"><g
       id="g4944"
       transform="matrix(0.94293204,0,0,1.0010516,-185.12733,4.9450527)"><text
   sodipodi:linespacing="125%"
   id="text4231"
   y="-411.79358"
   x="143.03223"
   transform="matrix(0.75579475,1.1852062,-0.62002822,0.35080782,0,0)"
   style="font-size:9.98555756px;font-style:normal;font-variant:normal;font-weight:400;text-align:start;line-height:125%;letter-spacing:0px;word-spacing:0px;text-anchor:start;fill:#00ffff;fill-opacity:1;stroke:none;font-family:Calibri"
   xml:space="preserve"><tspan
     id="tspan4233"
     y="0"
     x="0"
     sodipodi:role="line"><tspan
       id="tspan4235"
       style="font-size:9.98555756px;font-style:normal;font-variant:normal;font-weight:400;fill:#00ffff;stroke:none;font-family:Calibri"
       dy="0"
       dx="0" /></tspan></text>

<g
   id="g4255"
   transform="translate(24.49165,9.7871461)"><g
     transform="translate(-67.866146,-3.8850019)"
     id="g5068" /></g><text
   sodipodi:linespacing="125%"
   id="text4260"
   y="-18.482193"
   x="39.426704"
   transform="scale(1.5432659,0.64797648)"
   style="font-size:12.58223724px;font-style:normal;font-variant:normal;font-weight:400;text-align:start;line-height:125%;letter-spacing:0px;word-spacing:0px;text-anchor:start;opacity:0.722;fill:#00ffff;fill-opacity:1;stroke:none;font-family:Calibri"
   xml:space="preserve"><tspan
     id="tspan4262"
     y="0"
     x="0"
     sodipodi:role="line"><tspan
       id="tspan4264"
       style="font-size:12.58223724px;font-style:normal;font-variant:normal;font-weight:400;fill:#00ffff;font-family:Calibri"
       dy="0"
       dx="0" /></tspan></text>

<text
   sodipodi:linespacing="125%"
   id="text4272"
   y="-11.668673"
   x="437.67038"
   transform="scale(1.0303577,0.97053673)"
   style="font-size:14.21686554px;font-style:normal;font-variant:normal;font-weight:400;text-align:start;line-height:125%;letter-spacing:0px;word-spacing:0px;text-anchor:start;fill:#000000;fill-opacity:1;stroke:none;font-family:Calibri"
   xml:space="preserve"><tspan
     id="tspan4274"
     y="0"
     x="0"
     sodipodi:role="line"><tspan
       id="tspan4276"
       style="font-size:14.21686554px;font-style:normal;font-variant:normal;font-weight:400;fill:#000000;font-family:Calibri"
       dy="0"
       dx="0" /></tspan></text>

<g
   id="g4386"
   transform="matrix(8.4109503,0,0,8.4109503,-2779.0529,-988.44986)"><g
     style="fill:#ffffff"
     id="g4382"
     transform="matrix(0.99576444,0,0,0.88027442,256.3605,33.65192)"><path
       inkscape:connector-curvature="0"
       id="path4212"
       d="m 158.23438,0.12486267 0.59375,0 -0.27344,0.1484375 -0.21094,-0.03125 z"
       style="fill:#ffffff;fill-opacity:1;fill-rule:evenodd;stroke:none" /></g><path
     inkscape:connector-curvature="0"
     id="path4221"
     d="m 448.91671,6.2712342 c -17.94539,-0.161056 -33.80137,4.3419608 -48.69038,11.0012568 -5.5905,52.238213 20.59734,85.616669 48.61411,105.926109 l 0.0763,0.0648 c 0.002,-0.001 0.004,-0.002 0.006,-0.004 0.002,0.001 0.004,0.002 0.006,0.004 l 0.0255,-0.0283 C 476.99058,102.92913 503.21364,69.541991 497.61981,17.272491 482.7308,10.613195 466.87482,6.1101782 448.92942,6.2712342 c -0.004,3.9e-5 -0.008,-3.9e-5 -0.0127,0 z"
     style="fill:#00003c;fill-opacity:1;fill-rule:evenodd;stroke:#e6ac06;stroke-width:3.54585361;stroke-linecap:butt;stroke-linejoin:miter;stroke-miterlimit:4;stroke-opacity:1;stroke-dasharray:none"
     transform="translate(-43.374494,5.9021446)" /><path
     inkscape:connector-curvature="0"
     id="path4230"
     d="m 449.62378,36.527373 c -11.22532,-0.04417 -22.77456,2.292434 -34.66367,7.119589 0.83955,7.97695 2.68514,15.852853 5.62125,23.355538 4.89122,12.38466 12.70748,23.62615 22.43506,32.936219 1.92393,1.843841 3.90709,3.631011 5.93865,5.363571 9.62386,-8.16198 17.89351,-17.890338 23.92821,-28.829936 2.35378,-4.298008 4.29889,-8.799356 5.87276,-13.417539 2.10619,-6.200333 3.49869,-12.6214 4.182,-19.113592 -10.78014,-4.851325 -21.87918,-7.368858 -33.31426,-7.41385 z"
     style="fill:#49acd5;fill-opacity:1;fill-rule:evenodd;stroke:#daa206;stroke-width:2.12088203;stroke-linecap:butt;stroke-linejoin:miter;stroke-miterlimit:4.0999999;stroke-opacity:1;stroke-dasharray:none"
     transform="translate(-43.374494,5.9021446)" /><path
     style="fill:none;stroke:#ffffff;stroke-width:1.28144777;stroke-linecap:butt;stroke-linejoin:round;stroke-miterlimit:4;stroke-opacity:1;stroke-dasharray:none;filter:url(#filter4307)"
     d="m 448.91671,6.2712342 c -17.94539,-0.161056 -33.80137,4.3419608 -48.69038,11.0012568 -5.5905,52.238213 20.59734,85.616669 48.61411,105.926109 l 0.0763,0.0648 c 0.002,-0.001 0.004,-0.002 0.006,-0.004 0.002,0.001 0.004,0.002 0.006,0.004 l 0.0255,-0.0283 C 476.99058,102.92913 503.21364,69.541991 497.61981,17.272491 482.7308,10.613195 466.87482,6.1101782 448.92942,6.2712342 c -0.004,3.9e-5 -0.008,-3.9e-5 -0.0127,0 z"
     id="path5321"
     inkscape:connector-curvature="0"
     transform="translate(-43.374494,5.9021446)" /><g
     id="g5258"
     transform="matrix(1.0418221,0,0,1.0418221,703.7433,36.511791)"><g
       id="g4397"
       transform="matrix(1.0519839,0,0,0.96032149,-336.793,-29.098855)"><g
         id="g4239"><g
           id="g4348"><path
             style="fill:#f9c124;fill-opacity:1;fill-rule:evenodd;stroke:none"
             d="m 48.086384,38.855015 -0.0057,0.0039 c -3.26e-4,0.0014 -0.0016,0.0025 -0.0019,0.0039 -2.549605,2.872922 -5.13162,2.755511 -7.037662,1.683593 -0.79525,1.293538 -1.391876,1.733031 -2.68683,1.875 0.192352,2.18311 0.17118,7.562208 -4.518759,6.25 l -1.099157,-0.25 c 0.31485,-0.874468 0.663342,-1.926483 0.519046,-2.5 -0.106227,-0.569651 -0.202215,-0.280147 -0.274789,-0.375 -1.478975,-0.07397 0.05795,7.383083 -4.610356,8.09375 0.987027,2.984832 0.162253,5.212765 -2.83949,6.53125 2.293178,1.790001 2.202451,4.437141 0.885433,5.96875 0.590099,0.349057 1.027926,1.026038 1.038093,1.875 -0.243998,4.017821 1.51643,8.104169 3.511198,11.25 2.212352,-3.731859 5.244564,0.351417 2.564701,1.875 l 1.55714,2.1875 2.259379,-0.1875 -0.03435,0.59961 0.03435,2.30664 10.733961,0 0.01336,0 10.733961,0 0.03435,-2.30664 -0.03435,-0.59961 2.259379,0.1875 1.55714,-2.1875 c -2.679863,-1.523583 0.352349,-5.606859 2.564701,-1.875 1.994768,-3.145831 3.755195,-7.232179 3.511198,-11.25 0.01017,-0.848962 0.447994,-1.525943 1.038093,-1.875 -1.254518,-1.531609 -1.407745,-4.178749 0.885433,-5.96875 -3.001743,-1.318485 -3.826518,-3.546418 -2.839491,-6.53125 -4.668303,-0.710667 -3.13138,-8.16772 -4.610355,-8.09375 -0.07257,0.09485 -0.168562,-0.194651 -0.27479,0.375 -0.144295,0.573518 0.204197,1.625532 0.519047,2.5 l -1.099157,0.25 c -4.689939,1.312208 -4.711111,-4.06689 -4.518759,-6.25 -1.058448,-0.220804 -1.628382,-0.669195 -2.68683,-1.875 -1.906288,1.072056 -4.489645,1.190474 -7.03957,-1.683593 l 0,-0.0039 -0.0057,-0.0039 c -3.3e-4,-3.72e-4 -0.0016,3.72e-4 -0.0019,0 z"
             id="path4325"
             inkscape:connector-curvature="0"
             sodipodi:nodetypes="cccccccccccccccccccccccccccccccccccccccccc" /><g
             id="g4480"
             transform="translate(105.5987,5.71875)"><path
               sodipodi:nodetypes="ccccccccccccccccc"
               id="rect4444"
               d="m -59.089706,35.790692 0,0.78125 -5.375,0 0,1 5.375,0 0,1.0625 -1.3125,0 0.08553,9.014758 5.289471,0.132379 0,-9.147137 -1.3125,0 0,-1.0625 5.3125,0 0,-1 -5.3125,0 0,-0.78125 z"
               style="fill:#000022;fill-opacity:1;stroke:none"
               inkscape:connector-curvature="0" /></g><path
             style="fill:#ffffff;fill-rule:evenodd;stroke:#000022;stroke-width:0.89999998;stroke-linecap:butt;stroke-linejoin:miter;stroke-miterlimit:4;stroke-opacity:1;stroke-dasharray:none"
             d="m 26.556041,60.044497 21.311611,-7.138585 21.92031,7.290106 c -1.596447,1.345288 -1.518723,3.122449 -1.206187,4.960183 L 47.865812,58.042777 27.179417,65.191893 c 0.04005,-1.59099 0.09934,-3.556406 -0.623376,-5.147396 z"
             id="path4333"
             inkscape:connector-curvature="0"
             sodipodi:nodetypes="ccccccc" /><path
             sodipodi:nodetypes="cccccccccccccccccccccccccccccccccccccccc"
             inkscape:connector-curvature="0"
             id="path4346"
             d="m 48.086384,38.230972 -0.0057,0.0039 c -3.26e-4,0.0014 -0.0016,0.0025 -0.0019,0.0039 -2.549605,2.872922 -5.13162,2.755511 -7.037662,1.683593 -0.79525,1.293538 -1.391876,1.733031 -2.68683,1.875 0.192352,2.18311 0.17118,7.562208 -4.518759,6.25 l -1.099157,-0.25 c 0.31485,-0.874468 0.663342,-1.926483 0.519046,-2.5 -0.106227,-0.569651 -0.202215,-0.280147 -0.274789,-0.375 -1.478975,-0.07397 0.05795,7.383083 -4.610356,8.09375 0.684637,3.047236 0.305031,4.443972 -2.636234,6.448902 1.603938,2.145598 1.93156,4.554384 0.682177,6.051098 0.590099,0.349057 1.027926,1.026038 1.038093,1.875 -0.243998,4.017821 1.51643,8.104169 3.511198,11.25 2.212352,-3.731859 5.244564,0.351417 2.564701,1.875 l 1.55714,2.1875 2.259379,-0.1875 -0.03435,0.59961 0.03435,2.924409 21.566811,0 -0.05118,-2.924409 -0.03435,-0.59961 2.259379,0.1875 1.55714,-2.1875 c -2.679863,-1.523583 0.352349,-5.606859 2.564701,-1.875 1.994768,-3.145831 3.755195,-7.232179 3.511198,-11.25 0.01017,-0.848962 0.447994,-1.525943 1.038093,-1.875 -1.254518,-1.531609 -1.828597,-3.602315 0.304969,-5.721707 -2.820309,-2.129739 -3.246054,-3.793461 -2.259027,-6.778293 -4.668303,-0.710667 -3.13138,-8.16772 -4.610355,-8.09375 -0.07257,0.09485 -0.168562,-0.194651 -0.27479,0.375 -0.144295,0.573518 0.204197,1.625532 0.519047,2.5 l -1.099157,0.25 c -4.689939,1.312208 -4.711111,-4.06689 -4.518759,-6.25 -1.058448,-0.220804 -1.628382,-0.669195 -2.68683,-1.875 -1.906288,1.072056 -4.489645,1.190474 -7.03957,-1.683593 l 0,-0.0039 -0.0057,-0.0039 c -3.3e-4,-3.72e-4 -0.0016,3.72e-4 -0.0019,0 z"
             style="fill:none;stroke:#000022;stroke-width:1.60000002;stroke-linecap:butt;stroke-linejoin:miter;stroke-miterlimit:4;stroke-opacity:1;stroke-dasharray:none" /><g
             transform="translate(-0.44535718,-1.8097196)"
             id="g4514"><g
               transform="translate(105.625,5.71875)"
               id="g4495"><g
                 id="g4464"><path
                   style="fill:#000022;fill-opacity:1;stroke:none"
                   d="m -65.544922,42.6875 a 2.4155092,1.5625 0 0 0 -0.496094,0.945312 2.4155092,1.5625 0 0 0 2.416016,1.5625 2.4155092,1.5625 0 0 0 2.416016,-1.5625 2.4155092,1.5625 0 0 0 -0.455078,-0.910156 3.1828704,1.75 0 0 1 -1.898438,0.347656 3.1828704,1.75 0 0 1 -1.982422,-0.382812 z"
                   id="path4451"
                   inkscape:connector-curvature="0" /><g
                   id="g4460"><path
                     sodipodi:nodetypes="cc"
                     inkscape:connector-curvature="0"
                     id="path4458"
                     d="m -63.597541,39.279773 0.0073,4.319756"
                     style="fill:none;stroke:#000022;stroke-width:0.40000001;stroke-linecap:butt;stroke-linejoin:miter;stroke-miterlimit:4;stroke-opacity:1;stroke-dasharray:none" /></g></g></g><g
               id="g4505"><path
                 transform="translate(105.625,5.71875)"
                 sodipodi:nodetypes="ccccc"
                 style="fill:none;stroke:#000022;stroke-width:0.40000001;stroke-linecap:butt;stroke-linejoin:miter;stroke-miterlimit:4;stroke-opacity:1;stroke-dasharray:none"
                 d="m -65.78125,43.8983 c -0.222687,-0.498197 -0.07556,-0.951159 0.132063,-1.334567 l 2.084791,-3.431058 2.013774,3.508542 c 0.241676,0.446197 0.222064,0.913853 0.06625,1.303958"
                 id="path4456"
                 inkscape:connector-curvature="0" /><ellipse
                 style="fill:#000022;fill-opacity:1;stroke:none"
                 id="path4502"
                 cx="42.061806"
                 cy="44.514545"
                 rx="0.41432038"
                 ry="0.53033006"
                 sodipodi:cx="42.061806"
                 sodipodi:cy="44.514545"
                 sodipodi:rx="0.41432038"
                 sodipodi:ry="0.53033006"
                 d="m 42.476126,44.514545 c 0,0.292894 -0.185497,0.530331 -0.41432,0.530331 -0.228823,0 -0.414321,-0.237437 -0.414321,-0.530331 0,-0.292893 0.185498,-0.53033 0.414321,-0.53033 0.228823,0 0.41432,0.237437 0.41432,0.53033 z" /></g></g><g
             id="g4524"
             transform="translate(12.048705,-1.8979724)"><g
               id="g4526"
               transform="translate(105.625,5.71875)"><g
                 id="g4528"><path
                   inkscape:connector-curvature="0"
                   id="path4530"
                   d="m -65.544922,42.6875 a 2.4155092,1.5625 0 0 0 -0.496094,0.945312 2.4155092,1.5625 0 0 0 2.416016,1.5625 2.4155092,1.5625 0 0 0 2.416016,-1.5625 2.4155092,1.5625 0 0 0 -0.455078,-0.910156 3.1828704,1.75 0 0 1 -1.898438,0.347656 3.1828704,1.75 0 0 1 -1.982422,-0.382812 z"
                   style="fill:#000022;fill-opacity:1;stroke:none" /><g
                   id="g4532"><path
                     style="fill:none;stroke:#000022;stroke-width:0.40000001;stroke-linecap:butt;stroke-linejoin:miter;stroke-miterlimit:4;stroke-opacity:1;stroke-dasharray:none"
                     d="m -63.597541,39.279773 0.0073,4.319756"
                     id="path4534"
                     inkscape:connector-curvature="0"
                     sodipodi:nodetypes="cc" /></g></g></g><g
               id="g4536"><path
                 inkscape:connector-curvature="0"
                 id="path4538"
                 d="m -65.78125,43.8983 c -0.222687,-0.498197 -0.07556,-0.951159 0.132063,-1.334567 l 2.084791,-3.431058 2.013774,3.508542 c 0.241676,0.446197 0.222064,0.913853 0.06625,1.303958"
                 style="fill:none;stroke:#000022;stroke-width:0.40000001;stroke-linecap:butt;stroke-linejoin:miter;stroke-miterlimit:4;stroke-opacity:1;stroke-dasharray:none"
                 sodipodi:nodetypes="ccccc"
                 transform="translate(105.625,5.71875)" /><ellipse
                 ry="0.53033006"
                 rx="0.41432038"
                 cy="44.514545"
                 cx="42.061806"
                 id="ellipse4540"
                 style="fill:#000022;fill-opacity:1;stroke:none"
                 sodipodi:cx="42.061806"
                 sodipodi:cy="44.514545"
                 sodipodi:rx="0.41432038"
                 sodipodi:ry="0.53033006"
                 d="m 42.476126,44.514545 c 0,0.292894 -0.185497,0.530331 -0.41432,0.530331 -0.228823,0 -0.414321,-0.237437 -0.414321,-0.530331 0,-0.292893 0.185498,-0.53033 0.414321,-0.53033 0.228823,0 0.41432,0.237437 0.41432,0.53033 z" /></g></g><path
             style="fill:#000022;fill-opacity:1;fill-rule:evenodd;stroke:none"
             d="m 53.088576,73.544594 c 0.506938,-1.504866 -3.26401,-4.544483 -2.110597,-7.490913 1.122896,1.037877 2.353285,2.224242 4.043767,1.502602 -1.017401,-1.533251 -1.95471,-3.055059 -2.563262,-4.529903 -0.270928,-1.115983 -2.45027,-1.792315 -3.314563,0.552427 -0.394384,-0.616628 -0.811445,-0.816215 -0.83969,-1.347922 -0.0022,-1.661068 1.14705,-0.862244 1.613088,-0.508233 -0.609322,-1.318213 -0.846603,-3.122078 -3.204078,-1.789864 -0.229021,0.586861 -0.580806,0.744046 -0.596622,2.077126 -0.08625,0.581628 -0.08864,0.780508 -0.231744,0.771665 -0.160129,-0.0099 -0.383199,-0.164713 -0.674236,-0.550694 -1.085013,-1.772102 -2.94401,-1.174151 -2.695844,0.928077 0.117048,1.300203 1.354474,3.186858 1.900349,3.49134 0.435092,0.26607 1.344722,0.314483 1.502602,0.618719 -0.339846,1.562079 -1.883338,3.361422 -2.298097,3.535534 -0.273641,-0.412683 -0.765153,-1.587912 -1.149049,-2.386486 -0.452835,-0.556083 -0.880237,-1.279207 -1.65575,-1.354704 -0.214115,0.09801 -0.31038,0.01925 -0.288793,-0.236286 0.462304,-0.06431 0.509939,-0.807068 0.410692,-1.390546 l 1.357075,-0.02366 c 0.432491,-0.09011 0.318445,-0.191196 0.110487,-0.397748 l -1.325825,-0.419844 -0.0221,-1.082757 c -0.833499,-0.263678 -1.61062,-0.120465 -2.386485,-0.09597 l 0,1.112437 -1.502602,0.176777 c -0.265144,0.10607 -0.386776,0.240843 -0.06629,0.464039 l 1.392117,0.154679 c 0.06251,0.452329 -0.131012,1.021685 0.53033,1.419575 0.131273,0.09903 0.25001,0.135647 0.265165,0.524969 -0.828213,0.379471 -1.627642,0.346631 -1.59099,1.878253 l -0.707107,1.568892 c -0.457459,0.277539 -1.296363,-0.589255 -1.944544,-0.883883 -0.0213,-0.546078 -0.133925,-0.97592 -0.795495,-0.707107 -0.302763,0.310914 -0.667419,0.577619 -0.574524,1.171146 0.886624,1.483541 0.735662,0.466839 1.016466,0.243068 l 2.010835,2.275999 1.325825,-0.972271 c 0.256045,1.187731 0.266571,2.340388 0.110487,3.469243 -0.442858,1.230988 -0.915536,2.491796 -1.016465,3.380854 0.264447,1.094857 0.495017,2.065499 0.928077,3.778602 0.239169,1.000195 -0.184493,1.042967 -0.441942,1.325825 l 0.220971,1.06066 1.90035,-1.325825 c -0.245079,-2.117806 -1.0916,-4.580728 -0.06629,-6.010408 l 0.574523,5.966213 c 0.04628,0.412479 0.272614,0.515599 0.287264,0.928078 l 2.740039,0.441942 c 0.139905,-0.07782 0.237795,-0.179652 -0.02857,-0.489626 -0.664742,-0.337659 -1.101747,-0.675317 -1.474034,-1.012976 l -0.265165,-7.601398 -0.243069,-0.53033 0.419845,-4.507806 c 0.560145,-0.542322 0.839986,1.641593 1.123161,2.787374 0.166356,-0.121083 0.502677,0.19678 0.572664,-0.003 0.487966,-1.392692 2.558107,-2.861249 4.634234,-3.160108 1.926109,0.571114 3.764929,1.784843 4.372475,3.217806 0.28387,0.01945 0.427084,-0.03342 0.710934,-0.01368 z"
             id="path4542"
             inkscape:connector-curvature="0"
             sodipodi:nodetypes="cccccccccsccccccccccccccccccccccccccccccccccccccccccccsccc" /></g><path
           style="fill:#000022;fill-opacity:1;fill-rule:evenodd;stroke:#000022;stroke-width:0.20617571;stroke-linecap:butt;stroke-linejoin:miter;stroke-miterlimit:4;stroke-opacity:1;stroke-dasharray:none"
           d="m 34.045822,70.60944 c -0.05568,5.76e-4 -0.111357,0.0012 -0.16704,0.002 -0.216886,3.10096 0.935055,6.172299 1.344379,9.213618 -0.307267,-3.122904 -1.338028,-6.121652 -1.013219,-9.184581 -0.05472,-0.01026 -0.109425,-0.0206 -0.16412,-0.03102 z"
           id="path4544"
           inkscape:original-d="m 34.045822,70.60944 c -0.275584,3.087575 0.817785,6.12803 1.177339,9.215604"
           inkscape:connector-curvature="0"
           sodipodi:nodetypes="cc" /><ellipse
           style="fill:#000022;fill-opacity:1;stroke:#000022;stroke-width:0.2;stroke-linecap:round;stroke-miterlimit:4;stroke-opacity:1;stroke-dasharray:none"
           id="path4548"
           cx="35.255901"
           cy="78.759506"
           rx="0.54137862"
           ry="0.68500972"
           sodipodi:cx="35.255901"
           sodipodi:cy="78.759506"
           sodipodi:rx="0.54137862"
           sodipodi:ry="0.68500972"
           d="m 35.79728,78.759506 c 0,0.378321 -0.242384,0.68501 -0.541379,0.68501 -0.298995,0 -0.541378,-0.306689 -0.541378,-0.68501 0,-0.37832 0.242383,-0.685009 0.541378,-0.685009 0.298995,0 0.541379,0.306689 0.541379,0.685009 z" /><g
           id="g4292"
           transform="matrix(0.83242562,-0.0594528,0.0594528,0.83242562,-165.67322,132.45342)"><g
             id="g4335"
             transform="translate(94.162951,-67.175144)"><path
               sodipodi:type="star"
               style="fill:#000022;fill-opacity:1;stroke:none"
               id="path4211-3"
               sodipodi:sides="5"
               sodipodi:cx="30.506435"
               sodipodi:cy="59.581516"
               sodipodi:r1="1.320448"
               sodipodi:r2="0.55458814"
               sodipodi:arg1="1.3521274"
               sodipodi:arg2="1.9804459"
               inkscape:flatsided="false"
               inkscape:rounded="0"
               inkscape:randomized="0"
               d="m 30.792881,60.870521 -0.507331,-0.780303 -0.916514,0.162048 0.585338,-0.723627 -0.437335,-0.821581 0.869089,0.333077 0.646226,-0.669813 -0.04821,0.929479 0.836725,0.407614 -0.898886,0.241374 z"
               transform="matrix(1.7211645,-0.63111119,0.63111119,1.7211645,77.490472,-89.63009)" /></g></g><g
           id="g4422"><g
             id="g4410"
             transform="matrix(0.80808341,0.20849039,-0.20849039,0.80808341,-171.21304,63.050791)"><g
               id="g4412"
               transform="translate(94.162951,-67.175144)"><path
                 sodipodi:type="star"
                 style="fill:#000022;fill-opacity:1;stroke:none"
                 id="path4414"
                 sodipodi:sides="5"
                 sodipodi:cx="30.506435"
                 sodipodi:cy="59.581516"
                 sodipodi:r1="1.320448"
                 sodipodi:r2="0.55458814"
                 sodipodi:arg1="1.3521274"
                 sodipodi:arg2="1.9804459"
                 inkscape:flatsided="false"
                 inkscape:rounded="0"
                 inkscape:randomized="0"
                 d="m 30.792881,60.870521 -0.507331,-0.780303 -0.916514,0.162048 0.585338,-0.723627 -0.437335,-0.821581 0.869089,0.333077 0.646226,-0.669813 -0.04821,0.929479 0.836725,0.407614 -0.898886,0.241374 z"
                 transform="matrix(1.7211645,-0.63111119,0.63111119,1.7211645,77.490472,-89.63009)" /></g></g><g
             transform="matrix(0.80808341,0.20849039,-0.20849039,0.80808341,-163.90054,65.550791)"
             id="g4416"><g
               transform="translate(94.162951,-67.175144)"
               id="g4418"><path
                 transform="matrix(1.7211645,-0.63111119,0.63111119,1.7211645,77.490472,-89.63009)"
                 d="m 30.792881,60.870521 -0.507331,-0.780303 -0.916514,0.162048 0.585338,-0.723627 -0.437335,-0.821581 0.869089,0.333077 0.646226,-0.669813 -0.04821,0.929479 0.836725,0.407614 -0.898886,0.241374 z"
                 inkscape:randomized="0"
                 inkscape:rounded="0"
                 inkscape:flatsided="false"
                 sodipodi:arg2="1.9804459"
                 sodipodi:arg1="1.3521274"
                 sodipodi:r2="0.55458814"
                 sodipodi:r1="1.320448"
                 sodipodi:cy="59.581516"
                 sodipodi:cx="30.506435"
                 sodipodi:sides="5"
                 id="path4420"
                 style="fill:#000022;fill-opacity:1;stroke:none"
                 sodipodi:type="star" /></g></g></g><g
           id="g4430"
           transform="matrix(-0.99979105,0.0204414,0.0204414,0.99979105,94.899909,-1.2660481)"><g
             transform="matrix(0.80808341,0.20849039,-0.20849039,0.80808341,-171.21304,63.050791)"
             id="g4432"><g
               transform="translate(94.162951,-67.175144)"
               id="g4434"><path
                 transform="matrix(1.7211645,-0.63111119,0.63111119,1.7211645,77.490472,-89.63009)"
                 d="m 30.792881,60.870521 -0.507331,-0.780303 -0.916514,0.162048 0.585338,-0.723627 -0.437335,-0.821581 0.869089,0.333077 0.646226,-0.669813 -0.04821,0.929479 0.836725,0.407614 -0.898886,0.241374 z"
                 inkscape:randomized="0"
                 inkscape:rounded="0"
                 inkscape:flatsided="false"
                 sodipodi:arg2="1.9804459"
                 sodipodi:arg1="1.3521274"
                 sodipodi:r2="0.55458814"
                 sodipodi:r1="1.320448"
                 sodipodi:cy="59.581516"
                 sodipodi:cx="30.506435"
                 sodipodi:sides="5"
                 id="path4436"
                 style="fill:#000022;fill-opacity:1;stroke:none"
                 sodipodi:type="star" /></g></g><g
             id="g4438"
             transform="matrix(0.80808341,0.20849039,-0.20849039,0.80808341,-163.90054,65.550791)"><g
               id="g4440"
               transform="translate(94.162951,-67.175144)"><path
                 sodipodi:type="star"
                 style="fill:#000022;fill-opacity:1;stroke:none"
                 id="path4442"
                 sodipodi:sides="5"
                 sodipodi:cx="30.506435"
                 sodipodi:cy="59.581516"
                 sodipodi:r1="1.320448"
                 sodipodi:r2="0.55458814"
                 sodipodi:arg1="1.3521274"
                 sodipodi:arg2="1.9804459"
                 inkscape:flatsided="false"
                 inkscape:rounded="0"
                 inkscape:randomized="0"
                 d="m 30.792881,60.870521 -0.507331,-0.780303 -0.916514,0.162048 0.585338,-0.723627 -0.437335,-0.821581 0.869089,0.333077 0.646226,-0.669813 -0.04821,0.929479 0.836725,0.407614 -0.898886,0.241374 z"
                 transform="matrix(1.7211645,-0.63111119,0.63111119,1.7211645,77.490472,-89.63009)" /></g></g></g><path
           sodipodi:nodetypes="cccccccccccccccccccccccccccccccccccccccccccccccccccc"
           inkscape:connector-curvature="0"
           id="path4303-4"
           d="m 56.458052,61.539458 c 0.157949,0.684717 -0.759873,0.103648 -1.37002,0.265165 -0.120212,0.08445 -0.327669,0.0235 -0.287262,0.375651 l 0.68501,1.657282 c 0.101154,0.04616 0.276746,0.06208 0.220973,0.265165 -0.650222,0.761401 -0.682067,1.194257 -0.397748,1.546796 l 0.132587,1.149048 0.309359,0.486136 -0.08839,0.265165 -1.193243,0.662913 -0.707107,2.784233 -0.574524,1.988737 -0.972272,0.353554 0.132583,0.486136 0.309359,0.839689 1.237437,-1.414213 1.016466,-1.90035 -0.132583,2.386485 -0.220971,3.668117 c 0.398017,2.14161 0.02049,4.186276 0,6.275573 l -1.281631,0.574524 c -0.236275,0.20984 -0.0791,0.406773 0.220971,0.486136 1.053656,0.110283 1.286396,-0.53304 2.209709,-0.309359 0.807209,0.27469 0.294628,-4.949748 0.441942,-7.424622 l 0.309359,-0.04419 0.309359,5.61266 -0.08839,1.502602 c 0.297853,0.428475 1.501174,0.177848 2.253903,0.265165 l 0.486135,-0.618718 -1.237436,-0.618719 -0.04419,-6.231378 -0.132582,-1.325825 c -0.114078,-1.458408 -0.360159,-2.916816 -0.08839,-4.375224 0.200172,-0.491758 0.317338,-0.153446 0.464038,-0.110487 l 1.281631,1.303728 2.825556,1.500381 c 0.11003,0.568278 0.396262,0.431747 0.667355,0.355774 0.516465,-0.25312 0.557319,-0.602048 0.241497,-1.104854 -0.126821,-0.287862 -0.399974,-0.356227 -0.691022,-0.397748 l -0.36964,-0.04419 C 61.424284,72.555044 60.831112,71.796845 60.081977,71.350571 L 58.093239,67.94762 c -0.03059,-0.277638 -0.213511,-0.250623 -0.353553,-0.30936 l -0.53033,0.0442 c -0.34269,0.06279 -0.333049,-0.226745 -0.331457,-0.508234 0.08966,-0.07416 0.25805,0.0485 0.243068,-0.287262 l 0.243068,-0.397747 c 0.135106,-0.47998 0.07601,-1.008512 -0.0221,-1.546796 0.107433,-0.132583 0.03845,-0.265165 -0.08839,-0.397748 l -0.662913,-0.662912 c -0.211706,-0.973107 -0.02425,-1.214892 0.397748,-1.414214 0.293986,-1.260563 -0.354244,-0.712118 -0.530328,-0.928089 z"
           style="fill:#000022;fill-opacity:1;fill-rule:evenodd;stroke:none" /></g><g
         transform="translate(-119,48)"
         id="g4353"><g
           transform="matrix(0.90971071,0,0,1.002685,465.85626,-359.07315)"
           id="g4628"><g
             id="g4227"
             transform="translate(-627.30965,20.830378)"><g
               transform="matrix(0.02014625,0,0,0.01905243,152.48134,355.43457)"
               id="g4205"><path
                 inkscape:connector-curvature="0"
                 id="path3250"
                 d="m 7256.5907,341.05114 c -65.8931,65.86021 -136.2894,88.58218 -263.5031,55.82551 -21.8611,312.00004 141.0933,528.46751 263.6967,605.17955 0.062,-0.034 0.133,-0.055 0.1941,-0.097 0.061,0.042 0.138,0.062 0.1941,0.097 122.6015,-76.71204 285.5578,-293.17951 263.6967,-605.17955 -127.2138,32.75667 -197.6105,10.0347 -263.5031,-55.82551 -0.097,0.002 -0.1941,0.002 -0.2909,0 -0.06,-0.006 -0.1311,-9.5e-4 -0.1936,0 -0.094,0.002 -0.1717,0.002 -0.2909,0 z"
                 style="fill:#ffffff;fill-opacity:1;stroke:#000022;stroke-width:36.75024033;stroke-miterlimit:4;stroke-opacity:1;stroke-dasharray:none" /></g></g></g></g><g
         style="stroke:#1e2453;stroke-opacity:1"
         transform="translate(101.11627,8.131728)"
         id="g4324"><path
           style="fill:none;stroke:#000022;stroke-width:0.30000001;stroke-linecap:butt;stroke-linejoin:miter;stroke-miterlimit:4;stroke-opacity:1;stroke-dasharray:none"
           d="m -39.951533,58.07663 -3.447146,15.291185"
           id="path4320"
           inkscape:connector-curvature="0" /><path
           style="fill:none;stroke:#000022;stroke-width:0.5;stroke-linecap:butt;stroke-linejoin:miter;stroke-miterlimit:4;stroke-opacity:1;stroke-dasharray:none"
           d="m -39.774756,57.899854 c 3.755283,5.237075 1.554168,11.065896 -3.623923,15.467961 l 0,0"
           id="path4322"
           inkscape:connector-curvature="0"
           sodipodi:nodetypes="ccc" /></g><path
         inkscape:connector-curvature="0"
         id="rect4285"
         d="m 50.382813,74.964844 -2.15625,1.916015 0.355468,0.396485 -0.615234,0.546875 -0.585938,-0.66211 0.0059,-0.0039 -1.916016,-2.15625 -0.636719,0.566406 1.916016,2.15625 0.398438,-0.353515 0.546875,0.617187 -0.699219,0.623047 -0.0059,-0.0078 -2.15625,1.916015 0.566407,0.638672 2.15625,-1.916015 -0.353516,-0.398438 0.613281,-0.544922 0.585938,0.660156 -0.0059,0.0059 1.916016,2.15625 0.636719,-0.566406 -1.916016,-2.15625 -0.398437,0.353515 -0.546875,-0.617187 0.701172,-0.623047 0.0039,0.0059 2.15625,-1.914062 -0.566406,-0.638672 z"
         style="fill:#000022;fill-opacity:1;stroke:#000022;stroke-width:0.12;stroke-linecap:round;stroke-linejoin:round;stroke-miterlimit:4;stroke-opacity:1;stroke-dasharray:none" /><ellipse
         transform="matrix(0.94844045,0.31695538,-0.31695538,0.94844045,0,0)"
         ry="0.46875"
         rx="0.296875"
         cy="43.373619"
         cx="79.058075"
         id="path4328"
         style="fill:#1e2453;fill-opacity:1;stroke:none"
         sodipodi:cx="79.058075"
         sodipodi:cy="43.373619"
         sodipodi:rx="0.296875"
         sodipodi:ry="0.46875"
         d="m 79.35495,43.373619 c 0,0.258884 -0.132916,0.46875 -0.296875,0.46875 -0.16396,0 -0.296875,-0.209866 -0.296875,-0.46875 0,-0.258883 0.132915,-0.46875 0.296875,-0.46875 0.163959,0 0.296875,0.209867 0.296875,0.46875 z" /></g></g><path
     style="fill:#000022;fill-opacity:1;fill-rule:evenodd;stroke:none"
     d="m 357.99487,61.981816 c 0.58181,0.130203 0.88949,0.684605 2.03818,-0.06243 1.6153,-0.914202 3.45278,1.366848 1.20966,2.731502 -0.76799,0.412024 -1.97064,0.283274 -1.8062,1.888639 l -0.94453,-2.950023 0.13257,-0.124869"
     id="path4224"
     inkscape:connector-curvature="0"
     sodipodi:nodetypes="cccccc"
     transform="translate(24.491648,9.7871461)" /><path
     sodipodi:nodetypes="cccccc"
     inkscape:connector-curvature="0"
     id="path4226"
     d="m 404.12004,61.981816 c -0.58181,0.130203 -0.88949,0.684605 -2.03818,-0.06243 -1.6153,-0.914202 -3.45278,1.366848 -1.20966,2.731502 0.76799,0.412024 1.97064,0.283274 1.8062,1.888639 l 0.94453,-2.950023 -0.13257,-0.124869"
     style="fill:#000022;fill-opacity:1;fill-rule:evenodd;stroke:none"
     transform="translate(24.491648,9.7871461)" /><path
     inkscape:connector-curvature="0"
     id="path4237"
     d="m 347.15709,57.859916 c -0.24507,-0.71267 -0.49085,-1.427413 -0.7359,-2.140066 -1.50756,0.459906 -3.01514,0.919816 -4.5227,1.379722 0.24506,0.712653 0.49083,1.427395 0.7359,2.140063 0.36586,-0.111609 0.73171,-0.223218 1.0986,-0.335146 0.2588,0.752602 0.5176,1.505203 0.77712,2.259902 -0.48255,0.147205 -0.96509,0.294415 -1.44659,0.441305 -0.27229,0.08306 -0.56286,-0.01878 -0.86833,-0.2856 -0.3034,-0.267476 -0.53109,-0.632378 -0.68579,-1.082249 -0.38169,-1.109988 -0.76192,-2.215743 -1.14289,-3.323632 -0.15543,-0.451978 -0.1981,-0.873322 -0.11881,-1.257534 0.0813,-0.384883 0.25341,-0.627795 0.52568,-0.710859 1.73886,-0.530467 3.47877,-1.061251 5.21867,-1.592036 0.27228,-0.08307 0.56285,0.01875 0.86728,0.285913 0.30444,0.267151 0.53108,0.632369 0.68651,1.084347 0.38097,1.107889 0.7612,2.213644 1.14289,3.323632 0.1547,0.449871 0.19842,0.870896 0.11809,1.255435 -0.0804,0.384516 -0.25235,0.627483 -0.52465,0.710548 -0.48044,0.146566 -0.96194,0.293456 -1.44343,0.440345 -0.25952,-0.754698 -0.51832,-1.507299 -0.77711,-2.2599 0.3648,-0.111293 0.73066,-0.222901 1.09546,-0.334188 z"
     style="fill:#ffffff;fill-opacity:1;fill-rule:evenodd;stroke:none"
     transform="translate(24.491648,9.7871461)" /><path
     inkscape:connector-curvature="0"
     id="path4239"
     d="m 342.43408,63.946131 c 2.357,-0.829735 4.71297,-1.659105 7.06893,-2.488475 0.29488,0.743115 0.5889,1.484119 0.88296,2.225146 -2.35598,0.829371 -4.71194,1.658741 -7.06893,2.488475 -0.29406,-0.741028 -0.58808,-1.482031 -0.88296,-2.225146 z"
     style="fill:#ffffff;fill-opacity:1;fill-rule:evenodd;stroke:none"
     transform="translate(24.491648,9.7871461)" /><path
     inkscape:connector-curvature="0"
     id="path4241"
     d="m 350.75837,67.739585 c -0.3197,-0.709988 -0.64125,-1.424036 -0.96095,-2.134022 0.4283,-0.171108 0.85661,-0.342215 1.28491,-0.513318 0.96736,2.148251 1.93472,4.296494 2.90209,6.444759 -0.42829,0.171105 -0.85661,0.342212 -1.2849,0.513318 -0.31971,-0.709988 -0.6385,-1.417932 -0.95821,-2.127918 -1.88719,0.753922 -3.77536,1.508245 -5.66254,2.262167 -0.32795,-0.728289 -0.65499,-1.454549 -0.98293,-2.182818 1.88717,-0.753923 3.77536,-1.508245 5.66253,-2.262168 z"
     style="fill:#ffffff;fill-opacity:1;fill-rule:evenodd;stroke:none"
     transform="translate(24.491648,9.7871461)" /><path
     sodipodi:nodetypes="cccccccccc"
     inkscape:connector-curvature="0"
     id="path4243"
     d="m 352.35121,78.649053 -2.30768,1.092022 -1.1332,-2.124541 2.30373,-1.090155 c 1.09253,-1.42954 2.15903,-2.898654 3.25052,-4.330152 0.38549,0.722686 0.77095,1.445366 1.15537,2.166088 -0.26345,0.240669 -1.42959,2.10627 -1.63659,2.272476 0.16907,0.0079 2.51133,-0.05158 2.83307,-0.02931 l 1.12318,1.793277 c -0.74093,0.0051 -5.37663,0.244939 -5.5884,0.250298 z"
     style="fill:#ffffff;fill-opacity:1;fill-rule:evenodd;stroke:none"
     transform="translate(24.491648,9.7871461)" /><path
     style="fill:#ffffff;fill-opacity:1;fill-rule:evenodd;stroke:none"
     d="m 367.06386,90.963921 -5.78109,4.569415 c 0.53988,0.606083 1.07988,1.212316 1.61978,1.818398 l 2.35511,-1.861322 1.6757,1.88278 1.0626,-0.860416 -1.66742,-1.869134 1.28629,-1.016507 2.70309,3.035873 1.06881,-0.844821 -4.32287,-4.854266 z"
     id="path4247"
     inkscape:connector-curvature="0"
     transform="translate(24.491648,9.7871461)" /><path
     inkscape:connector-curvature="0"
     id="path4249"
     d="m 391.00122,100.2771 c 1.23414,0.98853 2.47047,1.97624 3.70469,2.96471 -0.4972,0.55044 -0.9956,1.1002 -1.49436,1.65217 -1.91798,-1.53417 -3.83448,-3.06838 -5.75112,-4.60245 0.69092,-0.763924 1.38156,-1.527786 2.07244,-2.291734 1.64169,0.550699 3.30447,1.073309 4.94481,1.625479 -1.24006,-0.993232 -2.48141,-1.985031 -3.72153,-2.978192 0.49902,-0.55181 0.99674,-1.10212 1.49419,-1.652322 1.91721,1.533421 3.83365,3.067701 5.75111,4.602448 -0.68999,0.761841 -1.37829,1.525041 -2.06676,2.285841 -1.6393,-0.5437 -3.29616,-1.06159 -4.93345,-1.60593 z"
     style="fill:#ffffff;fill-opacity:1;fill-rule:evenodd;stroke:none"
     transform="translate(24.491648,9.7871461)" /><path
     inkscape:connector-curvature="0"
     id="path4251"
     d="m 399.42834,95.839311 c 0.73516,-0.911734 1.47031,-1.823469 2.20652,-2.736503 0.37058,0.264952 0.74162,0.531015 1.1126,0.795457 -1.17689,1.459905 -2.35345,2.917735 -3.53065,4.377688 -2.00463,-1.432502 -4.00778,-2.865125 -6.01105,-4.2976 1.17737,-1.459829 2.35342,-2.918021 3.53065,-4.377685 0.37056,0.26494 0.74074,0.530384 1.11172,0.794825 -0.7363,0.912981 -1.47154,1.824656 -2.20686,2.736262 0.4454,0.318436 0.89055,0.637166 1.33582,0.955752 0.61229,-0.758794 1.22371,-1.518176 1.83599,-2.27697 0.37147,0.265585 0.74339,0.532269 1.11526,0.797345 -0.61229,0.758794 -1.22456,1.517573 -1.83599,2.276963 0.44539,0.31843 0.89055,0.637172 1.33494,0.955125 z"
     style="fill:#ffffff;fill-opacity:1;fill-rule:evenodd;stroke:none"
     transform="translate(24.491648,9.7871461)" /><path
     inkscape:connector-curvature="0"
     id="path4253"
     d="m 400.0856,85.789584 c 0.49216,-0.617233 0.98652,-1.237236 1.48088,-1.857049 1.78568,0.806811 3.58484,1.593445 5.36886,2.39905 -1.83437,-1.742456 -3.16781,-3.109826 -4.03312,-4.074062 0.39243,-0.492146 0.78493,-0.984225 1.17955,-1.479116 1.58195,1.759676 3.14048,3.54544 4.72407,5.30631 -0.51847,0.649707 -1.03818,1.302614 -1.55667,1.952328 -1.60343,-0.68666 -3.2166,-1.354551 -4.81784,-2.043956 1.148,1.257738 2.28196,2.526572 3.43012,3.784147 -0.51848,0.649707 -1.03819,1.302614 -1.55667,1.952328 -2.24062,-0.93698 -4.49734,-1.847213 -6.7341,-2.785765 0.39242,-0.492138 0.78494,-0.984224 1.17735,-1.476354 1.22743,0.510156 2.99451,1.333744 5.28428,2.505131 -1.32004,-1.387421 -2.6269,-2.791413 -3.94642,-4.182786 z"
     style="fill:#ffffff;fill-opacity:1;fill-rule:evenodd;stroke:#ffffff;stroke-width:0.26761159;stroke-miterlimit:4;stroke-dasharray:none"
     transform="translate(24.491648,9.7871461)" /><path
     inkscape:connector-curvature="0"
     id="path4255"
     d="m 413.14862,71.964036 c 0.77446,0.351582 2.07612,0.996434 2.85098,1.347282 -0.31674,0.61834 -0.78896,1.469105 -1.1075,2.090969 -0.77449,-0.351578 -1.54643,-0.703343 -2.32129,-1.054196 -0.21067,0.04431 -4.58243,0.394046 -5.96832,0.555055 0.32231,-0.628561 1.14117,-1.901436 1.46526,-2.533502 0.25377,0.163855 0.8243,-0.08416 2.85691,-0.13999 -0.38431,-0.453022 -1.13909,-2.303 -1.66563,-2.870043 l 1.12679,-1.95426 c 1.16513,1.312923 1.5028,3.244584 2.66984,4.55859 z"
     style="fill:#ffffff;fill-opacity:1;fill-rule:evenodd;stroke:none"
     sodipodi:nodetypes="ccccccccccc"
     transform="translate(24.491648,9.7871461)" /><path
     inkscape:connector-curvature="0"
     id="rect4288"
     d="m 416.02566,52.363631 7.43374,1.657076 0.61534,-2.449237 -2.76951,-0.61736 3.50809,-1.746253 0.68832,-2.739733 -5.32527,2.650431 -2.37387,-3.640872 -0.71885,2.861241 1.27872,1.959186 -1.72137,-0.383716 -0.61534,2.449237 z"
     style="fill:#ffffff;fill-opacity:1;stroke:#000022;stroke-width:0.10292753;stroke-miterlimit:4;stroke-opacity:1;stroke-dasharray:none"
     transform="translate(24.491648,9.7871461)" /><path
     inkscape:connector-curvature="0"
     id="path4257"
     d="m 411.01467,65.290073 c -0.16303,0.412364 -0.20905,0.800926 -0.12432,1.169651 0.084,0.364348 0.26446,0.60587 0.55061,0.706089 1.82021,0.638259 3.6445,1.277233 5.4647,1.915491 0.28398,0.0995 0.58629,0.02703 0.9054,-0.19587 0.31806,-0.227639 0.55566,-0.549876 0.71866,-0.962228 l 1.19323,-3.016702 c 0.16159,-0.408721 0.207,-0.801695 0.12288,-1.165998 -0.0848,-0.368742 -0.26515,-0.610321 -0.54917,-0.709752 -1.82019,-0.638232 -3.64329,-1.274722 -5.46348,-1.912967 -0.28614,-0.100213 -0.59094,-0.02902 -0.90878,0.198845 -0.31879,0.223219 -0.55494,0.54804 -0.7165,0.956738 -0.39861,1.008197 -0.79607,2.012169 -1.19323,3.016703 z m 2.17359,0.101076 0.74195,-1.886248 c 0.0791,-0.201049 0.32643,-0.300131 0.55303,-0.221048 l 2.77166,0.967301 c 0.22661,0.07908 0.34376,0.305377 0.26468,0.506425 l -0.0892,0.226865 c 0.006,0.0021 0.0116,0.004 0.0175,0.0061 -0.19359,0.487829 -0.38747,0.981177 -0.58125,1.472092 l -0.0155,-0.0054 -0.0734,0.186614 c -0.0791,0.201048 -0.32377,0.298982 -0.55037,0.219899 l -2.77166,-0.967301 c -0.2266,-0.07908 -0.34642,-0.304228 -0.26734,-0.505277 z"
     style="fill:#ffffff;fill-opacity:1;fill-rule:evenodd;stroke:none"
     transform="translate(24.491648,9.7871461)" /><path
     style="fill:#ffffff;fill-opacity:1;fill-rule:evenodd;stroke:none"
     d="m 359.11288,93.110323 c 0.30752,0.354812 0.65077,0.600523 1.04018,0.728013 0.38491,0.125748 0.702,0.106393 0.93842,-0.07555 1.50456,-1.156939 3.01177,-2.316905 4.51634,-3.473838 0.23465,-0.180539 0.31641,-0.468162 0.26478,-0.850083 -0.0566,-0.383587 -0.24227,-0.751552 -0.54984,-1.106313 l -2.24977,-2.595959 c -0.30487,-0.351626 -0.65251,-0.599238 -1.03745,-0.72487 -0.38946,-0.127442 -0.70653,-0.108209 -0.94115,0.07241 -1.50454,1.156922 -3.0088,2.317276 -4.51334,3.474201 -0.2364,0.181943 -0.32058,0.470929 -0.26364,0.854469 0.0521,0.381824 0.24088,0.749971 0.54572,1.101592 0.75199,0.867423 1.50052,1.731677 2.24977,2.595957 z m 1.17385,-1.735205 -1.40879,-1.619738 c -0.15015,-0.172655 -0.12075,-0.429252 0.0662,-0.573488 l 2.28645,-1.764418 c 0.18696,-0.144233 0.45829,-0.119618 0.60844,0.05303 l 0.16945,0.194775 c 0.005,-0.0038 0.01,-0.0074 0.0144,-0.01115 0.36354,0.420294 0.73207,0.843795 1.09833,1.265961 l -0.0128,0.0099 0.13938,0.16025 c 0.15014,0.172655 0.12098,0.426455 -0.066,0.570691 l -2.28645,1.764418 c -0.18695,0.144235 -0.45851,0.122437 -0.60866,-0.05021 z"
     id="path4344"
     inkscape:connector-curvature="0"
     transform="translate(24.491648,9.7871461)" /><path
     inkscape:connector-curvature="0"
     id="path4294-3"
     d="m 437.94077,69.325174 7.43969,2.372524 0.76652,-2.132634 -2.65255,-0.845901 0.27831,-0.774328 3.27916,-0.946157 0.82763,-2.302642 -3.68192,1.062832 c -0.007,-0.137313 -0.0134,-0.274875 -0.036,-0.404903 -0.12644,-0.733353 -0.46308,-1.196136 -1.02938,-1.376732 l -1.91678,-0.611272 c -0.28067,-0.08951 -0.58135,-0.0042 -0.89071,0.239149 -0.30935,0.243381 -0.53865,0.586039 -0.69149,1.011277 l -1.69247,4.708787 z m 2.16609,-1.432943 0.86417,-2.404298 1.19875,0.382282 c 0.44077,0.143547 0.34572,0.422222 0.25589,0.699564 l -0.6649,1.849887 -1.65391,-0.527435 z"
     style="fill:#ffffff;fill-opacity:1;fill-rule:evenodd;stroke:none" /><path
     inkscape:connector-curvature="0"
     id="path4244"
     d="m 406.30016,42.483184 c -11.22532,-0.04417 -22.77456,2.292434 -34.66367,7.119589 0.83955,7.97695 2.68514,15.852853 5.62125,23.355538 4.89122,12.38466 12.70748,23.62615 22.43506,32.936229 1.92393,1.84384 3.90709,3.63101 5.93865,5.36357 9.62386,-8.16198 17.89351,-17.890347 23.92821,-28.829945 2.35378,-4.298008 4.29889,-8.799355 5.87276,-13.417539 2.10619,-6.200333 3.49869,-12.6214 4.182,-19.113592 -10.78014,-4.851325 -21.87918,-7.368858 -33.31426,-7.41385 z"
     style="fill:none;stroke:#ffffff;stroke-width:0.68035102;stroke-linecap:butt;stroke-linejoin:miter;stroke-miterlimit:4.0999999;stroke-opacity:1;stroke-dasharray:none;filter:url(#filter4344)" /><path
     style="fill:#ffffff;fill-opacity:1;fill-rule:evenodd;stroke:none"
     d="m 393.12148,20.117635 c 0,2.350165 0,4.698781 0,7.047379 0.93678,-0.07072 1.86954,-0.141138 2.80626,-0.211854 0,-2.348598 0,-4.697214 0,-7.047379 -0.93672,0.07072 -1.86948,0.141133 -2.80626,0.211854 z m 3.58311,-2.338216 c 0.59075,-0.0446 1.10732,0.05997 1.53462,0.325779 0.42374,0.267634 0.65068,0.612548 0.65068,1.035452 0,2.710663 0,5.4213 0,8.131955 0,0.42291 -0.22694,0.802083 -0.65068,1.133708 -0.4273,0.330312 -0.94387,0.51289 -1.53462,0.557488 -1.4533,0.109715 -2.90659,0.219428 -4.35986,0.329141 -0.59096,0.04461 -1.10758,-0.05997 -1.53499,-0.325754 -0.42373,-0.267647 -0.65043,-0.612572 -0.65043,-1.035482 0,-2.710656 0,-5.421293 0,-8.131956 0,-0.422904 0.2267,-0.802064 0.65043,-1.133677 0.42741,-0.330329 0.94403,-0.5129 1.53499,-0.557513 1.45327,-0.109713 2.90656,-0.219426 4.35986,-0.329141 z"
     id="path4268"
     inkscape:connector-curvature="0" /><path
     style="fill:#ffffff;fill-opacity:1;fill-rule:evenodd;stroke:none"
     d="m 400.52743,28.798826 c 0,-3.728123 0,-7.456263 0,-11.184382 0.98869,0 1.97739,0 2.96609,0 0,3.038374 0,6.076734 0,9.115094 1.3676,0 2.73917,0 4.10677,0 0,0.689763 0,1.379525 0,2.069288 -2.3563,0 -4.7126,0 -7.07286,0 z"
     id="path4270"
     inkscape:connector-curvature="0" /><path
     style="fill:#ffffff;fill-opacity:1;fill-rule:evenodd;stroke:none"
     d="m 408.82704,28.798826 c 0,-3.728123 0,-7.456263 0,-11.184382 0.9887,0 1.97701,0 2.96214,0 0,3.728119 0,7.456259 0,11.184382 -0.98513,0 -1.97344,0 -2.96214,0 z"
     id="path4272"
     inkscape:connector-curvature="0" /><path
     style="fill:#ffffff;fill-opacity:1;fill-rule:evenodd;stroke:none"
     d="m 426.39418,28.5419 c 1.64651,0.27468 3.29303,0.54936 4.93955,0.824041 0,0.689763 0,1.379525 0,2.069287 -2.63523,-0.439622 -5.26648,-0.87858 -7.9017,-1.318201 0,-3.728123 0,-7.456263 0,-11.184382 2.63522,0.439621 5.26647,0.878579 7.9017,1.318202 0,0.688198 0,1.377956 0,2.067715 -1.64652,-0.274681 -3.29304,-0.549362 -4.93955,-0.824041 0,0.83021 0,1.658855 0,2.485933 1.37157,0.228812 2.73915,0.456959 4.11072,0.685771 0,0.692876 0,1.384204 0,2.077082 -1.37157,-0.228812 -2.73915,-0.456959 -4.11072,-0.685771 0,0.828645 0,1.655722 0,2.484364 z"
     id="path4276"
     inkscape:connector-curvature="0" /><path
     style="fill:#ffffff;fill-opacity:1;fill-rule:evenodd;stroke:none"
     d="m 363.98917,48.210165 c 0,-2.229021 0,-4.456465 0,-6.684065 0.40984,-0.212301 0.82623,-0.427997 1.23605,-0.64029 0.82624,-0.428003 1.23608,-0.409312 1.23608,0.04793 0,1.99961 0,3.997799 0,5.995829 -0.82294,0.426292 -1.6459,0.852598 -2.47213,1.280595 z m -2.61312,3.31627 c 1.92459,-0.996958 3.84592,-1.992237 5.7705,-2.989193 0.52133,-0.270056 0.98035,-0.645454 1.35411,-1.121878 0.37376,-0.4777 0.57704,-0.926321 0.57704,-1.327477 0,-2.169772 0,-4.339704 0,-6.509477 0,-0.808155 -0.39344,-1.252607 -1.15083,-1.359067 -0.71476,-0.09741 -1.61967,0.14335 -2.70165,0.703827 -1.28523,0.665765 -2.5672,1.329843 -3.84917,1.993921 0,3.535975 0,7.071948 0,10.609344 z"
     id="path4278"
     inkscape:connector-curvature="0" /><path
     style="fill:#ffffff;fill-opacity:1;fill-rule:evenodd;stroke:none"
     d="m 372.93537,44.036016 c 1.45246,-0.549349 2.90493,-1.098708 4.35738,-1.648057 0,0.608388 0,1.216925 0,1.825463 -2.3246,0.879217 -4.64917,1.75842 -6.97051,2.636403 0,-3.288833 0,-6.577665 0,-9.86782 2.32134,-0.877983 4.64591,-1.757186 6.97051,-2.636403 0,0.608537 0,1.216927 0,1.825464 -1.45245,0.54935 -2.90492,1.098708 -4.35738,1.648058 0,0.730949 0,1.461898 0,2.192995 1.20984,-0.457585 2.41642,-0.91394 3.62625,-1.371525 0,0.611182 0,1.221041 0,1.8309 -1.20983,0.457585 -2.41641,0.91394 -3.62625,1.371525 0,0.73095 0,1.463369 0,2.192997 z"
     id="path4280"
     inkscape:connector-curvature="0" /><path
     style="fill:#ffffff;fill-opacity:1;fill-rule:evenodd;stroke:none"
     d="m 390.27124,37.558684 c 0.46101,-0.06741 0.92202,-0.13482 1.37947,-0.201712 -0.22338,-1.408874 -0.46453,-2.815154 -0.68796,-4.224174 -0.22694,1.474876 -0.46456,2.951162 -0.69151,4.425886 z m -0.51425,1.953006 c -0.1844,0.713873 -0.38298,1.428307 -0.57093,2.141187 -0.95394,0.139489 -1.90791,0.278981 -2.86184,0.418468 0.9043,-3.515375 1.85823,-7.038007 2.76254,-10.554743 1.25185,-0.183051 2.50725,-0.366619 3.75907,-0.549664 0.89721,3.253311 1.8547,6.496449 2.7519,9.748404 -0.95395,0.139489 -1.91143,0.279495 -2.86892,0.419503 -0.18088,-0.658949 -0.37592,-1.315826 -0.55678,-1.976289 -0.80145,0.117191 -1.61003,0.235423 -2.41504,0.353134 z"
     id="path4284"
     inkscape:connector-curvature="0" /><path
     style="fill:#ffffff;fill-opacity:1;fill-rule:evenodd;stroke:none"
     d="m 408.24954,32.112217 c -0.85259,-0.01823 -1.70168,-0.03639 -2.55427,-0.05462 0,-0.608537 0,-1.216927 0,-1.825464 2.56723,0.0549 5.13444,0.1098 7.70516,0.164775 0,0.608537 0,1.216927 0,1.825464 -0.84942,-0.01816 -1.69853,-0.03632 -2.54761,-0.05448 0,2.681617 0,5.361913 0,8.042356 -0.86555,-0.01851 -1.73772,-0.03716 -2.60328,-0.05567 0,-2.680443 0,-5.360739 0,-8.042356 z"
     id="path4288"
     inkscape:connector-curvature="0" /><path
     style="fill:#ffffff;fill-opacity:1;fill-rule:evenodd;stroke:none"
     d="m 428.55865,40.963011 c 1.45248,0.383576 2.90495,0.767148 4.35744,1.150727 0,0.608388 0,1.216925 0,1.825463 -2.32467,-0.613906 -4.64585,-1.226891 -6.97052,-1.840798 0,-3.288833 0,-6.577665 0,-9.86782 2.32467,0.613907 4.64585,1.226891 6.97052,1.840798 0,0.608537 0,1.216927 0,1.825465 -1.45249,-0.383579 -2.90496,-0.767152 -4.35744,-1.150727 0,0.730948 0,1.461898 0,2.192995 1.20992,0.319519 2.41635,0.638118 3.62629,0.957642 0,0.611182 0,1.221041 0,1.8309 -1.20994,-0.319524 -2.41637,-0.638123 -3.62629,-0.957642 0,0.73095 0,1.463369 0,2.192997 z"
     id="path4292"
     inkscape:connector-curvature="0" /><path
     style="fill:#ffffff;fill-opacity:1;fill-rule:evenodd;stroke:none"
     d="m 436.28221,38.837996 c 0.004,2.196914 0.008,4.393829 0.0124,6.590895 -0.80048,-0.343499 -1.60096,-0.686999 -2.40145,-1.030498 -0.006,-3.410346 -0.0129,-6.820691 -0.0193,-10.232406 1.11046,0.476513 2.21772,0.951651 3.32818,1.428168 0.645,2.484705 1.32918,4.980587 1.97738,7.465299 -0.004,-2.20682 -0.008,-4.41379 -0.0125,-6.622133 0.79759,0.342258 1.59774,0.685616 2.39823,1.029115 0.006,3.411717 0.0129,6.822061 0.0193,10.232406 -1.10725,-0.475133 -2.21451,-0.950276 -3.32207,-1.425547 -0.64787,-2.474672 -1.33237,-4.962162 -1.98022,-7.435299 z"
     id="path4294"
     inkscape:connector-curvature="0" /><path
     style="fill:#ffffff;fill-opacity:1;fill-rule:evenodd;stroke:none"
     d="m 444.65357,40.703378 c -0.74332,-0.335605 -1.48634,-0.671063 -2.23212,-1.007774 0,-0.649043 0,-1.297929 0,-1.946971 2.24651,1.014268 4.49304,2.028541 6.73955,3.042808 0,0.649043 0,1.297928 0,1.946972 -0.74333,-0.3356 -1.48359,-0.669822 -2.22384,-1.004036 0,2.860113 0,5.718815 0,8.577676 -0.76293,-0.34445 -1.52035,-0.686411 -2.28359,-1.031 0,-2.85886 0,-5.717562 0,-8.577675 z"
     id="path4296"
     inkscape:connector-curvature="0" /><path
     sodipodi:nodetypes="ccccccccccccccccccccccccccccccc"
     inkscape:connector-curvature="0"
     id="path4302"
     d="m 416.58018,30.812859 0,0.03317 -0.12391,-0.01861 -1.90782,-0.286455 -0.26749,-0.04016 0,9.767073 0.26749,0.04016 1.89601,0.284683 0.15146,0.02274 0,-6.436591 c 0.004,-0.31443 0.0118,-1.308467 0.0118,-1.820534 l -0.0118,2.343422 2.71815,5.162889 2.65325,-4.243224 0,5.800541 0.15341,0.02303 1.87242,0.28114 0.26749,0.04016 0,-9.767073 -0.26749,-0.04016 -1.87242,-0.28114 -0.0668,-0.01004 0,-0.02732 -0.0157,0.02497 -0.0708,-0.01064 0,0.124869 -2.65325,4.243224 -2.70635,-5.157215 0,-0.01561 -0.008,-0.0011 z"
     style="fill:#ffffff;fill-opacity:1;fill-rule:evenodd;stroke:none" /><path
     inkscape:connector-curvature="0"
     id="path4278-9-5"
     d="m 379.56746,20.568686 0,11.194965 2.8821,-0.648531 0,-4.34848 0.19695,-0.04432 0.006,-0.0014 3.4399,-0.774044 c 0.5715,-0.128599 1.07347,-0.384622 1.4884,-0.777606 0.41494,-0.392986 0.63746,-0.805718 0.63746,-1.228154 l 0,-1.369299 0,-1.051719 0,-1.369297 c 0,-0.422437 -0.22252,-0.735029 -0.63746,-0.941273 -0.41494,-0.206248 -0.91691,-0.23636 -1.4884,-0.107766 l -3.4399,0.774044 -0.006,0.0014 -0.19695,0.04432 0,-0.0014 -2.8821,0.64853 z m 2.8821,1.423287 0.19695,-0.04432 0.006,-0.0014 2.68215,-0.603538 0,0.826252 0,1.051718 0,0.826253 -2.68215,0.603537 -0.006,0.0014 -0.19695,0.04432 0,-2.704224 z"
     style="fill:#ffffff;fill-opacity:1;fill-rule:evenodd;stroke:none" /><path
     inkscape:connector-curvature="0"
     id="path4287"
     d="m 415.43591,17.899224 c -0.57801,-0.05568 -1.08284,0.03709 -1.49989,0.294522 -0.41705,0.257436 -0.63505,0.596219 -0.63505,1.015824 l 0,8.087199 c 0,0.419607 0.218,0.800484 0.63505,1.140111 0.41705,0.337772 0.92188,0.525835 1.49989,0.581511 l 4.26384,0.410693 c 0.57801,0.05567 1.08487,-0.03498 1.50191,-0.292375 0.41706,-0.259286 0.63707,-0.597975 0.63707,-1.017582 l 0,-3.250488 -2.89701,-0.279039 0,2.711992 -2.74377,-0.264282 0,-7.008255 2.74377,0.264282 0,2.31007 2.89701,0.279039 0,-2.850518 c 0,-0.419605 -0.22001,-0.800576 -0.63707,-1.138353 -0.41704,-0.337775 -0.9239,-0.527983 -1.50191,-0.583658 l -4.26384,-0.410693 z"
     style="fill:#ffffff;fill-opacity:1;fill-rule:evenodd;stroke:none" /><path
     style="fill:#ffffff;fill-opacity:1;fill-rule:evenodd;stroke:none"
     d="m 378.83835,33.809829 0,10.096886 2.52878,-0.584919 0,-3.921951 0.1728,-0.03998 0.005,-0.0012 3.01819,-0.69812 c 0.50144,-0.115985 0.94187,-0.346896 1.30594,-0.701333 0.36407,-0.35444 0.55931,-0.726688 0.55931,-1.107689 l 0,-1.234989 0,-0.948559 0,-1.234987 c 0,-0.381001 -0.19524,-0.662932 -0.55931,-0.848946 -0.36407,-0.186019 -0.80451,-0.213176 -1.30594,-0.09719 l -3.01819,0.69812 -0.005,0.0012 -0.1728,0.03998 0,-0.0012 -2.52878,0.584918 z m 2.52878,1.283681 0.1728,-0.03998 0.005,-0.0012 2.35334,-0.544339 0,0.745208 0,0.948558 0,0.745208 -2.35334,0.544338 -0.005,0.0012 -0.1728,0.03998 0,-2.438975 z"
     id="path4331"
     inkscape:connector-curvature="0" /><path
     style="fill:#ffffff;fill-opacity:1;fill-rule:evenodd;stroke:none"
     d="m 397.32336,30.633558 -0.35711,10.151117 2.50235,-0.189375 0.12732,-3.619283 0.90856,-0.06876 1.97029,3.439174 2.70183,-0.204467 -2.21278,-3.861347 c 0.14462,-0.07974 0.2897,-0.158908 0.42197,-0.253563 0.74635,-0.532657 1.14217,-1.176687 1.16935,-1.949378 l 0.092,-2.615361 c 0.0135,-0.382966 -0.16564,-0.699069 -0.51612,-0.943452 -0.3505,-0.244355 -0.78363,-0.34116 -1.28258,-0.3034 l -5.52508,0.418105 z m 2.16452,1.851939 2.82111,-0.21349 -0.0575,1.635634 c -0.0243,0.602954 -0.34984,0.633836 -0.67238,0.670276 l -2.17059,0.164265 0.0794,-2.256687 z"
     id="path4334"
     inkscape:connector-curvature="0" /></g></g></g></svg>